<svg width="24" height="24" viewBox="0 0 24 24" fill="none" xmlns="http://www.w3.org/2000/svg">
<g clip-path="url(#clip0_1_5772)">
<path d="M0 12C0 16.74 2.86 20.82 6.94 22.6V1.40002C2.86 3.18002 0 7.26002 0 12Z" fill="#1D1D1B"/>
<path d="M16.2114 1.40005C14.7914 0.780054 13.2214 0.430054 11.5714 0.430054C9.92141 0.430054 8.36141 0.780054 6.94141 1.40005V22.6001C8.36141 23.2201 9.92141 23.5701 11.5714 23.5701C13.2214 23.5701 14.7914 23.2201 16.2114 22.5901V1.40005Z" fill="#FEDF00"/>
<path d="M23.1388 12C23.1388 7.27003 20.2888 3.20003 16.2188 1.41003V22.59C20.2888 20.8 23.1388 16.73 23.1388 12Z" fill="#E30613"/>
<path d="M16.2109 22.6003L16.2209 1.42029C16.2109 1.42029 16.2109 22.6003 16.2109 22.6003Z" fill="#E30613"/>
</g>
<defs>
<clipPath id="clip0_1_5772">
<rect width="23.14" height="23.14" fill="white" transform="translate(0 0.430054)"/>
</clipPath>
</defs>
</svg>
