<svg width="24" height="24" viewBox="0 0 24 24" fill="none" xmlns="http://www.w3.org/2000/svg">
<g clip-path="url(#clip0_1_5781)">
<path d="M0.660156 8.17005H22.4802C20.9002 3.67005 16.6202 0.430054 11.5702 0.430054C6.52016 0.430054 2.24016 3.67005 0.660156 8.17005Z" fill="#F1F1F1"/>
<path d="M4.45 8.17004H0.66C0.24 9.37004 0 10.65 0 12C0 13.35 0.24 14.63 0.66 15.83H22.48C22.9 14.63 23.14 13.35 23.14 12C23.14 10.65 22.9 9.37004 22.48 8.17004H4.45Z" fill="#08703B"/>
<path d="M4.45141 15.91H0.691406C2.30141 20.37 6.55141 23.57 11.5714 23.57C16.5914 23.57 20.8414 20.37 22.4514 15.91H4.45141Z" fill="#E30613"/>
<path d="M4.45016 15.8301H0.660156C0.660156 15.8301 0.680156 15.8901 0.690156 15.9201H22.4402C22.4402 15.9201 22.4602 15.8601 22.4702 15.8301H4.45016Z" fill="#E30613"/>
</g>
<defs>
<clipPath id="clip0_1_5781">
<rect width="23.14" height="23.14" fill="white" transform="translate(0 0.430054)"/>
</clipPath>
</defs>
</svg>
