<svg width="24" height="24" viewBox="0 0 24 24" fill="none" xmlns="http://www.w3.org/2000/svg">
<g clip-path="url(#clip0_1_5798)">
<path d="M0.148438 13.7898C0.608438 16.7698 2.19844 19.3798 4.46844 21.1498V13.7898H0.148438Z" fill="#C60C30"/>
<path d="M22.9798 10.17C22.0898 4.65995 17.3298 0.449951 11.5698 0.449951C10.3598 0.449951 9.18984 0.639951 8.08984 0.979951V10.16H22.9798V10.17Z" fill="#C60C30"/>
<path d="M22.9898 13.7899H8.08984V23.0599C8.92984 23.3199 9.80984 23.4799 10.7098 23.5499H12.4198C17.8198 23.1499 22.1798 19.0599 22.9798 13.7899H22.9898Z" fill="#C60C30"/>
<path d="M4.47016 2.8999C2.22016 4.6499 0.640156 7.2199 0.160156 10.1699H4.47016V2.8999Z" fill="#C60C30"/>
<path d="M22.98 10.17H8.09V0.97998C6.76 1.39998 5.55 2.05998 4.47 2.88998V10.16H0.16C0.06 10.76 0 11.38 0 12.01C0 12.64 0.06 13.2 0.15 13.78H4.47V21.14C5.54 21.98 6.76 22.63 8.09 23.05V13.78H22.99C23.08 13.2 23.14 12.62 23.14 12.01C23.14 11.38 23.08 10.76 22.98 10.16V10.17Z" fill="white"/>
</g>
<defs>
<clipPath id="clip0_1_5798">
<rect width="23.14" height="23.1" fill="white" transform="translate(0 0.449951)"/>
</clipPath>
</defs>
</svg>
