<svg width="24" height="24" viewBox="0 0 24 24" fill="none" xmlns="http://www.w3.org/2000/svg">
<g clip-path="url(#clip0_1_5790)">
<path d="M0.671875 8.14005H22.4719C20.8819 3.65005 16.6119 0.430054 11.5719 0.430054C6.53187 0.430054 2.26188 3.65005 0.671875 8.14005Z" fill="black"/>
<path d="M0 12C0 13.35 0.24 14.65 0.67 15.86H22.47C22.9 14.65 23.14 13.36 23.14 12C23.14 10.64 22.9 9.35001 22.47 8.14001H0.67C0.24 9.35001 0 10.64 0 12Z" fill="#E30613"/>
<path d="M22.4719 15.8602H0.671875C2.26188 20.3502 6.53187 23.5702 11.5719 23.5702C16.6119 23.5702 20.8819 20.3502 22.4719 15.8602Z" fill="#FFCE00"/>
</g>
<defs>
<clipPath id="clip0_1_5790">
<rect width="23.14" height="23.14" fill="white" transform="translate(0 0.430054)"/>
</clipPath>
</defs>
</svg>
