<svg width="24" height="24" viewBox="0 0 24 24" fill="none" xmlns="http://www.w3.org/2000/svg">
<g clip-path="url(#clip0_1_5840)">
<path d="M13.9727 22.8899C16.8627 22.2799 19.3527 20.5799 21.0127 18.2499L13.9727 14.3999V22.8799V22.8899Z" fill="#003E9C"/>
<path d="M2.26172 4.72002L6.90172 7.25002L9.09172 8.45002V0.27002C6.30172 0.88002 3.90172 2.50002 2.26172 4.72002Z" fill="#003E9C"/>
<path d="M0.261719 14.01C0.401719 14.68 0.601719 15.32 0.861719 15.94L4.45172 14.01H0.261719Z" fill="#003E9C"/>
<path d="M9.09062 22.87V14.52L2.14062 18.26C3.78062 20.57 6.24062 22.25 9.09062 22.88V22.87Z" fill="#003E9C"/>
<path d="M0.853438 7.24023C0.603438 7.85023 0.413438 8.48023 0.273438 9.13023H4.32344L0.853438 7.24023Z" fill="#003E9C"/>
<path d="M22.3713 15.6998C22.5813 15.1598 22.7512 14.5898 22.8812 14.0098H19.2812L22.3713 15.6998Z" fill="#003E9C"/>
<path d="M22.8833 9.13014C22.7533 8.53014 22.5733 7.95014 22.3533 7.39014L19.1133 9.13014H22.8833Z" fill="#003E9C"/>
<path d="M21.1327 5.05C19.4827 2.63 16.9427 0.88 13.9727 0.25V8.89L16.4227 7.57L21.1227 5.04L21.1327 5.05Z" fill="#003E9C"/>
<path d="M16.4213 9.83988H23.0013C22.9613 9.59988 22.9312 9.35988 22.8812 9.12988H19.1113L22.3513 7.38988C22.1813 6.94988 21.9913 6.51988 21.7713 6.09988L16.4313 8.98988L16.1613 9.12988H14.5813L16.4313 8.12988L21.3912 5.44988C21.3112 5.31988 21.2312 5.17988 21.1412 5.04988L16.4413 7.57988L13.9913 8.89988V0.249883C13.7613 0.199883 13.5212 0.169883 13.2812 0.129883V9.83988H14.8612H16.4513H16.4213Z" fill="white"/>
<path d="M9.09062 3.0599V8.4499L6.90063 7.2499L2.26062 4.7199C1.94062 5.1499 1.65062 5.5899 1.39062 6.0599L6.89062 9.0899L6.95062 9.1199H5.38063L1.06062 6.7399C0.990625 6.8999 0.910625 7.0699 0.840625 7.2299L4.31063 9.1199H0.260625C0.210625 9.3499 0.180625 9.5899 0.140625 9.8299H9.80062V0.149902C9.56063 0.189902 9.32062 0.219902 9.09062 0.269902V3.0499V3.0599Z" fill="white"/>
<path d="M5.78063 13.2998H0.140625C0.180625 13.5398 0.210625 13.7798 0.260625 14.0098H4.45062L0.860625 15.9398C1.02062 16.3298 1.19062 16.7098 1.39062 17.0698L6.93062 14.0098H8.50062L1.77062 17.6998C1.89062 17.8898 2.01063 18.0698 2.13063 18.2498L9.08062 14.5098V22.8598C9.31062 22.9098 9.55062 22.9498 9.79062 22.9798V13.2898H5.77063L5.78063 13.2998Z" fill="white"/>
<path d="M16.74 13.2998H13.25V23.0098C13.49 22.9798 13.73 22.9398 13.96 22.8898V14.4098L21 18.2598C21.31 17.8298 21.58 17.3798 21.83 16.9098L16.48 14.0198H18.06L22.16 16.2398C22.24 16.0698 22.3 15.8898 22.37 15.7098L19.28 14.0198H22.88C22.93 13.7898 22.96 13.5498 23 13.3098H16.74V13.2998Z" fill="white"/>
<path d="M1.39062 17.0698C1.51062 17.2898 1.64062 17.4898 1.77062 17.6998L8.50063 14.0098H6.93062L1.39062 17.0698Z" fill="#E30613"/>
<path d="M16.4186 8.9802L21.7586 6.0902C21.6386 5.8702 21.5086 5.6602 21.3686 5.4502L16.4086 8.1302L14.5586 9.1302H16.1386L16.4086 8.9902L16.4186 8.9802Z" fill="#E30613"/>
<path d="M6.89859 9.13006H6.95859L6.89859 9.10006L1.38859 6.06006C1.26859 6.28006 1.16859 6.51006 1.05859 6.74006L5.37859 9.13006H6.88859H6.89859Z" fill="#E30613"/>
<path d="M16.4905 14.0098L21.8405 16.8998C21.9505 16.6798 22.0605 16.4598 22.1605 16.2298L18.0605 14.0098H16.4805H16.4905Z" fill="#E30613"/>
<path d="M23 9.84H13.26V0.14C12.71 0.06 12.15 0 11.57 0C10.97 0 10.38 0.06 9.8 0.15V9.84H0.14C0.06 10.4 0 10.98 0 11.57C0 12.16 0.06 12.73 0.14 13.3H9.8V22.99C10.38 23.08 10.97 23.14 11.57 23.14C12.17 23.14 12.7 23.08 13.26 23V13.29H23C23.08 12.73 23.14 12.15 23.14 11.56C23.14 10.97 23.08 10.4 23 9.83V9.84Z" fill="#E30613"/>
</g>
<defs>
<clipPath id="clip0_1_5840">
<rect width="23.14" height="23.14" fill="white"/>
</clipPath>
</defs>
</svg>
