<svg width="24" height="24" viewBox="0 0 24 24" fill="none" xmlns="http://www.w3.org/2000/svg">
<g clip-path="url(#clip0_1_5808)">
<path d="M18.3097 8.14995H22.4597C20.8697 3.66995 16.5997 0.449951 11.5697 0.449951C6.53969 0.449951 2.26969 3.66995 0.679688 8.14995H18.3097Z" fill="#0072CE"/>
<path d="M0.65 15.8099H22.5C22.91 14.6199 23.15 13.3499 23.15 12.0299C23.15 10.7099 22.9 9.36991 22.47 8.15991H0.68C0.25 9.36991 0 10.6699 0 12.0299C0 13.3899 0.23 14.6299 0.65 15.8099Z" fill="#1D1D1B"/>
<path d="M22.4597 15.8899H0.679688C2.17969 20.1199 6.05969 23.1999 10.7197 23.5499H12.4297C17.0797 23.2099 20.9597 20.1199 22.4697 15.8899H22.4597Z" fill="#F1F1F1"/>
<path d="M4.06844 15.8098H0.648438C0.648438 15.8098 0.668438 15.8698 0.678438 15.8998H22.4684C22.4684 15.8998 22.4884 15.8398 22.4984 15.8098H4.06844Z" fill="white"/>
</g>
<defs>
<clipPath id="clip0_1_5808">
<rect width="23.14" height="23.1" fill="white" transform="translate(0 0.449951)"/>
</clipPath>
</defs>
</svg>
