<svg width="24" height="24" viewBox="0 0 24 24" fill="none" xmlns="http://www.w3.org/2000/svg">
<g clip-path="url(#clip0_1_5865)">
<path d="M7.71 22.4699V0.669922C3.22 2.25992 0 6.52992 0 11.5699C0 16.6099 3.22 20.8799 7.71 22.4699Z" fill="#002B90"/>
<path d="M15.4309 0.67C14.2209 0.24 12.9309 0 11.5709 0C10.2109 0 8.92094 0.24 7.71094 0.67V22.47C8.92094 22.9 10.2109 23.14 11.5709 23.14C12.9309 23.14 14.2209 22.9 15.4309 22.47V0.67Z" fill="white"/>
<path d="M15.4297 0.669922V22.4699C19.9197 20.8799 23.1397 16.6099 23.1397 11.5699C23.1397 6.52992 19.9197 2.25992 15.4297 0.669922Z" fill="#E30613"/>
</g>
<defs>
<clipPath id="clip0_1_5865">
<rect width="23.14" height="23.14" fill="white"/>
</clipPath>
</defs>
</svg>
