<svg width="24" height="24" viewBox="0 0 24 24" fill="none" xmlns="http://www.w3.org/2000/svg">
<g clip-path="url(#clip0_1_5817)">
<path d="M0.078125 13.2898C0.178125 14.1798 0.388125 15.0398 0.678125 15.8598H22.4781C22.7681 15.0398 22.9781 14.1798 23.0781 13.2898H0.078125Z" fill="white"/>
<path d="M4.30922 20.9999H18.8392C19.7492 20.2699 20.5392 19.3999 21.1892 18.4299H1.94922C2.59922 19.3999 3.39922 20.2699 4.29922 20.9999H4.30922Z" fill="white"/>
<path d="M12.8398 5.57H21.1898C20.5398 4.6 19.7398 3.73 18.8398 3H12.8398V5.57Z" fill="white"/>
<path d="M12.8398 10.7099H23.0698C22.9698 9.81989 22.7598 8.95989 22.4698 8.13989H12.8398V10.7099Z" fill="white"/>
<path d="M18.8392 2.99993C17.1592 1.64993 15.0992 0.749932 12.8392 0.499932C12.4192 0.449932 11.9992 0.429932 11.5792 0.429932C10.2092 0.429932 8.90922 0.679932 7.69922 1.10993V5.56993H12.8392V2.99993H18.8392Z" fill="#0D5EAF"/>
<path d="M23.07 10.7098H12.84V8.13982H22.47C22.15 7.22982 21.72 6.35982 21.19 5.56982H12.84V8.13982H7.7V13.2798H5.13V8.13982H0.68C0.39 8.95982 0.18 9.81982 0.08 10.7098C0.03 11.1298 0 11.5598 0 11.9998C0 12.4398 0.03 12.8598 0.08 13.2898H23.07C23.12 12.8698 23.15 12.4398 23.15 11.9998C23.15 11.5598 23.12 11.1398 23.07 10.7098Z" fill="#0D5EAF"/>
<path d="M1.95187 18.4301H21.1919C21.7219 17.6401 22.1419 16.7701 22.4719 15.8601H0.671875C0.991875 16.7701 1.42188 17.6401 1.95187 18.4301Z" fill="#0D5EAF"/>
<path d="M11.5686 23.5698C14.3186 23.5698 16.8486 22.5998 18.8286 20.9998H4.30859C6.29859 22.6098 8.81859 23.5698 11.5686 23.5698Z" fill="#0D5EAF"/>
<path d="M5.13094 2.99989V2.38989C4.85094 2.57989 4.57094 2.78989 4.31094 2.99989C3.40094 3.72989 2.61094 4.59989 1.96094 5.56989H5.14094V2.99989H5.13094Z" fill="#0D5EAF"/>
<path d="M5.13188 5.57007H1.95187C1.42188 6.36007 1.00188 7.23007 0.671875 8.14007H5.12187V5.57007H5.13188Z" fill="white"/>
<path d="M12.8392 5.57007H7.69922V8.14007H12.8392V5.57007Z" fill="white"/>
<path d="M7.69891 8.13989H5.12891V10.7099H7.69891V8.13989Z" fill="white"/>
<path d="M7.69891 2.99976H5.12891V5.56976H7.69891V2.99976Z" fill="white"/>
<path d="M7.69891 3.00011V1.11011C6.78891 1.44011 5.91891 1.86011 5.12891 2.39011V3.00011H7.69891Z" fill="white"/>
<path d="M7.69891 10.7097H5.12891V13.2797H7.69891V10.7097Z" fill="white"/>
<path d="M7.69891 5.57007H5.12891V8.14007H7.69891V5.57007Z" fill="white"/>
</g>
<defs>
<clipPath id="clip0_1_5817">
<rect width="23.14" height="23.14" fill="white" transform="translate(0 0.429932)"/>
</clipPath>
</defs>
</svg>
