<svg width="543" height="528" viewBox="0 0 543 528" fill="none" xmlns="http://www.w3.org/2000/svg">
<g clip-path="url(#clip0_1_8007)">
<path d="M324.022 178.373C326.14 177.491 326.581 175.714 327.083 173.888C327.303 174.868 327.548 175.849 327.915 176.805C328.466 178.239 330.265 178.349 329.739 180.445C329.494 181.388 329.212 182.626 329.078 183.864C329.837 184.33 330.473 184.416 330.926 182.835C331.795 179.783 335.443 178.435 335.235 174.868C335.088 172.503 335.418 171.057 337.279 169.549C339.923 167.404 344.219 166.326 344.011 162.097C343.888 159.524 342.799 157.109 342.677 154.548C342.591 152.734 342.848 150.54 344.256 149.204C346.251 147.304 345.296 145.417 343.276 144.093C342.738 143.738 341.869 143.321 341.514 142.733C340.4 140.87 341.575 137.83 342.065 135.918C342.983 132.327 344.06 128.798 344.635 125.133C345.223 121.444 344.17 111.995 348.993 110.401C351.551 109.568 354.856 111.308 357.096 109.58C361.123 106.48 356.753 103.575 356.961 100.204C357.083 98.2925 358.564 96.4541 359.764 95.0814C360.743 93.9539 362.469 92.5076 362.836 91.0492C363.228 89.4927 363.314 87.8504 363.375 86.2571C363.485 83.7936 363.681 82.0533 365.627 80.3742C367.133 79.0751 368.724 77.8617 370.254 76.5993C371.38 75.6679 374.134 74.1972 374.734 72.8612C375.615 70.9003 374.807 68.204 375.517 66.0592C376.019 64.5394 376.643 63.0687 377.573 61.7695C379.642 58.8894 382.384 56.8671 384.746 54.2934C385.407 53.5825 386.937 49.8935 388.541 50.6533C389.606 51.1558 388.81 49.44 389.018 48.6679C389.153 48.1776 389.691 47.7119 390.169 47.5893C390.854 47.4055 391.368 47.8467 391.772 48.3247C392.996 49.7464 394.722 51.2416 395.787 48.7169C396.778 46.3637 396.472 43.8145 397.292 41.4491C397.758 40.1131 398.529 39.1817 399.924 40.0396C400.01 40.0886 400.083 40.1622 400.169 40.2234C400.267 37.7845 400.548 34.4631 402.005 34.1812C404.355 33.7278 405.763 38.0419 406.815 39.4758C408.419 41.6574 410.622 42.6256 412.372 44.5253C415.359 47.7732 416.999 43.8267 418.909 42.4908C420.341 41.4858 422.03 41.4123 423.205 42.3928C423.67 37.6374 423.376 32.4776 426.192 28.4332C427.256 26.9134 428.86 25.8839 430.488 25.0627C432.581 24.0087 433.279 25.553 435.494 25.6143C436.987 25.651 437.722 26.2271 437.979 27.7468C438.505 30.7741 439.386 33.2007 442.569 34.2425C442.801 34.316 443.022 34.3896 443.254 34.4509C442.373 32.5144 444.699 30.9334 444.319 28.9111C444.319 28.8989 444.319 28.8866 444.319 28.8744C444.417 28.5925 444.417 28.3106 444.27 28.0655C444.136 27.8326 443.928 27.563 443.658 27.4772C442.312 27.0482 442.067 26.3741 441.7 25.0382C441.602 24.6828 441.235 24.3274 440.941 24.1313C440.574 23.8739 440.194 23.641 439.79 23.445C437.954 22.44 443.083 22.6115 442.153 22.4032C443.707 22.7464 444.944 23.445 446.339 22.3664C448.481 20.7241 445.225 16.7777 443.83 15.7482C442.997 15.1354 438.664 17.2311 439.815 15.1476C440.329 14.2162 439.264 13.9956 439.068 13.2602C439.007 13.0151 438.75 12.819 438.493 12.819C437.342 12.8557 436.326 13.1867 435.225 13.3092C436.033 10.7845 431.088 8.43132 429.117 11.2747C428.75 11.8017 428.958 12.5861 429.117 13.1254C429.215 13.444 430.72 16.3242 430.622 16.3242C428.958 16.2997 428.431 17.366 428.077 18.6283C427.93 15.6624 427.611 11.4218 425.677 12.917C424.453 13.8607 424.025 16.2507 423.609 17.6356C422.752 20.5035 422.348 23.2856 420.549 25.7859C420.096 26.4232 419.937 22.9915 419.937 22.9915C420.01 21.8026 420.328 20.6628 420.671 19.5353C421.21 17.7459 422.201 16.1281 423.156 14.5348C423.866 13.3582 424.539 11.2257 422.74 10.809C422.152 10.6742 421.552 11.2747 421.161 11.6056C419.619 12.8925 418.137 13.9343 416.412 14.976C415.053 15.8094 413.731 16.7654 412.519 17.8072C410.708 19.3514 411.699 22.6973 408.443 22.8321C405.812 22.9425 404.159 22.5135 401.76 23.9597C400.377 24.7931 400.646 26.2026 401.907 26.8889C401.98 27.4282 402.042 27.9674 402.115 28.4944C401.919 28.3351 401.723 28.1758 401.527 28.0287C401.295 27.8939 400.964 27.8326 400.695 27.8326C398.21 27.8326 396.986 30.8966 394.122 28.3106C393.29 27.563 390.964 26.0677 390.107 27.6365C389.679 28.4086 389.569 29.2421 389.397 30.1122C388.957 32.3796 386.252 32.7228 384.44 33.2375C383.583 33.4826 383.13 33.8258 382.751 34.6347C382.041 36.1912 380.609 36.8898 379.691 38.2502C378.442 40.1009 383.547 43.8635 380.168 44.7827C378.92 45.1259 376.863 45.8122 377.182 47.5648C377.292 48.1776 377.573 48.6311 377.941 49.1458C378.357 49.7341 376.337 50.7146 376.129 51.2294C375.945 51.6706 375.835 51.9402 376.031 52.3937C376.668 53.8154 375.187 54.2566 374.244 55.1268C374.293 54.6365 374.097 53.5825 373.938 53.3251C373.669 52.8594 372.873 52.4059 372.322 52.4059C371.833 52.4059 371.331 52.6388 371.062 53.0555C370.168 54.4159 369.948 55.6538 368.565 56.6955C367.745 57.3206 367.39 57.9947 367.194 58.9752C366.851 60.7155 367.047 62.0392 365.541 63.3138C364.158 64.4781 363.363 66.2185 362.102 67.4809C360.706 68.878 359.409 70.3365 358.246 71.9298C357.01 73.6089 355.871 75.2267 354.427 76.7342C354.035 77.1509 353.852 77.7882 353.925 78.3397C354.207 80.4355 352.665 81.8694 351.967 83.6343C351.159 85.6811 349.776 87.2253 348.87 89.2108C348.123 90.8408 348.136 92.6302 346.753 93.9539C345.639 95.0201 344.109 95.78 342.885 96.7482C341.391 97.9371 340.131 99.4446 338.858 100.866C337.291 102.619 335.443 104.114 333.79 105.793C332.664 106.945 331.66 108.269 330.706 109.568C329.726 110.892 329.347 114.152 328.184 114.997C326.262 116.419 323.398 114.458 322.431 117.326C321.66 119.581 316.654 122.425 314.34 121.518C313.312 121.113 309.763 119.814 309.212 121.775C309.053 122.327 309.114 122.805 309.371 123.332C309.591 123.773 309.824 124.202 310.056 124.631C310.534 125.55 310.032 124.962 309.518 124.888C307.804 124.655 306.703 125.672 305.062 126.126C302.933 126.702 301.855 126.579 300.007 127.94C297.608 129.717 295.87 130.342 294.683 133.149C293.312 136.396 290.827 137.941 291.916 141.716C292.394 143.37 290.068 144.204 289.627 145.466C289.089 147.01 289.285 148.395 289.591 149.976C289.836 151.275 290.093 151.949 289.028 153.457C288.722 153.886 288.477 154.217 288.477 154.781C288.477 156.214 290.178 156.668 290.594 157.906C290.913 158.874 291.219 161.215 292.859 160.345C293.875 159.793 294.621 158.899 295.393 158.041C295.809 157.587 296.225 157.158 296.666 156.741C297.804 156.852 298.012 157.219 297.302 157.832C296.727 158.31 296.115 158.715 295.442 159.046C294.487 159.573 293.948 160.369 293.471 161.325C292.333 163.605 291.109 164.156 288.783 165.198C287.865 165.603 283.985 167.87 285.503 169.39C287.155 171.044 290.399 169.721 292.271 169.243C294.291 168.728 294.009 171.081 292.945 172.111C292.173 172.858 291.402 173.557 290.668 174.353C289.089 176.057 287.314 177.589 285.539 179.084C285.282 179.305 285.331 179.709 285.539 179.93C286.824 181.29 287.241 183.214 288.428 184.697C289.579 186.144 290.864 187.271 292.418 188.264C295.686 190.384 299.701 191.132 303.52 191.352C307.033 191.561 310.093 189.637 312.541 187.308C314.806 185.151 317.768 183.533 318.82 180.494C319.628 180.874 320.485 181.327 321.391 181.07C322.896 180.653 322.603 178.913 324.035 178.312L324.022 178.373Z" fill="#FF7141"/>
<path d="M469.375 123.319C467.111 121.787 466.07 119.14 463.879 117.62C461.529 116.002 459.815 114.507 461.627 111.161C462.104 110.291 462.312 109.482 462.361 108.489C462.508 105.94 458.604 105.548 457.857 103.673C457.367 102.435 458.359 99.9348 456.498 99.371C456.119 99.2362 455.727 99.1381 455.336 99.0646C454.699 98.9175 455.287 97.0669 455.409 96.5521C455.605 95.7065 454.956 94.5544 454.711 93.77C454.148 92.0664 452.435 90.1422 453.585 88.2058C454.063 87.4091 454.846 86.7963 455.201 85.9139C455.899 84.1858 455.152 82.9112 453.989 81.5875C453.157 80.6315 452.178 79.9084 451.406 78.8912C450.305 77.4572 449.827 75.4595 449.166 73.7927C447.636 70.0056 446.449 67.297 447.71 63.1667C449.007 58.9016 450.562 54.7713 445.678 52.6143C444.625 52.1485 444.172 51.0823 443.218 50.5062C441.455 49.4277 440.88 48.6801 441.149 46.4985C441.296 45.2729 441.125 44.4518 440.77 43.2629C440.084 40.9956 440.917 39.6719 442.63 38.2747C443.475 37.5884 443.964 36.7672 443.879 35.8848C442.997 35.6274 442.116 35.3455 441.284 34.9778C438.603 33.7645 437.489 31.5584 437 28.7273C436.718 27.1217 435.678 27.1585 434.515 26.6928C433.878 26.4354 432.14 25.6755 431.663 25.8716C429.166 26.8766 426.877 28.7273 425.984 31.3623C424.613 35.4681 424.833 39.8435 424.245 44.0841C424.172 44.5866 423.364 44.6724 423.156 44.2311C421.259 40.1499 417.293 46.6333 415.114 47.3197C413.205 47.9202 411.589 45.0768 410.365 44.2802C407.917 42.6869 406.289 40.9833 404.747 38.4708C404.22 37.6252 403.719 36.2402 402.96 35.5907C402.225 36.0074 401.858 36.6202 401.846 37.4045C401.638 38.8262 401.54 40.2602 401.417 41.6942C401.723 42.2334 402.017 42.7972 402.348 43.2384C403.4 44.6724 404.575 45.5548 405.359 47.1358C406.375 49.1948 408.774 49.4277 410.5 50.5798C411.699 51.3642 413.364 52.1485 414.368 53.178C416.363 55.2371 414.918 58.9016 414.918 61.4876C414.918 65.5811 417.415 68.5471 417.024 72.7387C416.816 75.006 416.485 77.6288 417.648 79.7001C418.541 81.2934 419.545 82.9112 420.145 84.6393C420.843 86.637 420.879 88.2425 420.72 90.3261C420.843 90.3996 420.965 90.4731 421.087 90.5589C423.168 91.8948 425.127 91.6497 426.13 94.5421C426.84 96.5766 425.237 99.2362 424.625 101.124C423.952 103.183 423.756 104.911 422.483 106.798C421.051 108.931 419.153 110.769 417.403 112.632C411.467 118.968 406.95 125.93 402.739 133.492C402.005 134.815 400.72 136.519 401.43 138.137C401.846 139.081 402.47 139.755 403.058 140.613C404.171 142.23 404.453 144.498 404.771 146.385C405.812 152.452 404.845 159.095 407.427 164.83C408.088 166.301 409.79 167.992 411.393 168.372C412.336 168.605 413.168 168.667 414.147 168.63C416.914 168.544 416.375 170.946 416.693 172.417C417.709 177.086 425.2 171.816 426.791 171.204C429.766 170.076 432.618 168.777 435.666 167.833C438.052 167.098 440.133 165.014 442.177 163.654C443.414 162.833 445.396 161.73 446.902 162.428C447.514 162.71 447.93 163.102 448.677 162.82C450.403 162.159 451.272 161.288 451.492 159.45C451.847 156.435 455.152 153.874 457.172 151.827C459.118 149.854 460.844 147.697 462.386 145.405C466.046 139.951 467.551 133.32 470.293 127.425C470.403 127.192 470.354 126.972 470.232 126.8C470.318 126.702 470.379 126.579 470.379 126.42C470.379 125.268 470.477 123.993 469.4 123.27L469.375 123.319Z" fill="#FF7141"/>
<path d="M402.764 108.661C402.433 107.938 402.25 107.558 401.772 106.957C400.475 105.291 402.482 103.391 403.204 102.116C405.138 98.6969 405.016 94.4441 407.452 91.3065C408.688 89.7255 411.197 89.1985 413.033 88.7328C415.567 88.0709 417.55 88.6347 419.582 89.75C419.655 89.1005 419.716 88.4631 419.643 87.8136C419.276 84.529 417.036 82.4087 416.142 79.4059C415.579 77.5185 415.53 75.6556 415.714 73.6946C415.861 72.1626 416.106 70.2017 415.579 68.7309C415.2 67.6402 414.502 66.7822 414.172 65.6792C413.682 64.0491 413.609 62.3578 413.719 60.6542C413.89 58.0314 414.869 54.7713 412.042 53.1658C409.998 52.0015 408.235 50.7759 406.007 49.9057C404.184 49.1826 404.514 47.2829 403.143 46.0328C402.446 45.3832 401.797 44.6846 401.27 43.8757C401.27 43.8757 401.05 43.5326 400.756 43.1036C400.426 43.1526 400.071 42.981 400.108 42.5521C400.108 42.4785 400.12 42.3927 400.132 42.2947C399.459 41.4981 398.712 40.873 398.492 41.7799C397.88 44.2557 398.088 47.0133 396.864 49.3297C395.934 51.1068 394.232 52.2956 392.323 51.0332C391.784 50.6778 390.303 47.9938 390.218 49.9425C390.169 50.972 389.912 51.3887 389.079 51.9892C388.847 52.1485 388.553 52.0505 388.357 51.8912C388.626 52.1118 380.303 60.2375 379.654 61.0587C377.806 63.3873 376.239 66.243 376.19 69.307C376.178 70.4713 376.521 71.893 376.019 73.0083C375.639 73.8417 375.064 74.4055 374.33 74.957C372.42 76.3787 370.597 77.923 368.76 79.4427C367.316 80.6315 365.052 81.8204 364.77 83.8426C364.55 85.4849 364.574 87.164 364.44 88.8063C364.17 91.76 363.044 93.194 361.159 95.351C359.85 96.834 357.096 99.8122 358.491 101.982C359.299 103.244 359.764 104.188 360.021 105.683C360.4 107.95 359.042 109.911 357.132 110.941C354.452 112.399 349.69 109.666 348.013 112.779C345.945 116.603 346.459 121.273 345.822 125.452C345.125 130.036 343.607 134.436 342.677 138.97C342.065 141.961 343.558 142.561 345.382 144.056C346.336 144.841 346.814 145.478 346.985 146.704C347.12 147.574 346.679 148.603 346.043 149.192C344.464 150.65 343.644 152.354 343.901 154.548C344.219 157.293 345.602 160.185 345.186 162.98C344.733 166.056 342.579 167.698 340.045 169.206C337.719 170.579 336.348 172 336.446 174.868C336.483 176.008 336.263 177.197 335.675 178.202C334.659 179.93 332.664 181.217 332.101 183.165C331.917 183.803 331.685 184.918 331.048 185.298C330.583 185.58 330.192 185.825 329.653 185.58C329.494 185.506 329.286 185.372 329.029 185.212C329.029 185.457 329.029 185.69 329.065 185.923C328.784 186.07 328.613 186.389 328.821 186.732C330.045 188.766 328.919 191.536 330.963 193.105C333.435 194.993 334.072 196.672 332.591 199.589C332.04 200.667 331.856 201.574 332.089 202.775C332.419 204.454 333.962 205.006 333.864 206.967C333.778 208.56 333.998 209.994 334.463 211.526C335.577 215.19 341.073 219.48 336.348 222.52C334.72 223.561 336.459 226.65 336.789 227.9C337.23 229.604 338.001 230.952 338.919 232.422C340.73 235.29 337.377 235.474 337.94 237.521C338.466 239.421 342.921 239.261 344.378 239.225C345.32 239.2 349.849 239.739 349.825 237.766C349.825 237.018 349.519 236.393 349.213 235.719C347.756 232.533 351 229.224 354.011 229.138C355.884 229.089 357.805 229.162 359.69 229.187C360.89 229.187 362.371 229.689 363.534 229.162C364.17 228.868 364.77 228.464 365.015 227.777C365.762 225.682 365.921 223.574 366.827 221.466C368.381 217.862 369.813 215.08 370.07 211.121C370.205 209.062 370.119 207.016 370.082 204.957C370.058 202.959 370.805 200.716 371.196 198.767C371.392 197.775 371.233 196.647 371.233 195.63C371.233 193.215 372.726 194.576 373.767 193.902C374.685 193.301 374.868 192.811 375.076 191.72C375.554 189.257 377.684 189.244 379.581 188.877C380.682 188.656 381.662 187.676 382.445 186.965C383.449 186.058 385.603 184.599 386.166 183.386C386.423 182.847 386.472 182.687 386.215 182.148C385.97 181.633 383.118 179.93 385.077 179.856C386.607 179.795 388.59 178.974 388.014 177.037C387.488 175.236 388.443 173.9 388.394 172.184C388.357 171.13 387.402 169.941 386.937 169.071C386.178 167.674 384.967 166.718 384.232 165.272C383.779 164.352 382.212 164.083 381.356 163.936C378.381 163.384 377.586 161.889 377.341 159.033C377.182 157.219 377.304 155.369 377.476 153.555C377.916 148.603 378.981 142.635 381.221 138.186C383.069 134.509 386.374 131.322 389.177 128.369C392.188 125.194 395.432 122.253 398.602 119.226C400.389 117.522 402.666 115.402 402.996 112.791C403.168 111.468 403.315 110.009 402.752 108.759L402.764 108.661Z" fill="#FF7141"/>
<path d="M338.931 492.569C333.35 494.223 328.197 492.532 322.64 492.017C319.298 491.711 316.838 492.25 313.79 490.412C312.346 489.542 311.048 490.154 309.824 491.098C307.156 493.145 309.078 496.233 310.901 498.023C312.639 499.726 314.83 500.707 316.96 501.785C319.996 503.33 322.579 505.842 325.21 507.962C327.67 509.948 330.253 514.483 333.864 513.588C336.496 512.938 336.765 513.257 338.515 511.149C339.605 509.825 339.923 508.734 339.543 507.055C339.531 506.994 339.507 506.957 339.482 506.908C339.556 506.749 339.58 506.565 339.482 506.381C338.062 503.354 338.197 500.719 340.792 498.354C342.224 497.054 343.546 495.988 343.925 494.015C344.501 491.037 340.315 492.177 338.931 492.581V492.569Z" fill="#FF7141"/>
<path d="M282.455 441.093C281.17 439.807 278.367 439.782 276.714 439.929C274.768 440.101 273.397 441.694 272.234 443.091C271.072 444.513 269.284 446.265 267.62 444.182C267.057 443.483 266.738 443.116 265.931 442.809C264.731 442.368 263.764 444.758 263.323 445.371C263.164 445.579 263.238 445.922 263.421 446.094C265.869 448.496 265.759 453.215 265.637 456.389C265.576 457.97 265.527 459.539 265.576 461.12C265.625 463.032 264.241 464.478 263.801 466.255C263.042 469.27 265.845 473.707 269.101 473.143C269.382 473.094 269.505 472.812 269.541 472.567C270.215 467.26 273.324 469.969 276.017 471.145C276.518 471.366 276.959 470.9 276.922 470.508C276.984 470.447 277.032 470.361 277.069 470.263C277.13 470.091 277.192 469.907 277.241 469.736C277.277 469.625 277.277 469.515 277.241 469.429C277.853 467.064 279.285 465.213 280.656 463.179C282.039 461.108 282.553 458.987 282.675 456.524C282.834 453.166 282.088 449.832 282.21 446.474C282.259 444.991 283.777 442.405 282.467 441.093H282.455Z" fill="#FF7141"/>
<path d="M281.952 414.927C281.12 415.527 280.973 416.226 280.79 417.231C280.508 418.812 278.121 418.567 276.86 419.327C274.461 420.748 270.483 420.467 271.316 424.401C271.781 426.619 272.54 428.666 272.858 430.933C273.042 432.196 273.494 433.384 273.984 434.561C274.327 435.394 274.963 437.061 275.979 437.453C276.212 437.735 276.689 437.723 276.922 437.404C277.13 437.282 277.215 437.061 277.179 436.841C278.709 433.274 282.601 431.325 283.127 427.183C283.238 426.3 283.03 425.271 282.981 424.389C282.895 422.918 283.299 421.41 283.507 419.976C283.764 418.211 283.593 416.716 282.748 415.16C282.601 414.89 282.185 414.755 281.928 414.939L281.952 414.927Z" fill="#FF7141"/>
<path d="M191.768 237.006C190.826 236.418 190.018 235.597 189.075 234.996C188.586 234.69 187.986 234.518 187.447 234.347C185.868 233.844 185.758 232.839 185.171 231.638C184.938 231.16 184.216 231.307 184.081 231.785C183.567 233.587 183.102 235.021 182.037 236.565C181.034 238.011 180.054 239.494 179.051 240.965C178.843 241.259 179.051 241.786 179.406 241.835C181.217 242.141 184.485 241.627 183.947 244.58C183.322 247.975 180.385 249.25 177.313 249.593C175.636 249.789 172.343 249.238 171.303 251.076C170.25 252.939 171.902 255.108 173.151 256.493C174.069 257.498 175.66 257.89 176.86 258.43C178.341 259.104 178.598 261.187 179.589 262.388C181.45 264.656 186.101 264.043 188.561 263.982C190.471 263.933 188.023 265.673 188.084 265.612C186.542 266.886 185.232 267.867 183.102 267.095C181.719 266.592 179.724 264.962 178.169 265.109C175.097 265.416 171.327 265.796 168.818 267.806C167.129 269.154 165.721 270.747 164.215 272.291C163.212 273.321 161.4 273.309 160.091 273.541C158.536 273.823 157.545 274.693 155.855 274.571C155.403 274.534 155.109 275.098 155.341 275.466C156.418 277.206 158.071 279.767 160.262 280.135C160.862 280.233 161.339 279.645 161.718 279.277C163.42 277.647 164.901 276.078 167.361 278.162C168.94 279.498 172.257 281.41 174.461 280.87C177.582 280.111 177.08 276.336 179.956 275.196C180.005 275.208 180.042 275.233 180.091 275.233C182.098 275.343 185.55 274.816 186.003 277.868C186.089 278.444 186.285 279.179 186.835 279.498C187.337 279.792 187.827 279.62 188.329 279.461C189.993 278.922 191.046 278.811 192.674 279.461C194.841 280.319 195.599 280.111 197.435 278.885C198.61 278.101 204.29 282.206 205.073 282.574C206.824 283.395 209.639 283.285 211.524 283.518C213.36 283.738 216.946 284.952 218.611 283.481C220.141 282.133 221.304 280.858 223.568 281.116C224.009 281.165 224.609 280.944 224.927 280.625C225.466 280.086 225.857 279.191 225.698 278.444C225.735 278.395 225.772 278.358 225.796 278.297C226.359 276.863 225.257 276.471 223.997 276.446C223.189 276.434 222.822 276.458 221.916 276.287C218.354 275.6 221.487 272.61 222.65 271.911C224.376 270.882 226.384 268.933 228.269 268.418C230.79 267.732 231.439 265.783 232.173 263.455C232.895 261.151 235.282 257.461 232.92 255.243C231.145 253.576 228.562 252.473 226.151 252.191C224.927 252.044 223.862 252.78 222.895 253.392C220.692 254.79 222.259 249.336 221.965 249.679C222.418 248.858 223.177 248.11 223.691 247.326C225.429 244.691 222.528 241.909 222.454 239.298C222.381 236.369 225.013 232.165 222.381 229.567C221.132 228.341 220.484 227.287 219.688 225.669C218.709 223.659 216.432 223.194 217.081 220.313C217.889 216.747 217.46 212.506 217.154 208.866C216.959 206.525 214.963 204.54 213.152 203.253C211.744 202.26 209.859 201.807 208.317 201.121C207.485 200.753 206.665 200.324 205.832 199.907C205.575 199.772 203.8 198.535 204.045 198.51C205.404 198.387 206.897 198.927 208.317 198.841C209.639 198.767 210.924 198.277 212.038 197.579C212.295 197.419 212.613 196.917 212.479 196.586C211.83 194.944 212.442 194.993 214.021 194.6C216.702 193.926 219.247 191.781 220.802 189.575C221.904 188.019 222.283 186.266 223.654 184.845C224.229 184.256 225.563 183.435 225.563 182.467C225.563 180.187 221.512 178.704 219.713 178.226C217.424 177.626 215 177.687 212.699 177.16C211.83 176.964 210.949 176.805 210.067 176.633C209.859 176.584 206.799 176.952 208.219 175.407C209.076 174.488 210.116 174.047 210.851 173.03C211.01 172.797 211.034 172.466 211.071 172.184C211.279 170.64 214.425 170.37 215.526 170.101C216.836 169.782 218.746 169.218 219.737 168.225C220.778 167.184 220.545 165.823 220.839 164.512C220.9 164.218 220.753 163.838 220.423 163.776C218.464 163.458 216.665 164.267 214.645 163.911C211.965 163.433 209.602 161.509 207.46 160.002C205.844 158.862 204.62 161.141 204.143 162.281C203.237 164.451 202.429 165.051 200.532 166.571C199.529 167.367 198.353 167.931 197.068 167.882C196.799 167.87 196.505 168.091 196.322 168.262C195.648 168.936 196.016 170.186 196.248 170.934C196.909 173.017 194.192 174.549 193.727 176.547C193.053 179.464 192.233 180.347 189.492 181.192C188.488 181.499 188.047 181.964 187.913 183.006C187.778 184.023 188.622 186.707 190.042 186.426C190.397 186.352 190.728 186.266 191.058 186.107C191.401 185.948 191.731 185.776 192.062 185.592C193.053 184.869 193.543 185.519 193.555 187.541C192.441 189.563 190.165 190.911 188.708 192.664C187.68 193.889 187.264 195.52 186.811 197.027C186.248 198.865 184.094 199.343 183.69 201.292C183.604 201.697 183.971 202.199 184.424 202.027C186.517 201.219 188.059 199.209 189.1 197.297C190.067 195.52 191.707 195.703 192.809 197.186C193.898 198.645 192.037 199.785 191.756 200.949C191.511 201.942 191.474 202.211 191.34 203.216C191.022 205.668 189.785 205.422 188.512 206.489C187.398 207.432 185.465 211.17 186.774 212.555C187.496 213.328 188.745 213.377 189.724 213.609C191.719 214.1 192.258 215.632 193.812 216.514C194.473 216.894 195.453 216.624 196.138 216.465C196.713 217.36 197.289 218.242 197.864 219.137C197.656 219.296 197.472 219.48 197.325 219.676C197.019 220.081 196.628 220.571 196.652 221.122C196.677 221.919 196.762 222.679 197.484 223.169C198.598 223.929 198.892 223.917 199.48 225.78C199.504 225.865 200.471 229.8 198.99 229.579C198.292 229.481 197.497 230.069 197.166 230.645C196.15 232.386 197.778 233.783 196.113 235.646C195.159 236.712 193.151 237.815 191.731 236.92L191.768 237.006Z" fill="#FF7141"/>
<path d="M432.667 501.271C431.884 501.43 431.174 501.675 430.378 501.773C430.011 501.822 430.035 499.922 430.035 499.788C429.974 498.991 429.423 498.256 428.775 497.839C425.788 495.902 422.814 493.598 419.423 492.458C415.873 491.27 413.352 493.034 410.121 494.101C408.407 494.665 405.971 495.829 407.036 498.145C408.211 500.744 413.609 502.128 412.813 505.254C411.895 508.833 413.67 509.507 415.641 512.08C416.081 512.656 417.318 512.142 417 511.566C417.159 511.48 417.563 511.321 417.563 511.088V510.855C417.563 510.646 417.183 510.499 417.048 510.401C417.208 510.107 417.232 509.813 417.403 509.519C418.064 508.367 419.46 512.534 419.533 512.853C419.876 514.507 419.803 516.309 420.831 517.718C421.027 517.988 421.32 518.11 421.626 517.939C423.107 517.081 423.377 515.083 423.842 513.588C424.76 510.659 426.547 514.274 427.134 515.34C427.587 516.149 428.15 516.787 428.97 517.24C429.276 517.412 429.595 517.301 429.791 517.02C431.773 514.25 430.513 511.296 428.848 508.685C428.101 507.521 427.306 506.418 426.62 505.217C426.204 504.494 425.886 503.734 425.653 502.937C426.522 502.815 427.073 503.109 427.33 503.844C427.563 504.261 427.808 504.678 428.065 505.07C428.212 505.315 428.469 505.401 428.738 505.34C430.048 505.082 433.915 506.933 434.405 504.249C434.625 503.023 434.528 500.915 432.691 501.283L432.667 501.271Z" fill="#FF7141"/>
<path d="M400.17 489.125C398.713 488.806 397.367 489.48 397.967 491.11C398.334 492.103 399.044 493.096 399.864 493.892C399.864 494.579 400.231 495.179 401.014 495.142C401.81 495.093 402.508 494.432 402.912 493.794C404.099 491.931 401.92 489.517 400.17 489.137V489.125Z" fill="#FF7141"/>
<path d="M446.07 492.14C444.894 491.086 443.279 491.356 441.969 490.645C441.749 490.522 441.418 490.522 441.247 490.743C440.133 492.116 442.508 493.684 443.67 494.003C444.282 494.175 445.103 494.395 445.727 494.162C446.388 493.917 446.363 493.366 446.131 492.863C446.29 492.655 446.314 492.361 446.057 492.14H446.07Z" fill="#FF7141"/>
<path d="M449.925 495.093C449.84 495.032 449.729 495.02 449.619 495.02C449.595 494.995 449.595 494.971 449.57 494.958C449.117 494.517 448.603 494.211 448.04 493.929C447.734 493.782 447.416 493.855 447.22 494.137C446.718 494.909 446.669 495.792 447.257 496.527C447.698 497.091 448.444 497.422 449.13 497.557C449.766 497.679 450.55 497.692 450.966 497.103C451.517 496.331 450.439 495.485 449.913 495.106L449.925 495.093Z" fill="#FF7141"/>
<path d="M462.962 472.028C461.787 471.525 460.722 471.942 459.987 472.788C459.73 472.775 459.461 472.886 459.339 473.18C458.947 474.136 459.143 475.839 460.085 476.428C461.163 477.102 461.677 476.256 462.166 475.447C462.203 476.121 461.652 476.795 461.664 477.58C461.689 478.242 461.946 478.867 462.668 478.916C463.305 478.965 463.843 478.18 464.161 477.739C464.614 477.114 465.018 476.366 465.079 475.582C465.202 474.099 464.333 472.616 462.95 472.028H462.962Z" fill="#FF7141"/>
<path d="M388.7 203.118C386.472 202.861 384.195 204.356 382.947 206.097C382.163 207.175 382.335 208.486 382.567 209.724C382.824 211.097 382.09 212.077 382.09 213.303C382.09 213.413 382.114 213.511 382.176 213.609C382.775 214.418 382.788 215.154 382.8 216.122C382.8 216.808 383.742 216.882 383.95 216.355C384.073 216.673 384.403 216.906 384.758 216.637C385.884 215.779 386.766 215.362 387.255 213.916C387.965 211.845 388.553 210.104 389.654 208.192C390.572 206.611 391.478 203.449 388.724 203.131L388.7 203.118Z" fill="#FF7141"/>
<path d="M180.605 211.146C180.898 210.619 181.119 210.3 181.119 209.675C181.119 209.173 180.641 208.474 180.421 208.082C179.931 207.212 180.617 205.974 180.617 205.006C180.617 203.768 178.842 203.082 177.973 202.689C177.3 202.383 176.786 201.893 176.002 201.807C175.097 201.709 173.64 202.15 172.575 202.138C173.003 201.525 173.628 201.096 174.448 200.888C174.815 200.741 174.999 200.373 174.803 200.005C174.778 199.968 174.766 199.932 174.742 199.895C173.983 200.459 173.297 201.219 172.428 202.089C171.314 203.204 169.907 204.001 168.548 204.773C166.235 206.084 164.031 207.016 161.461 206.673C161.779 208.744 162.82 213.34 164.998 212.225C166.198 211.612 167.336 210.864 168.719 210.974C169.062 210.999 169.282 211.232 169.319 211.575C169.552 214.1 171.682 214.59 172.942 216.465C173.64 217.495 174.179 218.659 174.803 219.75C175.709 219.823 176.59 219.799 176.957 219.161C177.9 217.544 178.218 218.095 179.699 217.666C180.874 217.335 180.849 215.656 180.739 214.749C180.556 213.254 179.27 213.499 180.592 211.17L180.605 211.146Z" fill="#FF7141"/>
<path d="M169.539 215.141C168.927 214.859 168.535 213.818 168.401 213.217C167.985 211.391 166.895 212.678 165.61 213.242C164.129 213.891 162.832 214.051 161.84 212.592C161.253 211.734 161.51 210.533 161.142 209.602C160.665 208.376 160.31 207.236 160.188 205.925C160.151 205.52 160.592 205.263 160.947 205.349C165.059 206.329 170.029 203.143 172.526 200.042C172.991 199.466 173.493 199.012 174.019 198.669C173.309 197.627 172.367 196.721 171.118 196.708C169.992 196.696 168.927 197.762 168.095 198.816C167.874 197.542 167.262 196.5 165.622 196.635C164.643 196.708 163.811 197.873 163.162 198.473C161.681 199.846 158.205 200.753 156.405 201.488C156.038 201.635 155.867 201.991 156.05 202.358C156.834 203.952 159.502 205.484 156.099 205.827C155.035 205.937 154.276 206.28 153.774 207.016C151.681 204.944 149.282 203.376 146.442 202.493C145.279 202.125 142.439 201.844 142.439 203.792C142.439 205.3 142.721 206.513 142.305 208.057C141.889 209.577 140.567 209.798 139.196 210.57C138.376 211.036 135.413 213.119 136.307 214.259C136.98 215.117 138.119 215.779 138.939 216.539C140.371 217.862 145.132 219.639 140.848 222.36C139.428 223.255 138.131 223.904 136.931 225.118C135.634 226.429 134.74 228.084 133.455 229.432C132.121 230.817 130.86 228.672 129.71 228.525C128.718 228.402 128.008 228.929 127.261 229.53C125.254 231.148 127.421 232.239 128.571 233.317C127.261 233.869 125.585 234.224 124.875 235.437C124.042 236.871 125.976 237.496 126.992 237.631C129.587 237.974 128.02 240.34 128.938 241.565C129.599 242.436 130.628 242.84 131.533 243.416C132.341 243.931 133.271 244.323 134.251 244.139C136.809 243.649 139.257 243.906 141.815 243.649C145.132 243.318 148.364 242.864 151.424 241.59C152.99 240.928 156.234 242.362 157.85 242.742C159.049 243.024 160.175 242.607 161.179 242.007C162.256 241.369 163.174 240.242 163.921 239.261C164.961 237.889 166.675 236.92 167.826 235.56C168.695 234.53 169.307 233.489 169.735 232.214C169.906 231.712 169.98 230.731 170.041 230.216C170.212 228.746 170.837 227.532 171.179 226.111C171.228 225.914 171.179 225.755 171.081 225.62C171.547 223.806 172.048 222.017 172.33 220.154C172.403 219.701 172.844 219.603 173.432 219.615C172.477 217.838 171.571 216.061 169.539 215.129V215.141Z" fill="#FF7141"/>
<path d="M385.224 330.213C384.037 331.059 383.682 332.113 383.033 333.351C382.384 334.576 381.552 336.268 379.936 336.182C379.483 336.157 378.871 335.753 378.651 335.361C377.88 334.037 377.133 333.461 375.505 333.657C373.706 333.878 373.706 335.397 372.298 335.777C371.809 335.912 371.246 335.888 370.744 335.851C369.079 335.728 368.21 337.53 367.818 339.062C367.904 339.393 367.904 339.675 367.72 340.03C367.671 340.128 367.622 340.214 367.573 340.312C367.549 340.41 367.5 340.484 367.451 340.557C366.631 342.126 366.141 343.339 367.243 345.239C367.561 345.803 367.818 346.501 368.002 347.274C371.441 349.026 373.449 352.887 377.978 351.502C379.336 351.085 380.646 350.95 382.041 351.269C383.731 351.637 388.284 351.6 389.324 349.529C389.863 348.45 391.258 345.166 392.935 345.496C393.474 345.607 394.061 345.717 394.245 346.342C394.477 347.139 395.53 346.71 396.142 346.501C397.501 346.036 398.223 345.386 398.725 344.013C399.606 341.587 402.984 341.109 405.2 340.606C408.566 339.846 408.835 340.913 411.222 342.837C412.654 344.001 415.323 340.9 417.342 340.263C417.44 339.552 417.538 338.841 417.562 338.18C417.599 337.358 417.636 336.648 417.783 336.01C417.146 335.839 416.522 335.545 415.873 335.116C415.261 334.699 415.163 333.89 414.772 333.326C413.731 331.806 413.144 332.125 412.238 331.047C410.806 329.343 409.876 327.541 407.109 328.019C405.371 328.326 404.343 327.787 402.666 327.48C400.047 326.99 398.027 329.882 396.228 331.279C395.971 331.488 395.64 331.525 395.383 331.279C394.465 330.397 392.397 329.944 392.103 328.485C391.944 327.664 391.87 326.941 391.919 326.107C392.078 323.57 388.345 324.857 387.329 325.666C387.28 325.703 387.231 325.715 387.182 325.74C387.268 326.634 387.182 327.554 387.011 328.215C386.754 329.147 385.983 329.711 385.236 330.238L385.224 330.213Z" fill="#FF7141"/>
<path d="M323.153 364.947C324.965 365.315 326.788 365.29 328.6 365.658C330.522 366.05 331.073 366.699 331.685 367.643C333.924 368.342 336.752 368.869 338.845 368.195C341.158 367.447 343.227 366.65 345.651 366.271C346.703 366.111 347.719 366.099 348.784 366.185C349.947 366.271 351.183 367.018 352.358 366.871C354.623 366.577 356.336 364.849 358.356 363.917C358.331 363.207 358.429 362.52 358.968 361.981C359.727 361.221 361.33 361.197 361.159 359.554C361.073 358.758 361.012 358.071 361.098 357.262C361.159 356.686 363.105 354.137 362.701 353.843C362.016 353.34 361.771 352.715 361.759 351.87C361.759 351.588 361.942 351.379 362.199 351.294C363.325 350.901 365.468 352.005 366.288 352.752C366.422 352.887 366.936 349.958 366.949 349.541C366.949 349.173 366.949 348.818 366.949 348.45C366.912 348.426 366.863 348.401 366.826 348.352C366.545 348.034 366.471 347.886 366.422 347.458C366.398 347.249 366.545 347.053 366.728 346.943C366.618 346.551 366.459 346.183 366.214 345.815C364.904 343.854 364.819 342.678 366.031 340.594C368.136 336.991 360.18 338.609 358.491 338.082C355.847 337.248 353.864 336.059 351.465 334.724C350.253 334.049 348.76 333.645 348.099 335.103C347.952 335.508 347.744 335.888 347.487 336.243C347.083 336.905 346.373 337.432 345.773 337.898C343.888 339.32 342.272 340.557 339.861 340.055C338.368 339.748 337.131 338.315 335.932 336.991C335.846 338.327 335.197 339.785 334.402 340.704C333.104 342.187 331.085 342.433 329.396 343.29C326.96 344.528 327.731 347.237 327.205 349.455C326.997 350.338 326.776 352.103 325.736 352.483C323.863 353.181 322.468 351.159 320.73 350.816C317.535 350.191 314.548 351.894 311.696 353.12C308.318 354.578 306.323 353.929 304.438 351C301.818 346.955 301.929 354.002 299.138 353.598C298.195 353.463 297.718 351.502 297.461 350.816C297.326 350.411 297.167 350.007 296.971 349.627C296.017 349.369 295.062 349.112 294.095 348.842C293.838 349.443 293.605 350.044 293.397 350.656C293.263 351.024 293.128 351.379 292.969 351.735C293.177 353.316 294.315 355.056 295.417 356.061C296.849 357.36 298.563 357.275 300.117 358.182C300.533 358.427 300.827 358.745 301.035 359.101C301.219 359.187 301.353 359.346 301.353 359.603C301.353 359.652 304.242 359.934 304.658 359.995C306.837 360.314 309.126 361.233 311.219 360.057C313.251 358.917 316.274 356.184 318.759 356.221C320.57 356.245 320.876 357.704 319.983 359.076C318.428 361.454 320.619 364.408 323.141 364.922L323.153 364.947Z" fill="#FF7141"/>
<path d="M296.605 362.067C297.706 361.245 298.869 361.809 299.959 362.361C300.362 361.16 300.62 359.53 298.918 359.003C298.135 358.77 297.339 358.549 296.568 358.28C295.638 357.961 294.769 357.25 294.157 356.49C293.251 355.375 292.345 354.125 291.941 352.728C291.794 352.691 291.66 352.617 291.574 352.47C290.717 350.914 289.873 349.075 288.134 348.34C285.846 347.359 283.434 347.004 280.974 346.808C277.84 346.563 274.45 346.391 271.414 345.509C270.435 345.974 269.064 345.546 267.901 345.631C265.686 345.778 267.706 347.323 267.008 348.144C266.016 349.308 264.792 349.087 263.593 349.958C262.406 350.816 261.806 352.225 260.618 353.095C258.562 354.603 256.812 355.559 255.967 358.194C255.808 358.574 255.624 358.929 255.392 359.272C254.67 360.204 254.768 361.209 255.698 362.287C256.041 361.822 256.09 361.76 256.555 361.368C257.265 360.767 258.048 360.657 258.954 360.694C260.618 360.767 262.173 360.486 262.589 362.447C262.712 363.023 262.626 363.635 262.65 364.224C262.724 365.388 263.238 365.976 263.679 366.969C263.764 367.153 263.862 367.373 263.923 367.606C265.27 367.741 266.604 367.668 267.975 367.766C269.578 367.876 271.108 368.746 272.749 368.673C276.249 368.501 275.625 366.846 276.825 364.787C277.033 364.444 277.522 364.199 277.877 364.089C279.162 363.733 280.105 365.033 280.668 365.952C281.537 367.398 280.864 368.366 282.357 369.788C282.871 370.278 283.398 370.756 283.899 371.246C284.01 371.112 284.132 370.977 284.279 370.842C286.543 368.783 285.417 365.363 286.653 362.9C286.862 362.496 287.474 362.532 287.682 362.9C288.355 364.077 288.722 365.731 290.374 364.8C290.778 364.567 291.782 364.53 292.223 364.702C293.177 365.057 293.912 365.56 294.573 366.368C295.528 367.557 296.335 368.66 295.932 366.185C295.723 364.898 295.332 363.035 296.592 362.103L296.605 362.067Z" fill="#FF7141"/>
<path d="M326.764 318.766C327.291 321.573 327.242 324.159 329.922 325.813C332.921 327.664 334.745 331.402 335.614 334.858C336.373 335.434 337.07 336.06 337.683 336.844C339.555 339.185 342.126 339.185 344.439 337.42C345.945 336.268 346.471 335.373 347.365 333.792C347.597 333.388 347.854 332.824 348.331 332.665C350.07 332.064 352.114 333.755 353.472 334.626C354.868 335.52 356.349 336.182 357.928 336.672C359.727 337.236 361.025 336.709 362.775 336.795C363.828 336.844 365.737 337.052 366.888 337.837C367.353 336.415 368.173 335.104 369.581 334.65C369.923 334.54 370.376 334.65 370.719 334.65C371.759 334.687 372.126 334.27 372.885 333.682C373.497 333.204 374.158 332.603 374.978 332.505C375.958 332.383 379.189 332.076 379.422 333.719C379.813 336.366 381.882 332.959 382.249 332.211C382.58 331.537 382.873 330.716 383.424 330.164C384.501 329.086 385.823 328.436 385.823 326.757C385.823 325.078 386.276 324.318 383.938 324C382.702 323.828 381.857 323.203 380.927 322.394C380.119 321.683 378.626 320.421 377.537 320.274C376.863 320.176 376.141 320.274 375.456 320.151C374.881 320.053 374.611 319.857 374.305 319.379C374.109 319.073 373.95 318.411 373.901 318.092C373.595 316.168 372.175 315.433 370.425 315.224C369.299 315.089 367.867 315.028 366.851 314.452C366.655 315.788 366.006 317.197 364.611 316.818C363.607 316.536 362.861 315.494 362.322 314.673C361.563 313.533 360.449 313.079 359.935 311.756C359.238 309.954 361.025 308.202 358.515 307.074C356.924 306.363 354.966 306.167 353.485 305.223C351.6 304.022 350.62 302.65 350.229 300.774C349.972 301.473 349.604 302.135 349.115 302.76C347.426 304.941 345.48 306.559 343.362 303.973C343.497 304.133 333.435 309.231 332.248 309.574C330.289 310.138 328.123 310.959 326.067 310.763C325.002 310.665 324.843 310.714 325.21 311.646C325.565 312.552 325.308 313.717 325.675 314.697C325.761 314.93 325.699 315.102 325.577 315.224C326.495 316.058 326.544 317.479 326.776 318.717L326.764 318.766Z" fill="#FF7141"/>
<path d="M346.96 263.528C346.813 263.455 346.666 263.393 346.495 263.295C346.005 263.013 345.467 262.854 344.916 262.731C345.381 263.173 346.201 263.381 346.948 263.516L346.96 263.528Z" fill="#FF7141"/>
<path d="M297.645 231.675C298.869 232.349 300.142 232.312 300.803 234.089C301.366 235.584 300.534 236.638 300.105 237.925C300.069 238.048 300.044 238.183 300.02 238.318C303.288 239.997 306.862 241.271 310.436 241.418C310.412 241.333 310.375 241.259 310.338 241.173C309.677 239.212 311.574 236.969 311.366 234.923C311.073 231.834 313.215 231.515 315.014 230.339C315.981 229.714 316.348 228.464 316.666 227.434C317.829 223.721 321.305 226.294 322.774 223.451C323.68 221.711 322.848 219.419 321.122 218.647C320.828 218.512 320.461 218.536 320.143 218.512C318.417 218.377 318.735 216.686 318.967 215.399C319.127 214.455 318.931 213.793 318.49 212.984C318.245 212.543 318.172 212.175 318.184 211.869C318.111 211.857 318.049 211.844 317.976 211.832C314.035 211.097 310.816 209.381 306.899 211.55C306.287 211.881 305.405 212.519 304.475 213.046C305.601 213.377 304.451 215.877 304.096 216.563C304.157 216.453 303.031 214.761 302.712 214.553C301.256 213.573 300.546 214.345 300.411 215.926C300.362 216.514 300.473 217.078 300.558 217.654C300.864 219.676 300.448 221.245 299.432 223.022C298.771 224.199 298.282 224.934 298.355 226.282C298.428 227.655 298.894 228.035 298.024 229.358C297.816 229.677 297.449 230.118 297.315 230.51C297.18 230.915 297.155 231.442 297.596 231.687L297.645 231.675Z" fill="#FF7141"/>
<path d="M306.323 210.509C307.486 209.957 308.624 209.541 309.885 209.259C312.578 208.67 314.781 210.019 317.364 210.497C317.853 210.595 318.355 210.644 318.845 210.693C319.322 210.227 319.983 209.773 320.485 209.124C321.293 208.094 321.464 206.832 321.464 205.57C321.464 204.025 320.828 202.628 319.163 202.984C318.147 203.204 317.217 204.172 316.348 204.699C314.169 206.023 312.027 207.053 309.444 207.212C307.547 207.334 304.499 207.114 303.349 209.087C303.03 209.626 302.786 211.33 303.19 212.298C304.499 211.771 306.152 210.57 306.311 210.497L306.323 210.509Z" fill="#FF7141"/>
<path d="M283.888 263.847C283.398 265.599 282.652 267.193 281.232 268.382C279.396 269.914 280.485 271.36 279.775 273.296C279.078 275.184 278.05 276.642 277.621 278.689C277.352 280 277.034 280.944 275.699 281.397C275.406 281.496 274.965 281.348 274.708 281.214C272.884 280.221 271.538 281.447 271.219 283.126C270.901 284.829 271.171 286.704 270.669 288.371C270.02 290.479 268.967 292.354 267.694 294.144C267.56 294.328 267.401 294.487 267.217 294.634C267.401 297.085 268.184 300.358 266.935 302.576C266.96 302.674 266.972 302.772 266.935 302.895C266.862 303.311 266.789 303.728 266.727 304.145C266.727 304.353 266.617 304.5 266.483 304.598C266.201 305.995 266.115 307.503 266.262 308.826C266.458 310.604 268.025 310.922 268.343 312.417C268.563 313.447 267.939 314.832 266.935 315.334C268.184 316.217 268.478 318.729 269.775 319.305C271.158 319.918 272.04 320.506 273.202 321.462C275.087 323.007 277.658 323.521 280.008 323.779C281.416 323.926 282.297 325.96 281.526 327.161C280.999 327.983 280.326 328.081 279.58 328.657C277.878 329.968 276.789 331.868 275.663 333.669C274.341 335.802 272.872 338.339 272.749 340.925C272.701 342.053 272.823 343.45 272.358 344.516C272.358 344.516 272.358 344.528 272.358 344.541C276.813 345.68 281.624 345.153 286.067 346.367C288.992 347.163 290.559 348.499 291.991 350.803C292.04 350.779 292.089 350.742 292.138 350.718C293.056 348.524 294.562 344.859 296.973 347.605C298.197 348.989 298.295 350.62 299.262 352.115C299.8 352.948 300.914 349.271 301.294 348.953C303.154 347.372 304.366 348.744 305.468 350.448C306.459 351.98 307.255 353.279 309.495 352.642C310.694 352.311 311.796 351.796 312.934 351.318C314.636 350.607 316.692 349.504 318.577 349.455C320.633 349.406 321.967 350.043 323.706 350.987C326.557 352.519 326.251 346.575 326.337 345.595C326.447 344.393 326.851 343.266 328.014 342.678C328.993 342.175 329.887 341.55 330.903 341.109C331.417 340.888 332.323 340.962 332.776 340.643C334.624 339.295 334.844 337.42 334.452 335.508C334.281 335.361 334.11 335.226 333.938 335.116C333.485 334.809 333.669 334.196 334.036 334.025C333.645 332.885 333.13 331.782 332.678 330.814C331.576 328.424 330.046 327.492 327.977 326.022C326.692 325.115 326.288 323.178 326.068 321.744C325.884 320.555 325.811 317.283 324.734 316.18C324.636 316.156 324.538 316.119 324.452 316.033C324.379 315.959 324.293 315.874 324.22 315.8C323.852 315.432 324.085 314.991 324.452 314.856C323.877 313.324 322.567 309.292 325.37 309.562C327.855 309.795 330.523 309.023 332.861 308.177C335.419 307.258 339.275 305.861 340.964 303.593C343.559 300.137 344.967 305.824 347.341 303.091C351.65 298.102 348.602 292.318 346.705 286.986C345.799 284.449 346.546 282.182 345.921 279.682C345.469 277.855 344.918 276.054 345.628 274.228C346.387 272.267 349.128 272.99 349.104 270.11C349.104 269.056 349.361 267.364 349.006 266.421C348.161 264.153 346.999 264.889 345.664 264.582C344.514 264.325 343.51 263.957 343.265 262.719C343.204 262.437 343.229 262.217 343.29 262.021C342.69 261.102 342.396 259.251 341.821 258.246C341.356 257.866 340.879 257.51 340.401 257.167C340.267 257.118 340.144 257.069 340.022 257.033C338.027 256.42 337.121 255.586 336.399 253.76C335.468 251.382 332.469 251.726 330.572 252.461C330.217 252.596 329.887 252.816 329.605 253.062C328.393 254.165 327.218 254.998 325.652 255.623C324.024 256.26 323.167 256.665 321.49 256.003C320.658 255.684 319.36 255.635 318.442 255.378C319.164 254.25 320.131 252.718 319.446 251.53C319.042 250.831 318.271 250.672 317.549 250.525C316.924 250.402 316.214 250.39 315.602 250.292C313.583 249.985 313.179 247.963 312.702 246.37C312.322 245.107 311.612 243.906 311.012 242.681C307.206 242.681 303.423 241.369 299.935 239.617C299.935 241.247 300.339 243.171 300.51 244.397C300.755 246.125 301.306 247.804 301.012 249.556C300.792 250.855 299.947 252.106 299.323 253.258C298.907 254.03 298.735 255.059 298.466 255.893C297.56 258.699 296.055 257.719 294.549 259.226C294.133 259.655 291.967 262.866 291.808 259.288C291.771 258.528 292.04 257.719 291.856 256.959C291.599 255.917 291.147 255.047 289.971 254.937C288.233 254.79 284.561 255.268 283.741 257.204C283.484 257.192 283.227 257.302 283.117 257.609C283.019 257.915 282.921 258.221 282.811 258.515C283.325 260.231 284.476 261.812 283.913 263.835L283.888 263.847Z" fill="#FF7141"/>
<path d="M338.491 383.184C338.699 383.184 339.397 380.095 340.241 379.544C341.294 378.857 342.224 378.98 343.13 379.887C343.962 380.72 345.419 382.399 346.3 380.524C346.753 379.568 347.133 378.6 347.671 377.705C348.051 377.092 348.589 376.774 349.213 376.492C351.233 375.597 350.523 374.457 351.245 373.207C351.919 372.055 354.477 371.712 355.603 371.528C357.99 371.136 359.263 373.44 361.907 372.705C363.632 372.227 360.45 367.753 358.957 365.67C358.724 365.633 358.528 365.461 358.455 365.216C356.717 366.16 355.064 367.717 353.118 367.974C351.784 368.145 350.792 367.827 349.507 367.557C347.647 367.165 345.811 367.361 343.975 367.766C341.771 368.244 339.593 369.702 337.291 369.678C335.774 369.653 334.195 369.469 332.677 369.138C332.861 369.359 333.056 369.604 333.301 369.849C334.758 371.369 332.897 372.582 331.906 373.599C330.963 374.568 332.75 376.847 332.922 378.048C333.056 378.955 333.007 379.899 332.579 380.732C332.432 381.027 332.151 381.308 331.991 381.59L331.869 381.603C333.093 381.75 332.579 381.934 333.007 382.081C334.733 382.669 336.655 383.147 338.491 383.196V383.184Z" fill="#FF7141"/>
<path d="M441.603 230.804C440.049 229.775 439.253 226.196 437.552 226.527C434.602 227.091 431.603 226.968 428.616 227.336C427.564 227.459 426.462 227.642 425.409 227.446C423.757 227.14 422.374 226.208 420.758 225.853C416.694 224.958 412.655 226.858 409.142 228.745C407.073 229.861 404.944 231.552 402.508 231.368C402.667 231.993 402.887 232.606 403.022 233.158C403.389 234.592 403.267 236.197 403.475 237.668C403.475 237.692 403.475 237.717 403.475 237.729C404.821 238.501 405.898 239.58 406.596 241.332C408.787 246.848 412.557 241.075 415.654 243.6C416.755 244.507 418.408 246.075 419.081 247.301C420.072 249.127 419.632 251.1 419.999 253.098C419.999 253.159 419.999 253.208 419.999 253.27C421.651 253.38 423.194 253.858 424.124 255.329C424.993 256.701 424.834 258.773 425.226 260.292C425.373 260.893 425.544 261.494 425.727 262.07C426.768 261.543 428.628 261.641 429.448 261.567C430.77 261.445 432.129 260.869 433.402 260.489C434.908 260.035 436.438 260.023 437.968 259.729C438.886 259.545 439.926 259.324 440.685 258.711C441.689 257.89 442.998 255.905 444.479 256.076C444.773 256.113 445.116 255.782 445.079 255.476C444.834 253.429 444.541 251.701 444.834 249.63C445.14 247.473 446.891 245.818 448.274 244.286C449.045 243.428 449.963 242.374 450.294 241.247C450.722 239.751 449.767 237.006 450.881 235.866C451.016 235.731 451.065 235.56 451.04 235.4C450.649 235.18 450.257 234.935 449.853 234.641C447.331 232.778 444.137 232.484 441.603 230.804Z" fill="#FF7141"/>
<path d="M399.643 252.265C402.471 252.547 405.249 253.16 408.064 253.454C410.549 253.723 412.899 253.552 415.372 253.454C416.424 253.405 417.612 253.27 418.811 253.245C418.358 250.672 418.554 248.355 416.412 246.419C416.069 245.978 415.751 245.5 415.482 245.009C414.356 244.299 413.242 244.164 412.14 244.605C411.406 244.801 410.671 244.936 409.925 245.058C406.95 245.573 406.363 243.171 405.163 241.112C404.857 240.585 404.502 240.131 404.111 239.739C404.429 240.45 404.784 241.136 405.053 241.798C405.983 244.017 405.335 245.426 404.086 247.277C402.838 249.127 398.639 246.112 396.889 246.823C395.812 247.264 395.555 247.877 395.53 249.042C395.53 249.63 395.457 250.12 395.322 250.525C396.277 251.615 397.513 252.057 399.619 252.265H399.643Z" fill="#FF7141"/>
<path d="M350.253 266.899C350.461 268.431 350.424 270.281 349.971 271.777C349.518 273.309 347.817 273.247 346.985 274.314C345.455 276.299 347.45 279.755 347.217 282.096C346.899 285.32 348.503 287.599 349.457 290.528C350.253 292.967 350.987 295.786 350.755 298.421C350.987 298.483 351.195 298.654 351.208 298.973C351.33 303.262 354.109 304.206 357.573 305.456C358.833 305.91 360.216 306.437 360.926 307.662C361.893 309.305 360.131 311.094 361.906 312.601C362.469 313.079 362.922 313.508 363.35 314.109C364.562 315.8 365.945 314.918 365.7 313.043C365.602 312.332 366.655 312.295 366.875 312.883C367.756 315.286 373.326 313.018 374.489 315.641C374.892 316.536 374.843 319.036 376.141 319.024C377.402 319.011 378.613 319.256 379.666 319.992C381.355 321.168 382.677 322.713 384.831 322.946C385.395 323.007 386.202 323.178 386.557 323.693C386.716 323.914 386.827 324.196 386.925 324.502C388.467 323.473 390.303 323.178 392.139 323.669C393.51 324.024 393.02 325.875 393.069 326.818C393.204 329.49 394.416 328.718 395.676 329.932C396.019 330.262 398.259 327.921 398.589 327.652C400.23 326.267 401.723 325.924 403.73 326.586C405.726 327.235 407.402 326.488 409.361 326.537C409.875 326.537 410.609 326.917 410.94 327.309C411.858 328.375 412.482 329.956 413.694 330.716C414.514 331.231 415.371 331.819 415.775 332.75C416.362 334.062 417.158 334.76 418.076 335.03C418.357 334.38 418.798 333.768 419.508 333.118C420.499 332.223 420.94 331.378 421.136 330.091C421.491 327.652 420.157 325.924 421.283 323.325C422.042 321.561 424.478 320.58 425.934 319.404C428.125 317.626 431.197 314.489 432.213 311.768C433.327 308.802 432.115 305.946 430.475 303.446C429.545 302.037 428.529 300.725 427.746 299.218C426.558 296.938 428.345 295.541 428.064 293.409C427.807 291.411 426.387 288.653 424.624 287.562C423.388 286.803 421.136 287.048 422.69 283.714C423.229 282.562 424.637 281.716 425.628 281.005C426.864 280.111 427.733 279.143 428.48 277.807C428.627 277.721 428.737 277.561 428.737 277.329C428.664 274.167 427.905 271.409 426.926 268.455C426.901 268.431 426.877 268.406 426.864 268.382C425.873 266.2 424.894 263.97 424.306 261.629C423.67 259.141 423.963 254.618 420.353 254.618C415.456 254.618 410.671 255.17 405.799 254.398C403.094 253.969 400.291 253.858 397.622 253.331C396.398 253.086 395.456 252.706 394.55 251.836C394.073 252.241 393.424 252.547 392.543 252.853C391.27 253.295 389.997 253.674 388.748 254.177C386.031 255.292 384.734 252.915 384.207 250.819C383.999 249.998 384.709 249.336 384.489 248.527C384.122 247.179 381.796 247.179 380.755 247.228C378.136 247.338 375.431 248.809 373.069 249.875C369.678 251.419 366.214 252.792 362.897 254.496C359.837 256.064 353.533 256.077 351.465 259.41C350.632 260.231 349.996 261.187 349.592 262.303C349.249 263.246 348.882 263.749 348.331 263.859C349.616 264.288 350.106 265.759 350.265 266.948L350.253 266.899Z" fill="#FF7141"/>
<path d="M422.006 195.728C422.336 196.806 423.242 198.02 423.976 198.878C425.347 200.495 429.301 196.5 429.484 199.061C429.607 200.728 428.701 202.456 428.652 204.209C429.215 203.633 429.742 203.032 430.268 202.542C431.284 201.611 432.483 200.814 433.72 200.238C435.58 199.368 437.588 200.189 438.652 201.831C441.97 206.954 447 206.918 452.423 205.594C452.827 205.496 453.206 205.471 453.573 205.471C453.806 203.805 454.895 201.942 455.605 201.059C455.862 200.741 455.789 200.348 455.483 200.152C455.25 200.459 454.736 200.557 454.491 200.128C454.369 199.907 454.234 199.687 454.1 199.478C453.071 198.878 452.423 198.13 451.945 197.235C451.284 196.794 450.55 196.439 449.705 196.181C448.922 195.948 448.016 195.348 447.612 194.613C446.964 193.448 446.694 192.259 446.694 190.923C446.694 189.232 446.254 187.663 446.229 185.997C446.229 185.751 446.413 185.457 446.67 185.421C449.032 185.053 451.688 185.408 453.598 184.55C454.136 182.884 453.843 180.69 453.683 179.207C453.647 178.864 453.328 178.471 452.924 178.631C451.064 179.354 449.681 180.236 447.539 180.432C445.005 180.665 443.291 179.979 441.088 178.839C438.444 177.479 435.531 178.386 433.034 179.599C431.455 180.359 429.974 181.364 428.444 182.222C426.473 183.312 424.246 183.962 422.238 185.028C419.607 186.438 421.553 189.232 421.761 191.34C421.908 192.872 421.541 194.22 422.006 195.74V195.728Z" fill="#FF7141"/>
<path d="M402.335 230.167C405.297 230.486 409.226 227.25 411.931 226.049C413.976 225.142 416.656 224.137 418.957 224.37C421.748 224.664 424.233 226.576 427.048 226.319C430.182 226.037 433.511 226.098 436.583 225.51C437.44 225.351 438.652 224.812 439.398 225.559C440.108 226.282 440.292 227.434 440.794 228.292C441.822 230.045 443.634 230.413 445.372 231.05C447.771 231.92 449.595 233.342 451.798 234.531C452.777 233.648 453.658 232.753 454.882 232.177C455.972 231.675 457.428 231.221 458.138 230.167C458.579 229.506 458.554 229.518 458.836 228.721C459.252 227.508 459.938 226.662 460.696 225.645C461.565 224.481 461.725 223.586 461.211 222.225C460.586 220.583 458.824 218.953 457.82 217.58C457.024 216.49 456.192 215.068 456.07 213.72C455.972 212.69 456.229 211.649 456.131 210.595C456.033 209.442 455.115 208.719 454.319 208.021C453.94 207.69 453.72 207.273 453.609 206.807C452.483 206.832 451.247 207.334 449.962 207.518C448.566 207.714 447.257 207.763 445.849 207.641C443.78 207.457 441.051 206.709 439.533 205.141C438.64 204.221 438.199 202.873 437.269 202.015C435.053 199.956 432.116 202.395 430.634 203.854C430.022 204.454 429.398 205.177 428.725 205.79C428.933 208.143 429.398 210.398 428.982 212.813C428.664 214.688 426.571 216.048 425.065 216.906C421.797 218.769 420.218 213.977 419.973 211.747C419.949 211.489 419.814 211.232 419.533 211.171C417.709 210.729 416.717 209.7 415.848 208.107C415.591 207.641 415.297 207.151 414.747 206.991C414.208 206.844 413.682 207.261 413.278 207.531C411.772 208.56 410.989 209.798 408.957 210.117C406.852 210.447 406.546 213.131 406.093 214.725C405.309 217.531 403.339 219.554 402.641 222.373C402.421 223.255 402.445 224.186 402.494 225.081C402.568 226.589 402.421 227.986 402.274 229.481C402.249 229.714 402.262 229.947 402.274 230.18C402.298 230.18 402.311 230.18 402.335 230.18V230.167Z" fill="#FF7141"/>
<path d="M364.292 372.631C365.064 374.69 368.589 376.026 370.241 377.362C371.955 378.735 373.436 380.23 374.88 381.86C377.206 384.47 377.989 381.897 379.935 381.357C380.915 381.088 381.931 381.161 382.738 381.762C383.326 382.203 383.987 381.921 384.623 381.394C384.636 381.259 384.648 381.124 384.66 380.99C384.685 380.487 385.199 380.316 385.541 380.475C386.007 379.948 386.41 379.421 386.704 379.164C387.989 378.011 390.376 378.011 391.955 377.656C394.232 377.141 396.031 375.818 398.21 375.095C400.413 374.371 403.155 374.592 404.93 372.876C407.427 370.462 408.223 367.067 410.046 364.211C410.915 362.851 412.641 361.662 413.29 360.252C414.135 358.414 414.257 356.502 415.493 354.86C417.758 351.808 421.699 350.313 424.282 347.543C424.612 347.188 424.881 346.844 425.102 346.501C423.388 346.084 421.626 345.852 419.912 345.423C417.439 344.81 417.097 343.217 417.207 341.439C416.228 341.758 415.493 342.395 414.796 343.119C414.33 343.597 413.388 344.859 412.556 344.798C411.625 344.736 411.062 344.307 410.365 343.682C408.749 342.212 408.002 341.17 405.505 341.758C403.388 342.248 400.609 342.677 399.691 344.883C399.422 345.521 399.226 346.072 398.651 346.513C397.708 347.237 394.893 348.879 393.742 347.911C392.861 347.175 392.69 346.219 391.613 347.935C391.086 348.781 390.609 350.129 389.862 350.779C388.442 352.016 385.737 352.96 383.852 352.764C381.514 352.519 379.74 352.311 377.402 352.972C376.386 353.254 375.443 353.316 374.415 352.923C371.979 351.98 370.339 350.006 368.209 348.732C368.405 350.766 368.062 352.96 366.949 354.222C366.728 354.48 366.337 354.431 366.104 354.222C365.663 353.818 361.575 351.551 363.644 353.058C363.925 353.267 363.95 353.536 364.06 353.879C364.292 354.664 363.191 355.816 362.824 356.38C361.832 357.912 363.13 360.24 361.808 361.49C360.657 362.569 359.727 362.863 359.629 364.371C359.764 364.481 359.861 364.652 359.861 364.836C361.196 366.613 364.231 370.376 364.06 372.349C364.158 372.41 364.243 372.508 364.292 372.631Z" fill="#FF7141"/>
<path d="M400.88 462.627C401.222 462.701 402.973 463.927 403.107 463.167C403.169 462.75 403.254 462.333 403.401 461.929C403.683 460.948 404.576 459.858 405.103 458.975C405.678 458.007 406.584 456.83 406.767 455.703C406.792 455.531 406.816 455.372 406.828 455.225C406.731 455.127 406.669 455.004 406.669 454.82C406.669 454.575 406.669 454.33 406.645 454.097C406.253 453.497 405.335 453.742 404.735 453.129C401.822 450.212 400.831 446.56 401.467 442.724C401.235 442.65 401.039 442.429 401.051 442.16C401.149 440.138 401.786 437.797 400.978 435.836C400.415 434.463 399.57 432.416 398.738 431.154C397.538 429.34 395.421 429.953 393.94 428.923C393.462 430.455 393.413 431.975 392.263 433.336C391.222 434.561 390.243 435.027 388.884 435.836C388.297 436.179 387.819 436.755 387.428 437.454C387.477 437.478 387.538 437.478 387.599 437.478C387.979 437.343 388.334 437.392 388.664 437.637C388.48 437.956 388.627 438.262 388.872 438.422C389.154 439.231 389.582 439.929 390.133 440.701C392.116 443.496 390.708 446.094 390.01 449.023C389.435 451.45 389.655 454.428 389.643 456.916C389.631 458.755 389.227 460.912 389.668 462.701C389.937 463.816 391.112 464.343 392.055 464.772C393.438 465.41 395.739 465.875 394.527 468.51C394.27 469.074 394.209 469.111 394.172 469.724C394.16 470.079 394.246 470.349 394.38 470.557C394.6 470.447 394.809 470.336 395.029 470.226C395.849 469.834 396.926 469.662 397.55 468.939C399.178 467.064 396.498 461.659 400.892 462.603L400.88 462.627Z" fill="#FF7141"/>
<path d="M244.204 282.574C244.155 284.327 244.62 286.398 247.252 285.846C247.791 285.736 248.598 285.491 249.149 285.589C251.12 285.944 251.597 286.435 253.531 285.234C254.413 284.67 254.914 284.78 255.869 285.172C257.571 285.871 259.162 284.866 260.851 285.528C262.246 286.079 263.042 287.538 264.486 288.163C265.478 288.592 265.833 289.07 265.98 290.136C266.053 290.712 265.98 291.153 265.772 291.68C265.184 293.09 266.8 293.421 267.522 292.244C268.917 289.977 269.59 288.003 269.75 285.356C269.872 283.273 270.129 280.87 272.014 279.645C272.589 279.277 273.642 279.289 274.242 279.596C276.616 280.846 276.751 276.814 277.241 275.404C277.975 273.284 279.199 272.659 278.624 270.061C278.44 269.215 279.162 268.553 279.738 268.075C282.222 266.004 283.593 263.173 282.284 260.096C282.161 260.476 282.051 260.869 281.965 261.249C281.341 259.484 280.594 257.572 278.501 257.559C276.678 257.547 274.058 259.042 272.381 258.43C271.096 257.952 269.848 258.466 268.721 259.055C266.469 260.231 266.065 262.45 267.106 264.496C268.342 266.911 267.35 268.087 265.6 269.423C265.514 269.485 262.491 271.899 262.895 269.975C263.238 268.308 263.862 266.727 264.119 265.036C264.376 263.381 263.727 261.653 261.928 261.469C260.055 261.273 258.513 264.496 257.864 265.771C257.277 266.935 256.946 268.222 256.506 269.448C255.441 272.389 253.127 272.598 251.328 274.779C249.663 276.789 252.687 277.819 253.703 279.461C250.789 279.878 247.95 280.858 245.294 282.121C244.939 282.292 244.596 282.451 244.253 282.599L244.204 282.574Z" fill="#FF7141"/>
<path d="M477.808 404.938C476.866 405.11 476.095 405.012 475.238 404.669C472.631 403.651 471.676 400.097 468.212 401.176C464.405 402.352 460.55 403.995 457.392 406.458C456.057 407.5 454.148 409.73 452.275 409.779C448.799 409.853 445.555 409.179 442.055 409.694C439.264 410.098 436.522 411.397 433.67 411.409C431.381 411.409 428.933 411.103 426.852 410.098C425.139 409.277 424.465 408.088 423.658 406.617C423.584 406.654 423.511 406.666 423.413 406.666C416.73 406.299 423.817 414.89 424.71 416.851C425.42 418.42 426.987 420.957 425.91 422.697C425.286 423.702 424.465 424.462 423.486 425.148C420.989 426.889 421.773 428.862 421.638 431.289C421.601 431.852 421.43 432.392 421.148 432.821C421.148 432.833 421.173 432.845 421.173 432.87L421.491 433.311C421.601 433.421 421.638 433.556 421.638 433.679C422.556 434.463 424.6 435.198 425.2 435.676C426.204 436.473 426.816 437.735 426.73 439.022C426.644 440.309 426.901 442.907 426.436 444.734C428.994 443.765 432.116 442.307 434.649 442.515C437.024 442.711 438.738 442.552 440.929 441.486C441.773 441.081 442.679 440.579 443.621 440.493C446.363 440.236 447.722 441.927 450.06 442.981C451.48 443.63 462.961 443.765 461.064 439.733C460.048 437.551 461.529 436.019 463.487 435.284C464.295 434.108 465.593 433.09 466.327 432.551C467.098 431.987 467.624 431.46 468.469 430.921C470.354 429.732 471.884 430.921 473.292 431.742C474.308 432.343 475.421 432.698 476.597 432.612C478.029 432.49 478.616 430.823 478.555 429.61C478.482 427.783 475.899 426.57 474.614 425.773C470.991 423.518 476.694 420.234 476.927 417.635C477.147 415.074 476.658 413.003 478.947 411.14C479.424 410.748 479.938 410.368 480.379 409.914C480.403 409.914 480.44 409.926 480.464 409.939C480.795 410.049 481.089 409.816 481.199 409.522C481.762 408.064 481.97 406.581 481.994 405.061C480.599 404.828 479.424 404.656 477.808 404.95V404.938Z" fill="#FF7141"/>
<path d="M489.987 387.522C489.571 385.304 490.391 381.97 487.98 380.671C486.058 379.642 482.876 381.725 481.162 382.399C474.356 385.071 474.699 374.175 474.344 370.278C474.038 367.006 474.112 363.623 471.982 360.927C469.387 357.63 467.11 354.027 464.687 350.607C463.108 348.377 462.532 344.013 460.048 342.518C457.379 340.925 455.482 342.69 453.01 343.866C448.26 346.121 443.462 347.776 438.199 348.254C434.013 348.634 430.316 347.788 426.363 346.82C425.702 347.874 424.845 348.744 423.829 349.565C422.238 350.864 420.61 352.066 418.969 353.303C417.427 354.468 415.909 355.706 415.383 357.667C415.163 358.475 415.004 359.358 414.661 360.13C413.804 362.005 412.103 363.071 411.075 364.836C410.132 366.442 409.434 368.158 408.565 369.8C407.17 372.447 405.383 374.862 402.286 375.426C401.27 375.609 400.328 375.867 399.422 376.161C401.319 377.448 403.584 380.867 404.306 381.799C404.844 382.497 405.481 383.086 405.958 383.833C406.705 385.01 406.472 386.554 407.305 387.743C408.578 389.569 410.879 388.797 411.185 391.579C411.381 393.393 412.654 394.484 412.898 396.236C413.094 397.609 415.31 397.168 416.387 397.29C417.892 397.474 417.856 396.984 419.055 396.457C419.533 396.249 420.034 395.979 420.585 396.126C422.091 396.518 423.755 397.143 423.939 398.822C424.061 399.999 422.85 400.918 422.336 401.801C421.638 403.002 422.605 403.982 423.339 404.914C423.596 404.754 423.964 404.766 424.159 405.11C424.82 406.274 425.383 408.112 426.681 408.737C428.358 409.546 430.194 410.11 432.067 410.208C435.127 410.38 437.844 409.313 440.794 408.713C443.389 408.174 446.241 408.039 448.872 408.321C450.868 408.529 452.422 408.921 454.123 407.573C455.213 406.703 456.314 405.857 457.404 404.999C459.705 403.173 462.594 402.07 465.311 401.016C466.939 400.391 469.13 399.3 470.941 400.036C472.753 400.771 474.871 404.043 476.78 403.884C478.298 403.761 479.607 403.32 481.125 403.529C481.407 403.565 481.688 403.639 481.97 403.725C481.933 403.1 481.86 402.475 481.774 401.85C481.395 399.055 481.321 396.874 481.737 394.042C482.031 392.069 481.052 390.121 482.545 388.576C483.035 388.074 483.047 388.086 483.426 387.498C483.781 386.946 483.855 389.103 483.855 389.067C483.818 389.618 483.904 390.035 484.271 390.439C485.483 391.738 488.09 388.037 489.253 388.307C489.718 388.417 490.073 388.025 489.987 387.571V387.522Z" fill="#FF7141"/>
<path d="M462.765 436.963C462.765 436.963 462.716 436.988 462.691 437.012C461.333 437.981 462.593 440.003 462.63 441.241C462.63 441.866 462.006 442.368 461.602 442.736C459.766 444.354 456.216 444.66 453.903 444.66C450.733 444.66 449.643 443.937 446.95 442.442C443.046 440.273 440.255 444.341 436.314 443.925C433.976 443.68 432.299 444.17 430.12 444.869C429.569 445.052 426.105 445.739 426.105 446.401C426.105 447.062 425.224 447.148 424.979 446.67C423.645 447.111 422.274 445.641 420.891 446.633C418.957 448.043 417.023 449.673 414.844 450.702C413.069 451.536 411.123 452.234 409.128 452.149C408.479 452.124 407.855 451.842 407.855 452.296C407.855 452.872 407.855 453.46 407.855 454.036C407.977 454.355 408.002 454.575 408.051 455.139C408.21 456.904 406.46 459.147 405.603 460.532C404.856 461.745 404.697 463.682 403.522 464.503C402.555 465.177 399.054 462.615 399.373 465.508C399.519 466.88 399.507 468.13 398.797 469.344C398.112 470.508 396.606 470.888 395.395 471.403C396.117 471.844 396.863 472.383 396.741 474.013C396.619 475.607 396.961 476.587 398.136 477.69C399.287 478.781 400.854 479.455 402.078 480.472C403.657 481.796 403.816 483.254 403.106 484.921C402.959 485.277 402.91 485.742 403.008 486.11C403.387 487.47 405.272 488.61 406.08 489.75C406.631 490.547 407.365 491.49 408.467 491.061C410.976 490.093 413.253 489.407 415.958 489.125C417.243 488.99 417.194 490.375 418.724 489.873C419.508 489.615 420.193 489.186 420.989 488.941C421.307 488.843 422.911 489.652 423.302 489.738C425.028 490.13 426.632 491.209 428.088 492.397C425.983 492.937 425.285 495.461 428.786 495.976C429.508 496.086 430.34 495.584 430.952 495.339C432.764 494.591 436.167 497.312 436.852 498.734C437.403 499.874 438.86 500.891 440.145 499.984C441.271 499.187 441.051 498.317 440.524 497.14C439.802 495.547 439.104 494.003 438.578 492.324C438.431 491.858 438.48 490.253 437.929 489.799C437.66 489.579 437.378 489.419 437.097 489.272C437.893 489.493 438.737 489.677 439.655 489.897C439.986 489.971 440.23 489.787 440.328 489.542C440.377 489.64 440.414 489.75 440.463 489.86C440.781 490.559 441.809 489.958 441.491 489.26C440.977 488.132 441.381 486.073 440.475 485.166C439.006 483.696 436.289 484.296 434.624 482.899C433.351 481.833 431.246 477.849 428.933 479.394C428.957 479.749 428.639 480.129 428.235 480.056C427.856 480.644 427.868 481.416 428.345 481.968C429.569 483.401 431.185 483.892 432.164 485.669C432.96 487.115 433.927 487.961 435.053 488.537C434.074 488.279 433.131 488.096 432.384 487.176C432.042 486.76 431.638 486.257 431.197 485.938C428.345 483.879 423.816 485.117 422.445 481.6C423.816 481.551 425.665 481.784 426.521 480.668C426.815 480.276 427.023 479.798 427.023 479.308C426.399 478.781 425.848 478.131 425.395 477.519C424.808 476.746 423.988 475.509 424.649 474.528C425.383 473.45 426.681 473.388 427.721 474.124C429.055 475.067 429.361 476.624 430.022 478.021C430.022 478.046 430.022 478.07 430.034 478.095C430.047 478.07 430.059 478.058 430.071 478.033C431.381 476.036 428.627 472.15 427.415 470.753C426.069 469.209 423.633 468.608 423.229 466.378C422.788 463.927 422.556 461.953 423.474 459.551C423.78 458.755 423.988 458.019 424.135 457.186C424.783 457.186 425.432 457.161 426.068 457.149C426.277 457.59 426.436 458.044 426.558 458.509C426.827 459.416 426.913 460.581 427.66 461.267C428.639 462.174 430.279 462.689 430.756 464C431.075 464.846 431.454 465.397 432.238 465.765C433.425 466.317 433.841 464.821 433.498 464C431.809 460.029 436.595 461.586 437.329 458.902C437.599 457.933 436.926 456.928 436.411 456.218C436.105 455.789 435.714 455.458 435.334 455.102C435.126 453.57 435.542 452.872 436.583 453.007C437.183 453.031 437.795 453.068 438.394 453.141C439.276 453.227 440.487 453.362 441.32 452.884C442.764 452.038 443.401 451.315 445.249 451.548C447.342 451.818 450.108 450.69 452.054 451.622C453.462 452.296 455.2 452.222 456.706 452.614C458.578 453.092 460.109 452.492 460.99 450.788C461.479 449.844 461.21 447.957 461.357 446.94C461.687 444.795 463.034 443.03 463.401 440.91C463.499 440.322 463.462 438.998 463.095 438.41C462.814 437.956 462.74 437.49 462.789 437.025L462.765 436.963Z" fill="#FF7141"/>
<path d="M386.619 436.595C387.243 435.541 388.026 435.051 389.409 434.267C392.163 432.698 392.065 430.112 393.155 427.575C393.351 427.134 393.963 427.244 394.183 427.575C395.138 428.997 397.108 428.237 398.418 428.997C399.275 429.499 399.85 430.663 400.205 431.534C400.866 433.139 402.188 434.781 402.372 436.571C402.519 438.054 402.408 439.451 402.31 440.897C402.494 440.897 402.678 440.983 402.8 441.118C406.056 439.61 406.839 436.326 408.553 433.311C409.275 432.036 410.181 431.656 411.454 432.453C412.421 433.066 413.119 434.512 413.902 432.919C414.184 432.355 414.514 431.681 415.053 431.313C416.607 430.271 417.672 431.056 418.835 432.196C420.12 432.33 420.659 431.816 420.463 430.676C420.365 429.989 420.23 429.303 420.034 428.641C419.949 428.323 419.924 427.943 420.01 427.624C420.389 426.288 420.977 425.528 422.078 424.67C423.829 423.298 425.616 422.133 424.624 419.682C423.804 417.672 422.825 415.932 421.613 414.13C420.45 412.427 418.627 410.049 419.581 407.794C420.169 406.397 421.087 405.673 422.409 405.49C421.577 404.338 420.499 403.688 420.879 401.923C421.038 401.212 423.719 398.81 422.201 398.038C420.744 397.278 419.667 397.106 418.541 398.43C417.782 399.325 414.636 398.357 413.657 398.197C412.286 397.964 412.066 397.756 411.76 396.518C411.148 394.079 409.398 390.819 407.451 389.508C405.762 388.368 405.823 386.579 405.114 384.85C404.636 383.686 399.067 376.455 398.063 376.872C397.855 376.958 397.696 376.909 397.574 376.823C396.533 377.239 395.505 377.705 394.416 378.195C392.004 379.299 388.626 378.649 386.741 380.806C386.423 381.161 386.117 381.541 385.786 381.897C385.664 383.245 385.468 384.63 385.603 385.954C385.823 388.086 387.255 387.387 388.357 387.939C389.581 388.552 390.205 389.888 390.095 391.273C390.058 391.763 389.838 392.4 389.495 392.976C389.544 393.038 389.593 393.111 389.617 393.197C391.037 397.241 386.3 403.59 392.212 405.244C392.751 405.392 392.751 406.041 392.359 406.335C389.789 408.247 392.861 410.698 391.196 412.819C390.731 413.407 390.242 413.701 389.446 413.677C387.402 413.591 388.748 415.601 389.287 416.777C389.471 417.157 389.262 417.697 388.773 417.672C387.426 417.611 385.248 417.341 385.713 419.425C385.896 420.234 385.835 420.27 385.505 421.055C385.297 421.545 383.558 422.624 383.338 422.795C382.077 423.739 381.38 424.719 380.829 426.055C380.915 426.435 380.927 426.852 380.89 427.33C380.78 428.568 380.719 429.744 380.719 430.921C380.902 431.08 381.086 431.252 381.282 431.411C383.142 432.98 385.113 434.647 386.631 436.583L386.619 436.595Z" fill="#FF7141"/>
<path d="M428.97 478.56C428.48 477.531 428.26 476.097 427.378 475.312C427.036 475.006 425.273 474.258 425.604 475.423C425.983 476.746 427.415 478.254 428.615 478.903C428.7 478.952 428.762 479.001 428.798 479.063C428.945 478.989 429.08 478.903 429.214 478.805C429.116 478.756 429.031 478.683 428.97 478.56Z" fill="#FF7141"/>
<path d="M408.505 450.923C411.492 451.045 414.16 449.93 416.584 448.251C417.906 447.344 419.595 445.506 421.137 445.077C422.031 444.819 421.97 444.832 422.863 445.052C425.201 445.64 425.262 444.55 425.348 442.932C425.421 441.265 426.095 437.907 424.626 436.743C423.439 435.787 420.942 435.174 420.195 433.679C419.901 433.801 419.571 433.862 419.191 433.838C418.506 433.789 418.041 433.053 417.612 432.625C415.764 430.811 414.919 433.654 414.417 434.524C413.916 435.394 413.071 435.345 412.312 434.904C411.908 434.671 411.614 434.242 411.284 433.924C409.717 432.428 409.277 434.659 409.007 435.382C408.591 436.461 408.102 437.564 407.416 438.495C406.143 440.236 404.687 441.682 402.728 442.442C402.312 444.219 402.079 446.216 402.789 447.908C403.426 449.428 404.515 450.469 405.335 451.83C405.666 452.381 406.155 452.479 406.608 452.639C406.633 451.56 406.963 450.862 408.53 450.923H408.505Z" fill="#FF7141"/>
<path d="M211.572 410.833C209.772 409.951 207.973 409.706 205.709 409.485C203.003 409.215 198.964 409.301 196.834 407.303C195.708 406.249 194.802 404.484 194.594 402.952C194.337 401.065 193.811 399.533 191.938 398.785C191.351 398.553 190.702 398.344 190.176 397.976C189.576 397.548 188.976 397.106 188.34 396.726C187.287 396.126 185.794 395.844 186.859 397.535C187.385 398.381 187.948 399.116 187.801 400.134C187.752 400.464 187.348 400.624 187.067 400.55C183.982 399.839 181.546 400.146 178.878 398.246C176.675 396.677 174.496 395.243 172.525 393.368C171.216 392.106 168.229 391.113 167.433 389.41C166.932 388.356 166.76 387.167 166.099 386.198C165.818 385.782 163.982 384.078 163.565 383.196C163.468 383.22 163.357 383.257 163.259 383.282C163.088 383.416 162.843 383.465 162.647 383.404C158.363 384.078 152.39 381.014 149.526 379.335C147.825 378.342 146.233 377.203 144.348 376.59C143.014 376.161 141.704 375.903 140.456 375.205C139.513 374.666 138.718 373.562 137.922 372.815C137.004 371.945 135.988 371.638 134.764 371.479C133.614 371.332 132.096 371.81 131.019 371.957C129.183 372.19 127.506 370.829 126.11 369.861C124.238 368.55 122.414 367.361 120.345 366.368C118.473 365.473 116.722 364.125 114.813 363.353C112.793 362.532 110.565 362.446 108.472 361.907C106.036 361.282 104.935 358.586 102.976 357.262C99.3656 354.823 96.8196 357.789 93.172 358.953C91.1279 359.603 89.3653 357.764 87.3334 358.01C86.5256 358.108 85.8279 358.488 85.118 358.488C85.0078 358.488 84.9099 358.647 84.812 358.671C84.6651 358.647 84.5182 358.757 84.4203 358.855C84.1632 358.966 83.9184 359.162 83.6981 359.37C83.6002 359.456 83.5023 359.603 83.3921 359.725C83.184 359.799 82.9882 359.885 82.8291 359.971C82.6332 359.971 82.4618 360.093 82.3762 360.277C81.3969 361.086 81.4949 362.373 82.2782 363.794C83.0004 365.106 82.4496 366.601 83.1351 367.974C83.49 368.685 83.8695 369.359 84.2734 370.033C85.3383 371.834 83.3676 372.619 82.4618 373.673C81.9233 374.298 81.605 375.094 81.348 375.879C81.5438 375.891 81.7397 375.916 81.911 375.928C83.7838 376.075 91.0177 374.261 90.0875 378.134C89.9529 378.698 87.9577 380.745 90.7362 380.475C91.2503 380.426 91.7644 380.365 92.2785 380.499C93.1965 380.757 93.7596 381.345 94.2492 382.129C95.975 384.85 97.0155 380.291 98.9616 380.695C100.443 381.002 100.994 382.583 102.401 382.889C103.515 383.134 105.155 383.232 105.951 384.188C106.857 385.279 106.734 386.382 105.914 387.522C105.021 388.772 104.36 389.716 106.122 390.537C106.636 390.782 107.42 391.101 107.615 391.701C108.215 393.528 106.281 394.618 104.898 395.243C101.495 396.8 97.7254 397.915 97.9212 402.413C97.9947 404.154 97.7254 405.673 96.073 406.605C94.3838 407.548 91.4829 408.186 91.9113 410.576C92.1071 411.703 92.1806 412.855 91.7644 413.971C91.3115 415.196 90.1977 417.169 88.5207 416.52C87.7251 416.213 87.1988 415.772 86.4889 415.319C84.9956 414.375 86.036 417.647 86.1339 417.905C86.5256 419.02 86.6358 420.233 86.391 421.398C85.7422 424.474 83.9184 427.121 81.8009 429.413C78.8387 432.612 74.0039 434.144 73.7346 439.022C73.6122 441.228 73.245 443.434 73.245 445.652C73.245 446.841 72.4004 447.981 72.4004 449.158C72.4004 449.158 72.7186 449.207 72.7186 449.231C73.502 449.194 74.4445 449.182 75.2279 449.231C78.6307 449.44 80.6136 452.7 81.042 455.862C80.993 455.948 80.9808 456.058 80.993 456.193C81.2868 459.686 81.4581 463.877 82.9392 467.088C84.2856 470.005 85.7912 471.439 88.6799 472.665C91.4462 473.829 93.0374 470.091 95.669 469.809C98.3129 469.527 101.091 471.218 103.356 469.319C107.15 466.132 112.083 471.096 115.743 472.334C116.881 472.714 117.652 472.567 118.803 473.204C119.611 473.657 120.296 474.135 121.165 474.503C122.879 475.238 124.862 475.079 126.661 475.435C127.959 475.692 128.742 476.697 130.101 476.783C131.08 476.844 133.002 476.82 133.895 476.415C135.046 475.9 136.111 475.3 137.004 474.393C137.42 473.964 137.653 473.314 137.886 472.775C138.779 470.753 140.493 469.846 142.635 469.687C144.226 469.564 145.768 470.238 147.372 469.919C148.914 469.613 150.113 468.963 151.46 468.155C152.513 467.517 153.125 466.635 153.651 465.544C153.896 465.029 154.067 464.453 154.251 463.914C154.997 461.781 156.368 460.862 158.363 460.078C160.456 459.257 163.48 458.668 165.108 456.989C166.993 455.041 166.222 453.153 164.887 451.082C161.766 446.192 165.096 442.956 168.425 439.512C169.955 437.919 171.607 436.326 173.37 434.99C174.961 433.776 177.017 433.237 178.743 432.208C179.355 431.84 180.408 431.055 180.53 430.296C180.628 429.658 180.653 429.425 180.665 428.764C180.69 426.227 183.505 426.398 185.096 426.3C186.883 426.19 188.695 426.423 190.457 426.08C192.893 425.614 195.157 424.719 197.483 423.91C200.739 422.783 203.946 421.704 207.128 420.381C208.732 419.719 212.012 418.493 212.71 416.667C213.053 415.772 213.089 415.221 212.747 414.326C212.257 413.051 211.792 411.973 211.596 410.809L211.572 410.833Z" fill="#FF7141"/>
<path d="M72.4007 444.574C72.4007 442.356 72.4619 440.15 72.6333 437.944C72.8292 435.492 74.3102 433.862 76.2442 432.514C79.7326 430.088 84.0901 426.411 85.0326 421.999C85.51 419.743 84.6777 418.726 84.4329 416.704C84.3594 416.103 84.1391 414.645 84.7756 414.155C85.3631 413.701 85.7426 413.664 86.4647 413.946C86.8932 414.118 87.2114 414.437 87.5786 414.682C90.9447 417.01 90.9569 411.802 90.7488 410.907C90.1613 408.345 91.5444 407.622 93.6742 406.58C95.5959 405.637 96.771 404.656 96.722 402.426C96.6976 401.2 96.8934 400.158 97.2484 398.994C97.9583 396.592 100.59 396.151 102.487 395.121C103.222 394.717 108.044 392.707 105.523 391.591C104.85 391.297 104.091 390.991 103.699 390.329C102.989 389.103 104.286 387.866 104.886 386.946C106.526 384.409 102.402 384.434 101.031 383.625C99.8678 382.939 98.5336 381.505 97.5421 383.527C97.0158 384.593 95.6082 385.525 94.5188 384.458C93.0622 383.049 92.4135 381.578 90.0634 381.737C89.5248 381.774 88.4721 381.394 88.2151 380.867C87.958 380.316 87.7622 379.899 88.0682 379.286C88.2029 379.029 89.2922 377.399 88.8026 377.178C88.1417 376.896 87.3705 376.872 86.6728 376.896C84.7389 376.958 82.8539 377.154 80.9199 377.105C80.3202 378.796 79.5001 380.34 78.8513 382.019C78.631 382.595 78.7045 383.171 78.7534 383.772C78.8758 385.463 79.5245 386.983 79.0594 388.748C78.3984 391.236 77.2723 393.687 76.1585 395.991C74.0777 400.305 71.0666 403.725 67.4924 406.826C66.3174 407.843 64.7506 410.968 63.0615 410.502C62.6086 410.38 61.4458 409.644 60.9929 410.184C60.4543 410.821 60.3931 411.887 60.185 412.659C59.7444 414.302 58.4347 415.576 57.7859 417.121C57.4677 417.881 57.0882 418.836 57.5534 419.621C57.8104 420.062 58.2388 420.368 58.6305 420.687C59.8912 421.704 59.3649 422.783 59.0712 424.082C58.9488 424.621 59.4751 424.977 59.9524 424.756C61.3968 424.756 62.3393 425.393 62.7555 426.68C62.9146 427.857 62.7555 428.984 62.3393 430.051C61.8619 431.509 61.0541 432.919 60.3809 434.279C58.9488 437.159 57.2963 439.61 55.191 442.037C54.1016 443.312 52.743 443.079 53.0367 444.893C53.2326 446.118 55.0196 446.609 56.0111 446.658C56.7822 446.694 57.6635 446.229 58.3612 445.959C60.1605 445.273 61.2132 446.143 62.2536 447.467C63.3307 448.839 65.179 449.329 66.8682 449.452C68.5573 449.575 70.2342 449.415 71.9111 449.305C71.9356 447.712 72.3885 446.18 72.4007 444.562V444.574Z" fill="#FF7141"/>
<path d="M235.734 288.346C236.468 289.94 238.573 289.682 239.969 290.479C241.303 291.239 240.226 293.077 242.123 294.107C244.241 295.259 246.995 296.031 247.227 298.862C247.301 299.806 247.166 301.178 247.484 302.049C248.378 304.573 250.85 304.917 251.976 302C252.27 301.24 252.539 300.811 253.188 300.321C253.384 300.173 253.751 300.235 253.91 300.419C256.811 303.838 251.964 309.439 257.815 311.277C259.406 311.78 259.651 313.165 260.863 314.243C261.769 315.052 262.98 317.271 264.29 315.873C264.572 315.579 264.89 315.199 265.306 315.089C265.392 315.065 265.477 315.052 265.563 315.04C265.477 314.697 265.661 314.292 266.114 314.292C266.701 314.305 267.338 313.214 267.179 312.711C266.983 312.099 266.432 311.939 266.04 311.498C265.526 310.91 265.208 310.26 265.122 309.451C264.939 307.784 264.976 305.958 265.318 304.255C265.184 304.341 265.049 304.414 264.89 304.488C263.384 305.198 263.042 306.424 262.699 307.858C262.466 308.851 260.349 311.474 260.789 312.258C261.169 312.932 260.128 313.533 259.761 312.858C259.137 311.731 259.737 310.775 260.422 309.794C261.438 308.361 260.985 306.044 262.185 304.868C264.045 303.054 266.334 302.723 266.334 299.561C266.334 298.09 266.151 296.631 266.053 295.173C265.073 295.381 264.106 294.989 264.119 293.58C264.119 292.71 264.351 292.195 264.633 291.361C265.318 289.266 263.96 289.29 262.784 288.702C260.997 287.819 261.744 286.03 258.451 286.618C257.766 286.741 257.068 286.925 256.383 286.643C254.914 286.042 254.363 286.128 253.078 287.268C252.833 287.476 252.515 287.672 252.184 287.697C251.781 287.734 251.487 287.734 251.107 287.525C249.626 286.753 248.414 286.851 246.774 287.121C244.253 287.538 243.188 285.16 243.066 283.04C241.915 283.456 240.764 283.738 239.381 283.848C238.145 283.947 236.774 284.106 235.648 284.657C235.403 284.78 235.158 284.866 234.926 284.951C235.036 286.153 235.293 287.292 235.77 288.334L235.734 288.346Z" fill="#FF7141"/>
<path d="M369.153 453.828C365.738 451.818 362.286 449.268 358.675 447.663C356.925 446.891 351.209 446.229 352.996 442.466C353.436 441.547 354.452 440.885 354.722 439.88C355.236 437.993 353.4 437.466 351.857 437.208C350.352 436.963 348.516 437.601 347.035 437.699C344.783 437.846 342.139 435.37 340.67 433.961C339.617 432.956 339.066 431.436 337.855 430.578C335.994 429.242 334.28 428.739 333.411 426.35C332.102 422.758 331.477 418.922 330.229 415.295C329.409 412.929 328.136 411.74 326.092 410.368C322.089 407.671 320.51 403.578 318.27 399.509C317.475 398.05 315.994 394.043 318.148 393.062C318.919 392.707 319.47 392.204 319.702 391.346C319.849 390.819 319.825 390.219 319.409 389.802C319.139 389.532 315.945 385.807 317.707 385.255C319.078 384.826 320.265 384.655 321.379 383.723C321.942 383.257 323.019 381.725 323.827 381.934C324.488 382.105 324.549 382.105 325.284 382.118C326.177 382.142 326.753 381.64 327.328 381.051C328.368 379.997 329.005 380.108 330.4 380.291C330.804 380.34 331.122 380.438 331.38 380.561C331.955 378.98 332.004 377.387 331.012 376.026C329.862 374.445 329.96 373.563 331.637 372.276C333.252 371.038 331.331 369.739 330.816 368.709C330.792 368.66 330.768 368.624 330.743 368.575C330.608 368.526 330.449 368.489 330.315 368.44C329.911 368.293 329.837 367.876 329.972 367.582C328.809 366.565 327.193 366.785 325.419 366.552C322.542 366.172 320.645 365.486 318.772 363.145C317.475 361.515 318.025 360.155 318.943 358.488C319.837 356.87 316.618 358.316 316.397 358.439C315.834 358.745 315.173 359.003 314.635 359.346C313.509 360.044 312.285 361.184 311 361.564C308.588 362.275 305.136 361.638 302.75 361.111C302.37 361.025 301.881 360.964 301.415 360.853C301.403 361.711 301.158 362.606 300.852 363.341C300.706 363.721 300.351 363.881 299.983 363.697C298.6 363.059 296.654 363.206 296.985 365.216C297.095 365.854 297.266 366.565 297.242 367.214C297.193 368.182 297.021 368.856 296.14 369.322C295.907 369.445 295.601 369.433 295.418 369.224C294.683 368.415 294.096 367.398 293.276 366.675C289.175 363.035 291.048 366.945 289.188 366.834C287.817 366.748 287.511 365.94 287.229 364.996C286.984 366.381 287.07 367.888 286.568 369.212C286.47 369.457 285.112 372.129 284.928 372.276C284.965 372.313 285.001 372.349 285.026 372.386C285.466 372.876 284.903 373.698 284.304 373.318C283.936 373.097 283.716 372.852 283.594 372.607C282.076 371.112 280.362 369.898 279.922 367.68C279.701 366.552 278.135 364.567 277.621 366.283C277.572 366.54 277.486 366.773 277.388 367.006C276.972 367.79 276.507 368.354 275.895 369.004C274.72 370.229 272.149 369.898 270.705 369.58C268.342 369.04 265.931 369.151 263.581 368.783C262.675 369.825 261.402 370.646 261.586 372.215C261.708 373.269 262.124 374.727 261.88 375.806C261.623 376.945 261.072 377.803 260.08 378.477C257.485 380.242 259.358 381.174 260.386 382.89C261.059 384.029 261.414 385.206 261.549 386.53C261.806 389.03 261.61 391.64 264.817 391.199C266.213 391.015 268.293 391.469 268.465 393.209C268.71 395.795 266.641 397.401 266.384 399.827C267.216 399.423 268.036 398.994 268.795 398.577C271.598 397.045 273.251 394.116 276.715 393.724C278.355 393.54 280.069 394.815 281.537 395.44C283.263 396.175 284.781 397.009 286.25 398.197C288.025 399.631 289.347 401.531 291.146 402.904C292.333 403.811 293.533 404.044 293.594 405.968C293.631 407.095 292.725 408.468 293.092 409.645C293.631 411.36 294.622 412.451 294.598 414.314C294.561 415.858 294.867 419.069 297.131 417.734C297.18 417.697 297.217 417.66 297.254 417.623C300.375 423.384 305.675 426.901 309.641 432.036C311.697 434.696 314.304 436.89 316.287 439.574C317.964 441.841 319.176 444.354 321.281 446.29C321.869 446.829 322.628 447.32 323.362 447.589C325.076 448.227 327.426 447.724 328.613 449.501C329.286 450.518 329.091 451.695 329.886 452.7C330.547 453.533 331.477 455.004 332.616 455.274C333.791 455.543 334.929 455.494 336.129 455.507C338.687 455.507 337.377 457.627 336.973 458.889C336.374 460.74 338.087 461.843 339.568 462.247C341.049 462.652 342.286 462.86 343.546 463.816C345.052 464.968 347.145 465.164 348.308 466.709C349.434 468.192 349.434 470.643 349.605 472.371C349.777 474.038 350.364 475.557 350.988 477.102C351.894 479.308 352.323 481.122 351.086 483.377C350.278 484.823 348.883 485.522 348.149 486.943C347.475 488.255 349.103 489.321 348.1 490.914C347.61 491.699 346.606 492.471 346.484 493.439C346.068 496.846 351.625 494.187 352.763 493.145C354.036 491.968 356.019 489.799 356.019 487.924C356.019 485.301 356.594 484.406 358.712 483.07C360.34 482.041 361.135 482.703 362.531 483.487C362.874 483.683 363.29 483.499 363.4 483.132C364.196 480.607 363.045 476.869 362.457 474.356C362.286 473.609 361.637 472.824 360.915 472.518C360.095 472.175 359.299 472.04 358.443 471.832C356.08 471.268 357.855 468.596 358.7 467.37C359.814 465.765 360.475 463.951 361.441 462.26C363.424 458.84 368.235 460.274 369.875 463.167C370.597 464.429 370.977 465.667 372.372 466.28C373.694 466.856 374.526 468.069 375.824 468.608C376.13 468.731 376.472 468.473 376.558 468.192C377.219 465.973 377.011 462.394 376.093 460.262C374.698 457.039 372.041 455.58 369.128 453.852L369.153 453.828Z" fill="#FF7141"/>
<path d="M265.355 397.94C265.906 396.726 267.069 395.415 267.264 394.091C267.693 391.175 263.776 392.866 262.625 392.535C261.879 392.314 261.548 392.008 261.132 391.371C260.177 389.924 260.63 387.302 260.239 385.721C259.822 384.029 258.439 383.22 257.839 381.786C256.64 378.931 258.513 378.869 260.03 376.97C261.903 374.617 258.953 371.148 261.414 369.114C261.72 368.869 261.94 368.66 262.087 368.476C262.05 368.476 262.013 368.464 261.977 368.452C261.254 368.256 261.548 367.14 262.258 367.3C262.136 367.018 261.952 366.675 261.793 366.16C261.475 365.118 261.524 364.174 261.45 363.096C261.218 359.689 256.628 364.052 255 363.353C252.76 362.373 253.506 360.216 254.351 358.671C255.404 356.747 255.526 355.411 257.215 354.002C258.672 352.801 260.214 352.09 261.401 350.521C262.087 349.627 262.638 349.075 263.703 348.609C264.082 348.45 266.028 347.776 265.894 347.42C265.759 347.053 265.465 346.489 265.49 346.072C265.612 343.891 268.378 344.565 269.859 344.54C272.014 344.516 271.304 341.341 271.659 339.944C272.038 338.4 272.503 336.88 273.238 335.471C274.535 332.983 276.31 328.987 278.954 327.602C279.297 327.419 279.627 327.247 279.97 327.075C279.786 326.352 279.603 325.617 279.407 324.882C278.66 324.882 278.354 324.857 277.571 324.637C276.004 324.183 274.413 323.754 273.042 322.859C272.148 322.283 271.549 321.389 270.557 320.935C269.884 320.629 269.1 320.371 268.464 319.967C267.815 319.55 267.02 319.048 266.885 318.202C266.836 317.883 266.603 314.991 265.122 316.719C264.902 316.976 264.608 317.418 264.278 317.553C263.739 317.798 263.127 318.031 262.552 317.712C260.092 316.364 259.088 313.398 256.395 312.454C254.792 311.89 253.421 309.28 253.335 307.625C253.237 306.044 253.678 304.488 253.568 302.919C253.445 301.203 252.515 304.046 252.307 304.316C251.218 305.689 248.929 306.412 247.643 304.782C246.848 303.777 246.236 302.723 246.162 301.399C246.089 300.161 246.236 297.992 245.22 297.171C244.461 296.558 243.702 296.276 242.87 295.847C241.976 295.381 240.813 294.916 240.25 294.021C239.957 293.568 239.602 293.053 239.504 292.501C239.112 290.209 238.169 291.374 237.166 291.092C234.987 290.491 233.738 288.016 233.677 285.822C233.677 285.626 233.677 285.429 233.677 285.221C231.156 285.515 228.561 284.474 225.929 285.479C224.338 286.091 222.943 287.072 222.392 288.763C221.988 289.989 221.804 291.214 221.596 292.477C221.168 295.198 218.304 296.374 216.002 297.183C214.154 297.833 212.771 297.257 210.947 297.22C210.066 297.195 209.148 297.244 208.462 297.894C207.826 298.494 207.434 299.132 207.055 299.916C205.684 302.735 203.517 303.238 200.727 301.755C198.854 300.762 197.189 299.683 196.124 297.796C195.818 297.257 195.549 297.109 195.072 297.06C195.096 296.975 195.096 296.877 195.072 296.779C194.411 294.119 194.815 293.273 191.865 293.126C190.824 293.077 187.262 291.876 187.593 294.291C187.85 296.178 188.756 297.698 188.878 299.659C189.013 302.049 187.348 303.985 186.601 306.105C186.308 306.927 186.136 308.728 185.157 309.096C184.41 309.378 183.382 308.998 182.66 308.802C180.408 308.201 177.642 307.699 176.271 305.652C175.059 303.85 174.422 301.669 172.195 300.921C171.485 300.676 170.775 300.946 170.138 301.24C169.122 301.693 168.829 302.723 167.25 301.865C166.442 301.424 165.744 300.995 164.887 300.664C162.121 299.585 153.92 299.107 155.964 303.961C156.784 305.897 157.372 307.172 156.723 309.353C156.393 310.481 156.503 311.608 156.772 312.736C156.882 313.226 157.506 314.035 158.033 314.121C160.444 314.513 161.901 315.126 163.578 317.013C164.349 317.883 164.936 319.489 165.94 320.126C167.164 320.898 168.596 320.715 169.918 321.34C171.228 321.952 170.603 324.085 171.619 324.955C173.48 326.548 176.332 326.769 174.728 330.385C173.798 332.48 173.419 335.128 174.545 337.223C175.059 338.179 176.246 338.854 177.054 339.54C178.976 341.182 179.71 343.756 179.857 346.183C180.273 353.291 175.426 360.449 172.856 366.834C170.934 371.602 169.086 376.443 166.479 380.892C165.989 381.713 165.365 382.313 164.642 382.718C165.854 383.686 166.956 384.899 167.568 386.284C168.192 387.694 168.229 388.993 169.771 389.826C170.567 390.255 171.375 390.697 172.072 391.285C174.508 393.368 176.968 395.231 179.514 397.18C181.718 398.871 184.092 398.773 186.589 399.202C186.026 397.67 183.541 394.876 186.577 394.704C187.887 394.631 189.49 395.954 190.469 396.665C191.938 397.719 193.75 397.952 195.108 399.214C195.561 399.643 195.696 400.44 195.708 401.004C195.708 402.426 196.161 404.938 197.287 405.992C199.233 407.818 202.049 407.83 204.546 408.112C206.92 408.382 209.295 408.468 211.547 409.277C211.571 408.86 211.62 408.419 211.731 407.953C212.11 406.421 212.771 404.963 213.199 403.443C213.811 401.298 213.934 398.994 216.835 398.785C216.969 398.785 217.08 398.724 217.165 398.651C217.104 398.994 217.275 399.374 217.716 399.312C218.512 399.214 219.038 399.178 219.772 398.81C222.098 397.67 223.787 397.253 226.333 397.879C227.092 398.062 227.949 398.516 228.757 398.406C229.271 398.369 229.76 398.271 230.25 398.099C232.282 397.535 231.829 398.884 231.866 399.766C231.902 400.759 232.759 401.163 233.592 401.212C234.204 401.249 234.963 400.857 235.513 400.661C238.096 399.778 238.108 402.144 238.537 403.749C238.99 405.391 240.177 405.698 241.744 406.029C244.29 406.568 245.257 408.406 248.06 407.549C249.981 406.96 251.364 405.624 252.748 404.252C255.061 401.948 258.917 401.984 261.915 401.396C262.993 401.188 264.082 400.808 265.147 400.354C265.037 399.521 265.049 398.7 265.404 397.903L265.355 397.94Z" fill="#FF7141"/>
<path d="M379.166 429.769C379.166 429.033 379.435 428.175 379.349 427.379C379.178 427.256 379.141 427.048 379.227 426.778C379.239 426.729 379.288 426.692 379.3 426.643C379.056 425.798 378.554 425.087 377.464 424.768C375.481 424.192 373.303 423.506 371.626 422.256C370.084 421.104 368.725 419.719 368.027 417.88C366.779 414.608 365.946 411.912 363.327 409.424C361.674 407.843 360.157 406.225 359.483 403.982C358.945 402.18 358.59 400.293 357.097 398.969C356.338 398.295 355.469 397.695 354.771 396.947C352.604 394.692 350.671 390.562 353.62 388.184C357.329 385.194 362.58 386.799 366.509 388.221C368.211 388.834 369.863 389.716 371.736 389.471C372.972 389.312 374.184 389.275 375.433 389.312C377.685 389.373 380.01 389.312 381.957 390.562C382.446 390.868 382.96 391.383 383.107 391.971C383.474 393.356 384.564 393.111 385.751 393.074C386.412 393.05 387.293 393.491 387.66 393.111C388.175 392.572 388.958 392.192 388.884 391.297C388.603 388.27 385.935 389.593 384.772 387.608C384.074 386.419 384.221 384.679 384.417 383.086C384.148 383.245 383.854 383.38 383.536 383.453C381.871 383.858 380.99 381.701 379.056 383.478C376.191 386.101 374.074 382.497 372.201 380.683C370.169 378.722 367.954 377.068 365.518 375.658C364.453 375.046 363.804 374.445 363.327 373.415C362.25 374.028 360.512 374.494 359.337 374.077C358.468 373.771 357.17 372.594 356.289 372.656C355.285 372.729 354.232 372.962 353.302 373.342C351.589 374.053 352.274 376.48 350.401 377.35C348.051 378.44 348.174 380.156 346.729 382.031C346.227 382.681 345.358 382.951 344.587 382.595C343.804 382.228 343.277 381.725 342.665 381.125C340.854 379.323 339.96 382.546 339.948 383.809C339.948 384.127 339.679 384.421 339.348 384.409C337.757 384.36 336.117 384.213 334.575 383.784C333.865 383.576 332.837 382.987 331.968 382.706C331.686 383.662 331.074 384.716 330.792 385.512C330.389 386.628 330.18 387.559 330.389 388.723C330.866 391.407 334.856 392.731 333.804 395.795C333.559 396.494 334.513 396.751 334.893 396.261C336.056 394.741 336.349 392.707 336.913 390.905C337.512 388.968 338.883 384.801 341.845 388.748C342.568 389.704 343.106 390.991 343.694 392.045C345.065 394.484 341.38 397.155 343.082 399.202C343.681 399.925 344.342 400.305 345.15 400.746C345.86 401.004 346.289 401.519 346.448 402.254C346.472 402.462 346.313 404.178 345.909 403.884C345.407 403.541 344.783 404.215 345.089 404.705C346.227 406.495 347.61 407.818 349.336 409.032C351.001 410.196 352.409 411.274 353.62 412.929C354.11 413.591 354.355 414.78 354.979 415.331C355.738 415.993 356.852 416.189 357.623 415.331C358.712 414.155 359.569 413.211 361.356 414.265C362.507 414.939 363.278 415.993 364.147 416.961C365.396 418.346 366.546 419.645 367.158 421.447C367.403 422.17 367.648 423.028 368.211 423.579C369.716 425.062 371.467 424.658 373.401 425.075C374.992 425.418 376.204 427.134 377.403 428.139C378.04 428.678 378.444 429.242 379.141 429.805L379.166 429.769Z" fill="#FF7141"/>
<path d="M390.782 406.078C389.227 405.527 388.211 404.754 388.076 402.744C387.979 401.31 387.93 399.84 388.199 398.418C388.444 397.094 388.884 395.452 388.603 394.043C388.125 394.423 387.562 394.619 386.963 394.435C385.934 394.116 383.095 394.888 382.409 393.712C381.038 391.383 380.292 390.721 377.452 390.574C376.167 390.513 374.845 390.403 373.56 390.488C370.622 390.685 368.994 390.341 366.215 389.361C363.535 388.417 360.401 387.118 357.513 387.841C355.456 388.356 352.531 389.238 353.449 392.278C353.877 393.712 354.502 395.072 355.628 396.089C356.986 397.315 358.798 398.43 359.532 400.195C360.193 401.776 360.365 403.725 361.27 405.183C362.066 406.458 363.094 407.549 364.184 408.566C365.554 409.853 366.876 411.14 367.574 412.929C368.896 416.251 369.508 419.78 372.948 421.655C374.967 422.759 377.293 423.065 379.276 424.131C379.582 424.291 379.827 424.474 380.035 424.658C380.377 423.874 380.83 423.163 381.614 422.587C382.018 422.281 384.759 420.344 384.551 419.731C384.38 419.253 384.184 418.751 384.184 418.236C384.184 416.312 386.253 416.3 387.795 416.398C387.012 414.657 386.228 412.329 388.933 412.439C391.259 412.537 389.815 408.762 389.974 407.377C390.035 406.826 390.365 406.409 390.769 406.041L390.782 406.078Z" fill="#FF7141"/>
<path d="M336.337 231.332C334.244 231.27 331.783 231.025 329.849 230.167C329.152 229.861 330.131 225.792 329.017 224.75C328.16 223.941 326.398 223.868 325.406 224.395C324.317 224.971 323.448 226.295 322.481 227.152C322.481 227.152 322.469 227.152 322.456 227.14C319.812 226.515 317.462 229.8 316.165 231.638C315.957 231.945 316.165 232.447 316.52 232.521C318.931 232.974 319.176 233.93 319.421 236.063C319.568 237.325 320.18 238.256 320.841 239.31C322.383 241.786 326.728 241.296 329.103 242.019C330.719 242.521 332.346 243.453 333.791 242.019C336.557 239.261 335.921 235.658 336.912 232.104C337.022 231.724 336.716 231.356 336.337 231.344V231.332Z" fill="#FF7141"/>
<path d="M418.102 194.306C417.441 193.252 416.413 193.215 415.397 193.522C415.299 193.423 415.164 193.35 414.968 193.362C411.7 193.558 409.644 196.304 407.526 198.461C407.318 198.669 407.269 199.098 407.526 199.306C410.611 201.733 414.369 203.4 416.866 199.355C417.6 198.167 418.996 195.752 418.09 194.306H418.102Z" fill="#FF7141"/>
<path d="M416.265 189.146C416.388 188.717 416.363 188.239 416.143 187.823C415.947 187.443 415.617 187.222 415.237 187.112C413.144 185.139 408.86 186.193 407.428 188.754C407.208 189.146 407.489 189.649 407.942 189.649C408.652 189.649 408.542 189.894 409.166 190.323C409.888 190.813 410.586 190.997 411.455 191.058C412.985 191.156 414.405 191.132 415.629 190.115C415.935 189.857 416.143 189.526 416.253 189.159L416.265 189.146Z" fill="#FF7141"/>
</g>
<defs>
<clipPath id="clip0_1_8007">
<rect width="437" height="508" fill="white" transform="translate(53 10)"/>
</clipPath>
</defs>
</svg>
