<svg width="198" height="30" viewBox="0 0 198 30" fill="none" xmlns="http://www.w3.org/2000/svg">
<g clip-path="url(#clip0_1_8866)">
<path d="M0.5 0.560137H5.26116L6.00801 3.68757C7.82846 1.30699 10.4891 0 13.5232 0C16.8373 0 19.5447 1.58705 20.8516 4.20103C22.9522 1.4937 25.7995 0 29.1137 0C34.1082 0 37.6558 3.45418 37.6558 8.35538V23.4324H31.681V9.28894C31.681 6.72164 29.8605 4.9012 27.2465 4.9012C24.2125 4.9012 22.0653 7.18842 22.0653 10.4559V23.4324H16.0905V9.28894C16.0905 6.72164 14.27 4.9012 11.7027 4.9012C8.62199 4.9012 6.47479 7.18842 6.47479 10.4559V23.4324H0.5V0.560137Z" fill="#1C1A18"/>
<path d="M51.5652 0C58.847 0 63.9349 4.94788 63.9349 11.9963C63.9349 19.0447 58.847 23.9925 51.5652 23.9925C44.2834 23.9925 39.2422 19.0447 39.2422 11.9963C39.2422 4.94788 44.3301 0 51.5652 0ZM51.5652 19.3247C55.2528 19.3247 57.8667 16.2907 57.8667 11.9963C57.8667 7.70188 55.2528 4.66781 51.5652 4.66781C47.8776 4.66781 45.3103 7.65521 45.3103 11.9963C45.3103 16.3373 47.9243 19.3247 51.5652 19.3247Z" fill="#1C1A18"/>
<path d="M65.8496 0.560137H70.6108L71.3576 3.87428C73.0847 1.40034 75.9321 0 79.2462 0C84.4742 0 88.1617 3.59421 88.1617 8.7288V23.4324H82.1869V9.66236C82.1869 6.86168 80.1798 4.9012 77.4258 4.9012C74.205 4.9012 71.8244 7.32846 71.8244 10.8293V23.4324H65.8496V0.560137Z" fill="#1C1A18"/>
<path d="M102.071 0C109.353 0 114.441 4.94788 114.441 11.9963C114.441 19.0447 109.353 23.9925 102.071 23.9925C94.7893 23.9925 89.748 19.0447 89.748 11.9963C89.748 4.94788 94.836 0 102.071 0ZM102.071 19.3247C105.759 19.3247 108.373 16.2907 108.373 11.9963C108.373 7.70188 105.759 4.66781 102.071 4.66781C98.3835 4.66781 95.8162 7.65521 95.8162 11.9963C95.8162 16.3373 98.4302 19.3247 102.071 19.3247Z" fill="#FACC15"/>
<path d="M80.0684 27.3485H80.4511L80.5118 27.5819C80.6472 27.4046 80.8572 27.3019 81.0953 27.3019C81.5901 27.3019 81.9355 27.6986 81.9355 28.2588C81.9355 28.8189 81.5901 29.2157 81.0953 29.2157C80.8712 29.2157 80.6752 29.127 80.5445 28.9636V29.9485H80.0684V27.3439V27.3485ZM80.9739 27.68C80.7218 27.68 80.5398 27.8713 80.5398 28.1374V28.3848C80.5398 28.6509 80.7172 28.8422 80.9739 28.8422C81.254 28.8422 81.45 28.5995 81.45 28.2588C81.45 27.918 81.254 27.6753 80.9739 27.6753V27.68Z" fill="#4B5B6B"/>
<path d="M82.9634 27.3066C83.5469 27.3066 83.953 27.7034 83.953 28.2635C83.953 28.8237 83.5469 29.2204 82.9634 29.2204C82.3799 29.2204 81.9785 28.8237 81.9785 28.2635C81.9785 27.7034 82.3846 27.3066 82.9634 27.3066ZM82.9634 28.8517C83.2575 28.8517 83.4675 28.609 83.4675 28.2682C83.4675 27.9275 83.2575 27.6801 82.9634 27.6801C82.6694 27.6801 82.464 27.9181 82.464 28.2682C82.464 28.6183 82.674 28.8517 82.9634 28.8517Z" fill="#4B5B6B"/>
<path d="M86.1187 29.1784H85.6566L85.2972 27.8948L84.9424 29.1784H84.4803L83.8828 27.3486H84.3636L84.7183 28.6323L85.0778 27.3486H85.5212L85.876 28.6323L86.2354 27.3486H86.7115L86.1187 29.1784Z" fill="#4B5B6B"/>
<path d="M87.584 27.3066C88.1021 27.3066 88.4662 27.6847 88.4662 28.2309C88.4662 28.2822 88.4662 28.3336 88.4568 28.3849H87.1265C87.1592 28.6743 87.3926 28.8704 87.7053 28.8704C87.864 28.8704 88.0414 28.8237 88.2328 28.7163L88.3775 29.0431C88.1207 29.1691 87.864 29.2251 87.6446 29.2251C87.0565 29.2251 86.6504 28.8283 86.6504 28.2682C86.6504 27.7081 87.0332 27.3113 87.5886 27.3113L87.584 27.3066ZM87.1265 28.0955H88.0087C87.9947 27.8341 87.8267 27.6567 87.5886 27.6567C87.3506 27.6567 87.1592 27.8341 87.1312 28.0955H87.1265Z" fill="#4B5B6B"/>
<path d="M88.5879 27.3483H88.9706L89.0313 27.6331C89.134 27.437 89.3347 27.3203 89.5728 27.3203C89.6381 27.3203 89.7175 27.3296 89.7922 27.3483L89.7455 27.7311C89.6802 27.7171 89.6055 27.7031 89.5308 27.7031C89.246 27.7031 89.064 27.9225 89.064 28.2352V29.1781H88.5879V27.3483Z" fill="#4B5B6B"/>
<path d="M90.6465 27.3066C91.1646 27.3066 91.5287 27.6847 91.5287 28.2309C91.5287 28.2822 91.5287 28.3336 91.5193 28.3849H90.189C90.2217 28.6743 90.4551 28.8704 90.7678 28.8704C90.9219 28.8704 91.1039 28.8237 91.2953 28.7163L91.44 29.0431C91.1833 29.1691 90.9265 29.2251 90.7071 29.2251C90.119 29.2251 89.7129 28.8283 89.7129 28.2682C89.7129 27.7081 90.0957 27.3113 90.6511 27.3113L90.6465 27.3066ZM90.189 28.0955H91.0712C91.0572 27.8341 90.8892 27.6567 90.6511 27.6567C90.4131 27.6567 90.2217 27.8341 90.1937 28.0955H90.189Z" fill="#4B5B6B"/>
<path d="M93.4035 29.1782H93.0207L92.96 28.9448C92.8247 29.1222 92.6193 29.2249 92.3766 29.2249C91.8864 29.2249 91.541 28.8281 91.541 28.268C91.541 27.7079 91.8864 27.3111 92.3766 27.3111C92.6053 27.3111 92.7967 27.3998 92.9227 27.5631V26.5596H93.3988V29.1875L93.4035 29.1782ZM92.5026 28.8468C92.7593 28.8468 92.9414 28.6507 92.9414 28.3894V28.142C92.9414 27.8712 92.764 27.6845 92.5026 27.6845C92.2272 27.6845 92.0265 27.9226 92.0265 28.268C92.0265 28.6134 92.2225 28.8515 92.5026 28.8515V28.8468Z" fill="#4B5B6B"/>
<path d="M94.3418 26.5504H94.8179V27.5539C94.9486 27.3952 95.1447 27.3019 95.3687 27.3019C95.8635 27.3019 96.2089 27.6986 96.2089 28.2588C96.2089 28.8189 95.8635 29.2157 95.3687 29.2157C95.126 29.2157 94.9159 29.113 94.7852 28.9356L94.7246 29.169H94.3418V26.541V26.5504ZM95.2474 27.68C94.9953 27.68 94.8133 27.8713 94.8133 28.1374V28.3848C94.8133 28.6509 94.9906 28.8422 95.2474 28.8422C95.5274 28.8422 95.7235 28.5995 95.7235 28.2588C95.7235 27.918 95.5274 27.6753 95.2474 27.6753V27.68Z" fill="#4B5B6B"/>
<path d="M97.2277 29.3835C97.0643 29.799 96.8309 29.9997 96.4948 29.9997C96.4155 29.9997 96.3175 29.9903 96.2101 29.967L96.2755 29.5936C96.3408 29.6076 96.4015 29.6216 96.4528 29.6216C96.6162 29.6216 96.7142 29.5329 96.7983 29.3182L96.8636 29.1595L96.1074 27.353H96.6069L97.083 28.6413L97.5451 27.353H98.0399L97.2277 29.3882V29.3835Z" fill="#4B5B6B"/>
<path d="M98.7109 27.3487H99.0937L99.1544 27.6147C99.2944 27.4187 99.5185 27.3066 99.7845 27.3066C100.205 27.3066 100.499 27.596 100.499 28.0068V29.1831H100.023V28.0815C100.023 27.8574 99.8639 27.6987 99.6398 27.6987C99.3831 27.6987 99.1917 27.8948 99.1917 28.1749V29.1831H98.7156V27.3533L98.7109 27.3487Z" fill="#4B5B6B"/>
<path d="M101.61 27.3066C102.193 27.3066 102.599 27.7034 102.599 28.2635C102.599 28.8237 102.193 29.2204 101.61 29.2204C101.026 29.2204 100.625 28.8237 100.625 28.2635C100.625 27.7034 101.031 27.3066 101.61 27.3066ZM101.61 28.8517C101.904 28.8517 102.114 28.609 102.114 28.2682C102.114 27.9275 101.904 27.6801 101.61 27.6801C101.316 27.6801 101.11 27.9181 101.11 28.2682C101.11 28.6183 101.321 28.8517 101.61 28.8517Z" fill="#4B5B6B"/>
<path d="M102.754 27.3483H103.137L103.197 27.6331C103.3 27.437 103.501 27.3203 103.739 27.3203C103.804 27.3203 103.884 27.3296 103.958 27.3483L103.912 27.7311C103.846 27.7171 103.771 27.7031 103.697 27.7031C103.412 27.7031 103.23 27.9225 103.23 28.2352V29.1781H102.754V27.3483Z" fill="#4B5B6B"/>
<path d="M104.771 27.3485H105.28V27.7126H104.771V28.5855C104.771 28.7395 104.873 28.8422 105.027 28.8422C105.097 28.8422 105.177 28.8329 105.261 28.8096L105.326 29.169C105.182 29.2063 105.041 29.225 104.911 29.225C104.547 29.225 104.29 28.9869 104.29 28.6369V27.7173H103.949V27.3532H104.29V26.8164H104.766V27.3532L104.771 27.3485Z" fill="#4B5B6B"/>
<path d="M105.441 26.5503H105.918V27.5819C106.048 27.4045 106.263 27.3018 106.51 27.3018C106.93 27.3018 107.225 27.5912 107.225 28.002V29.1783H106.748V28.0767C106.748 27.8526 106.59 27.6939 106.366 27.6939C106.109 27.6939 105.918 27.89 105.918 28.17V29.1783H105.441V26.5503Z" fill="#4B5B6B"/>
<path d="M107.459 27.3487H107.842L107.902 27.6007C108.047 27.4093 108.262 27.3066 108.505 27.3066C108.771 27.3066 108.985 27.4327 109.088 27.6427C109.256 27.428 109.485 27.3066 109.751 27.3066C110.152 27.3066 110.432 27.582 110.432 27.9741V29.1784H109.956V28.0488C109.956 27.8434 109.812 27.6987 109.602 27.6987C109.359 27.6987 109.186 27.8808 109.186 28.1422V29.1784H108.71V28.0488C108.71 27.8434 108.565 27.6987 108.36 27.6987C108.112 27.6987 107.94 27.8808 107.94 28.1422V29.1784H107.464V27.3487H107.459Z" fill="#4B5B6B"/>
<path d="M110.908 26.541C111.076 26.541 111.197 26.6624 111.197 26.8304C111.197 26.9985 111.076 27.1198 110.908 27.1198C110.74 27.1198 110.623 26.9985 110.623 26.8304C110.623 26.6624 110.744 26.541 110.908 26.541ZM110.67 27.3532H111.146V29.183H110.67V27.3532Z" fill="#4B5B6B"/>
<path d="M111.889 28.6555C111.889 28.7722 111.963 28.8422 112.075 28.8422C112.122 28.8422 112.178 28.8329 112.239 28.8189L112.29 29.183C112.169 29.211 112.057 29.225 111.959 29.225C111.623 29.225 111.408 29.0243 111.408 28.7069V26.555H111.884V28.6602L111.889 28.6555Z" fill="#4B5B6B"/>
<path d="M112.766 28.6557C112.766 28.7724 112.841 28.8424 112.953 28.8424C112.999 28.8424 113.055 28.8331 113.116 28.8191L113.167 29.1832C113.046 29.2112 112.934 29.2252 112.836 29.2252C112.5 29.2252 112.285 29.0244 112.285 28.707V26.5552H112.761V28.6604L112.766 28.6557Z" fill="#4B5B6B"/>
<path d="M117.004 18.9419C118.488 18.9419 119.529 19.9828 119.529 21.4672C119.529 22.9515 118.483 23.9925 117.004 23.9925C115.524 23.9925 114.479 22.9515 114.479 21.4672C114.479 19.9828 115.524 18.9419 117.004 18.9419ZM117.004 23.5303C118.217 23.5303 119.072 22.6808 119.072 21.4672C119.072 20.2535 118.222 19.404 117.004 19.404C115.786 19.404 114.941 20.2535 114.941 21.4672C114.941 22.6808 115.79 23.5303 117.004 23.5303ZM115.935 20.0388H117.177C117.76 20.0388 118.18 20.4076 118.18 20.9537C118.18 21.3785 117.933 21.7006 117.564 21.7893L118.278 22.8955H117.578L116.966 21.8873H116.556V22.8955H115.94V20.0435L115.935 20.0388ZM116.551 21.3972H117.092C117.368 21.3972 117.555 21.2338 117.555 20.9724C117.555 20.711 117.368 20.5383 117.092 20.5383H116.551V21.3972Z" fill="#1C1A18"/>
</g>
<rect width="68" height="23" transform="translate(129.529 3.5)" fill="#1C1A18"/>
<path d="M139.177 9.125V20.5H136.638V9.125H139.177ZM150.615 9.125V20.5H148.076L143.779 13.1484V20.5H141.232V9.125H143.779L148.084 16.4766V9.125H150.615ZM156.701 17.9766L159.232 9.125H162.068L158.17 20.5H156.318L156.701 17.9766ZM154.396 9.125L156.92 17.9766L157.318 20.5H155.443L151.568 9.125H154.396ZM170.748 18.5312V20.5H164.693V18.5312H170.748ZM165.56 9.125V20.5H163.013V9.125H165.56ZM169.967 13.7031V15.6094H164.693V13.7031H169.967ZM170.756 9.125V11.1016H164.693V9.125H170.756ZM177.896 17.5C177.896 17.3073 177.868 17.1354 177.81 16.9844C177.753 16.8281 177.649 16.6849 177.498 16.5547C177.347 16.4245 177.133 16.2943 176.857 16.1641C176.581 16.0286 176.219 15.8906 175.771 15.75C175.261 15.5833 174.774 15.3958 174.31 15.1875C173.852 14.974 173.443 14.7266 173.084 14.4453C172.724 14.1641 172.441 13.8359 172.232 13.4609C172.029 13.0859 171.927 12.6484 171.927 12.1484C171.927 11.6641 172.034 11.2266 172.248 10.8359C172.461 10.4453 172.761 10.112 173.146 9.83594C173.532 9.55469 173.985 9.34115 174.506 9.19531C175.026 9.04427 175.599 8.96875 176.224 8.96875C177.058 8.96875 177.789 9.11719 178.42 9.41406C179.055 9.70573 179.55 10.1172 179.904 10.6484C180.258 11.1745 180.435 11.7865 180.435 12.4844H177.904C177.904 12.1771 177.839 11.9062 177.709 11.6719C177.584 11.4323 177.391 11.2448 177.131 11.1094C176.875 10.974 176.555 10.9062 176.17 10.9062C175.795 10.9062 175.48 10.9635 175.224 11.0781C174.974 11.1875 174.784 11.3385 174.654 11.5312C174.529 11.724 174.467 11.9349 174.467 12.1641C174.467 12.3464 174.513 12.513 174.607 12.6641C174.706 12.8099 174.847 12.9479 175.029 13.0781C175.217 13.2031 175.446 13.3229 175.717 13.4375C175.987 13.5521 176.297 13.6615 176.646 13.7656C177.256 13.9583 177.795 14.1719 178.263 14.4062C178.737 14.6406 179.136 14.9062 179.459 15.2031C179.782 15.5 180.024 15.8359 180.185 16.2109C180.352 16.5859 180.435 17.0104 180.435 17.4844C180.435 17.9896 180.336 18.4375 180.138 18.8281C179.946 19.2188 179.664 19.5521 179.295 19.8281C178.93 20.099 178.493 20.3047 177.982 20.4453C177.472 20.5859 176.901 20.6562 176.271 20.6562C175.698 20.6562 175.133 20.5833 174.576 20.4375C174.019 20.2865 173.513 20.0573 173.06 19.75C172.612 19.4427 172.253 19.0521 171.982 18.5781C171.717 18.099 171.584 17.5312 171.584 16.875H174.131C174.131 17.2188 174.18 17.5104 174.279 17.75C174.378 17.9844 174.519 18.1745 174.701 18.3203C174.888 18.4661 175.115 18.5703 175.381 18.6328C175.646 18.6953 175.943 18.7266 176.271 18.7266C176.651 18.7266 176.959 18.6745 177.193 18.5703C177.433 18.4609 177.61 18.3125 177.724 18.125C177.839 17.9375 177.896 17.7292 177.896 17.5ZM187.232 9.125V20.5H184.693V9.125H187.232ZM190.693 9.125V11.1016H181.302V9.125H190.693Z" fill="#FACC15"/>
<defs>
<clipPath id="clip0_1_8866">
<rect width="119.029" height="30" fill="white" transform="translate(0.5)"/>
</clipPath>
</defs>
</svg>
