<svg width="246" height="30" viewBox="0 0 246 30" fill="none" xmlns="http://www.w3.org/2000/svg">
<g clip-path="url(#clip0_1_8795)">
<path d="M0.5 0.560137H5.26116L6.00801 3.68757C7.82846 1.30699 10.4891 0 13.5232 0C16.8373 0 19.5447 1.58705 20.8516 4.20103C22.9522 1.4937 25.7995 0 29.1137 0C34.1082 0 37.6558 3.45418 37.6558 8.35538V23.4324H31.681V9.28894C31.681 6.72164 29.8605 4.9012 27.2465 4.9012C24.2125 4.9012 22.0653 7.18842 22.0653 10.4559V23.4324H16.0905V9.28894C16.0905 6.72164 14.27 4.9012 11.7027 4.9012C8.62199 4.9012 6.47479 7.18842 6.47479 10.4559V23.4324H0.5V0.560137Z" fill="#1C1A18"/>
<path d="M51.5652 0C58.847 0 63.9349 4.94788 63.9349 11.9963C63.9349 19.0447 58.847 23.9925 51.5652 23.9925C44.2834 23.9925 39.2422 19.0447 39.2422 11.9963C39.2422 4.94788 44.3301 0 51.5652 0ZM51.5652 19.3247C55.2528 19.3247 57.8667 16.2907 57.8667 11.9963C57.8667 7.70188 55.2528 4.66781 51.5652 4.66781C47.8776 4.66781 45.3103 7.65521 45.3103 11.9963C45.3103 16.3373 47.9243 19.3247 51.5652 19.3247Z" fill="#1C1A18"/>
<path d="M65.8496 0.560137H70.6108L71.3576 3.87428C73.0847 1.40034 75.9321 0 79.2462 0C84.4742 0 88.1617 3.59421 88.1617 8.7288V23.4324H82.1869V9.66236C82.1869 6.86168 80.1798 4.9012 77.4258 4.9012C74.205 4.9012 71.8244 7.32846 71.8244 10.8293V23.4324H65.8496V0.560137Z" fill="#1C1A18"/>
<path d="M102.071 0C109.353 0 114.441 4.94788 114.441 11.9963C114.441 19.0447 109.353 23.9925 102.071 23.9925C94.7893 23.9925 89.748 19.0447 89.748 11.9963C89.748 4.94788 94.836 0 102.071 0ZM102.071 19.3247C105.759 19.3247 108.373 16.2907 108.373 11.9963C108.373 7.70188 105.759 4.66781 102.071 4.66781C98.3835 4.66781 95.8162 7.65521 95.8162 11.9963C95.8162 16.3373 98.4302 19.3247 102.071 19.3247Z" fill="#FACC15"/>
<path d="M80.0684 27.3485H80.4511L80.5118 27.5819C80.6472 27.4046 80.8572 27.3019 81.0953 27.3019C81.5901 27.3019 81.9355 27.6986 81.9355 28.2588C81.9355 28.8189 81.5901 29.2157 81.0953 29.2157C80.8712 29.2157 80.6752 29.127 80.5445 28.9636V29.9485H80.0684V27.3439V27.3485ZM80.9739 27.68C80.7218 27.68 80.5398 27.8713 80.5398 28.1374V28.3848C80.5398 28.6509 80.7172 28.8422 80.9739 28.8422C81.254 28.8422 81.45 28.5995 81.45 28.2588C81.45 27.918 81.254 27.6753 80.9739 27.6753V27.68Z" fill="#4B5B6B"/>
<path d="M82.9634 27.3066C83.5469 27.3066 83.953 27.7034 83.953 28.2635C83.953 28.8237 83.5469 29.2204 82.9634 29.2204C82.3799 29.2204 81.9785 28.8237 81.9785 28.2635C81.9785 27.7034 82.3846 27.3066 82.9634 27.3066ZM82.9634 28.8517C83.2575 28.8517 83.4675 28.609 83.4675 28.2682C83.4675 27.9275 83.2575 27.6801 82.9634 27.6801C82.6694 27.6801 82.464 27.9181 82.464 28.2682C82.464 28.6183 82.674 28.8517 82.9634 28.8517Z" fill="#4B5B6B"/>
<path d="M86.1187 29.1784H85.6566L85.2972 27.8948L84.9424 29.1784H84.4803L83.8828 27.3486H84.3636L84.7183 28.6323L85.0778 27.3486H85.5212L85.876 28.6323L86.2354 27.3486H86.7115L86.1187 29.1784Z" fill="#4B5B6B"/>
<path d="M87.584 27.3066C88.1021 27.3066 88.4662 27.6847 88.4662 28.2309C88.4662 28.2822 88.4662 28.3336 88.4568 28.3849H87.1265C87.1592 28.6743 87.3926 28.8704 87.7053 28.8704C87.864 28.8704 88.0414 28.8237 88.2328 28.7163L88.3775 29.0431C88.1207 29.1691 87.864 29.2251 87.6446 29.2251C87.0565 29.2251 86.6504 28.8283 86.6504 28.2682C86.6504 27.7081 87.0332 27.3113 87.5886 27.3113L87.584 27.3066ZM87.1265 28.0955H88.0087C87.9947 27.8341 87.8267 27.6567 87.5886 27.6567C87.3506 27.6567 87.1592 27.8341 87.1312 28.0955H87.1265Z" fill="#4B5B6B"/>
<path d="M88.5879 27.3483H88.9706L89.0313 27.6331C89.134 27.437 89.3347 27.3203 89.5728 27.3203C89.6381 27.3203 89.7175 27.3296 89.7922 27.3483L89.7455 27.7311C89.6802 27.7171 89.6055 27.7031 89.5308 27.7031C89.246 27.7031 89.064 27.9225 89.064 28.2352V29.1781H88.5879V27.3483Z" fill="#4B5B6B"/>
<path d="M90.6465 27.3066C91.1646 27.3066 91.5287 27.6847 91.5287 28.2309C91.5287 28.2822 91.5287 28.3336 91.5193 28.3849H90.189C90.2217 28.6743 90.4551 28.8704 90.7678 28.8704C90.9219 28.8704 91.1039 28.8237 91.2953 28.7163L91.44 29.0431C91.1833 29.1691 90.9265 29.2251 90.7071 29.2251C90.119 29.2251 89.7129 28.8283 89.7129 28.2682C89.7129 27.7081 90.0957 27.3113 90.6511 27.3113L90.6465 27.3066ZM90.189 28.0955H91.0712C91.0572 27.8341 90.8892 27.6567 90.6511 27.6567C90.4131 27.6567 90.2217 27.8341 90.1937 28.0955H90.189Z" fill="#4B5B6B"/>
<path d="M93.4035 29.1782H93.0207L92.96 28.9448C92.8247 29.1222 92.6193 29.2249 92.3766 29.2249C91.8864 29.2249 91.541 28.8281 91.541 28.268C91.541 27.7079 91.8864 27.3111 92.3766 27.3111C92.6053 27.3111 92.7967 27.3998 92.9227 27.5631V26.5596H93.3988V29.1875L93.4035 29.1782ZM92.5026 28.8468C92.7593 28.8468 92.9414 28.6507 92.9414 28.3894V28.142C92.9414 27.8712 92.764 27.6845 92.5026 27.6845C92.2272 27.6845 92.0265 27.9226 92.0265 28.268C92.0265 28.6134 92.2225 28.8515 92.5026 28.8515V28.8468Z" fill="#4B5B6B"/>
<path d="M94.3418 26.5504H94.8179V27.5539C94.9486 27.3952 95.1447 27.3019 95.3687 27.3019C95.8635 27.3019 96.2089 27.6986 96.2089 28.2588C96.2089 28.8189 95.8635 29.2157 95.3687 29.2157C95.126 29.2157 94.9159 29.113 94.7852 28.9356L94.7246 29.169H94.3418V26.541V26.5504ZM95.2474 27.68C94.9953 27.68 94.8133 27.8713 94.8133 28.1374V28.3848C94.8133 28.6509 94.9906 28.8422 95.2474 28.8422C95.5274 28.8422 95.7235 28.5995 95.7235 28.2588C95.7235 27.918 95.5274 27.6753 95.2474 27.6753V27.68Z" fill="#4B5B6B"/>
<path d="M97.2277 29.3835C97.0643 29.799 96.8309 29.9997 96.4948 29.9997C96.4155 29.9997 96.3175 29.9903 96.2101 29.967L96.2755 29.5936C96.3408 29.6076 96.4015 29.6216 96.4528 29.6216C96.6162 29.6216 96.7142 29.5329 96.7983 29.3182L96.8636 29.1595L96.1074 27.353H96.6069L97.083 28.6413L97.5451 27.353H98.0399L97.2277 29.3882V29.3835Z" fill="#4B5B6B"/>
<path d="M98.7109 27.3487H99.0937L99.1544 27.6147C99.2944 27.4187 99.5185 27.3066 99.7845 27.3066C100.205 27.3066 100.499 27.596 100.499 28.0068V29.1831H100.023V28.0815C100.023 27.8574 99.8639 27.6987 99.6398 27.6987C99.3831 27.6987 99.1917 27.8948 99.1917 28.1749V29.1831H98.7156V27.3533L98.7109 27.3487Z" fill="#4B5B6B"/>
<path d="M101.61 27.3066C102.193 27.3066 102.599 27.7034 102.599 28.2635C102.599 28.8237 102.193 29.2204 101.61 29.2204C101.026 29.2204 100.625 28.8237 100.625 28.2635C100.625 27.7034 101.031 27.3066 101.61 27.3066ZM101.61 28.8517C101.904 28.8517 102.114 28.609 102.114 28.2682C102.114 27.9275 101.904 27.6801 101.61 27.6801C101.316 27.6801 101.11 27.9181 101.11 28.2682C101.11 28.6183 101.321 28.8517 101.61 28.8517Z" fill="#4B5B6B"/>
<path d="M102.754 27.3483H103.137L103.197 27.6331C103.3 27.437 103.501 27.3203 103.739 27.3203C103.804 27.3203 103.884 27.3296 103.958 27.3483L103.912 27.7311C103.846 27.7171 103.771 27.7031 103.697 27.7031C103.412 27.7031 103.23 27.9225 103.23 28.2352V29.1781H102.754V27.3483Z" fill="#4B5B6B"/>
<path d="M104.771 27.3485H105.28V27.7126H104.771V28.5855C104.771 28.7395 104.873 28.8422 105.027 28.8422C105.097 28.8422 105.177 28.8329 105.261 28.8096L105.326 29.169C105.182 29.2063 105.041 29.225 104.911 29.225C104.547 29.225 104.29 28.9869 104.29 28.6369V27.7173H103.949V27.3532H104.29V26.8164H104.766V27.3532L104.771 27.3485Z" fill="#4B5B6B"/>
<path d="M105.441 26.5503H105.918V27.5819C106.048 27.4045 106.263 27.3018 106.51 27.3018C106.93 27.3018 107.225 27.5912 107.225 28.002V29.1783H106.748V28.0767C106.748 27.8526 106.59 27.6939 106.366 27.6939C106.109 27.6939 105.918 27.89 105.918 28.17V29.1783H105.441V26.5503Z" fill="#4B5B6B"/>
<path d="M107.459 27.3487H107.842L107.902 27.6007C108.047 27.4093 108.262 27.3066 108.505 27.3066C108.771 27.3066 108.985 27.4327 109.088 27.6427C109.256 27.428 109.485 27.3066 109.751 27.3066C110.152 27.3066 110.432 27.582 110.432 27.9741V29.1784H109.956V28.0488C109.956 27.8434 109.812 27.6987 109.602 27.6987C109.359 27.6987 109.186 27.8808 109.186 28.1422V29.1784H108.71V28.0488C108.71 27.8434 108.565 27.6987 108.36 27.6987C108.112 27.6987 107.94 27.8808 107.94 28.1422V29.1784H107.464V27.3487H107.459Z" fill="#4B5B6B"/>
<path d="M110.908 26.541C111.076 26.541 111.197 26.6624 111.197 26.8304C111.197 26.9985 111.076 27.1198 110.908 27.1198C110.74 27.1198 110.623 26.9985 110.623 26.8304C110.623 26.6624 110.744 26.541 110.908 26.541ZM110.67 27.3532H111.146V29.183H110.67V27.3532Z" fill="#4B5B6B"/>
<path d="M111.889 28.6555C111.889 28.7722 111.963 28.8422 112.075 28.8422C112.122 28.8422 112.178 28.8329 112.239 28.8189L112.29 29.183C112.169 29.211 112.057 29.225 111.959 29.225C111.623 29.225 111.408 29.0243 111.408 28.7069V26.555H111.884V28.6602L111.889 28.6555Z" fill="#4B5B6B"/>
<path d="M112.766 28.6557C112.766 28.7724 112.841 28.8424 112.953 28.8424C112.999 28.8424 113.055 28.8331 113.116 28.8191L113.167 29.1832C113.046 29.2112 112.934 29.2252 112.836 29.2252C112.5 29.2252 112.285 29.0244 112.285 28.707V26.5552H112.761V28.6604L112.766 28.6557Z" fill="#4B5B6B"/>
<path d="M117.004 18.9419C118.488 18.9419 119.529 19.9828 119.529 21.4672C119.529 22.9515 118.483 23.9925 117.004 23.9925C115.524 23.9925 114.479 22.9515 114.479 21.4672C114.479 19.9828 115.524 18.9419 117.004 18.9419ZM117.004 23.5303C118.217 23.5303 119.072 22.6808 119.072 21.4672C119.072 20.2535 118.222 19.404 117.004 19.404C115.786 19.404 114.941 20.2535 114.941 21.4672C114.941 22.6808 115.79 23.5303 117.004 23.5303ZM115.935 20.0388H117.177C117.76 20.0388 118.18 20.4076 118.18 20.9537C118.18 21.3785 117.933 21.7006 117.564 21.7893L118.278 22.8955H117.578L116.966 21.8873H116.556V22.8955H115.94V20.0435L115.935 20.0388ZM116.551 21.3972H117.092C117.368 21.3972 117.555 21.2338 117.555 20.9724C117.555 20.711 117.368 20.5383 117.092 20.5383H116.551V21.3972Z" fill="#1C1A18"/>
</g>
<rect width="116" height="23" transform="translate(129.529 3.5)" fill="#1C1A18"/>
<path d="M141.763 9.125V20.5H139.224V9.125H141.763ZM145.224 9.125V11.1016H135.834V9.125H145.224ZM154.217 18.5312V20.5H148.162V18.5312H154.217ZM149.029 9.125V20.5H146.482V9.125H149.029ZM153.435 13.7031V15.6094H148.162V13.7031H153.435ZM154.224 9.125V11.1016H148.162V9.125H154.224ZM162.006 16.6875H164.537C164.495 17.4688 164.282 18.1589 163.896 18.7578C163.516 19.3516 162.987 19.8177 162.31 20.1562C161.633 20.4896 160.829 20.6562 159.896 20.6562C159.151 20.6562 158.485 20.5286 157.896 20.2734C157.308 20.0182 156.808 19.6536 156.396 19.1797C155.99 18.7005 155.677 18.125 155.459 17.4531C155.245 16.776 155.138 16.013 155.138 15.1641V14.4688C155.138 13.6198 155.25 12.8568 155.474 12.1797C155.698 11.5026 156.019 10.9245 156.435 10.4453C156.852 9.96615 157.352 9.59896 157.935 9.34375C158.519 9.08854 159.17 8.96094 159.888 8.96094C160.857 8.96094 161.675 9.13542 162.342 9.48438C163.008 9.83333 163.524 10.3125 163.888 10.9219C164.258 11.5312 164.48 12.2266 164.552 13.0078H162.013C161.993 12.5651 161.909 12.1927 161.763 11.8906C161.618 11.5833 161.394 11.3516 161.092 11.1953C160.789 11.0391 160.388 10.9609 159.888 10.9609C159.524 10.9609 159.204 11.0286 158.927 11.1641C158.657 11.2995 158.43 11.5104 158.248 11.7969C158.071 12.0833 157.938 12.4479 157.849 12.8906C157.761 13.3281 157.717 13.849 157.717 14.4531V15.1641C157.717 15.763 157.756 16.2812 157.834 16.7188C157.912 17.1562 158.037 17.5182 158.209 17.8047C158.386 18.0911 158.612 18.3047 158.888 18.4453C159.164 18.5859 159.5 18.6562 159.896 18.6562C160.349 18.6562 160.727 18.5859 161.029 18.4453C161.331 18.2995 161.563 18.0807 161.724 17.7891C161.886 17.4974 161.98 17.1302 162.006 16.6875ZM173.584 13.7031V15.6719H167.693V13.7031H173.584ZM168.498 9.125V20.5H165.951V9.125H168.498ZM175.342 9.125V20.5H172.802V9.125H175.342ZM186.615 9.125V20.5H184.076L179.779 13.1484V20.5H177.232V9.125H179.779L184.084 16.4766V9.125H186.615ZM197.982 14.5625V15.0703C197.982 15.9349 197.862 16.7109 197.623 17.3984C197.388 18.0859 197.052 18.6719 196.615 19.1562C196.183 19.6406 195.667 20.013 195.068 20.2734C194.474 20.5286 193.816 20.6562 193.092 20.6562C192.368 20.6562 191.706 20.5286 191.107 20.2734C190.508 20.013 189.987 19.6406 189.545 19.1562C189.107 18.6719 188.769 18.0859 188.529 17.3984C188.289 16.7109 188.17 15.9349 188.17 15.0703V14.5625C188.17 13.6979 188.289 12.9219 188.529 12.2344C188.769 11.5417 189.105 10.9531 189.537 10.4688C189.974 9.98438 190.493 9.61458 191.092 9.35938C191.691 9.09896 192.352 8.96875 193.076 8.96875C193.8 8.96875 194.461 9.09896 195.06 9.35938C195.659 9.61458 196.175 9.98438 196.607 10.4688C197.045 10.9531 197.383 11.5417 197.623 12.2344C197.862 12.9219 197.982 13.6979 197.982 14.5625ZM195.412 15.0703V14.5469C195.412 13.9688 195.36 13.4583 195.256 13.0156C195.151 12.5677 195 12.1927 194.802 11.8906C194.605 11.5885 194.36 11.362 194.068 11.2109C193.776 11.0547 193.446 10.9766 193.076 10.9766C192.691 10.9766 192.355 11.0547 192.068 11.2109C191.782 11.362 191.539 11.5885 191.342 11.8906C191.149 12.1927 191 12.5677 190.896 13.0156C190.797 13.4583 190.748 13.9688 190.748 14.5469V15.0703C190.748 15.6432 190.797 16.1536 190.896 16.6016C191 17.0443 191.151 17.4193 191.349 17.7266C191.547 18.0339 191.789 18.2656 192.076 18.4219C192.368 18.5781 192.706 18.6562 193.092 18.6562C193.461 18.6562 193.789 18.5781 194.076 18.4219C194.368 18.2656 194.612 18.0339 194.81 17.7266C195.008 17.4193 195.157 17.0443 195.256 16.6016C195.36 16.1536 195.412 15.6432 195.412 15.0703ZM206.967 18.5312V20.5H201.224V18.5312H206.967ZM202.092 9.125V20.5H199.545V9.125H202.092ZM217.185 14.5625V15.0703C217.185 15.9349 217.066 16.7109 216.826 17.3984C216.592 18.0859 216.256 18.6719 215.818 19.1562C215.386 19.6406 214.87 20.013 214.271 20.2734C213.677 20.5286 213.019 20.6562 212.295 20.6562C211.571 20.6562 210.909 20.5286 210.31 20.2734C209.711 20.013 209.191 19.6406 208.748 19.1562C208.31 18.6719 207.972 18.0859 207.732 17.3984C207.493 16.7109 207.373 15.9349 207.373 15.0703V14.5625C207.373 13.6979 207.493 12.9219 207.732 12.2344C207.972 11.5417 208.308 10.9531 208.74 10.4688C209.177 9.98438 209.696 9.61458 210.295 9.35938C210.894 9.09896 211.555 8.96875 212.279 8.96875C213.003 8.96875 213.664 9.09896 214.263 9.35938C214.862 9.61458 215.378 9.98438 215.81 10.4688C216.248 10.9531 216.586 11.5417 216.826 12.2344C217.066 12.9219 217.185 13.6979 217.185 14.5625ZM214.615 15.0703V14.5469C214.615 13.9688 214.563 13.4583 214.459 13.0156C214.355 12.5677 214.204 12.1927 214.006 11.8906C213.808 11.5885 213.563 11.362 213.271 11.2109C212.98 11.0547 212.649 10.9766 212.279 10.9766C211.894 10.9766 211.558 11.0547 211.271 11.2109C210.985 11.362 210.743 11.5885 210.545 11.8906C210.352 12.1927 210.204 12.5677 210.099 13.0156C210 13.4583 209.951 13.9688 209.951 14.5469V15.0703C209.951 15.6432 210 16.1536 210.099 16.6016C210.204 17.0443 210.355 17.4193 210.552 17.7266C210.75 18.0339 210.993 18.2656 211.279 18.4219C211.571 18.5781 211.909 18.6562 212.295 18.6562C212.664 18.6562 212.993 18.5781 213.279 18.4219C213.571 18.2656 213.816 18.0339 214.013 17.7266C214.211 17.4193 214.36 17.0443 214.459 16.6016C214.563 16.1536 214.615 15.6432 214.615 15.0703ZM227.912 14.4922V19.0781C227.724 19.2917 227.438 19.5208 227.052 19.7656C226.672 20.0104 226.185 20.2214 225.592 20.3984C224.998 20.5703 224.289 20.6562 223.467 20.6562C222.722 20.6562 222.045 20.5365 221.435 20.2969C220.826 20.0521 220.302 19.6953 219.865 19.2266C219.427 18.7526 219.089 18.1745 218.849 17.4922C218.615 16.8099 218.498 16.0286 218.498 15.1484V14.4766C218.498 13.5964 218.615 12.8151 218.849 12.1328C219.084 11.4505 219.414 10.875 219.842 10.4062C220.269 9.93229 220.776 9.57292 221.365 9.32812C221.954 9.08333 222.605 8.96094 223.318 8.96094C224.334 8.96094 225.164 9.125 225.81 9.45312C226.456 9.77604 226.946 10.224 227.279 10.7969C227.618 11.3698 227.826 12.0286 227.904 12.7734H225.451C225.399 12.3932 225.295 12.0651 225.138 11.7891C224.987 11.513 224.771 11.3021 224.49 11.1562C224.209 11.0052 223.844 10.9297 223.396 10.9297C223.037 10.9297 222.711 11.0052 222.42 11.1562C222.133 11.3021 221.891 11.5234 221.693 11.8203C221.495 12.1172 221.344 12.487 221.24 12.9297C221.136 13.3672 221.084 13.8776 221.084 14.4609V15.1484C221.084 15.7318 221.136 16.2448 221.24 16.6875C221.349 17.1302 221.508 17.5 221.717 17.7969C221.925 18.0885 222.188 18.3099 222.506 18.4609C222.829 18.612 223.204 18.6875 223.631 18.6875C223.964 18.6875 224.245 18.6615 224.474 18.6094C224.704 18.5521 224.891 18.4818 225.037 18.3984C225.183 18.3099 225.292 18.2292 225.365 18.1562V16.2656H223.342V14.4922H227.912ZM231.474 9.125L233.701 14.1875L235.943 9.125H238.693L234.998 16.3906V20.5H232.412V16.3906L228.709 9.125H231.474Z" fill="#FACC15"/>
<defs>
<clipPath id="clip0_1_8795">
<rect width="119.029" height="30" fill="white" transform="translate(0.5)"/>
</clipPath>
</defs>
</svg>
