<svg width="185" height="30" viewBox="0 0 185 30" fill="none" xmlns="http://www.w3.org/2000/svg">
<g clip-path="url(#clip0_1_8759)">
<path d="M0 0.560137H4.76116L5.50801 3.68757C7.32846 1.30699 9.98911 0 13.0232 0C16.3373 0 19.0447 1.58705 20.3516 4.20103C22.4522 1.4937 25.2995 0 28.6137 0C33.6082 0 37.1558 3.45418 37.1558 8.35538V23.4324H31.181V9.28894C31.181 6.72164 29.3605 4.9012 26.7465 4.9012C23.7125 4.9012 21.5653 7.18842 21.5653 10.4559V23.4324H15.5905V9.28894C15.5905 6.72164 13.77 4.9012 11.2027 4.9012C8.12199 4.9012 5.97479 7.18842 5.97479 10.4559V23.4324H0V0.560137Z" fill="#1C1A18"/>
<path d="M51.0652 0C58.347 0 63.4349 4.94788 63.4349 11.9963C63.4349 19.0447 58.347 23.9925 51.0652 23.9925C43.7834 23.9925 38.7422 19.0447 38.7422 11.9963C38.7422 4.94788 43.8301 0 51.0652 0ZM51.0652 19.3247C54.7528 19.3247 57.3667 16.2907 57.3667 11.9963C57.3667 7.70188 54.7528 4.66781 51.0652 4.66781C47.3776 4.66781 44.8103 7.65521 44.8103 11.9963C44.8103 16.3373 47.4243 19.3247 51.0652 19.3247Z" fill="#1C1A18"/>
<path d="M65.3496 0.560137H70.1108L70.8576 3.87428C72.5847 1.40034 75.4321 0 78.7462 0C83.9742 0 87.6617 3.59421 87.6617 8.7288V23.4324H81.6869V9.66236C81.6869 6.86168 79.6798 4.9012 76.9258 4.9012C73.705 4.9012 71.3244 7.32846 71.3244 10.8293V23.4324H65.3496V0.560137Z" fill="#1C1A18"/>
<path d="M101.571 0C108.853 0 113.941 4.94788 113.941 11.9963C113.941 19.0447 108.853 23.9925 101.571 23.9925C94.2893 23.9925 89.248 19.0447 89.248 11.9963C89.248 4.94788 94.336 0 101.571 0ZM101.571 19.3247C105.259 19.3247 107.873 16.2907 107.873 11.9963C107.873 7.70188 105.259 4.66781 101.571 4.66781C97.8835 4.66781 95.3162 7.65521 95.3162 11.9963C95.3162 16.3373 97.9302 19.3247 101.571 19.3247Z" fill="#FACC15"/>
<path d="M79.5684 27.3485H79.9511L80.0118 27.5819C80.1472 27.4046 80.3572 27.3019 80.5953 27.3019C81.0901 27.3019 81.4355 27.6986 81.4355 28.2588C81.4355 28.8189 81.0901 29.2157 80.5953 29.2157C80.3712 29.2157 80.1752 29.127 80.0445 28.9636V29.9485H79.5684V27.3439V27.3485ZM80.4739 27.68C80.2218 27.68 80.0398 27.8713 80.0398 28.1374V28.3848C80.0398 28.6509 80.2172 28.8422 80.4739 28.8422C80.754 28.8422 80.95 28.5995 80.95 28.2588C80.95 27.918 80.754 27.6753 80.4739 27.6753V27.68Z" fill="#4B5B6B"/>
<path d="M82.4634 27.3066C83.0469 27.3066 83.453 27.7034 83.453 28.2635C83.453 28.8237 83.0469 29.2204 82.4634 29.2204C81.8799 29.2204 81.4785 28.8237 81.4785 28.2635C81.4785 27.7034 81.8846 27.3066 82.4634 27.3066ZM82.4634 28.8517C82.7575 28.8517 82.9675 28.609 82.9675 28.2682C82.9675 27.9275 82.7575 27.6801 82.4634 27.6801C82.1694 27.6801 81.964 27.9181 81.964 28.2682C81.964 28.6183 82.174 28.8517 82.4634 28.8517Z" fill="#4B5B6B"/>
<path d="M85.6187 29.1784H85.1566L84.7972 27.8948L84.4424 29.1784H83.9803L83.3828 27.3486H83.8636L84.2183 28.6323L84.5778 27.3486H85.0212L85.376 28.6323L85.7354 27.3486H86.2115L85.6187 29.1784Z" fill="#4B5B6B"/>
<path d="M87.084 27.3066C87.6021 27.3066 87.9662 27.6847 87.9662 28.2309C87.9662 28.2822 87.9662 28.3336 87.9568 28.3849H86.6265C86.6592 28.6743 86.8926 28.8704 87.2053 28.8704C87.364 28.8704 87.5414 28.8237 87.7328 28.7163L87.8775 29.0431C87.6207 29.1691 87.364 29.2251 87.1446 29.2251C86.5565 29.2251 86.1504 28.8283 86.1504 28.2682C86.1504 27.7081 86.5332 27.3113 87.0886 27.3113L87.084 27.3066ZM86.6265 28.0955H87.5087C87.4947 27.8341 87.3267 27.6567 87.0886 27.6567C86.8506 27.6567 86.6592 27.8341 86.6312 28.0955H86.6265Z" fill="#4B5B6B"/>
<path d="M88.0879 27.3483H88.4706L88.5313 27.6331C88.634 27.437 88.8347 27.3203 89.0728 27.3203C89.1381 27.3203 89.2175 27.3296 89.2922 27.3483L89.2455 27.7311C89.1802 27.7171 89.1055 27.7031 89.0308 27.7031C88.746 27.7031 88.564 27.9225 88.564 28.2352V29.1781H88.0879V27.3483Z" fill="#4B5B6B"/>
<path d="M90.1465 27.3066C90.6646 27.3066 91.0287 27.6847 91.0287 28.2309C91.0287 28.2822 91.0287 28.3336 91.0193 28.3849H89.689C89.7217 28.6743 89.9551 28.8704 90.2678 28.8704C90.4219 28.8704 90.6039 28.8237 90.7953 28.7163L90.94 29.0431C90.6833 29.1691 90.4265 29.2251 90.2071 29.2251C89.619 29.2251 89.2129 28.8283 89.2129 28.2682C89.2129 27.7081 89.5957 27.3113 90.1511 27.3113L90.1465 27.3066ZM89.689 28.0955H90.5712C90.5572 27.8341 90.3892 27.6567 90.1511 27.6567C89.9131 27.6567 89.7217 27.8341 89.6937 28.0955H89.689Z" fill="#4B5B6B"/>
<path d="M92.9035 29.1782H92.5207L92.46 28.9448C92.3247 29.1222 92.1193 29.2249 91.8766 29.2249C91.3864 29.2249 91.041 28.8281 91.041 28.268C91.041 27.7079 91.3864 27.3111 91.8766 27.3111C92.1053 27.3111 92.2967 27.3998 92.4227 27.5631V26.5596H92.8988V29.1875L92.9035 29.1782ZM92.0026 28.8468C92.2593 28.8468 92.4414 28.6507 92.4414 28.3894V28.142C92.4414 27.8712 92.264 27.6845 92.0026 27.6845C91.7272 27.6845 91.5265 27.9226 91.5265 28.268C91.5265 28.6134 91.7225 28.8515 92.0026 28.8515V28.8468Z" fill="#4B5B6B"/>
<path d="M93.8418 26.5504H94.3179V27.5539C94.4486 27.3952 94.6447 27.3019 94.8687 27.3019C95.3635 27.3019 95.7089 27.6986 95.7089 28.2588C95.7089 28.8189 95.3635 29.2157 94.8687 29.2157C94.626 29.2157 94.4159 29.113 94.2852 28.9356L94.2246 29.169H93.8418V26.541V26.5504ZM94.7474 27.68C94.4953 27.68 94.3133 27.8713 94.3133 28.1374V28.3848C94.3133 28.6509 94.4906 28.8422 94.7474 28.8422C95.0274 28.8422 95.2235 28.5995 95.2235 28.2588C95.2235 27.918 95.0274 27.6753 94.7474 27.6753V27.68Z" fill="#4B5B6B"/>
<path d="M96.7277 29.3835C96.5643 29.799 96.3309 29.9997 95.9948 29.9997C95.9155 29.9997 95.8175 29.9903 95.7101 29.967L95.7755 29.5936C95.8408 29.6076 95.9015 29.6216 95.9528 29.6216C96.1162 29.6216 96.2142 29.5329 96.2983 29.3182L96.3636 29.1595L95.6074 27.353H96.1069L96.583 28.6413L97.0451 27.353H97.5399L96.7277 29.3882V29.3835Z" fill="#4B5B6B"/>
<path d="M98.2109 27.3487H98.5937L98.6544 27.6147C98.7944 27.4187 99.0185 27.3066 99.2845 27.3066C99.7046 27.3066 99.9987 27.596 99.9987 28.0068V29.1831H99.5226V28.0815C99.5226 27.8574 99.3639 27.6987 99.1398 27.6987C98.8831 27.6987 98.6917 27.8948 98.6917 28.1749V29.1831H98.2156V27.3533L98.2109 27.3487Z" fill="#4B5B6B"/>
<path d="M101.11 27.3066C101.693 27.3066 102.099 27.7034 102.099 28.2635C102.099 28.8237 101.693 29.2204 101.11 29.2204C100.526 29.2204 100.125 28.8237 100.125 28.2635C100.125 27.7034 100.531 27.3066 101.11 27.3066ZM101.11 28.8517C101.404 28.8517 101.614 28.609 101.614 28.2682C101.614 27.9275 101.404 27.6801 101.11 27.6801C100.816 27.6801 100.61 27.9181 100.61 28.2682C100.61 28.6183 100.821 28.8517 101.11 28.8517Z" fill="#4B5B6B"/>
<path d="M102.254 27.3483H102.637L102.697 27.6331C102.8 27.437 103.001 27.3203 103.239 27.3203C103.304 27.3203 103.384 27.3296 103.458 27.3483L103.412 27.7311C103.346 27.7171 103.271 27.7031 103.197 27.7031C102.912 27.7031 102.73 27.9225 102.73 28.2352V29.1781H102.254V27.3483Z" fill="#4B5B6B"/>
<path d="M104.271 27.3485H104.78V27.7126H104.271V28.5855C104.271 28.7395 104.373 28.8422 104.527 28.8422C104.597 28.8422 104.677 28.8329 104.761 28.8096L104.826 29.169C104.682 29.2063 104.541 29.225 104.411 29.225C104.047 29.225 103.79 28.9869 103.79 28.6369V27.7173H103.449V27.3532H103.79V26.8164H104.266V27.3532L104.271 27.3485Z" fill="#4B5B6B"/>
<path d="M104.941 26.5503H105.418V27.5819C105.548 27.4045 105.763 27.3018 106.01 27.3018C106.43 27.3018 106.725 27.5912 106.725 28.002V29.1783H106.248V28.0767C106.248 27.8526 106.09 27.6939 105.866 27.6939C105.609 27.6939 105.418 27.89 105.418 28.17V29.1783H104.941V26.5503Z" fill="#4B5B6B"/>
<path d="M106.959 27.3487H107.342L107.402 27.6007C107.547 27.4093 107.762 27.3066 108.005 27.3066C108.271 27.3066 108.485 27.4327 108.588 27.6427C108.756 27.428 108.985 27.3066 109.251 27.3066C109.652 27.3066 109.932 27.582 109.932 27.9741V29.1784H109.456V28.0488C109.456 27.8434 109.312 27.6987 109.102 27.6987C108.859 27.6987 108.686 27.8808 108.686 28.1422V29.1784H108.21V28.0488C108.21 27.8434 108.065 27.6987 107.86 27.6987C107.612 27.6987 107.44 27.8808 107.44 28.1422V29.1784H106.964V27.3487H106.959Z" fill="#4B5B6B"/>
<path d="M110.408 26.541C110.576 26.541 110.697 26.6624 110.697 26.8304C110.697 26.9985 110.576 27.1198 110.408 27.1198C110.24 27.1198 110.123 26.9985 110.123 26.8304C110.123 26.6624 110.244 26.541 110.408 26.541ZM110.17 27.3532H110.646V29.183H110.17V27.3532Z" fill="#4B5B6B"/>
<path d="M111.389 28.6555C111.389 28.7722 111.463 28.8422 111.575 28.8422C111.622 28.8422 111.678 28.8329 111.739 28.8189L111.79 29.183C111.669 29.211 111.557 29.225 111.459 29.225C111.123 29.225 110.908 29.0243 110.908 28.7069V26.555H111.384V28.6602L111.389 28.6555Z" fill="#4B5B6B"/>
<path d="M112.266 28.6557C112.266 28.7724 112.341 28.8424 112.453 28.8424C112.499 28.8424 112.555 28.8331 112.616 28.8191L112.667 29.1832C112.546 29.2112 112.434 29.2252 112.336 29.2252C112 29.2252 111.785 29.0244 111.785 28.707V26.5552H112.261V28.6604L112.266 28.6557Z" fill="#4B5B6B"/>
<path d="M116.504 18.9419C117.988 18.9419 119.029 19.9828 119.029 21.4672C119.029 22.9515 117.983 23.9925 116.504 23.9925C115.024 23.9925 113.979 22.9515 113.979 21.4672C113.979 19.9828 115.024 18.9419 116.504 18.9419ZM116.504 23.5303C117.717 23.5303 118.572 22.6808 118.572 21.4672C118.572 20.2535 117.722 19.404 116.504 19.404C115.286 19.404 114.441 20.2535 114.441 21.4672C114.441 22.6808 115.29 23.5303 116.504 23.5303ZM115.435 20.0388H116.677C117.26 20.0388 117.68 20.4076 117.68 20.9537C117.68 21.3785 117.433 21.7006 117.064 21.7893L117.778 22.8955H117.078L116.466 21.8873H116.056V22.8955H115.44V20.0435L115.435 20.0388ZM116.051 21.3972H116.592C116.868 21.3972 117.055 21.2338 117.055 20.9724C117.055 20.711 116.868 20.5383 116.592 20.5383H116.051V21.3972Z" fill="#1C1A18"/>
</g>
<rect width="55" height="23" transform="translate(129.029 3.5)" fill="#1C1A18"/>
<path d="M140.513 15.5859H137.592L137.576 13.8828H139.99C140.417 13.8828 140.763 13.8307 141.029 13.7266C141.3 13.6224 141.498 13.4714 141.623 13.2734C141.748 13.0703 141.81 12.8203 141.81 12.5234C141.81 12.1849 141.748 11.9115 141.623 11.7031C141.498 11.4948 141.3 11.3438 141.029 11.25C140.763 11.151 140.42 11.1016 139.998 11.1016H138.513V20.5H135.967V9.125H139.998C140.68 9.125 141.289 9.1875 141.826 9.3125C142.362 9.4375 142.818 9.63021 143.193 9.89062C143.573 10.151 143.862 10.4766 144.06 10.8672C144.258 11.2578 144.357 11.7188 144.357 12.25C144.357 12.7135 144.253 13.1458 144.045 13.5469C143.842 13.9479 143.513 14.2734 143.06 14.5234C142.607 14.7734 142 14.9089 141.24 14.9297L140.513 15.5859ZM140.412 20.5H136.943L137.865 18.5312H140.412C140.802 18.5312 141.12 18.4688 141.365 18.3438C141.61 18.2188 141.789 18.0495 141.904 17.8359C142.019 17.6224 142.076 17.3828 142.076 17.1172C142.076 16.8047 142.021 16.5339 141.912 16.3047C141.808 16.0755 141.641 15.8984 141.412 15.7734C141.188 15.6484 140.888 15.5859 140.513 15.5859H138.232L138.248 13.8828H141.037L141.631 14.5547C142.355 14.5391 142.933 14.6562 143.365 14.9062C143.802 15.151 144.118 15.474 144.31 15.875C144.503 16.276 144.599 16.7005 144.599 17.1484C144.599 17.888 144.441 18.5078 144.123 19.0078C143.805 19.5026 143.334 19.875 142.709 20.125C142.089 20.375 141.323 20.5 140.412 20.5ZM150.974 11.2891L148.037 20.5H145.318L149.529 9.125H151.248L150.974 11.2891ZM153.412 20.5L150.467 11.2891L150.162 9.125H151.904L156.131 20.5H153.412ZM153.287 16.2656V18.2344H147.357V16.2656H153.287ZM166.459 9.125V20.5H163.92L159.623 13.1484V20.5H157.076V9.125H159.623L163.927 16.4766V9.125H166.459ZM170.888 9.125V20.5H168.342V9.125H170.888ZM177.685 9.125L173.232 14.8125L170.638 17.625L170.177 15.2578L171.888 12.8047L174.56 9.125H177.685ZM174.732 20.5L171.592 15.3047L173.529 13.7969L177.748 20.5H174.732Z" fill="#FACC15"/>
<defs>
<clipPath id="clip0_1_8759">
<rect width="119.029" height="30" fill="white"/>
</clipPath>
</defs>
</svg>
