<svg width="262" height="180" viewBox="0 0 262 180" fill="none" xmlns="http://www.w3.org/2000/svg">
<g clip-path="url(#clip0_1_3732)">
<path d="M224.593 16.6006H37.1556C29.9965 16.6006 24.2037 22.4015 24.2119 29.5606L24.4247 150.431C24.441 157.59 30.2501 163.391 37.4092 163.391H224.838C231.997 163.391 237.79 157.59 237.782 150.431L237.569 29.5606C237.553 22.4015 231.744 16.6006 224.585 16.6006H224.593Z" fill="#F5F9FC"/>
<path d="M24.2197 34.2734L24.2525 73.0143H237.618L237.577 34.2734H24.2197Z" fill="#1683FA"/>
<path d="M44.4928 117.916H42.8564V151.625H44.4928V117.916Z" fill="#D1E1F1"/>
<path d="M59.8248 117.916H58.1885V151.625H59.8248V117.916Z" fill="#D1E1F1"/>
<path d="M73.5143 117.916H71.8779V151.625H73.5143V117.916Z" fill="#D1E1F1"/>
<path d="M51.21 117.916H50.1709V151.625H51.21V117.916Z" fill="#D1E1F1"/>
<path d="M52.9522 117.916H51.9131V151.625H52.9522V117.916Z" fill="#D1E1F1"/>
<path d="M54.6963 117.916H53.6572V151.625H54.6963V117.916Z" fill="#D1E1F1"/>
<path d="M69.0948 117.916H68.0557V151.625H69.0948V117.916Z" fill="#D1E1F1"/>
<path d="M70.8467 117.916H69.8076V151.625H70.8467V117.916Z" fill="#D1E1F1"/>
<path d="M66.3138 117.916H65.2747V151.625H66.3138V117.916Z" fill="#D1E1F1"/>
<path d="M48.6893 117.916H46.292V151.625H48.6893V117.916Z" fill="#D1E1F1"/>
<path d="M63.1482 117.916H60.751V151.625H63.1482V117.916Z" fill="#D1E1F1"/>
<path d="M86.6041 117.916H84.9678V151.625H86.6041V117.916Z" fill="#D1E1F1"/>
<path d="M94.6319 117.916H93.5928V151.625H94.6319V117.916Z" fill="#D1E1F1"/>
<path d="M92.8802 117.916H91.8411V151.625H92.8802V117.916Z" fill="#D1E1F1"/>
<path d="M91.1377 117.916H90.0986V151.625H91.1377V117.916Z" fill="#D1E1F1"/>
<path d="M79.5186 117.916H78.4795V151.625H79.5186V117.916Z" fill="#D1E1F1"/>
<path d="M84.0428 117.916H81.6455V151.625H84.0428V117.916Z" fill="#D1E1F1"/>
<path d="M77.1717 117.916H74.7744V151.625H77.1717V117.916Z" fill="#D1E1F1"/>
<path d="M157.739 133.683H168.383C169.905 133.683 171.141 132.447 171.141 130.925C171.141 129.403 169.897 128.168 168.375 128.168H157.731C156.209 128.168 154.973 129.403 154.973 130.925C154.973 132.447 156.217 133.683 157.739 133.683Z" fill="#D1E1F1"/>
<path d="M177.44 133.683H205.512C207.034 133.683 208.269 132.447 208.269 130.925C208.269 129.403 207.026 128.168 205.504 128.168H177.432C175.91 128.168 174.675 129.403 174.675 130.925C174.675 132.447 175.918 133.683 177.44 133.683Z" fill="#D1E1F1"/>
<path d="M157.722 123.431H198.058C199.58 123.431 200.815 122.195 200.815 120.673C200.815 119.151 199.572 117.916 198.05 117.916H157.713C156.192 117.916 154.956 119.151 154.956 120.673C154.956 122.195 156.2 123.431 157.722 123.431Z" fill="#D1E1F1"/>
<path d="M109.212 133.683H137.545C139.067 133.683 140.303 132.447 140.303 130.925C140.303 129.403 139.059 128.168 137.537 128.168H109.204C107.682 128.168 106.446 129.403 106.446 130.925C106.446 132.447 107.69 133.683 109.212 133.683Z" fill="#D1E1F1"/>
<path d="M109.196 123.431H143.003C144.525 123.431 145.761 122.195 145.761 120.673C145.761 119.151 144.517 117.916 142.995 117.916H109.188C107.666 117.916 106.431 119.151 106.431 120.673C106.431 122.195 107.674 123.431 109.196 123.431Z" fill="#D1E1F1"/>
<path d="M2.90554 19.5382C4.01009 19.5382 4.90191 18.6464 4.90191 17.5418V7.2C4.90191 5.43273 6.33372 4.00091 8.101 4.00091H18.4428C19.5474 4.00091 20.4392 3.10909 20.4392 2.00455C20.4392 0.9 19.5555 0 18.451 0H8.10918C4.13282 0 0.90918 3.22364 0.90918 7.2V17.5418C0.90918 18.6464 1.801 19.5382 2.90554 19.5382Z" fill="#1683FA"/>
<path d="M20.447 178.003C20.447 176.899 19.5552 176.007 18.4506 176.007H8.10881C6.34154 176.007 4.90972 174.575 4.90972 172.808V162.466C4.90972 161.362 4.0179 160.47 2.91336 160.47C1.80881 160.47 0.916992 161.362 0.916992 162.466V172.808C0.916992 176.784 4.14063 180.008 8.11699 180.008H18.4588C19.5634 180.008 20.4552 179.116 20.4552 178.012L20.447 178.003Z" fill="#1683FA"/>
<path d="M261.092 17.5418V7.2C261.092 3.22364 257.868 0 253.892 0H243.55C242.446 0 241.554 0.891818 241.554 1.99636C241.554 3.10091 242.446 3.99273 243.55 3.99273H253.892C255.659 3.99273 257.091 5.42455 257.091 7.19182V17.5336C257.091 18.6382 257.983 19.53 259.087 19.53C260.192 19.53 261.084 18.6382 261.084 17.5336L261.092 17.5418Z" fill="#1683FA"/>
<path d="M243.55 180H253.892C257.868 180 261.092 176.776 261.092 172.8V162.458C261.092 161.354 260.2 160.462 259.095 160.462C257.991 160.462 257.099 161.354 257.099 162.458V172.8C257.099 174.567 255.667 175.999 253.9 175.999H243.558C242.453 175.999 241.562 176.891 241.562 177.996C241.562 179.1 242.453 179.992 243.558 179.992L243.55 180Z" fill="#1683FA"/>
</g>
<defs>
<clipPath id="clip0_1_3732">
<rect width="260.182" height="180" fill="white" transform="translate(0.90918)"/>
</clipPath>
</defs>
</svg>
