<svg width="262" height="180" viewBox="0 0 262 180" fill="none" xmlns="http://www.w3.org/2000/svg">
<g clip-path="url(#clip0_1_3222)">
<path d="M224.593 16.6006H37.1556C29.9965 16.6006 24.2037 22.4015 24.2119 29.5606L24.4247 150.431C24.441 157.59 30.2501 163.391 37.4092 163.391H224.838C231.997 163.391 237.79 157.59 237.782 150.431L237.569 29.5606C237.553 22.4015 231.744 16.6006 224.585 16.6006H224.593Z" fill="#F5F9FC"/>
<path d="M24.2201 29.5686L24.261 52.6577H237.618L237.577 29.5686C237.577 28.0795 237.307 26.6559 236.841 25.3223H24.9319C24.4737 26.6559 24.2119 28.0795 24.2119 29.5686H24.2201Z" fill="#1683FA"/>
<path d="M95.7363 132.987H42.8327L42.71 61.8545H95.6136L95.7363 132.987Z" fill="white"/>
<path d="M44.7884 33.1201L44.813 44.8528H42.6857L42.6611 33.1201H44.7884Z" fill="#E6EEFA"/>
<path d="M51.0878 44.8519H47.1115L47.0869 33.1191H51.1451C52.3069 33.1191 53.3133 33.3564 54.1478 33.8228C54.9824 34.2891 55.6287 34.96 56.0869 35.8355C56.5369 36.711 56.766 37.7582 56.766 38.9773C56.766 40.1964 56.5451 41.2519 56.0951 42.1273C55.6451 43.0028 54.9906 43.6819 54.1478 44.1482C53.2969 44.6146 52.2742 44.8519 51.0878 44.8519ZM49.2306 43.011H50.9815C53.4442 43.011 54.6715 41.661 54.6633 38.9691C54.6633 36.2937 53.4442 34.9519 51.0306 34.9519H49.2224L49.2387 43.011H49.2306Z" fill="#E6EEFA"/>
<path d="M58.8048 44.8519L58.7803 33.1191H66.4139V34.9028H60.9075V38.0855H66.0212V39.8691H60.9157V43.0764H66.4712V44.8601H58.7966L58.8048 44.8519Z" fill="#E6EEFA"/>
<path d="M78.227 33.1191L78.2434 44.8519H76.3534L70.8143 36.8582H70.7161L70.7325 44.8519H68.6052L68.5889 33.1191H70.4952L76.0343 41.121H76.1407L76.1243 33.1191H78.2352H78.227Z" fill="#E6EEFA"/>
<path d="M80.0283 34.9028V33.1191H89.3883V34.9028H85.7638L85.7801 44.8519H83.6692L83.6529 34.9028H80.0283Z" fill="#E6EEFA"/>
<path d="M93.306 33.1191L93.3223 44.8519H91.1951L91.1787 33.1191H93.306Z" fill="#E6EEFA"/>
<path d="M95.6384 44.8528L95.6221 33.1201H103.141V34.9038H97.7493V38.0865H102.634V39.8701H97.7575V44.8528H95.6384Z" fill="#E6EEFA"/>
<path d="M107.19 33.1191L107.215 44.8519H105.088L105.071 33.1191H107.199H107.19Z" fill="#E6EEFA"/>
<path d="M119.554 37.0797H117.41C117.287 36.3761 116.968 35.8361 116.453 35.4433C115.937 35.0588 115.324 34.8624 114.612 34.8624C113.655 34.8624 112.869 35.2142 112.256 35.9261C111.65 36.6379 111.339 37.6524 111.347 38.9779C111.347 40.3197 111.658 41.3424 112.272 42.0461C112.886 42.7497 113.671 43.0933 114.62 43.0933C115.324 43.0933 115.929 42.9051 116.445 42.537C116.96 42.1688 117.279 41.637 117.41 40.9497H119.554C119.447 41.7106 119.177 42.3897 118.752 43.0033C118.318 43.617 117.754 44.0997 117.05 44.4679C116.346 44.8279 115.528 45.0161 114.596 45.0161C113.565 45.0161 112.64 44.7788 111.83 44.2961C111.02 43.8133 110.382 43.1261 109.916 42.2261C109.449 41.3261 109.212 40.2461 109.212 38.9861C109.212 37.7261 109.441 36.6379 109.907 35.7379C110.374 34.8379 111.012 34.1506 111.83 33.6761C112.64 33.2015 113.556 32.9561 114.579 32.9561C115.446 32.9561 116.232 33.1197 116.936 33.447C117.639 33.7742 118.22 34.2406 118.686 34.8542C119.145 35.4679 119.439 36.2124 119.554 37.0797Z" fill="#E6EEFA"/>
<path d="M123.031 44.8528H120.765L124.872 33.1201H127.498L131.655 44.8528H129.388L128.406 41.9565H123.996L123.031 44.8528ZM124.561 40.2547H127.826L126.23 35.5256H126.14L124.561 40.2547Z" fill="#E6EEFA"/>
<path d="M131.245 34.9028V33.1191H140.605V34.9028H136.981L136.997 44.8519H134.886L134.87 34.9028H131.245Z" fill="#E6EEFA"/>
<path d="M144.533 33.1191L144.549 44.8519H142.422L142.405 33.1191H144.533Z" fill="#E6EEFA"/>
<path d="M157.338 38.9861C157.338 40.2542 157.109 41.3342 156.634 42.2342C156.16 43.1342 155.521 43.8215 154.711 44.2961C153.901 44.7706 152.977 45.0161 151.954 45.0161C150.931 45.0161 150.007 44.7788 149.189 44.2961C148.379 43.8133 147.732 43.1261 147.258 42.2261C146.783 41.3261 146.554 40.2461 146.546 38.9861C146.546 37.7261 146.775 36.6379 147.241 35.7379C147.708 34.8379 148.354 34.1506 149.164 33.6761C149.974 33.2015 150.899 32.9561 151.93 32.9561C152.96 32.9561 153.877 33.1933 154.687 33.6761C155.497 34.1506 156.143 34.8461 156.618 35.7379C157.092 36.6297 157.33 37.7179 157.33 38.9861H157.338ZM155.202 38.9861C155.202 37.6524 154.9 36.6297 154.286 35.9261C153.68 35.2224 152.895 34.8706 151.938 34.8706C150.98 34.8706 150.203 35.2224 149.598 35.9261C148.992 36.6297 148.69 37.6524 148.69 38.9861C148.69 40.3197 149 41.3424 149.606 42.0461C150.211 42.7497 150.997 43.1097 151.954 43.1097C152.911 43.1097 153.697 42.7579 154.302 42.0461C154.908 41.3424 155.21 40.3197 155.202 38.9861Z" fill="#E6EEFA"/>
<path d="M168.989 33.1191L169.005 44.8519H167.115L161.576 36.8582H161.478L161.494 44.8519H159.367L159.351 33.1191H161.257L166.796 41.121H166.902L166.886 33.1191H168.997H168.989Z" fill="#E6EEFA"/>
<path d="M185.353 37.0797H183.209C183.086 36.3761 182.767 35.8361 182.252 35.4433C181.736 35.0588 181.123 34.8624 180.411 34.8624C179.453 34.8624 178.668 35.2142 178.054 35.9261C177.449 36.6379 177.138 37.6524 177.146 38.9779C177.146 40.3197 177.457 41.3424 178.071 42.0461C178.684 42.7497 179.47 43.0933 180.419 43.0933C181.123 43.0933 181.728 42.9051 182.243 42.537C182.759 42.1688 183.078 41.637 183.209 40.9497H185.353C185.246 41.7106 184.976 42.3897 184.551 43.0033C184.117 43.617 183.553 44.0997 182.849 44.4679C182.145 44.8279 181.327 45.0161 180.394 45.0161C179.363 45.0161 178.439 44.7788 177.629 44.2961C176.819 43.8133 176.181 43.1261 175.714 42.2261C175.248 41.3261 175.011 40.2461 175.011 38.9861C175.011 37.7261 175.24 36.6379 175.706 35.7379C176.173 34.8379 176.811 34.1506 177.629 33.6761C178.439 33.2015 179.355 32.9561 180.378 32.9561C181.245 32.9561 182.031 33.1197 182.734 33.447C183.438 33.7742 184.019 34.2406 184.485 34.8542C184.943 35.4679 185.238 36.2124 185.353 37.0797Z" fill="#E6EEFA"/>
<path d="M188.822 44.8519H186.556L190.663 33.1191H193.289L197.446 44.8519H195.179L194.197 41.9555H189.787L188.822 44.8519ZM190.352 40.2537H193.617L192.021 35.5246H191.931L190.352 40.2537Z" fill="#E6EEFA"/>
<path d="M198.99 44.8519L198.966 33.1191H203.368C204.718 33.1191 205.74 33.4628 206.452 34.1582C207.156 34.8455 207.516 35.7537 207.516 36.8746C207.516 37.6764 207.336 38.3555 206.984 38.9282C206.632 39.501 206.1 39.9264 205.413 40.1964L207.958 44.8519H205.585L203.278 40.5564H201.109V44.8519H198.99ZM201.109 38.7891H203.073C203.859 38.7891 204.439 38.6255 204.808 38.2982C205.176 37.971 205.356 37.4964 205.356 36.8746C205.356 36.2446 205.168 35.7619 204.799 35.4182C204.431 35.0746 203.85 34.9028 203.057 34.9028H201.109V38.7973V38.7891Z" fill="#E6EEFA"/>
<path d="M213.464 44.8519H209.488L209.472 33.1191H213.53C214.692 33.1191 215.698 33.3564 216.533 33.8228C217.367 34.2891 218.013 34.96 218.472 35.8355C218.922 36.711 219.151 37.7582 219.151 38.9773C219.151 40.1964 218.93 41.2519 218.48 42.1273C218.03 43.0028 217.375 43.6819 216.533 44.1482C215.682 44.6146 214.659 44.8519 213.473 44.8519H213.464ZM211.607 43.011H213.358C215.821 43.011 217.048 41.661 217.04 38.9691C217.04 36.2937 215.821 34.9519 213.407 34.9519H211.599L211.615 43.011H211.607Z" fill="#E6EEFA"/>
<path d="M44.5014 151.626H42.865L42.8486 143.559H44.485L44.5014 151.626Z" fill="#D1E1F1"/>
<path d="M59.8334 151.626H58.197L58.1807 143.559H59.817L59.8334 151.626Z" fill="#D1E1F1"/>
<path d="M73.5228 151.626H71.8865L71.8701 143.559H73.5065L73.5228 151.626Z" fill="#D1E1F1"/>
<path d="M51.2104 151.626H50.1713L50.1631 143.559H51.194L51.2104 151.626Z" fill="#D1E1F1"/>
<path d="M52.9525 151.626H51.9216L51.9053 143.559H52.9444L52.9525 151.626Z" fill="#D1E1F1"/>
<path d="M54.7049 151.626H53.6658L53.6494 143.559H54.6885L54.7049 151.626Z" fill="#D1E1F1"/>
<path d="M69.1049 151.626H68.0658L68.0576 143.559H69.0885L69.1049 151.626Z" fill="#D1E1F1"/>
<path d="M70.8471 151.626H69.8162L69.7998 143.559H70.8389L70.8471 151.626Z" fill="#D1E1F1"/>
<path d="M66.3217 151.626H65.2826L65.2744 143.559H66.3053L66.3217 151.626Z" fill="#D1E1F1"/>
<path d="M48.6978 151.626H46.3005L46.2842 143.559H48.6896L48.6978 151.626Z" fill="#D1E1F1"/>
<path d="M63.1568 151.626H60.7595L60.7432 143.559H63.1486L63.1568 151.626Z" fill="#D1E1F1"/>
<path d="M84.96 143.559H86.5963L86.6127 151.626H84.9763L84.96 143.559Z" fill="#D1E1F1"/>
<path d="M93.585 143.559H94.6241L94.6322 151.626H93.6013L93.585 143.559Z" fill="#D1E1F1"/>
<path d="M91.8408 143.559H92.8717L92.8881 151.626H91.849L91.8408 143.559Z" fill="#D1E1F1"/>
<path d="M90.0908 143.559H91.1299L91.1463 151.626H90.1072L90.0908 143.559Z" fill="#D1E1F1"/>
<path d="M78.4717 143.559H79.5108L79.519 151.626H78.488L78.4717 143.559Z" fill="#D1E1F1"/>
<path d="M81.6377 143.559H84.035L84.0513 151.626H81.6459L81.6377 143.559Z" fill="#D1E1F1"/>
<path d="M77.1802 151.626H74.7748L74.7666 143.559H77.1639L77.1802 151.626Z" fill="#D1E1F1"/>
<path d="M109.179 79.6825H133.217C134.739 79.6825 135.974 78.4471 135.974 76.9252C135.974 75.4034 134.73 74.168 133.209 74.168H109.17C107.649 74.168 106.413 75.4034 106.413 76.9252C106.413 78.4471 107.657 79.6825 109.179 79.6825Z" fill="#D1E1F1"/>
<path d="M109.179 69.5048H222.906C224.428 69.5048 225.663 68.2693 225.663 66.7475C225.663 65.2257 224.419 63.9902 222.898 63.9902H109.17C107.649 63.9902 106.413 65.2257 106.413 66.7475C106.413 68.2693 107.657 69.5048 109.179 69.5048Z" fill="#D1E1F1"/>
<path d="M157.696 79.6825H181.734C183.256 79.6825 184.492 78.4471 184.492 76.9252C184.492 75.4034 183.248 74.168 181.726 74.168H157.688C156.166 74.168 154.931 75.4034 154.931 76.9252C154.931 78.4471 156.174 79.6825 157.696 79.6825Z" fill="#D1E1F1"/>
<path d="M157.737 100.179H168.382C169.903 100.179 171.139 98.9432 171.139 97.4213C171.139 95.8995 169.895 94.6641 168.373 94.6641H157.729C156.207 94.6641 154.972 95.8995 154.972 97.4213C154.972 98.9432 156.215 100.179 157.737 100.179Z" fill="#D1E1F1"/>
<path d="M177.44 100.179H205.512C207.034 100.179 208.269 98.9432 208.269 97.4213C208.269 95.8995 207.026 94.6641 205.504 94.6641H177.432C175.91 94.6641 174.675 95.8995 174.675 97.4213C174.675 98.9432 175.918 100.179 177.44 100.179Z" fill="#D1E1F1"/>
<path d="M205.543 115.159H194.899C193.377 115.159 192.142 116.395 192.142 117.916C192.142 119.438 193.385 120.674 194.907 120.674H205.552C207.073 120.674 208.309 119.438 208.309 117.916C208.309 116.395 207.065 115.159 205.543 115.159Z" fill="#D1E1F1"/>
<path d="M185.834 115.159H157.762C156.24 115.159 155.005 116.395 155.005 117.916C155.005 119.438 156.249 120.674 157.77 120.674H185.842C187.364 120.674 188.599 119.438 188.599 117.916C188.599 116.395 187.356 115.159 185.834 115.159Z" fill="#D1E1F1"/>
<path d="M190.809 79.6825H222.907C224.428 79.6825 225.664 78.4471 225.664 76.9252C225.664 75.4034 224.42 74.168 222.898 74.168H190.801C189.279 74.168 188.044 75.4034 188.044 76.9252C188.044 78.4471 189.288 79.6825 190.809 79.6825Z" fill="#D1E1F1"/>
<path d="M157.722 89.9345H198.058C199.58 89.9345 200.815 88.699 200.815 87.1772C200.815 85.6554 199.572 84.4199 198.05 84.4199H157.713C156.192 84.4199 154.956 85.6554 154.956 87.1772C154.956 88.699 156.2 89.9345 157.722 89.9345Z" fill="#D1E1F1"/>
<path d="M157.755 110.431H187.667C189.189 110.431 190.425 109.195 190.425 107.673C190.425 106.151 189.181 104.916 187.659 104.916H157.747C156.225 104.916 154.989 106.151 154.989 107.673C154.989 109.195 156.233 110.431 157.755 110.431Z" fill="#D1E1F1"/>
<path d="M196.552 110.431H218.225C219.747 110.431 220.983 109.195 220.983 107.673C220.983 106.151 219.739 104.916 218.217 104.916H196.543C195.022 104.916 193.786 106.151 193.786 107.673C193.786 109.195 195.03 110.431 196.552 110.431Z" fill="#D1E1F1"/>
<path d="M109.212 100.179H137.545C139.067 100.179 140.303 98.9432 140.303 97.4213C140.303 95.8995 139.059 94.6641 137.537 94.6641H109.204C107.682 94.6641 106.446 95.8995 106.446 97.4213C106.446 98.9432 107.69 100.179 109.212 100.179Z" fill="#D1E1F1"/>
<path d="M109.235 110.431H140.326C141.848 110.431 143.083 109.195 143.083 107.673C143.083 106.151 141.84 104.916 140.318 104.916H109.227C107.705 104.916 106.47 106.151 106.47 107.673C106.47 109.195 107.713 110.431 109.235 110.431Z" fill="#D1E1F1"/>
<path d="M109.253 120.674H136.883C138.405 120.674 139.64 119.438 139.64 117.916C139.64 116.395 138.396 115.159 136.875 115.159H109.245C107.723 115.159 106.487 116.395 106.487 117.916C106.487 119.438 107.731 120.674 109.253 120.674Z" fill="#D1E1F1"/>
<path d="M109.194 89.9345H143.001C144.523 89.9345 145.759 88.699 145.759 87.1772C145.759 85.6554 144.515 84.4199 142.993 84.4199H109.186C107.664 84.4199 106.429 85.6554 106.429 87.1772C106.429 88.699 107.672 89.9345 109.194 89.9345Z" fill="#D1E1F1"/>
<path d="M119.759 151.625H106.545L106.513 132.987H119.726L119.759 151.625Z" fill="#1683FA"/>
<path d="M143.158 151.625H122.482L122.466 141.242H143.133L143.158 151.625Z" fill="#D1E1F1"/>
<path d="M225.77 136.514H122.458L122.45 132.987H225.762L225.77 136.514Z" fill="#D1E1F1"/>
<path d="M187.553 151.625H145.605L145.589 141.242H187.537L187.553 151.625Z" fill="#D1E1F1"/>
<path d="M79.3478 118.424C79.3478 118.424 91.0478 124.617 91.5387 124.912C94.0178 126.36 95.6051 129.036 95.6133 131.997V132.996H42.6033L42.5869 123.104L55.7106 116.845L79.3478 118.432V118.424Z" fill="#D1E1F1"/>
<path d="M77.4498 115.07C77.4498 115.07 79.2825 116.641 79.4953 119.373C79.708 122.106 81.0825 131.106 81.0825 131.106L69.4971 124.757L77.4498 115.062V115.07Z" fill="#E6EEFA"/>
<path d="M69.4979 124.765L59.4588 132.415C59.4588 132.415 55.1961 120.944 55.1306 118.694C55.0652 116.444 59.4261 112.214 59.4261 112.214L69.4979 124.773V124.765Z" fill="#E6EEFA"/>
<path d="M77.4832 109.088C77.4832 109.088 77.3686 112.688 77.4423 116.37C77.5159 120.052 69.4977 124.765 69.4977 124.765C69.4977 124.765 59.4341 119.782 59.4259 116.166C59.4259 112.549 59.4014 103.713 59.4014 103.713L77.475 109.097L77.4832 109.088Z" fill="#E8AC97"/>
<path d="M53.3127 92.0783C53.3127 92.0783 50.0809 85.0665 53.6809 78.4474C57.289 71.8283 66.78 70.4456 72.7936 72.352C78.799 74.2665 86.1381 82.3829 82.5218 93.1665C78.9054 103.942 75.5836 105.996 75.5836 105.996L55.6363 98.4765L53.3209 92.0783H53.3127Z" fill="#423345"/>
<path d="M63.81 88.7725C67.5737 89.8934 74.07 89.8934 78.1446 88.3307C79.7809 87.7007 81.54 88.8298 81.5728 90.5807C81.5891 91.6607 81.6055 92.5361 81.6055 92.6916C81.6219 96.2752 81.45 101.364 80.4928 104.866C78.8646 110.806 74.2419 115.053 70.7564 115.069C66.4609 115.085 62.2228 112.475 60.03 106.478C57.8373 100.481 58.3119 100.072 58.3119 98.3125C58.3119 96.0543 59.9237 95.1789 60.5864 90.7771C60.8155 89.2471 62.3373 88.3225 63.8182 88.7643L63.81 88.7725Z" fill="#FCBEA9"/>
<path d="M2.90554 19.5382C4.01009 19.5382 4.90191 18.6464 4.90191 17.5418V7.2C4.90191 5.43273 6.33372 4.00091 8.101 4.00091H18.4428C19.5474 4.00091 20.4392 3.10909 20.4392 2.00455C20.4392 0.9 19.5555 0 18.451 0H8.10918C4.13282 0 0.90918 3.22364 0.90918 7.2V17.5418C0.90918 18.6464 1.801 19.5382 2.90554 19.5382Z" fill="#1683FA"/>
<path d="M20.447 178.003C20.447 176.899 19.5552 176.007 18.4506 176.007H8.10881C6.34154 176.007 4.90972 174.575 4.90972 172.808V162.466C4.90972 161.362 4.0179 160.47 2.91336 160.47C1.80881 160.47 0.916992 161.362 0.916992 162.466V172.808C0.916992 176.784 4.14063 180.008 8.11699 180.008H18.4588C19.5634 180.008 20.4552 179.116 20.4552 178.012L20.447 178.003Z" fill="#1683FA"/>
<path d="M261.092 17.5418V7.2C261.092 3.22364 257.868 0 253.892 0H243.55C242.446 0 241.554 0.891818 241.554 1.99636C241.554 3.10091 242.446 3.99273 243.55 3.99273H253.892C255.659 3.99273 257.091 5.42455 257.091 7.19182V17.5336C257.091 18.6382 257.983 19.53 259.087 19.53C260.192 19.53 261.084 18.6382 261.084 17.5336L261.092 17.5418Z" fill="#1683FA"/>
<path d="M243.55 180H253.892C257.868 180 261.092 176.776 261.092 172.8V162.458C261.092 161.354 260.2 160.462 259.095 160.462C257.991 160.462 257.099 161.354 257.099 162.458V172.8C257.099 174.567 255.667 175.999 253.9 175.999H243.558C242.453 175.999 241.562 176.891 241.562 177.996C241.562 179.1 242.453 179.992 243.558 179.992L243.55 180Z" fill="#1683FA"/>
</g>
<defs>
<clipPath id="clip0_1_3222">
<rect width="260.182" height="180" fill="white" transform="translate(0.90918)"/>
</clipPath>
</defs>
</svg>
