<svg width="159" height="40" viewBox="0 0 159 40" fill="none" xmlns="http://www.w3.org/2000/svg">
<g clip-path="url(#clip0_1_15071)">
<path d="M0 0.746849H6.34822L7.34402 4.91676C9.77128 1.74265 13.3188 0 17.3642 0C21.7831 0 25.3929 2.11607 27.1355 5.60137C29.9362 1.9916 33.7327 0 38.1516 0C44.811 0 49.541 4.60557 49.541 11.1405V31.2432H41.5746V12.3852C41.5746 8.96219 39.1474 6.53493 35.6621 6.53493C31.6166 6.53493 28.7537 9.58457 28.7537 13.9412V31.2432H20.7873V12.3852C20.7873 8.96219 18.36 6.53493 14.937 6.53493C10.8293 6.53493 7.96639 9.58457 7.96639 13.9412V31.2432H0V0.746849Z" fill="#F2DFC8"/>
<path d="M68.0869 0C77.796 0 84.5799 6.59717 84.5799 15.995C84.5799 25.3929 77.796 31.99 68.0869 31.99C58.3779 31.99 51.6562 25.3929 51.6562 15.995C51.6562 6.59717 58.4401 0 68.0869 0ZM68.0869 25.7663C73.0037 25.7663 76.489 21.7209 76.489 15.995C76.489 10.2692 73.0037 6.22374 68.0869 6.22374C63.1702 6.22374 59.7471 10.2069 59.7471 15.995C59.7471 21.7831 63.2324 25.7663 68.0869 25.7663Z" fill="#F2DFC8"/>
<path d="M87.1328 0.746849H93.481L94.4768 5.16571C96.7796 1.86712 100.576 0 104.995 0C111.966 0 116.882 4.79228 116.882 11.6384V31.2432H108.916V12.8832C108.916 9.1489 106.24 6.53493 102.568 6.53493C98.2733 6.53493 95.0992 9.77128 95.0992 14.4391V31.2432H87.1328V0.746849Z" fill="#F2DFC8"/>
<path d="M135.429 0C145.138 0 151.922 6.59717 151.922 15.995C151.922 25.3929 145.138 31.99 135.429 31.99C125.72 31.99 118.998 25.3929 118.998 15.995C118.998 6.59717 125.782 0 135.429 0ZM135.429 25.7663C140.345 25.7663 143.831 21.7209 143.831 15.995C143.831 10.2692 140.345 6.22374 135.429 6.22374C130.512 6.22374 127.089 10.2069 127.089 15.995C127.089 21.7831 130.574 25.7663 135.429 25.7663Z" fill="#FACC15"/>
<path d="M106.09 36.4656H106.6L106.681 36.7767C106.862 36.5402 107.142 36.4033 107.459 36.4033C108.119 36.4033 108.579 36.9323 108.579 37.6792C108.579 38.426 108.119 38.9551 107.459 38.9551C107.16 38.9551 106.899 38.8368 106.725 38.619V39.9322H106.09V36.4593V36.4656ZM107.297 36.9074C106.961 36.9074 106.718 37.1626 106.718 37.5174V37.8472C106.718 38.202 106.955 38.4572 107.297 38.4572C107.671 38.4572 107.932 38.1335 107.932 37.6792C107.932 37.2249 107.671 36.9012 107.297 36.9012V36.9074Z" fill="#4B5B6B"/>
<path d="M109.95 36.4102C110.728 36.4102 111.269 36.9392 111.269 37.686C111.269 38.4329 110.728 38.9619 109.95 38.9619C109.172 38.9619 108.637 38.4329 108.637 37.686C108.637 36.9392 109.178 36.4102 109.95 36.4102ZM109.95 38.4702C110.342 38.4702 110.622 38.1466 110.622 37.6922C110.622 37.2379 110.342 36.9081 109.95 36.9081C109.558 36.9081 109.284 37.2255 109.284 37.6922C109.284 38.159 109.564 38.4702 109.95 38.4702Z" fill="#4B5B6B"/>
<path d="M114.155 38.9046H113.539L113.06 37.193L112.587 38.9046H111.97L111.174 36.4648H111.815L112.288 38.1764L112.767 36.4648H113.358L113.831 38.1764L114.311 36.4648H114.945L114.155 38.9046Z" fill="#4B5B6B"/>
<path d="M116.11 36.4092C116.801 36.4092 117.286 36.9133 117.286 37.6415C117.286 37.7099 117.286 37.7784 117.274 37.8469H115.5C115.544 38.2327 115.855 38.4941 116.272 38.4941C116.483 38.4941 116.72 38.4319 116.975 38.2888L117.168 38.7244C116.826 38.8925 116.483 38.9671 116.191 38.9671C115.407 38.9671 114.865 38.4381 114.865 37.6913C114.865 36.9444 115.376 36.4154 116.116 36.4154L116.11 36.4092ZM115.5 37.461H116.676C116.658 37.1125 116.434 36.876 116.116 36.876C115.799 36.876 115.544 37.1125 115.506 37.461H115.5Z" fill="#4B5B6B"/>
<path d="M117.447 36.4651H117.958L118.039 36.8447C118.175 36.5833 118.443 36.4277 118.76 36.4277C118.848 36.4277 118.953 36.4402 119.053 36.4651L118.991 36.9754C118.904 36.9568 118.804 36.9381 118.704 36.9381C118.325 36.9381 118.082 37.2306 118.082 37.6476V38.9048H117.447V36.4651Z" fill="#4B5B6B"/>
<path d="M120.192 36.4092C120.883 36.4092 121.368 36.9133 121.368 37.6415C121.368 37.7099 121.368 37.7784 121.356 37.8469H119.582C119.626 38.2327 119.937 38.4941 120.354 38.4941C120.559 38.4941 120.802 38.4319 121.057 38.2888L121.25 38.7244C120.908 38.8925 120.565 38.9671 120.273 38.9671C119.489 38.9671 118.947 38.4381 118.947 37.6913C118.947 36.9444 119.458 36.4154 120.198 36.4154L120.192 36.4092ZM119.582 37.461H120.758C120.74 37.1125 120.516 36.876 120.198 36.876C119.881 36.876 119.626 37.1125 119.588 37.461H119.582Z" fill="#4B5B6B"/>
<path d="M123.872 38.9056H123.362L123.281 38.5944C123.1 38.8309 122.826 38.9678 122.503 38.9678C121.849 38.9678 121.389 38.4388 121.389 37.692C121.389 36.9451 121.849 36.4161 122.503 36.4161C122.808 36.4161 123.063 36.5343 123.231 36.7522V35.4141H123.866V38.918L123.872 38.9056ZM122.671 38.4637C123.013 38.4637 123.256 38.2023 123.256 37.8538V37.5239C123.256 37.1629 123.019 36.914 122.671 36.914C122.304 36.914 122.036 37.2314 122.036 37.692C122.036 38.1525 122.297 38.4699 122.671 38.4699V38.4637Z" fill="#4B5B6B"/>
<path d="M125.121 35.4011H125.756V36.7392C125.93 36.5276 126.192 36.4031 126.49 36.4031C127.15 36.4031 127.611 36.9322 127.611 37.679C127.611 38.4259 127.15 38.9549 126.49 38.9549C126.167 38.9549 125.887 38.818 125.712 38.5815L125.631 38.8926H125.121V35.3887V35.4011ZM126.329 36.9073C125.992 36.9073 125.75 37.1624 125.75 37.5172V37.8471C125.75 38.2018 125.986 38.457 126.329 38.457C126.702 38.457 126.963 38.1333 126.963 37.679C126.963 37.2247 126.702 36.901 126.329 36.901V36.9073Z" fill="#4B5B6B"/>
<path d="M128.968 39.179C128.75 39.7329 128.439 40.0005 127.991 40.0005C127.885 40.0005 127.755 39.9881 127.612 39.957L127.699 39.4591C127.786 39.4778 127.867 39.4964 127.935 39.4964C128.153 39.4964 128.284 39.3782 128.396 39.0919L128.483 38.8803L127.475 36.4717H128.141L128.775 38.1894L129.392 36.4717H130.051L128.968 39.1852V39.179Z" fill="#4B5B6B"/>
<path d="M130.947 36.4652H131.458L131.539 36.8199C131.725 36.5585 132.024 36.4092 132.379 36.4092C132.939 36.4092 133.331 36.7951 133.331 37.3427V38.9111H132.696V37.4423C132.696 37.1436 132.485 36.932 132.186 36.932C131.843 36.932 131.588 37.1934 131.588 37.5668V38.9111H130.953V36.4714L130.947 36.4652Z" fill="#4B5B6B"/>
<path d="M134.813 36.4092C135.591 36.4092 136.133 36.9382 136.133 37.685C136.133 38.4319 135.591 38.9609 134.813 38.9609C134.035 38.9609 133.5 38.4319 133.5 37.685C133.5 36.9382 134.041 36.4092 134.813 36.4092ZM134.813 38.4692C135.205 38.4692 135.485 38.1456 135.485 37.6913C135.485 37.2369 135.205 36.9071 134.813 36.9071C134.421 36.9071 134.147 37.2245 134.147 37.6913C134.147 38.1581 134.427 38.4692 134.813 38.4692Z" fill="#4B5B6B"/>
<path d="M136.336 36.4651H136.846L136.927 36.8447C137.064 36.5833 137.332 36.4277 137.649 36.4277C137.736 36.4277 137.842 36.4402 137.942 36.4651L137.879 36.9754C137.792 36.9568 137.693 36.9381 137.593 36.9381C137.213 36.9381 136.971 37.2306 136.971 37.6476V38.9048H136.336V36.4651Z" fill="#4B5B6B"/>
<path d="M139.025 36.4654H139.703V36.9508H139.025V38.1147C139.025 38.32 139.162 38.457 139.367 38.457C139.461 38.457 139.567 38.4445 139.679 38.4134L139.766 38.8926C139.573 38.9424 139.386 38.9673 139.212 38.9673C138.726 38.9673 138.384 38.6499 138.384 38.1831V36.957H137.93V36.4716H138.384V35.7559H139.019V36.4716L139.025 36.4654Z" fill="#4B5B6B"/>
<path d="M139.922 35.4004H140.557V36.7758C140.731 36.5393 141.017 36.4024 141.347 36.4024C141.907 36.4024 142.299 36.7883 142.299 37.336V38.9044H141.665V37.4356C141.665 37.1368 141.453 36.9252 141.154 36.9252C140.812 36.9252 140.557 37.1866 140.557 37.56V38.9044H139.922V35.4004Z" fill="#4B5B6B"/>
<path d="M142.609 36.4662H143.12L143.201 36.8023C143.394 36.5471 143.68 36.4102 144.003 36.4102C144.358 36.4102 144.645 36.5782 144.781 36.8583C145.006 36.572 145.31 36.4102 145.665 36.4102C146.2 36.4102 146.574 36.7774 146.574 37.3002V38.9059H145.939V37.3997C145.939 37.1259 145.746 36.933 145.466 36.933C145.142 36.933 144.912 37.1757 144.912 37.5242V38.9059H144.277V37.3997C144.277 37.1259 144.084 36.933 143.811 36.933C143.481 36.933 143.25 37.1757 143.25 37.5242V38.9059H142.616V36.4662H142.609Z" fill="#4B5B6B"/>
<path d="M147.21 35.3887C147.434 35.3887 147.596 35.5505 147.596 35.7745C147.596 35.9986 147.434 36.1604 147.21 36.1604C146.986 36.1604 146.83 35.9986 146.83 35.7745C146.83 35.5505 146.992 35.3887 147.21 35.3887ZM146.892 36.4716H147.527V38.9113H146.892V36.4716Z" fill="#4B5B6B"/>
<path d="M148.518 38.2079C148.518 38.3635 148.618 38.4569 148.767 38.4569C148.829 38.4569 148.904 38.4444 148.985 38.4257L149.053 38.9112C148.891 38.9485 148.742 38.9672 148.611 38.9672C148.163 38.9672 147.877 38.6996 147.877 38.2764V35.4072H148.512V38.2141L148.518 38.2079Z" fill="#4B5B6B"/>
<path d="M149.688 38.2079C149.688 38.3635 149.788 38.4569 149.937 38.4569C149.999 38.4569 150.074 38.4444 150.155 38.4257L150.223 38.9112C150.061 38.9485 149.912 38.9672 149.781 38.9672C149.333 38.9672 149.047 38.6996 149.047 38.2764V35.4072H149.682V38.2141L149.688 38.2079Z" fill="#4B5B6B"/>
<path d="M155.34 25.2559C157.319 25.2559 158.707 26.6438 158.707 28.6229C158.707 30.6021 157.313 31.99 155.34 31.99C153.367 31.99 151.973 30.6021 151.973 28.6229C151.973 26.6438 153.367 25.2559 155.34 25.2559ZM155.34 31.3738C156.958 31.3738 158.097 30.2411 158.097 28.6229C158.097 27.0047 156.964 25.872 155.34 25.872C153.715 25.872 152.589 27.0047 152.589 28.6229C152.589 30.2411 153.722 31.3738 155.34 31.3738ZM153.914 26.7184H155.57C156.348 26.7184 156.908 27.2101 156.908 27.9383C156.908 28.5047 156.578 28.9341 156.087 29.0523L157.039 30.5274H156.105L155.29 29.183H154.742V30.5274H153.921V26.7247L153.914 26.7184ZM154.736 28.5295H155.458C155.825 28.5295 156.074 28.3117 156.074 27.9632C156.074 27.6147 155.825 27.3844 155.458 27.3844H154.736V28.5295Z" fill="#F2DFC8"/>
</g>
<defs>
<clipPath id="clip0_1_15071">
<rect width="158.705" height="40" fill="white"/>
</clipPath>
</defs>
</svg>
