<svg width="212" height="180" viewBox="0 0 212 180" fill="none" xmlns="http://www.w3.org/2000/svg">
<g clip-path="url(#clip0_1_4021)">
<path d="M2.45095 19.5382C3.5555 19.5382 4.44732 18.6464 4.44732 17.5418V7.2C4.44732 5.43273 5.87914 4.00091 7.64641 4.00091H17.9882C19.0928 4.00091 19.9846 3.10909 19.9846 2.00455C19.9846 0.9 19.101 0 17.9964 0H7.65459C3.67823 0 0.45459 3.22364 0.45459 7.2V17.5418C0.45459 18.6464 1.34641 19.5382 2.45095 19.5382Z" fill="#1683FA"/>
<path d="M19.9924 178.003C19.9924 176.899 19.1006 176.007 17.996 176.007H7.65422C5.88695 176.007 4.45513 174.575 4.45513 172.808V162.466C4.45513 161.362 3.56331 160.47 2.45877 160.47C1.35422 160.47 0.462402 161.362 0.462402 162.466V172.808C0.462402 176.784 3.68604 180.008 7.6624 180.008H18.0042C19.1088 180.008 20.0006 179.116 20.0006 178.012L19.9924 178.003Z" fill="#1683FA"/>
<path d="M211.546 17.5418V7.2C211.546 3.22364 208.322 0 204.346 0H194.004C192.899 0 192.007 0.891818 192.007 1.99636C192.007 3.10091 192.899 3.99273 194.004 3.99273H204.346C206.113 3.99273 207.545 5.42455 207.545 7.19182V17.5336C207.545 18.6382 208.436 19.53 209.541 19.53C210.646 19.53 211.537 18.6382 211.537 17.5336L211.546 17.5418Z" fill="#1683FA"/>
<path d="M194.003 180H204.345C208.321 180 211.545 176.776 211.545 172.8V162.458C211.545 161.354 210.653 160.462 209.549 160.462C208.444 160.462 207.552 161.354 207.552 162.458V172.8C207.552 174.567 206.121 175.999 204.353 175.999H194.012C192.907 175.999 192.015 176.891 192.015 177.996C192.015 179.1 192.907 179.992 194.012 179.992L194.003 180Z" fill="#1683FA"/>
<path d="M198.314 160.462H89.1438L88.8901 13.6641H198.06L198.314 160.462Z" fill="white"/>
<path d="M164.507 130.402C164.507 130.402 188.652 143.19 189.675 143.788C194.797 146.782 198.069 152.305 198.077 158.409V160.47H88.6865L88.6538 140.049L115.736 127.138L164.507 130.41V130.402Z" fill="#D1E1F1"/>
<path d="M160.58 123.489C160.58 123.489 164.368 126.737 164.802 132.366C165.236 137.995 168.083 156.584 168.083 156.584L144.167 143.485L160.58 123.48V123.489Z" fill="#E6EEFA"/>
<path d="M144.167 143.493L123.451 159.276C123.451 159.276 114.656 135.614 114.517 130.967C114.377 126.32 123.377 117.59 123.377 117.59L144.167 143.502V143.493Z" fill="#E6EEFA"/>
<path d="M160.646 111.143C160.646 111.143 160.409 118.564 160.564 126.173C160.72 133.774 144.168 143.494 144.168 143.494C144.168 143.494 123.402 133.217 123.386 125.747C123.37 118.285 123.345 100.04 123.345 100.04L160.646 111.143Z" fill="#E8AC97"/>
<path d="M110.769 76.0427C110.769 76.0427 104.093 61.5773 111.538 47.9218C118.975 34.2663 138.579 31.4109 150.974 35.3463C163.37 39.29 178.506 56.0545 171.044 78.2927C163.583 100.531 156.726 104.769 156.726 104.769L115.555 89.2563L110.769 76.0427Z" fill="#423345"/>
<path d="M132.443 69.2189C140.207 71.5344 153.626 71.5262 162.02 68.3025C165.391 67.0098 169.032 69.3335 169.097 72.9498C169.138 75.1753 169.163 76.9835 169.171 77.3107C169.212 84.7071 168.852 95.2044 166.872 102.437C163.517 114.685 153.969 123.456 146.769 123.489C137.9 123.53 129.154 118.138 124.629 105.767C120.105 93.3962 121.087 92.5371 121.078 88.9207C121.078 84.2489 124.408 82.4653 125.775 73.3753C126.249 70.2171 129.383 68.3107 132.443 69.2271V69.2189Z" fill="#FCBEA9"/>
<path d="M20.4762 90.3359L20.5744 145.817C20.5744 146.406 21.0571 146.889 21.6462 146.889H101.705C102.294 146.889 102.769 146.414 102.769 145.817L102.671 90.3359H20.4762Z" fill="#F5F9FC"/>
<path d="M101.509 33.7832H21.4499C20.8608 33.7832 20.3862 34.2577 20.3862 34.855L20.4844 90.3359H102.679L102.581 34.855C102.581 34.2659 102.098 33.7832 101.509 33.7832Z" fill="#D1E1F1"/>
<path d="M45.848 133.553H27.0134L26.9644 108.222H45.8071L45.848 133.553Z" fill="white"/>
<path d="M40.0714 128.381C40.0714 128.381 44.2277 130.582 44.4077 130.688C45.2914 131.204 45.8559 132.153 45.8559 133.208V133.56H27.0132V130.042L31.6686 127.816L40.0714 128.381Z" fill="#D1E1F1"/>
<path d="M39.3926 127.187C39.3926 127.187 40.0471 127.743 40.1207 128.717C40.1944 129.69 40.6853 132.889 40.6853 132.889L36.5698 130.631L39.3926 127.187Z" fill="#E6EEFA"/>
<path d="M36.5701 130.631L33.0028 133.348C33.0028 133.348 31.4892 129.273 31.4646 128.471C31.4401 127.67 32.9946 126.164 32.9946 126.164L36.5783 130.623L36.5701 130.631Z" fill="#E6EEFA"/>
<path d="M39.4005 125.06C39.4005 125.06 39.3596 126.336 39.3841 127.645C39.4087 128.954 36.5614 130.632 36.5614 130.632C36.5614 130.632 32.986 128.864 32.986 127.58C32.986 126.295 32.986 123.153 32.986 123.153L39.4087 125.068L39.4005 125.06Z" fill="#E8A289"/>
<path d="M30.8177 119.013C30.8177 119.013 29.6723 116.526 30.9487 114.169C32.2332 111.813 35.6041 111.322 37.7396 112.001C39.875 112.68 42.485 115.568 41.1923 119.398C39.9077 123.227 38.7296 123.955 38.7296 123.955L31.6359 121.279L30.8096 119.005L30.8177 119.013Z" fill="#423345"/>
<path d="M34.5494 117.843C35.883 118.244 38.1985 118.244 39.6467 117.687C40.2276 117.466 40.8576 117.867 40.8658 118.489C40.8658 118.874 40.874 119.185 40.874 119.242C40.874 120.518 40.8167 122.326 40.4812 123.57C39.9003 125.681 38.2558 127.186 37.0203 127.195C35.4903 127.195 33.9849 126.27 33.2076 124.143C32.4303 122.015 32.594 121.868 32.594 121.238C32.594 120.436 33.1667 120.125 33.404 118.563C33.4858 118.023 34.0258 117.687 34.5494 117.851V117.843Z" fill="#FCBEA9"/>
<path d="M32.6262 120.912C32.6262 120.912 32.6262 120.903 32.6262 120.895C32.5771 120.241 32.2907 119.611 31.5789 119.398C31.5134 119.382 30.8671 119.3 31.1207 120.331C31.3007 121.051 31.5544 121.926 31.8571 122.384C32.4134 123.26 32.7734 122.875 32.7734 122.875L32.6262 120.912Z" fill="#FCBEA9"/>
<path d="M25.4667 135.238C25.3849 135.238 25.3276 135.181 25.3276 135.099V132.882C25.3276 132.783 25.4013 132.693 25.5076 132.669C25.614 132.652 25.6876 132.71 25.6876 132.808V134.886L27.7658 134.87C27.864 134.87 27.9295 134.952 27.9049 135.05C27.8804 135.148 27.7904 135.23 27.6922 135.23L25.4749 135.246L25.4667 135.238Z" fill="#1683FA"/>
<path d="M20.5581 137.782L20.5745 145.825C20.5745 146.414 21.0572 146.897 21.6463 146.897H101.705C102.294 146.897 102.769 146.422 102.769 145.825L102.753 137.782H20.5581Z" fill="white"/>
<path d="M25.5171 143.714V140.948H26.4498C26.6707 140.948 26.8425 140.989 26.9816 141.063C27.1207 141.136 27.2189 141.243 27.2925 141.382C27.358 141.513 27.3907 141.66 27.3907 141.824C27.3907 141.987 27.358 142.135 27.2925 142.266C27.2271 142.396 27.1207 142.503 26.9898 142.585C26.8507 142.666 26.6789 142.699 26.458 142.699H25.8525V143.706H25.5171V143.714ZM25.8525 142.405H26.4498C26.6707 142.405 26.8262 142.347 26.9244 142.241C27.0144 142.126 27.0635 141.987 27.0635 141.824C27.0635 141.66 27.0144 141.521 26.9244 141.406C26.8262 141.3 26.6707 141.243 26.4416 141.243H25.8525V142.405Z" fill="#D1E1F1"/>
<path d="M27.9468 142.478V142.265L29.6813 141.382V141.725L28.3641 142.364V142.388L29.6895 143.026V143.37L27.9468 142.486V142.478Z" fill="#D1E1F1"/>
<path d="M30.3862 142.478V142.265L32.1208 141.382V141.725L30.8035 142.364V142.388L32.129 143.026V143.37L30.3862 142.486V142.478Z" fill="#D1E1F1"/>
<path d="M32.8317 142.478V142.265L34.5662 141.382V141.725L33.2489 142.364V142.388L34.5744 143.026V143.37L32.8317 142.486V142.478Z" fill="#D1E1F1"/>
<path d="M36.7667 141.636C36.7504 141.497 36.6849 141.39 36.5704 141.317C36.4558 141.243 36.3167 141.202 36.1449 141.202C35.9649 141.202 35.8176 141.243 35.7031 141.333C35.5886 141.423 35.5395 141.529 35.5395 141.66C35.5395 141.758 35.5722 141.84 35.6295 141.898C35.6867 141.955 35.7604 142.004 35.8422 142.037C35.924 142.069 35.9976 142.094 36.0713 142.11L36.3495 142.184C36.4231 142.2 36.5049 142.233 36.5867 142.266C36.6767 142.299 36.7586 142.348 36.8404 142.405C36.9222 142.462 36.9876 142.536 37.0449 142.626C37.094 142.716 37.1267 142.822 37.1267 142.953C37.1267 143.1 37.0858 143.239 37.0122 143.354C36.9304 143.477 36.824 143.567 36.6686 143.64C36.5213 143.714 36.3413 143.747 36.1286 143.747C35.834 143.747 35.5967 143.673 35.4167 143.534C35.2449 143.395 35.1467 143.207 35.1304 142.986H35.474C35.4822 143.092 35.5149 143.174 35.5804 143.248C35.6458 143.313 35.7195 143.362 35.8176 143.403C35.9158 143.436 36.014 143.452 36.1286 143.452C36.2595 143.452 36.374 143.428 36.4722 143.387C36.5704 143.346 36.6522 143.288 36.7095 143.215C36.7667 143.141 36.7995 143.051 36.7995 142.953C36.7995 142.863 36.7749 142.789 36.7258 142.732C36.6767 142.675 36.6031 142.626 36.5213 142.593C36.4395 142.56 36.3495 142.528 36.2513 142.495L35.9076 142.397C35.6949 142.331 35.5231 142.249 35.3922 142.127C35.2695 142.012 35.204 141.857 35.204 141.677C35.204 141.521 35.2449 141.39 35.3267 141.268C35.4086 141.153 35.5231 141.063 35.6704 140.998C35.8095 140.932 35.9731 140.899 36.1449 140.899C36.3167 140.899 36.4804 140.932 36.6195 140.998C36.7586 141.063 36.8649 141.145 36.9467 141.259C37.0286 141.366 37.0695 141.497 37.0776 141.636H36.7504H36.7667Z" fill="#D1E1F1"/>
<path d="M39.1886 141.636C39.1722 141.497 39.1068 141.39 38.9922 141.317C38.8777 141.243 38.7386 141.202 38.5668 141.202C38.3868 141.202 38.2395 141.243 38.125 141.333C38.0104 141.423 37.9613 141.529 37.9613 141.66C37.9613 141.758 37.9941 141.84 38.0513 141.898C38.1086 141.955 38.1822 142.004 38.2641 142.037C38.3459 142.069 38.4195 142.094 38.4932 142.11L38.7713 142.184C38.845 142.2 38.9268 142.233 39.0086 142.266C39.0986 142.299 39.1804 142.348 39.2622 142.405C39.3441 142.462 39.4095 142.536 39.4668 142.626C39.5159 142.716 39.5486 142.822 39.5486 142.953C39.5486 143.1 39.5077 143.239 39.4341 143.354C39.3604 143.477 39.2459 143.567 39.0904 143.64C38.9432 143.714 38.7632 143.747 38.5504 143.747C38.2559 143.747 38.0186 143.673 37.8386 143.534C37.6668 143.395 37.5686 143.207 37.5522 142.986H37.8959C37.9041 143.092 37.9368 143.174 38.0022 143.248C38.0677 143.313 38.1413 143.362 38.2395 143.403C38.3377 143.436 38.4359 143.452 38.5504 143.452C38.6813 143.452 38.7959 143.428 38.8941 143.387C38.9922 143.346 39.0741 143.288 39.1313 143.215C39.1886 143.141 39.2213 143.051 39.2213 142.953C39.2213 142.863 39.1968 142.789 39.1477 142.732C39.0986 142.675 39.025 142.626 38.9432 142.593C38.8613 142.56 38.7713 142.528 38.6732 142.495L38.3295 142.397C38.1168 142.331 37.945 142.249 37.8141 142.127C37.6913 142.012 37.6259 141.857 37.6259 141.677C37.6259 141.521 37.6668 141.39 37.7486 141.268C37.8304 141.153 37.945 141.063 38.0922 140.998C38.2313 140.932 38.395 140.899 38.5668 140.899C38.7386 140.899 38.9022 140.932 39.0413 140.998C39.1804 141.063 39.2868 141.145 39.3686 141.259C39.4504 141.366 39.4913 141.497 39.4995 141.636H39.1722H39.1886Z" fill="#D1E1F1"/>
<path d="M40.1226 142.478V142.265L41.8571 141.382V141.725L40.5398 142.364V142.388L41.8653 143.026V143.37L40.1226 142.486V142.478Z" fill="#D1E1F1"/>
<path d="M42.5604 142.478V142.265L44.295 141.382V141.725L42.9695 142.364V142.388L44.295 143.026V143.37L42.5522 142.486L42.5604 142.478Z" fill="#D1E1F1"/>
<path d="M44.998 142.478V142.265L46.7325 141.382V141.725L45.4071 142.364V142.388L46.7325 143.026V143.37L44.9898 142.486L44.998 142.478Z" fill="#D1E1F1"/>
<path d="M47.4452 142.478V142.265L49.1797 141.382V141.725L47.8543 142.364V142.388L49.1797 143.026V143.37L47.437 142.486L47.4452 142.478Z" fill="#D1E1F1"/>
<path d="M49.8671 143.714V140.948H50.7998C51.0125 140.948 51.1925 140.981 51.3316 141.055C51.4707 141.128 51.5771 141.226 51.6425 141.357C51.708 141.488 51.7407 141.627 51.7407 141.791C51.7407 141.971 51.6998 142.135 51.618 142.274C51.5362 142.413 51.4052 142.511 51.2252 142.568L51.8552 143.714H51.4625L50.8734 142.634C50.8734 142.634 50.8243 142.634 50.7998 142.634H50.1943V143.714H49.8589H49.8671ZM50.2025 142.331H50.7998C51.0207 142.331 51.1762 142.282 51.2743 142.192C51.3725 142.094 51.4134 141.963 51.4134 141.799C51.4134 141.636 51.3643 141.496 51.2743 141.398C51.1843 141.3 51.0207 141.251 50.7916 141.251H50.2025V142.339V142.331Z" fill="#D1E1F1"/>
<path d="M52.3126 142.478V142.265L54.0471 141.382V141.725L52.7217 142.364V142.388L54.0471 143.026V143.37L52.3044 142.486L52.3126 142.478Z" fill="#D1E1F1"/>
<path d="M54.7499 142.478V142.265L56.4844 141.382V141.725L55.159 142.364V142.388L56.4844 143.026V143.37L54.7417 142.486L54.7499 142.478Z" fill="#D1E1F1"/>
<path d="M57.1968 142.478V142.265L58.9313 141.382V141.725L57.6141 142.364V142.388L58.9395 143.026V143.37L57.1968 142.486V142.478Z" fill="#D1E1F1"/>
<path d="M59.6362 142.478V142.265L61.3708 141.382V141.725L60.0535 142.364V142.388L61.379 143.026V143.37L59.6362 142.486V142.478Z" fill="#D1E1F1"/>
<path d="M62.0737 142.478V142.265L63.8083 141.382V141.725L62.491 142.364V142.388L63.8165 143.026V143.37L62.0737 142.486V142.478Z" fill="#D1E1F1"/>
<path d="M64.519 142.478V142.265L66.2536 141.382V141.725L64.9363 142.364V142.388L66.2618 143.026V143.37L64.519 142.486V142.478Z" fill="#D1E1F1"/>
<path d="M66.9589 142.478V142.265L68.6934 141.382V141.725L67.368 142.364V142.388L68.6934 143.026V143.37L66.9507 142.486L66.9589 142.478Z" fill="#D1E1F1"/>
<path d="M69.3962 142.478V142.265L71.1307 141.382V141.725L69.8053 142.364V142.388L71.1307 143.026V143.37L69.388 142.486L69.3962 142.478Z" fill="#D1E1F1"/>
<path d="M71.8417 142.478V142.265L73.5762 141.382V141.725L72.2508 142.364V142.388L73.5762 143.026V143.37L71.8335 142.486L71.8417 142.478Z" fill="#D1E1F1"/>
<path d="M74.1089 141.243V140.948H76.1789V141.243H75.3116V143.714H74.9843V141.243H74.1089Z" fill="#D1E1F1"/>
<path d="M50.92 110.152H59.3473C59.8791 110.152 60.3128 109.718 60.3128 109.186C60.3128 108.654 59.8791 108.221 59.3473 108.221H50.92C50.3882 108.221 49.9546 108.654 49.9546 109.186C49.9546 109.718 50.3882 110.152 50.92 110.152Z" fill="#D1E1F1"/>
<path d="M67.9222 110.152H76.3495C76.8813 110.152 77.315 109.718 77.315 109.186C77.315 108.654 76.8813 108.221 76.3495 108.221H67.9222C67.3904 108.221 66.9568 108.654 66.9568 109.186C66.9568 109.718 67.3904 110.152 67.9222 110.152Z" fill="#D1E1F1"/>
<path d="M67.9376 117.335H71.6685C72.2003 117.335 72.634 116.902 72.634 116.37C72.634 115.838 72.2003 115.404 71.6685 115.404H67.9376C67.4058 115.404 66.9722 115.838 66.9722 116.37C66.9722 116.902 67.4058 117.335 67.9376 117.335Z" fill="#D1E1F1"/>
<path d="M74.8441 117.335H84.6786C85.2104 117.335 85.6441 116.902 85.6441 116.37C85.6441 115.838 85.2104 115.404 84.6786 115.404H74.8441C74.3122 115.404 73.8786 115.838 73.8786 116.37C73.8786 116.902 74.3122 117.335 74.8441 117.335Z" fill="#D1E1F1"/>
<path d="M67.9631 133.552H71.694C72.2259 133.552 72.6595 133.118 72.6595 132.587C72.6595 132.055 72.2259 131.621 71.694 131.621H67.9631C67.4313 131.621 66.9977 132.055 66.9977 132.587C66.9977 133.118 67.4313 133.552 67.9631 133.552Z" fill="#D1E1F1"/>
<path d="M74.8693 133.552H84.7038C85.2356 133.552 85.6693 133.118 85.6693 132.587C85.6693 132.055 85.2356 131.621 84.7038 131.621H74.8693C74.3374 131.621 73.9038 132.055 73.9038 132.587C73.9038 133.118 74.3374 133.552 74.8693 133.552Z" fill="#D1E1F1"/>
<path d="M84.6861 122.58H80.9552C80.4234 122.58 79.9897 123.014 79.9897 123.546C79.9897 124.077 80.4234 124.511 80.9552 124.511H84.6861C85.2179 124.511 85.6516 124.077 85.6516 123.546C85.6516 123.014 85.2179 122.58 84.6861 122.58Z" fill="#D1E1F1"/>
<path d="M77.7819 122.58H67.9474C67.4156 122.58 66.9819 123.014 66.9819 123.546C66.9819 124.077 67.4156 124.511 67.9474 124.511H77.7819C78.3138 124.511 78.7474 124.077 78.7474 123.546C78.7474 123.014 78.3138 122.58 77.7819 122.58Z" fill="#D1E1F1"/>
<path d="M79.5236 110.152H90.7736C91.3054 110.152 91.739 109.718 91.739 109.186C91.739 108.654 91.3054 108.221 90.7736 108.221H79.5236C78.9917 108.221 78.5581 108.654 78.5581 109.186C78.5581 109.718 78.9917 110.152 79.5236 110.152Z" fill="#D1E1F1"/>
<path d="M67.9298 113.743H82.0598C82.5916 113.743 83.0253 113.31 83.0253 112.778C83.0253 112.246 82.5916 111.812 82.0598 111.812H67.9298C67.398 111.812 66.9644 112.246 66.9644 112.778C66.9644 113.31 67.398 113.743 67.9298 113.743Z" fill="#D1E1F1"/>
<path d="M67.9474 120.927H78.4283C78.9601 120.927 79.3938 120.493 79.3938 119.962C79.3938 119.43 78.9601 118.996 78.4283 118.996H67.9474C67.4156 118.996 66.9819 119.43 66.9819 119.962C66.9819 120.493 67.4156 120.927 67.9474 120.927Z" fill="#D1E1F1"/>
<path d="M81.5372 120.927H89.13C89.6618 120.927 90.0954 120.493 90.0954 119.962C90.0954 119.43 89.6618 118.996 89.13 118.996H81.5372C81.0054 118.996 80.5718 119.43 80.5718 119.962C80.5718 120.493 81.0054 120.927 81.5372 120.927Z" fill="#D1E1F1"/>
<path d="M67.9141 104.539H78.395C78.9268 104.539 79.3604 104.106 79.3604 103.574C79.3604 103.042 78.9268 102.608 78.395 102.608H67.9141C67.3822 102.608 66.9486 103.042 66.9486 103.574C66.9486 104.106 67.3822 104.539 67.9141 104.539Z" fill="#D1E1F1"/>
<path d="M81.5118 104.539H89.1046C89.6364 104.539 90.07 104.106 90.07 103.574C90.07 103.042 89.6364 102.608 89.1046 102.608H81.5118C80.98 102.608 80.5464 103.042 80.5464 103.574C80.5464 104.106 80.98 104.539 81.5118 104.539Z" fill="#D1E1F1"/>
<path d="M50.9376 117.335H60.8622C61.394 117.335 61.8276 116.902 61.8276 116.37C61.8276 115.838 61.394 115.404 60.8622 115.404H50.9376C50.4058 115.404 49.9722 115.838 49.9722 116.37C49.9722 116.902 50.4058 117.335 50.9376 117.335Z" fill="#D1E1F1"/>
<path d="M50.9454 120.927H61.8354C62.3673 120.927 62.8009 120.493 62.8009 119.962C62.8009 119.43 62.3673 118.996 61.8354 118.996H50.9454C50.4136 118.996 49.98 119.43 49.98 119.962C49.98 120.493 50.4136 120.927 50.9454 120.927Z" fill="#D1E1F1"/>
<path d="M50.9611 133.552H61.8511C62.3829 133.552 62.8165 133.118 62.8165 132.587C62.8165 132.055 62.3829 131.621 61.8511 131.621H50.9611C50.4292 131.621 49.9956 132.055 49.9956 132.587C49.9956 133.118 50.4292 133.552 50.9611 133.552Z" fill="#D1E1F1"/>
<path d="M50.9454 124.519H60.6245C61.1563 124.519 61.59 124.085 61.59 123.553C61.59 123.022 61.1563 122.588 60.6245 122.588H50.9454C50.4136 122.588 49.98 123.022 49.98 123.553C49.98 124.085 50.4136 124.519 50.9454 124.519Z" fill="#D1E1F1"/>
<path d="M50.9279 113.743H62.7751C63.3069 113.743 63.7406 113.31 63.7406 112.778C63.7406 112.246 63.3069 111.812 62.7751 111.812H50.9279C50.396 111.812 49.9624 112.246 49.9624 112.778C49.9624 113.31 50.396 113.743 50.9279 113.743Z" fill="#D1E1F1"/>
<path d="M50.9122 104.539H62.7595C63.2913 104.539 63.725 104.106 63.725 103.574C63.725 103.042 63.2913 102.608 62.7595 102.608H50.9122C50.3804 102.608 49.9468 103.042 49.9468 103.574C49.9468 104.106 50.3804 104.539 50.9122 104.539Z" fill="#D1E1F1"/>
<path d="M94.562 109.227V108.434H98.4811V109.227H94.562Z" fill="#1683FA"/>
<path d="M94.5776 116.665V115.871H98.4967V116.665H94.5776Z" fill="#1683FA"/>
<path d="M94.5874 123.308V122.515H98.5065V123.308H94.5874Z" fill="#1683FA"/>
<path d="M94.5698 112.484V111.977H98.4889V112.484H94.5698Z" fill="#1683FA"/>
<path d="M94.5698 113.326V112.827H98.4889V113.326H94.5698Z" fill="#1683FA"/>
<path d="M94.5698 114.177V113.67H98.4889V114.177H94.5698Z" fill="#1683FA"/>
<path d="M94.5874 121.165V120.666H98.5065V121.165H94.5874Z" fill="#1683FA"/>
<path d="M94.5874 122.015V121.508H98.5065V122.015H94.5874Z" fill="#1683FA"/>
<path d="M94.5874 119.815V119.315H98.4983L98.5065 119.815H94.5874Z" fill="#1683FA"/>
<path d="M94.5698 111.264V110.103H98.4807L98.4889 111.264H94.5698Z" fill="#1683FA"/>
<path d="M94.5776 118.276V117.114H98.4967V118.276H94.5776Z" fill="#1683FA"/>
<path d="M98.5138 128.872L98.522 129.666H94.6029V128.872H98.5138Z" fill="#1683FA"/>
<path d="M98.522 133.053V133.552H94.6111L94.6029 133.053H98.522Z" fill="#1683FA"/>
<path d="M98.522 132.202V132.709H94.6029V132.202H98.522Z" fill="#1683FA"/>
<path d="M98.522 131.359V131.858H94.6029V131.359H98.522Z" fill="#1683FA"/>
<path d="M98.5143 125.722V126.221H94.5952V125.722H98.5143Z" fill="#1683FA"/>
<path d="M98.5143 127.252V128.422H94.5952V127.252H98.5143Z" fill="#1683FA"/>
<path d="M94.5952 125.084V123.922H98.5061L98.5143 125.084H94.5952Z" fill="#1683FA"/>
<path d="M37.3538 103.574C37.3538 104.114 36.9201 104.555 36.372 104.555C35.8238 104.555 35.3901 104.114 35.3901 103.574C35.3901 103.034 35.8238 102.592 36.372 102.592C36.9201 102.592 37.3538 103.034 37.3538 103.574Z" fill="#1683FA"/>
<path d="M36.3804 105.112C35.6768 105.112 35.0959 104.637 34.9077 103.999H33.0913V105.464C33.0913 105.75 33.3286 105.987 33.6231 105.987H39.154C39.4404 105.987 39.6777 105.75 39.6777 105.464V103.999H37.8531C37.6731 104.645 37.084 105.112 36.3804 105.112Z" fill="#1683FA"/>
<path d="M39.138 101.16H33.6071C33.3208 101.16 33.0835 101.397 33.0835 101.684V103.148H34.908C35.088 102.502 35.6771 102.036 36.3808 102.036C37.0844 102.036 37.6653 102.51 37.8535 103.148H39.6699V101.684C39.6699 101.397 39.4326 101.16 39.138 101.16Z" fill="#1683FA"/>
<path d="M28.1267 74.6841C27.9385 74.7414 27.783 74.8477 27.6767 74.9868C27.5703 75.1341 27.513 75.3141 27.513 75.535C27.513 75.7314 27.5621 75.9032 27.6603 76.0587C27.7585 76.2141 27.9058 76.3287 28.0939 76.4187C28.2821 76.5087 28.5112 76.5496 28.7894 76.5496C29.1985 76.5496 29.5176 76.4514 29.7385 76.2632C29.9594 76.075 30.0658 75.8296 30.0658 75.5268C30.0658 75.2568 29.9921 75.0359 29.8367 74.8723C29.6812 74.7087 29.4767 74.6268 29.223 74.6186V75.4532H28.7076V73.9805H29.1412C29.4521 73.9805 29.7221 74.0459 29.9512 74.1768C30.1803 74.3077 30.3521 74.4877 30.4748 74.725C30.5976 74.9541 30.663 75.2241 30.663 75.5187C30.663 75.8541 30.5894 76.1405 30.4421 76.3941C30.2949 76.6477 30.0821 76.8441 29.8039 76.9832C29.5258 77.1223 29.1985 77.1959 28.8139 77.1959C28.4294 77.1959 28.0939 77.1223 27.8076 76.975C27.5294 76.8277 27.3167 76.6314 27.1694 76.3859C27.0221 76.1323 26.9485 75.8541 26.9485 75.535C26.9485 75.265 26.9976 75.0277 27.1039 74.8068C27.2103 74.5859 27.3494 74.4141 27.5294 74.2668C27.7094 74.1277 27.9221 74.0377 28.1594 74.005V74.6759L28.1267 74.6841Z" fill="#F5F9FC"/>
<path d="M30.5889 72.1146V73.3418H26.9644V72.09C26.9644 71.73 27.0298 71.4191 27.1771 71.1655C27.3244 70.9037 27.5289 70.7073 27.7989 70.5682C28.0689 70.4291 28.3962 70.3555 28.7725 70.3555C29.1489 70.3555 29.4762 70.4291 29.7462 70.5682C30.0162 70.7073 30.2289 70.9118 30.368 71.1737C30.5153 71.4355 30.5889 71.7546 30.5889 72.1227V72.1146ZM30.0244 72.6873V72.1473C30.0244 71.3864 29.6071 71.01 28.7725 71.01C27.938 71.01 27.5289 71.3864 27.5371 72.1309V72.6873H30.0244Z" fill="#F5F9FC"/>
<path d="M30.581 68.5312H30.1064L28.871 67.2712C28.691 67.0912 28.5355 66.9603 28.4046 66.8621C28.2737 66.7721 28.1346 66.723 27.9873 66.723C27.8155 66.723 27.6846 66.7803 27.5864 66.8949C27.4883 67.0094 27.4392 67.1567 27.4392 67.3285C27.4392 67.5085 27.4964 67.6558 27.6028 67.7621C27.7092 67.8685 27.8564 67.9258 28.0446 67.9258V68.5476C27.8155 68.5476 27.6192 68.4985 27.4473 68.3921C27.2755 68.2858 27.1446 68.1385 27.0546 67.9585C26.9646 67.7703 26.9155 67.5658 26.9155 67.3203C26.9155 67.0749 26.9564 66.8621 27.0546 66.6821C27.1446 66.5021 27.2673 66.3549 27.431 66.2567C27.5864 66.1503 27.7664 66.1012 27.971 66.1012C28.1101 66.1012 28.241 66.1258 28.3719 66.183C28.5028 66.2403 28.6501 66.3303 28.8055 66.453C28.9692 66.5839 29.1573 66.7639 29.3864 67.0012L30.0246 67.623H30.0492V66.0439H30.5973V68.5312H30.581Z" fill="#F5F9FC"/>
<path d="M29.9021 65.5776H29.3785L26.9485 64.0394V63.2212H29.3621V62.7549H29.9021V63.2212H30.573V63.8512H29.9021V65.5776ZM29.3621 63.8431H27.693V63.8676L29.3376 64.9067H29.3621V63.8431Z" fill="#F5F9FC"/>
<path d="M30.573 62.06L27.5212 60.5219H27.4967V62.3137H26.9485V59.8428H27.5049L30.573 61.381V62.06Z" fill="#F5F9FC"/>
<path d="M30.6144 58.0504C30.6144 58.3122 30.5735 58.5495 30.4835 58.7541C30.3935 58.9586 30.2708 59.1141 30.1235 59.2286C29.9681 59.3432 29.7963 59.4004 29.5999 59.4004C29.4526 59.4004 29.3054 59.3677 29.1826 59.3023C29.0517 59.2368 28.9454 59.1468 28.8635 59.0323C28.7817 58.9177 28.7244 58.7868 28.6999 58.6477H28.6754C28.6344 58.8359 28.5363 58.9832 28.389 59.0977C28.2417 59.2123 28.0699 59.2695 27.8735 59.2695C27.6854 59.2695 27.5217 59.2204 27.3744 59.1141C27.2272 59.0077 27.1126 58.8686 27.0308 58.6804C26.949 58.5004 26.8999 58.2877 26.8999 58.0586C26.8999 57.8295 26.9408 57.6168 27.0226 57.4368C27.1044 57.2568 27.219 57.1095 27.3663 57.0032C27.5135 56.8968 27.6772 56.8477 27.8654 56.8477C28.0617 56.8477 28.2335 56.905 28.3808 57.0195C28.5281 57.1341 28.6263 57.2813 28.6672 57.4695H28.6917C28.7163 57.3304 28.7654 57.1995 28.8554 57.085C28.9454 56.9704 29.0517 56.8804 29.1744 56.815C29.3054 56.7495 29.4444 56.7168 29.5917 56.7168C29.7881 56.7168 29.9599 56.7741 30.1154 56.8886C30.2708 57.0032 30.3935 57.1668 30.4835 57.3632C30.5735 57.5677 30.6144 57.7968 30.6144 58.0586V58.0504ZM28.4544 58.0504C28.4544 57.8868 28.4054 57.7477 28.3072 57.6413C28.209 57.535 28.0781 57.4777 27.9226 57.4777C27.7672 57.4777 27.6444 57.535 27.5463 57.6413C27.4481 57.7477 27.399 57.8868 27.4072 58.0504C27.4072 58.2222 27.4563 58.3613 27.5544 58.4677C27.6526 58.5741 27.7754 58.6232 27.9308 58.6232C28.0863 58.6232 28.2172 58.5741 28.3154 58.4595C28.4135 58.3532 28.4626 58.2141 28.4626 58.0423L28.4544 58.0504ZM30.1072 58.0504C30.1072 57.8459 30.0581 57.6823 29.9517 57.5595C29.8454 57.4368 29.7144 57.3795 29.5426 57.3713C29.3708 57.3713 29.2317 57.4368 29.1172 57.5595C29.0026 57.6823 28.9535 57.8459 28.9535 58.0423C28.9535 58.2386 29.0108 58.4023 29.1172 58.525C29.2317 58.6559 29.3708 58.7132 29.5426 58.7132C29.7063 58.7132 29.8454 58.6559 29.9517 58.5332C30.0581 58.4104 30.1072 58.2468 30.1072 58.0423V58.0504Z" fill="#F5F9FC"/>
<path d="M30.6066 54.8356C30.6066 55.0974 30.5657 55.3347 30.4757 55.5392C30.3857 55.7438 30.263 55.8992 30.1157 56.0138C29.9603 56.1283 29.7885 56.1856 29.5921 56.1856C29.4448 56.1856 29.2975 56.1529 29.1748 56.0874C29.0439 56.022 28.9375 55.932 28.8557 55.8174C28.7739 55.7029 28.7166 55.572 28.6921 55.4329H28.6675C28.6266 55.621 28.5285 55.7683 28.3812 55.8829C28.2339 55.9974 28.0621 56.0547 27.8657 56.0547C27.6775 56.0547 27.5139 56.0056 27.3666 55.8992C27.2194 55.7929 27.1048 55.6538 27.023 55.4656C26.9412 55.2856 26.8921 55.0729 26.8921 54.8438C26.8921 54.6147 26.933 54.402 27.0148 54.222C27.0966 54.042 27.2112 53.8947 27.3585 53.7883C27.5057 53.682 27.6694 53.6329 27.8575 53.6329C28.0539 53.6329 28.2257 53.6901 28.373 53.8047C28.5203 53.9192 28.6185 54.0665 28.6594 54.2547H28.6839C28.7085 54.1156 28.7575 53.9847 28.8475 53.8701C28.9375 53.7556 29.0439 53.6656 29.1666 53.6001C29.2975 53.5347 29.4366 53.502 29.5839 53.502C29.7803 53.502 29.9521 53.5592 30.1075 53.6738C30.263 53.7883 30.3857 53.952 30.4757 54.1483C30.5657 54.3529 30.6066 54.582 30.6066 54.8438V54.8356ZM28.4466 54.8356C28.4466 54.672 28.3975 54.5329 28.2994 54.4265C28.2012 54.3201 28.0703 54.2629 27.9148 54.2629C27.7594 54.2629 27.6366 54.3201 27.5385 54.4265C27.4403 54.5329 27.3994 54.672 27.3994 54.8356C27.3994 55.0074 27.4485 55.1465 27.5466 55.2529C27.6448 55.3592 27.7675 55.4083 27.923 55.4083C28.0785 55.4083 28.2094 55.3592 28.3075 55.2447C28.4057 55.1383 28.4548 54.9992 28.4548 54.8274L28.4466 54.8356ZM30.0994 54.8356C30.0994 54.631 30.0503 54.4674 29.9439 54.3447C29.8375 54.222 29.7066 54.1647 29.5348 54.1565C29.363 54.1565 29.2239 54.222 29.1094 54.3447C28.9948 54.4674 28.9457 54.631 28.9457 54.8274C28.9457 55.0238 29.003 55.1874 29.1094 55.3101C29.2239 55.441 29.363 55.4983 29.5348 55.4983C29.6985 55.4983 29.8375 55.441 29.9439 55.3183C30.0503 55.1956 30.0994 55.032 30.0994 54.8274V54.8356Z" fill="#F5F9FC"/>
<path d="M30.6058 51.5708C30.6058 51.7426 30.5731 51.9144 30.5158 52.0781C30.4585 52.2417 30.3603 52.389 30.2212 52.5199C30.0903 52.6508 29.9103 52.7572 29.6812 52.8308C29.4603 52.9126 29.174 52.9454 28.8467 52.9454C28.4294 52.9454 28.0776 52.8881 27.7831 52.7735C27.4885 52.659 27.2594 52.4954 27.104 52.2826C26.9485 52.0699 26.8667 51.8163 26.8667 51.5299C26.8667 51.3008 26.9076 51.0963 26.9976 50.9244C27.0876 50.7526 27.2103 50.6054 27.3658 50.499C27.5212 50.3926 27.7012 50.3272 27.8976 50.2944V50.9408C27.7585 50.9735 27.644 51.039 27.554 51.1454C27.4722 51.2435 27.4312 51.3744 27.4312 51.5299C27.4312 51.7835 27.5376 51.9717 27.7585 52.1108C27.9794 52.2499 28.2822 52.3154 28.6667 52.3154V52.2908C28.5112 52.2008 28.3885 52.0781 28.2985 51.9144C28.2085 51.7508 28.1676 51.579 28.1676 51.3826C28.1676 51.1699 28.2167 50.9817 28.3149 50.8099C28.4131 50.6381 28.5522 50.5072 28.7322 50.409C28.9122 50.3108 29.1167 50.2617 29.3376 50.2617C29.5749 50.2617 29.7876 50.3108 29.9758 50.4254C30.164 50.5317 30.3112 50.6872 30.4258 50.8835C30.5322 51.0799 30.5894 51.309 30.5894 51.5708H30.6058ZM30.074 51.5708C30.074 51.4399 30.0412 51.3254 29.9758 51.2272C29.9103 51.129 29.8285 51.0472 29.7222 50.9899C29.6158 50.9326 29.4931 50.8999 29.3622 50.8999C29.2312 50.8999 29.1167 50.9244 29.0103 50.9817C28.904 51.039 28.8222 51.1208 28.7649 51.219C28.7076 51.3172 28.6749 51.4317 28.6749 51.5626C28.6749 51.6935 28.7076 51.8081 28.7731 51.9063C28.8385 52.0126 28.9203 52.0863 29.0267 52.1517C29.1331 52.209 29.2476 52.2417 29.3785 52.2417C29.5012 52.2417 29.624 52.209 29.7303 52.1517C29.8367 52.0944 29.9185 52.0126 29.984 51.9144C30.0494 51.8163 30.0822 51.7017 30.0822 51.5708H30.074Z" fill="#F5F9FC"/>
<path d="M29.877 49.7378H29.3533L26.9233 48.1996V47.3814H29.337V46.915H29.877V47.3814H30.5479V48.0114H29.877V49.7378ZM29.337 48.0032H27.6679V48.0278L29.3124 49.0669H29.337V48.0032Z" fill="#F5F9FC"/>
<path d="M81.0701 82.4401C81.0374 82.3337 80.9801 82.2519 80.8983 82.1864C80.8165 82.1292 80.7183 82.0964 80.5956 82.0964C80.4892 82.0964 80.391 82.121 80.3092 82.1783C80.2274 82.2355 80.1619 82.3092 80.1128 82.4155C80.0637 82.5219 80.0392 82.6446 80.0392 82.8001C80.0392 83.0292 80.0883 83.201 80.1947 83.3237C80.301 83.4464 80.4319 83.5037 80.6037 83.5037C80.751 83.5037 80.8737 83.4628 80.9637 83.381C81.0537 83.2992 81.0947 83.1846 81.1028 83.0455H80.6447V82.7592H81.4547V82.9964C81.4547 83.1683 81.4219 83.3155 81.3483 83.4383C81.2747 83.561 81.1765 83.6592 81.0456 83.7246C80.9147 83.7901 80.7756 83.8228 80.6037 83.8228C80.4237 83.8228 80.2601 83.7819 80.121 83.7001C79.9819 83.6183 79.8756 83.4955 79.7937 83.3483C79.7119 83.1928 79.6792 83.0128 79.6792 82.8001C79.6792 82.5873 79.7201 82.3992 79.8019 82.2519C79.8837 82.0964 79.9901 81.9819 80.1292 81.9001C80.2683 81.8183 80.4237 81.7773 80.5956 81.7773C80.7428 81.7773 80.8737 81.8019 80.9965 81.8592C81.1192 81.9164 81.2174 81.9901 81.291 82.0964C81.3647 82.1946 81.4137 82.3092 81.4383 82.4401H81.0701Z" fill="#F5F9FC"/>
<path d="M82.4774 83.7991H81.7983V81.8027H82.4856C82.6819 81.8027 82.8537 81.8436 83.001 81.9255C83.1401 82.0073 83.2546 82.1218 83.3283 82.2691C83.4019 82.4164 83.4428 82.5964 83.4428 82.8009C83.4428 83.0055 83.4019 83.1855 83.3283 83.3409C83.2546 83.4882 83.1401 83.6027 82.9928 83.6845C82.8456 83.7664 82.6737 83.8073 82.4692 83.8073L82.4774 83.7991ZM82.1583 83.4882H82.4528C82.8701 83.4882 83.0828 83.2591 83.0828 82.8009C83.0828 82.3427 82.8783 82.1136 82.461 82.1136H82.1501V83.4882H82.1583Z" fill="#F5F9FC"/>
<path d="M84.4574 83.7989V83.537L85.1529 82.8579C85.251 82.7598 85.3247 82.6698 85.3738 82.6043C85.4229 82.5307 85.4474 82.457 85.4474 82.3752C85.4474 82.277 85.4147 82.2034 85.3492 82.1543C85.2838 82.097 85.2101 82.0725 85.1119 82.0725C85.0138 82.0725 84.9319 82.1052 84.8747 82.1625C84.8174 82.2198 84.7847 82.3016 84.7847 82.408H84.441C84.441 82.2852 84.4656 82.1707 84.531 82.0807C84.5883 81.9907 84.6701 81.917 84.7683 81.8598C84.8665 81.8107 84.9892 81.7861 85.1201 81.7861C85.251 81.7861 85.3738 81.8107 85.472 81.8598C85.5701 81.9089 85.6519 81.9743 85.7092 82.0643C85.7665 82.1543 85.791 82.2525 85.791 82.3589C85.791 82.4325 85.7747 82.5061 85.7501 82.5798C85.7256 82.6534 85.6683 82.7352 85.6029 82.817C85.5292 82.907 85.431 83.0134 85.3001 83.1361L84.9565 83.488V83.5043H85.8238V83.807H84.4574V83.7989Z" fill="#F5F9FC"/>
<path d="M86.0776 83.4221V83.1358L86.9204 81.7939H87.3704V83.1194H87.6322V83.4139H87.3785V83.7821H87.0349V83.4139H86.0776V83.4221ZM87.0349 83.1276V82.2112H87.0185L86.4458 83.1112V83.1276H87.0349Z" fill="#F5F9FC"/>
<path d="M88.0156 83.7991L88.8583 82.1218V82.1055H87.8765V81.8027H89.2346V82.1136L88.3919 83.7991H88.0156Z" fill="#F5F9FC"/>
<path d="M90.2265 83.8232C90.0792 83.8232 89.9565 83.7986 89.8419 83.7495C89.7274 83.7004 89.6456 83.635 89.5801 83.5532C89.5147 83.4713 89.4819 83.3732 89.4819 83.2668C89.4819 83.185 89.4983 83.1032 89.5392 83.0377C89.5719 82.9641 89.6292 82.9068 89.6865 82.8577C89.7519 82.8086 89.8174 82.7841 89.8992 82.7677V82.7513C89.7928 82.7268 89.711 82.6777 89.6538 82.5959C89.5883 82.5141 89.5556 82.4159 89.5556 82.3095C89.5556 82.2032 89.5801 82.1132 89.6374 82.0313C89.6947 81.9495 89.7765 81.8841 89.8747 81.8432C89.9728 81.7941 90.0874 81.7695 90.2183 81.7695C90.3492 81.7695 90.4638 81.7941 90.5619 81.8432C90.6601 81.8923 90.7419 81.9495 90.7992 82.0313C90.8565 82.1132 90.8892 82.2032 90.8892 82.3095C90.8892 82.4159 90.8565 82.5141 90.791 82.5959C90.7256 82.6777 90.6438 82.7268 90.5456 82.7513V82.7677C90.6192 82.7841 90.6928 82.8086 90.7583 82.8577C90.8238 82.9068 90.8728 82.9641 90.9056 83.0377C90.9465 83.1113 90.9628 83.185 90.9628 83.2668C90.9628 83.3732 90.9301 83.4713 90.8647 83.5532C90.7992 83.635 90.7174 83.7086 90.6028 83.7495C90.4883 83.7986 90.3656 83.8232 90.2183 83.8232H90.2265ZM90.2265 82.6368C90.3165 82.6368 90.3901 82.6123 90.4556 82.555C90.5128 82.4977 90.5456 82.4323 90.5456 82.3423C90.5456 82.2604 90.5128 82.1868 90.4556 82.1377C90.3983 82.0886 90.3247 82.0559 90.2265 82.0559C90.1283 82.0559 90.0547 82.0804 89.9974 82.1377C89.9401 82.1868 89.9074 82.2604 89.9074 82.3423C89.9074 82.4323 89.9401 82.4977 89.9974 82.555C90.0547 82.6123 90.1365 82.6368 90.2265 82.6368ZM90.2265 83.545C90.341 83.545 90.431 83.5204 90.4965 83.4632C90.5619 83.4059 90.5947 83.3323 90.5947 83.2423C90.5947 83.1441 90.5619 83.0704 90.4883 83.005C90.4147 82.9395 90.3328 82.915 90.2265 82.915C90.1201 82.915 90.0301 82.9477 89.9565 83.005C89.8828 83.0623 89.8501 83.1441 89.8501 83.2423C89.8501 83.3323 89.8828 83.4059 89.9483 83.4632C90.0138 83.5204 90.1038 83.545 90.2183 83.545H90.2265Z" fill="#F5F9FC"/>
<path d="M92.0019 83.8232C91.8546 83.8232 91.7319 83.7986 91.6173 83.7495C91.5028 83.7004 91.421 83.635 91.3555 83.5532C91.29 83.4713 91.2573 83.3732 91.2573 83.2668C91.2573 83.185 91.2737 83.1032 91.3146 83.0377C91.3473 82.9641 91.4046 82.9068 91.4619 82.8577C91.5273 82.8086 91.5928 82.7841 91.6746 82.7677V82.7513C91.5682 82.7268 91.4864 82.6777 91.4291 82.5959C91.3637 82.5141 91.331 82.4159 91.331 82.3095C91.331 82.2032 91.3555 82.1132 91.4128 82.0313C91.47 81.9495 91.5519 81.8841 91.65 81.8432C91.7482 81.7941 91.8628 81.7695 91.9937 81.7695C92.1246 81.7695 92.2391 81.7941 92.3373 81.8432C92.4355 81.8923 92.5173 81.9495 92.5746 82.0313C92.6319 82.1132 92.6646 82.2032 92.6646 82.3095C92.6646 82.4159 92.6319 82.5141 92.5664 82.5959C92.501 82.6777 92.4191 82.7268 92.321 82.7513V82.7677C92.3946 82.7841 92.4682 82.8086 92.5337 82.8577C92.5991 82.9068 92.6482 82.9641 92.681 83.0377C92.7219 83.1113 92.7382 83.185 92.7382 83.2668C92.7382 83.3732 92.7055 83.4713 92.64 83.5532C92.5746 83.635 92.4928 83.7086 92.3782 83.7495C92.2637 83.7986 92.141 83.8232 91.9937 83.8232H92.0019ZM92.0019 82.6368C92.0919 82.6368 92.1655 82.6123 92.231 82.555C92.2882 82.4977 92.321 82.4323 92.321 82.3423C92.321 82.2604 92.2882 82.1868 92.231 82.1377C92.1737 82.0886 92.1 82.0559 92.0019 82.0559C91.9037 82.0559 91.83 82.0804 91.7728 82.1377C91.7155 82.1868 91.6828 82.2604 91.6828 82.3423C91.6828 82.4323 91.7155 82.4977 91.7728 82.555C91.83 82.6123 91.9119 82.6368 92.0019 82.6368ZM92.0019 83.545C92.1164 83.545 92.2064 83.5204 92.2719 83.4632C92.3373 83.4059 92.37 83.3323 92.37 83.2423C92.37 83.1441 92.3373 83.0704 92.2637 83.005C92.19 82.9395 92.1082 82.915 92.0019 82.915C91.8955 82.915 91.8055 82.9477 91.7319 83.005C91.6582 83.0623 91.6255 83.1441 91.6255 83.2423C91.6255 83.3323 91.6582 83.4059 91.7237 83.4632C91.7891 83.5204 91.8791 83.545 91.9937 83.545H92.0019Z" fill="#F5F9FC"/>
<path d="M93.7936 83.8232C93.6954 83.8232 93.6054 83.8068 93.5154 83.7741C93.4254 83.7413 93.3436 83.6841 93.27 83.6104C93.1964 83.5368 93.1391 83.4386 93.0982 83.3159C93.0573 83.1932 93.0327 83.0377 93.0327 82.8577C93.0327 82.6286 93.0654 82.4323 93.1309 82.2686C93.1963 82.105 93.2863 81.9823 93.4009 81.9004C93.5154 81.8186 93.6545 81.7695 93.8182 81.7695C93.9409 81.7695 94.0554 81.7941 94.1536 81.8432C94.2518 81.8923 94.3254 81.9577 94.3909 82.0477C94.4482 82.1377 94.4891 82.2277 94.5054 82.3423H94.1536C94.1373 82.2604 94.0963 82.2032 94.0391 82.1541C93.9818 82.105 93.9082 82.0804 93.8264 82.0804C93.6873 82.0804 93.5809 82.1377 93.5073 82.2604C93.4336 82.3832 93.3927 82.5468 93.3927 82.7595H93.4091C93.4582 82.6777 93.5236 82.6041 93.6136 82.555C93.7036 82.5059 93.8018 82.4813 93.9082 82.4813C94.0227 82.4813 94.1291 82.5059 94.2273 82.5632C94.3173 82.6204 94.3909 82.6941 94.4482 82.7923C94.5054 82.8904 94.53 83.005 94.53 83.1277C94.53 83.2586 94.4973 83.3732 94.44 83.4795C94.3827 83.5859 94.2927 83.6677 94.1863 83.725C94.08 83.7823 93.9491 83.815 93.81 83.815L93.7936 83.8232ZM93.7936 83.5286C93.8673 83.5286 93.9245 83.5123 93.9818 83.4795C94.0391 83.4468 94.08 83.3977 94.1127 83.3404C94.1454 83.2832 94.1618 83.2177 94.1618 83.1441C94.1618 83.0704 94.1454 83.005 94.1127 82.9477C94.08 82.8904 94.0391 82.8413 93.9818 82.8086C93.9245 82.7759 93.8673 82.7595 93.7936 82.7595C93.72 82.7595 93.6627 82.7759 93.6054 82.8086C93.5482 82.8413 93.5073 82.8904 93.4745 82.9477C93.4418 83.005 93.4254 83.0704 93.4254 83.1441C93.4254 83.2177 93.4418 83.275 93.4745 83.3323C93.5073 83.3895 93.5482 83.4386 93.6054 83.4713C93.6627 83.5041 93.7282 83.5204 93.7936 83.5204V83.5286Z" fill="#F5F9FC"/>
<path d="M94.8081 83.4221V83.1358L95.6508 81.7939H96.1008V83.1194H96.3627V83.4139H96.109V83.7821H95.7654V83.4139H94.8081V83.4221ZM95.7654 83.1276V82.2112H95.749L95.1763 83.1112V83.1276H95.7654Z" fill="#F5F9FC"/>
<path d="M44.0722 59.4417H60.5095C61.0413 59.4417 61.4749 59.008 61.4749 58.4762C61.4749 57.9444 61.0413 57.5107 60.5095 57.5107H44.0722C43.5404 57.5107 43.1068 57.9444 43.1068 58.4762C43.1068 59.008 43.5404 59.4417 44.0722 59.4417Z" fill="#F5F9FC"/>
<path d="M62.8257 58.484C62.8257 59.0158 63.2593 59.4495 63.7911 59.4495H84.2784C84.8102 59.4495 85.2439 59.0158 85.2439 58.484C85.2439 57.9522 84.8102 57.5186 84.2784 57.5186H63.7911C63.2593 57.5186 62.8257 57.9522 62.8257 58.484Z" fill="#F5F9FC"/>
<path d="M38.7697 63.0247H45.2497C45.7815 63.0247 46.2151 62.591 46.2151 62.0592C46.2151 61.5274 45.7815 61.0938 45.2497 61.0938H38.7697C38.2378 61.0938 37.8042 61.5274 37.8042 62.0592C37.8042 62.591 38.2378 63.0247 38.7697 63.0247Z" fill="#F5F9FC"/>
<path d="M84.2781 61.0938H48.5236C47.9917 61.0938 47.5581 61.5274 47.5581 62.0592C47.5581 62.591 47.9917 63.0247 48.5236 63.0247H84.2781C84.8099 63.0247 85.2436 62.591 85.2436 62.0592C85.2436 61.5274 84.8099 61.0938 84.2781 61.0938Z" fill="#F5F9FC"/>
<path d="M66.8753 66.6008C67.4071 66.6008 67.8408 66.1672 67.8408 65.6354C67.8408 65.1036 67.4071 64.6699 66.8753 64.6699H54.1935C53.6617 64.6699 53.228 65.1036 53.228 65.6354C53.228 66.1672 53.6617 66.6008 54.1935 66.6008H66.8753Z" fill="#F5F9FC"/>
<path d="M84.2867 64.6777H70.1486C69.6167 64.6777 69.1831 65.1114 69.1831 65.6432C69.1831 66.175 69.6167 66.6086 70.1486 66.6086H84.2867C84.8186 66.6086 85.2522 66.175 85.2522 65.6432C85.2522 65.1114 84.8186 64.6777 84.2867 64.6777Z" fill="#F5F9FC"/>
<path d="M38.7794 66.6008H50.5858C51.1176 66.6008 51.5512 66.1672 51.5512 65.6354C51.5512 65.1036 51.1176 64.6699 50.5858 64.6699H38.7794C38.2476 64.6699 37.814 65.1036 37.814 65.6354C37.814 66.1672 38.2476 66.6008 38.7794 66.6008Z" fill="#F5F9FC"/>
<path d="M38.7872 70.176H72.4145C72.9463 70.176 73.38 69.7424 73.38 69.2106C73.38 68.6787 72.9463 68.2451 72.4145 68.2451H38.7872C38.2554 68.2451 37.8218 68.6787 37.8218 69.2106C37.8218 69.7424 38.2554 70.176 38.7872 70.176Z" fill="#F5F9FC"/>
<path d="M84.2949 68.2529H75.6876C75.1558 68.2529 74.7222 68.6866 74.7222 69.2184C74.7222 69.7502 75.1558 70.1838 75.6876 70.1838H84.2949C84.8267 70.1838 85.2604 69.7502 85.2604 69.2184C85.2604 68.6866 84.8267 68.2529 84.2949 68.2529Z" fill="#F5F9FC"/>
<path d="M38.7618 55.8655H74.5164C75.0482 55.8655 75.4818 55.4318 75.4818 54.9C75.4818 54.3682 75.0482 53.9346 74.5164 53.9346H38.7618C38.23 53.9346 37.7964 54.3682 37.7964 54.9C37.7964 55.4318 38.23 55.8655 38.7618 55.8655Z" fill="#F5F9FC"/>
<path d="M56.1642 50.3594C55.6324 50.3594 55.1987 50.793 55.1987 51.3248C55.1987 51.8566 55.6324 52.2903 56.1642 52.2903H68.846C69.3778 52.2903 69.8115 51.8566 69.8115 51.3248C69.8115 50.793 69.3778 50.3594 68.846 50.3594H56.1642Z" fill="#F5F9FC"/>
<path d="M38.754 52.2903H52.8922C53.424 52.2903 53.8577 51.8566 53.8577 51.3248C53.8577 50.793 53.424 50.3594 52.8922 50.3594H38.754C38.2222 50.3594 37.7886 50.793 37.7886 51.3248C37.7886 51.8566 38.2222 52.2903 38.754 52.2903Z" fill="#F5F9FC"/>
<path d="M84.2616 50.3594H72.4552C71.9234 50.3594 71.4897 50.793 71.4897 51.3248C71.4897 51.8566 71.9234 52.2903 72.4552 52.2903H84.2616C84.7934 52.2903 85.227 51.8566 85.227 51.3248C85.227 50.793 84.7934 50.3594 84.2616 50.3594Z" fill="#F5F9FC"/>
<path d="M38.7949 73.759H55.2486C55.7804 73.759 56.214 73.3254 56.214 72.7936C56.214 72.2618 55.7804 71.8281 55.2486 71.8281H38.7949C38.2631 71.8281 37.8295 72.2618 37.8295 72.7936C37.8295 73.3254 38.2631 73.759 38.7949 73.759Z" fill="#F5F9FC"/>
<path d="M84.2947 71.8281H58.5138C57.982 71.8281 57.5483 72.2618 57.5483 72.7936C57.5483 73.3254 57.982 73.759 58.5138 73.759H84.2947C84.8265 73.759 85.2602 73.3254 85.2602 72.7936C85.2602 72.2618 84.8265 71.8281 84.2947 71.8281Z" fill="#F5F9FC"/>
<path d="M77.2331 75.4121H38.7949C38.2631 75.4121 37.8295 75.8457 37.8295 76.3776C37.8295 76.9094 38.2631 77.343 38.7949 77.343H77.2331C77.7649 77.343 78.1986 76.9094 78.1986 76.3776C78.1986 75.8457 77.7649 75.4121 77.2331 75.4121Z" fill="#F5F9FC"/>
<path d="M80.1954 42.0625H54.6681C54.1363 42.0625 53.7026 42.4961 53.7026 43.028C53.7026 43.5598 54.1363 43.9934 54.6681 43.9934H80.1954C80.7272 43.9934 81.1608 43.5598 81.1608 43.028C81.1608 42.4961 80.7272 42.0625 80.1954 42.0625Z" fill="#F5F9FC"/>
<path d="M42.7872 43.9856H51.3945C51.9263 43.9856 52.36 43.552 52.36 43.0201C52.36 42.4883 51.9263 42.0547 51.3945 42.0547H42.7872C42.2554 42.0547 41.8218 42.4883 41.8218 43.0201C41.8218 43.552 42.2554 43.9856 42.7872 43.9856Z" fill="#F5F9FC"/>
<path d="M66.8343 40.2795C67.3661 40.2795 67.7997 39.8459 67.7997 39.3141C67.7997 38.7823 67.3661 38.3486 66.8343 38.3486H54.1525C53.6206 38.3486 53.187 38.7823 53.187 39.3141C53.187 39.8459 53.6206 40.2795 54.1525 40.2795H66.8343Z" fill="#F5F9FC"/>
<path d="M84.2379 38.3574H70.0997C69.5679 38.3574 69.1343 38.7911 69.1343 39.3229C69.1343 39.8547 69.5679 40.2883 70.0997 40.2883H84.2379C84.7697 40.2883 85.2034 39.8547 85.2034 39.3229C85.2034 38.7911 84.7697 38.3574 84.2379 38.3574Z" fill="#F5F9FC"/>
<path d="M38.7384 40.2795H50.5448C51.0766 40.2795 51.5102 39.8459 51.5102 39.3141C51.5102 38.7823 51.0766 38.3486 50.5448 38.3486H38.7384C38.2066 38.3486 37.7729 38.7823 37.7729 39.3141C37.7729 39.8459 38.2066 40.2795 38.7384 40.2795Z" fill="#F5F9FC"/>
</g>
<defs>
<clipPath id="clip0_1_4021">
<rect width="211.091" height="180" fill="white" transform="translate(0.45459)"/>
</clipPath>
</defs>
</svg>
