<svg width="128" height="128" viewBox="0 0 128 128" fill="none" xmlns="http://www.w3.org/2000/svg">
<rect width="128" height="128" rx="64" fill="#E9F9E9"/>
<path d="M84.3437 43.6598C84.037 43.3531 83.6481 43.1417 83.224 43.0508C82.7999 42.96 82.3585 42.9937 81.9531 43.1479L44.4503 57.3426H44.4428C44.0104 57.5089 43.6398 57.8047 43.3818 58.1894C43.1238 58.5742 42.9908 59.0293 43.001 59.4925C43.0113 59.9556 43.1643 60.4044 43.4391 60.7773C43.7139 61.1503 44.0972 61.4294 44.5365 61.5764L44.575 61.5886L57.4468 67.0851C57.6979 67.1613 57.9646 67.1704 58.2202 67.1113C58.4759 67.0523 58.7115 66.9272 58.9037 66.7486L79.5625 47.4989C79.624 47.4373 79.6971 47.3885 79.7775 47.3552C79.858 47.3219 79.9442 47.3047 80.0312 47.3047C80.1183 47.3047 80.2045 47.3219 80.2849 47.3552C80.3653 47.3885 80.4384 47.4373 80.5 47.4989C80.5615 47.5604 80.6104 47.6335 80.6437 47.7139C80.677 47.7944 80.6941 47.8806 80.6941 47.9676C80.6941 48.0547 80.677 48.1409 80.6437 48.2213C80.6104 48.3017 80.5615 48.3748 80.5 48.4364L61.2493 69.0857C61.0707 69.2779 60.9457 69.5136 60.8866 69.7693C60.8275 70.0249 60.8366 70.2916 60.9128 70.5426L66.4112 83.422C66.4168 83.4407 66.4225 83.4576 66.429 83.4754C66.729 84.3445 67.4884 84.9576 68.4062 84.9989H68.5C68.9633 85.0015 69.4167 84.8647 69.8013 84.6062C70.1858 84.3477 70.4837 83.9795 70.6562 83.5495L84.849 46.057C85.0054 45.6513 85.0409 45.209 84.9512 44.7836C84.8616 44.3582 84.6506 43.9678 84.3437 43.6598Z" fill="#42A66A"/>
</svg>
