<svg width="128" height="128" viewBox="0 0 128 128" fill="none" xmlns="http://www.w3.org/2000/svg">
<rect width="128" height="128" rx="64" fill="#FEEBEA"/>
<path d="M44.5503 87.9739C43.3734 88.0431 42.216 87.6474 41.3222 86.87C39.5593 85.076 39.5593 82.1786 41.3222 80.3846L79.9235 41.3339C81.757 39.5983 84.6342 39.6947 86.3499 41.5496C87.9014 43.227 87.9918 45.8051 86.5616 47.5894L47.7329 86.87C46.8505 87.6361 45.7117 88.0312 44.5503 87.9739Z" fill="#EF3024"/>
<path d="M83.1055 87.9761C81.9128 87.9709 80.7696 87.492 79.9228 86.6423L41.3213 47.5915C39.6881 45.6621 39.9101 42.7584 41.8173 41.106C43.5196 39.6313 46.0301 39.6313 47.7321 41.106L86.5609 80.1567C88.394 81.8928 88.4888 84.8036 86.7726 86.658C86.7043 86.7318 86.6338 86.8031 86.5609 86.8722C85.6101 87.7086 84.3589 88.1083 83.1055 87.9761Z" fill="#EF3024"/>
</svg>
