<svg width="22" height="20" viewBox="0 0 22 20" fill="none" xmlns="http://www.w3.org/2000/svg">
<path d="M10.9388 14.0547C10.3272 14.0547 9.81445 14.5674 9.81445 15.179C9.81445 15.7907 10.3272 16.3034 10.9388 16.3034C11.528 16.3034 12.0632 15.7907 12.0362 15.206C12.0632 14.5629 11.555 14.0547 10.9388 14.0547Z" fill="#FF7141"/>
<path d="M21.3459 18.0391C22.052 16.8203 22.0565 15.3677 21.3549 14.1534L14.3119 1.95638C13.6148 0.728581 12.3555 0 10.9434 0C9.53117 0 8.27189 0.733078 7.57479 1.95188L0.522846 14.1624C-0.178751 15.3902 -0.174253 16.8518 0.536338 18.0706C1.23793 19.2759 2.49271 20 3.89591 20H17.9638C19.3715 20 20.6353 19.2669 21.3459 18.0391ZM19.8168 17.1576C19.4255 17.8322 18.7329 18.2325 17.9593 18.2325H3.89141C3.12685 18.2325 2.43874 17.8412 2.05646 17.1801C1.66969 16.51 1.66519 15.7095 2.05197 15.0349L9.10391 2.82887C9.48619 2.15876 10.1698 1.76299 10.9434 1.76299C11.7124 1.76299 12.4005 2.16326 12.7828 2.83337L19.8302 15.0394C20.208 15.696 20.2035 16.4875 19.8168 17.1576Z" fill="#FF7141"/>
<path d="M10.661 6.16163C10.1258 6.31454 9.79297 6.80026 9.79297 7.38942C9.81995 7.74471 9.84244 8.10451 9.86942 8.4598C9.94588 9.81352 10.0223 11.1403 10.0988 12.494C10.1258 12.9527 10.4811 13.2855 10.9398 13.2855C11.3985 13.2855 11.7583 12.9302 11.7808 12.467C11.7808 12.1882 11.7808 11.9318 11.8078 11.6485C11.8573 10.7805 11.9112 9.91247 11.9607 9.04447C11.9877 8.48229 12.0372 7.92011 12.0642 7.35794C12.0642 7.15555 12.0372 6.97566 11.9607 6.79576C11.7314 6.29205 11.1962 6.0357 10.661 6.16163Z" fill="#FF7141"/>
</svg>
