<svg width="24" height="24" viewBox="0 0 24 24" fill="none" xmlns="http://www.w3.org/2000/svg">
<rect width="24" height="24" rx="12" fill="#6AA3D7"/>
<path d="M14.9078 17.4892L14.7121 18.2888C14.1253 18.5204 13.6565 18.6967 13.3075 18.8179C12.958 18.9395 12.552 19 12.0894 19C11.3789 19 10.8263 18.826 10.4322 18.4803C10.0381 18.1332 9.841 17.6934 9.841 17.1599C9.841 16.9534 9.85531 16.741 9.88504 16.5245C9.91503 16.3078 9.96271 16.0638 10.028 15.791L10.7614 13.1952C10.8266 12.9466 10.8821 12.7111 10.9265 12.4884C10.9715 12.2671 10.9932 12.0634 10.9932 11.8801C10.9932 11.5486 10.9246 11.3167 10.788 11.1864C10.6513 11.0564 10.3906 10.9904 10.0035 10.9904C9.8139 10.9904 9.61904 11.0207 9.42041 11.0795C9.22091 11.1384 9.05039 11.1954 8.90723 11.2483L9.10334 10.4481C9.58378 10.2525 10.043 10.085 10.4823 9.94593C10.9216 9.80653 11.3367 9.73676 11.7293 9.73676C12.4348 9.73676 12.9792 9.90728 13.3615 10.2483C13.7439 10.5896 13.935 11.032 13.935 11.5772C13.935 11.69 13.9224 11.8888 13.8954 12.1728C13.8691 12.4575 13.82 12.7184 13.7485 12.9557L13.0183 15.5411C12.9584 15.7487 12.9046 15.9861 12.8578 16.2533C12.8095 16.5186 12.7864 16.7214 12.7864 16.8574C12.7864 17.2007 12.8629 17.4351 13.0164 17.5597C13.171 17.6843 13.4372 17.7463 13.8154 17.7463C13.9929 17.7463 14.1949 17.7148 14.4194 17.6529C14.6433 17.5911 14.8065 17.5367 14.9078 17.4892ZM15.093 6.63492C15.093 7.08538 14.9232 7.47008 14.582 7.7864C14.2417 8.10385 13.8317 8.2627 13.352 8.2627C12.8708 8.2627 12.4598 8.10385 12.1156 7.7864C11.772 7.46995 11.5999 7.08538 11.5999 6.63492C11.5999 6.18535 11.772 5.80002 12.1156 5.47969C12.4591 5.15985 12.8709 5 13.352 5C13.8316 5 14.2417 5.16023 14.582 5.47969C14.9234 5.80002 15.093 6.18548 15.093 6.63492Z" fill="white"/>
</svg>
