<svg width="32" height="32" viewBox="0 0 32 32" fill="none" xmlns="http://www.w3.org/2000/svg">
<path fill-rule="evenodd" clip-rule="evenodd" d="M28 8.00033C28 7.26395 27.403 6.66699 26.6667 6.66699H5.33333C4.59693 6.66699 4 7.26395 4 8.00033C4 8.7367 4.59693 9.33366 5.33333 9.33366H26.6667C27.403 9.33366 28 8.7367 28 8.00033ZM28 16.0003C28 15.2639 27.403 14.667 26.6667 14.667H5.33333C4.59693 14.667 4 15.2639 4 16.0003C4 16.7367 4.59693 17.3337 5.33333 17.3337H26.6667C27.403 17.3337 28 16.7367 28 16.0003ZM28 24.0003C28 23.2639 27.403 22.667 26.6667 22.667H14C13.2636 22.667 12.6667 23.2639 12.6667 24.0003C12.6667 24.7367 13.2636 25.3337 14 25.3337H26.6667C27.403 25.3337 28 24.7367 28 24.0003Z" fill="white"/>
</svg>
