<svg width="20" height="20" viewBox="0 0 20 20" fill="none" xmlns="http://www.w3.org/2000/svg">
<rect width="20" height="20" rx="4.44444" fill="#EF3024"/>
<path d="M5.49859 15.5492C5.22618 15.5652 4.95827 15.4736 4.75136 15.2937C4.3433 14.8784 4.3433 14.2077 4.75136 13.7924L13.6867 4.75312C14.1111 4.35135 14.7771 4.37368 15.1742 4.80305C15.5334 5.19132 15.5543 5.7881 15.2233 6.20113L6.23529 15.2937C6.03105 15.471 5.76744 15.5625 5.49859 15.5492Z" fill="#F8F9FA"/>
<path d="M14.4232 15.5497C14.1471 15.5485 13.8825 15.4376 13.6865 15.2409L4.75111 6.20159C4.37306 5.75497 4.42446 5.08284 4.86594 4.70036C5.25997 4.359 5.84108 4.359 6.23508 4.70036L15.223 13.7397C15.6474 14.1416 15.6693 14.8153 15.272 15.2446C15.2562 15.2617 15.2399 15.2782 15.223 15.2942C15.003 15.4878 14.7133 15.5803 14.4232 15.5497Z" fill="#F8F9FA"/>
</svg>
