<svg width="18" height="14" viewBox="0 0 18 14" fill="none" xmlns="http://www.w3.org/2000/svg">
<path d="M3.28271 13.6504C3.28271 13.8425 3.43642 13.9997 3.63208 13.9997H14.3712C14.5634 13.9997 14.7206 13.8425 14.7206 13.6504V12.3721H3.28271V13.6504Z" fill="#B5893E"/>
<path d="M17.5855 2.45377C17.4562 2.36646 17.2885 2.37339 17.1663 2.46772L12.5478 6.13946L9.30579 0.168978C9.18698 -0.0581045 8.81668 -0.0545408 8.6944 0.168978L5.45238 6.13946L0.833934 2.46772C0.711657 2.36992 0.543968 2.36646 0.418201 2.45377C0.288945 2.54112 0.236529 2.70183 0.281966 2.84854L3.15124 11.6736H14.8523L17.7182 2.84854C17.7636 2.70183 17.7113 2.54112 17.5855 2.45377Z" fill="#B5893E"/>
</svg>
