<svg width="20" height="14" viewBox="0 0 20 14" fill="none" xmlns="http://www.w3.org/2000/svg">
<path fill-rule="evenodd" clip-rule="evenodd" d="M4.78727 2.0554C6.45283 0.847901 8.43532 0 10.3754 0C12.3156 0 14.2978 0.848155 15.963 2.0558C17.6343 3.2678 19.0754 4.90516 19.9112 6.61614C20.0296 6.85851 20.0296 7.14184 19.9112 7.38421C19.0754 9.09527 17.6342 10.7325 15.9627 11.9445C14.2973 13.152 12.3149 14 10.3748 14C8.43467 14 6.45231 13.1519 4.78692 11.9444C3.11551 10.7324 1.67432 9.09501 0.838733 7.38377C0.720422 7.14149 0.720422 6.85816 0.838733 6.61587C1.67435 4.90458 3.11573 3.26726 4.78727 2.0554ZM2.61188 6.99982C3.32908 8.28852 4.47398 9.55579 5.81422 10.5277C7.29342 11.6002 8.92189 12.25 10.3748 12.25C11.8277 12.25 13.4561 11.6002 14.9354 10.5277C16.2756 9.55588 17.4207 8.28879 18.1381 7.00018C17.4207 5.71156 16.2758 4.44432 14.9357 3.47249C13.4566 2.39984 11.8283 1.75 10.3754 1.75C8.92241 1.75 7.29381 2.39972 5.81446 3.47223C4.47409 4.44398 3.32908 5.71112 2.61188 6.99982ZM10.375 5.25C9.40847 5.25 8.625 6.03347 8.625 7C8.625 7.96653 9.40847 8.75 10.375 8.75C11.3415 8.75 12.125 7.96653 12.125 7C12.125 6.03347 11.3415 5.25 10.375 5.25ZM6.875 7C6.875 5.067 8.442 3.5 10.375 3.5C12.308 3.5 13.875 5.067 13.875 7C13.875 8.93296 12.308 10.5 10.375 10.5C8.442 10.5 6.875 8.93296 6.875 7Z" fill="#8F8F8F"/>
</svg>
