<svg width="18" height="18" viewBox="0 0 18 18" fill="none" xmlns="http://www.w3.org/2000/svg">
<rect width="18" height="18" rx="9" fill="#FACC15"/>
<path d="M11.2268 14.1655C10.7446 14.3559 10.3608 14.5002 10.0729 14.6001C9.78582 14.7 9.45195 14.75 9.07208 14.75C8.4884 14.75 8.03398 14.6073 7.71042 14.3225C7.38685 14.0378 7.22586 13.677 7.22586 13.2384C7.22586 13.0679 7.23776 12.8935 7.26155 12.7158C7.28613 12.5382 7.32499 12.3383 7.37813 12.1139L7.98164 9.98219C8.03477 9.77758 8.08077 9.58329 8.11725 9.40247C8.15373 9.22007 8.17118 9.05274 8.17118 8.90047C8.17118 8.62925 8.11487 8.43892 8.00305 8.33186C7.88964 8.22479 7.67631 8.17245 7.3583 8.17245C7.20286 8.17245 7.04267 8.19545 6.87851 8.24383C6.71593 8.29379 6.57477 8.33899 6.45898 8.3834L6.61839 7.72676C7.01333 7.56577 7.39161 7.42778 7.75245 7.31358C8.11328 7.1978 8.4543 7.1407 8.77548 7.1407C9.3552 7.1407 9.80248 7.28186 10.1173 7.56101C10.4306 7.84096 10.5884 8.20497 10.5884 8.65225C10.5884 8.74503 10.5773 8.9084 10.5559 9.14156C10.5345 9.37551 10.494 9.58884 10.4353 9.78472L9.83499 11.9101C9.78582 12.0806 9.74221 12.2757 9.70255 12.4938C9.66369 12.7119 9.64466 12.8784 9.64466 12.9902C9.64466 13.2726 9.70731 13.4653 9.8342 13.5676C9.9595 13.6699 10.1792 13.7214 10.4901 13.7214C10.6368 13.7214 10.8009 13.6952 10.9865 13.6445C11.1705 13.5937 11.3037 13.5485 11.3878 13.5097L11.2268 14.1655ZM11.1205 5.53874C10.8406 5.79886 10.5035 5.92892 10.1094 5.92892C9.71604 5.92892 9.37661 5.79886 9.09429 5.53874C8.81355 5.27862 8.67159 4.96219 8.67159 4.59263C8.67159 4.22386 8.81434 3.90664 9.09429 3.64415C9.37661 3.38085 9.71604 3.25 10.1094 3.25C10.5035 3.25 10.8414 3.38085 11.1205 3.64415C11.4005 3.90664 11.5408 4.22386 11.5408 4.59263C11.5408 4.96299 11.4005 5.27862 11.1205 5.53874Z" fill="#1C1A18"/>
</svg>
