<svg width="13" height="16" viewBox="0 0 13 16" fill="none" xmlns="http://www.w3.org/2000/svg">
<path d="M11 5.875H9.87384V3.30531C9.87384 1.48275 8.35981 0 6.49884 0C4.63788 0 3.12384 1.48275 3.12384 3.30531V5.875H2C0.966125 5.875 0.125 6.71613 0.125 7.75V14.125C0.125 15.1589 0.966125 16 2 16H11C12.0339 16 12.875 15.1589 12.875 14.125V7.75C12.875 6.71613 12.0339 5.875 11 5.875ZM4.37384 3.30531C4.37384 2.172 5.32713 1.25 6.49884 1.25C7.67056 1.25 8.62384 2.172 8.62384 3.30531V5.875H4.37384V3.30531ZM11.625 14.125C11.625 14.4696 11.3446 14.75 11 14.75H2C1.65538 14.75 1.375 14.4696 1.375 14.125V7.75C1.375 7.40538 1.65538 7.125 2 7.125H11C11.3446 7.125 11.625 7.40538 11.625 7.75V14.125Z" fill="#1C1A18"/>
<path d="M6.5 8.9375C5.86141 8.9375 5.34375 9.45516 5.34375 10.0938C5.34375 10.5015 5.555 10.8597 5.87384 11.0656V12.4375C5.87384 12.7827 6.15366 13.0625 6.49884 13.0625C6.844 13.0625 7.12384 12.7827 7.12384 12.4375V11.067C7.44397 10.8614 7.65625 10.5025 7.65625 10.0938C7.65625 9.45516 7.13859 8.9375 6.5 8.9375Z" fill="#1C1A18"/>
</svg>
