<svg width="34" height="32" viewBox="0 0 34 32" fill="none" xmlns="http://www.w3.org/2000/svg">
<path d="M3.94449 1.38238C4.80882 0.474251 6.02647 -0.0279944 7.285 0.00120593C8.38877 0.0304062 9.43998 0.465491 10.2401 1.22762L12.1118 3.00884C12.9732 3.82936 13.4638 4.93606 13.493 6.12451C13.5222 7.31588 13.0871 8.44593 12.2666 9.30734L11.0986 10.5338C10.5379 11.1236 9.83127 11.547 9.05162 11.7602L8.70414 11.8536C8.48513 11.912 8.30409 12.0668 8.20773 12.2741C8.11137 12.4814 8.11137 12.7179 8.20773 12.9223L8.35957 13.2494C10.7482 18.3653 14.9209 22.3949 20.1156 24.5995L20.4105 24.7251C20.6062 24.8069 20.8252 24.8069 21.0179 24.7222C21.2106 24.6375 21.3625 24.4769 21.4325 24.2783L21.5406 23.9805C21.7508 23.4023 22.075 22.8826 22.4984 22.4387L23.6664 21.2123C24.5336 20.3013 25.7513 19.7961 27.0069 19.8282C28.1107 19.8574 29.1619 20.2925 29.962 21.0546L31.8366 22.8358C33.6149 24.5295 33.685 27.3531 31.9943 29.1314L30.8263 30.3608C30.508 30.6966 30.1342 30.9827 29.6962 31.2222C28.5895 31.8646 27.1558 32.1215 25.6549 31.9463C13.1397 30.5038 2.95168 20.8093 0.890137 8.37001C0.452133 5.76242 1.44494 3.87901 2.22167 3.2512C2.24795 3.23076 2.27131 3.2074 2.29467 3.18404L2.35015 3.12856C2.37351 3.1052 2.39395 3.07892 2.41439 3.04972C2.52827 2.89496 2.65092 2.74603 2.78232 2.60879L3.95033 1.37946L3.94449 1.38238Z" fill="#FACC15"/>
</svg>
