<svg width="19" height="18" viewBox="0 0 19 18" fill="none" xmlns="http://www.w3.org/2000/svg">
<path d="M1.7785 0.777589C2.26468 0.266766 2.94961 -0.0157468 3.65754 0.000678333C4.27841 0.0171035 4.86971 0.261838 5.31976 0.690535L6.37262 1.69247C6.85716 2.15402 7.1331 2.77653 7.14953 3.44504C7.16595 4.11518 6.92122 4.75084 6.45967 5.23538L5.80266 5.92524C5.4873 6.25703 5.08981 6.49519 4.65126 6.61509L4.4558 6.66765C4.33261 6.7005 4.23077 6.78756 4.17657 6.90418C4.12237 7.0208 4.12237 7.15384 4.17657 7.26882L4.26198 7.45278C5.60556 10.3305 7.95272 12.5971 10.8748 13.8372L11.0406 13.9079C11.1507 13.9539 11.2739 13.9539 11.3823 13.9062C11.4907 13.8586 11.5761 13.7683 11.6155 13.6566L11.6763 13.489C11.7946 13.1638 11.9769 12.8714 12.215 12.6218L12.8721 11.9319C13.3599 11.4195 14.0448 11.1353 14.7511 11.1534C15.372 11.1698 15.9633 11.4145 16.4133 11.8432L17.4678 12.8452C18.4681 13.7978 18.5075 15.3861 17.5565 16.3864L16.8995 17.0779C16.7205 17.2668 16.5102 17.4278 16.2639 17.5625C15.6413 17.9238 14.8349 18.0684 13.9906 17.9698C6.95078 17.1584 1.22004 11.7053 0.0604251 4.70813C-0.185952 3.24136 0.372503 2.18194 0.809413 1.8288C0.824195 1.8173 0.837335 1.80416 0.850476 1.79102L0.881683 1.75981C0.894824 1.74667 0.906321 1.73189 0.917819 1.71547C0.981877 1.62841 1.05086 1.54464 1.12478 1.46745L1.78178 0.775946L1.7785 0.777589Z" fill="white"/>
</svg>
