<svg width="36" height="36" viewBox="0 0 36 36" fill="none" xmlns="http://www.w3.org/2000/svg">
<rect width="36" height="36" rx="18" fill="white"/>
<g clip-path="url(#clip0_1_290)">
<path d="M18.0018 18.3084C20.2876 18.3084 22.156 16.4399 22.156 14.1542C22.156 11.8685 20.2876 10 18.0018 10C15.7161 10 13.8477 11.8685 13.8477 14.1542C13.8477 16.4399 15.7161 18.3084 18.0018 18.3084Z" fill="#44403C"/>
<path d="M25.1312 21.628C25.0223 21.3559 24.8772 21.1019 24.714 20.8661C23.8795 19.6325 22.5915 18.8162 21.1403 18.6167C20.9589 18.5985 20.7593 18.6348 20.6142 18.7436C19.8523 19.306 18.9453 19.5962 18.0019 19.5962C17.0586 19.5962 16.1516 19.306 15.3897 18.7436C15.2445 18.6348 15.045 18.5804 14.8636 18.6167C13.4124 18.8162 12.1062 19.6325 11.2899 20.8661C11.1267 21.1019 10.9815 21.3741 10.8727 21.628C10.8183 21.7369 10.8364 21.8639 10.8908 21.9727C11.036 22.2267 11.2174 22.4807 11.3806 22.6983C11.6346 23.043 11.9067 23.3514 12.2151 23.6416C12.4691 23.8956 12.7593 24.1314 13.0496 24.3673C14.4827 25.4376 16.206 25.9999 17.9838 25.9999C19.7616 25.9999 21.485 25.4375 22.918 24.3673C23.2083 24.1496 23.4985 23.8956 23.7525 23.6416C24.0428 23.3514 24.333 23.043 24.587 22.6983C24.7684 22.4625 24.9317 22.2267 25.0768 21.9727C25.1675 21.8639 25.1856 21.7368 25.1312 21.628Z" fill="#44403C"/>
</g>
<defs>
<clipPath id="clip0_1_290">
<rect width="16" height="16" fill="white" transform="translate(10 10)"/>
</clipPath>
</defs>
</svg>
