<svg width="480" height="442" viewBox="0 0 480 442" fill="none" xmlns="http://www.w3.org/2000/svg">
<g clip-path="url(#clip0_1_6224)">
<path d="M95.6894 70.1944C95.6894 70.1944 92.1111 55.8429 102.325 47.4596C102.325 47.4596 105.312 45.591 107.651 49.0358C107.651 49.0358 111.929 46.0422 113.645 50.5994C113.645 50.5994 117.191 48.4892 118.145 54.4955C118.145 54.4955 123.051 55.4997 118.145 62.7771C118.145 62.7771 123.414 70.6266 111.865 75.6731C100.316 80.7387 95.6894 70.188 95.6894 70.188V70.1944Z" fill="white" stroke="#44403C" stroke-width="3" stroke-miterlimit="10" stroke-linejoin="round"/>
<path d="M197.026 58.7348C197.026 58.7348 197.471 45.5274 186.984 40.1122C186.984 40.1122 184.028 39.0381 182.624 42.4893C182.624 42.4893 178.327 40.6715 177.679 44.9681C177.679 44.9681 174.189 43.7922 174.482 49.2137C174.482 49.2137 170.382 51.0061 176.033 56.4467C176.033 56.4467 172.886 64.2898 183.926 66.5524C194.954 68.8088 197.026 58.7348 197.026 58.7348Z" fill="white" stroke="#44403C" stroke-width="3" stroke-miterlimit="10" stroke-linejoin="round"/>
<path d="M188.314 148.835C188.148 148.797 187.983 148.784 187.824 148.797C187.811 148.562 187.799 148.333 187.786 148.098L146.924 154.854C146.143 154.295 145.342 154.059 144.617 154.466C144.617 154.466 152.378 165.182 149.187 181.326C146.39 195.474 194.199 205.243 186.667 182.025C180.35 162.538 188.32 148.835 188.32 148.835H188.314Z" fill="white" stroke="#44403C" stroke-width="3" stroke-miterlimit="10" stroke-linejoin="round"/>
<path d="M189.723 138.144C188.687 136.937 187.81 137.153 187.168 137.718C186.958 131.954 185.782 122.306 183.532 118.842C180.698 114.475 177.946 121.448 177.367 123.049C173.636 120.011 168.704 118.473 162.202 119.363C147.908 121.314 144.05 132.5 144.317 144.545C143.554 143.776 141.927 142.555 140.872 144.818C139.525 147.697 142.779 159.964 145.709 156.042C148.302 167.082 154.823 175.122 166.124 175.148C167.204 176.146 170.134 178.084 173.725 174.061C184.39 170.889 188.407 161.413 187.912 150.138C191.948 153.589 191.808 140.585 189.71 138.144H189.723Z" fill="white" stroke="#44403C" stroke-width="3" stroke-miterlimit="10" stroke-linejoin="round"/>
<path d="M167.803 288.485C167.803 288.485 181.786 297.523 208.054 286.788" stroke="#44403C" stroke-width="3" stroke-miterlimit="10" stroke-linejoin="round"/>
<path d="M143.886 144.144C143.886 144.144 145.081 151.86 146.174 150.627C147.261 149.388 145.335 140.267 147.178 135.532C147.178 135.532 151.202 130.6 153.763 124.804C153.763 124.804 170.994 128.128 178.449 123.99C185.739 119.948 190.493 111.564 187.131 108.711C184.265 106.27 182.091 113.28 177.813 112.708C177.813 112.708 184.964 106.975 181.385 103.054C181.385 103.054 179.561 104.287 176.25 105.895C176.25 105.895 169.812 110.865 155.994 110.757C143.734 110.662 130.444 116.032 143.892 144.144H143.886Z" fill="white" stroke="#44403C" stroke-width="3" stroke-miterlimit="10" stroke-linejoin="round"/>
<path d="M148.677 179.229C144.527 180.9 140.065 181.841 129.871 184.962C120.858 176.826 117.42 176.642 114.305 174.557C111.191 172.466 109.246 172.059 106.57 165.843C103.901 159.627 99.6041 158.795 99.6041 158.795C102.858 156.939 98.6889 152.102 98.6889 152.102C101.403 149.382 101.943 131.973 101.943 131.973C101.962 120.838 105.954 103.887 108.299 99.8698C108.992 98.6812 109.729 96.9842 110.409 95.0648L111.687 95.2936C111.687 95.2936 115.773 86.8848 116.752 78.7239C116.752 78.7239 109.856 70.6139 88.4052 73.2834L85.1065 90.5839L87.134 90.9398C85.3289 96.927 82.3735 105.418 76.863 119.23C64.342 150.57 68.4224 158.795 68.4224 158.795C77.9498 188.692 122.441 230.399 122.574 230.527C124.627 240.531 127.15 250.808 129.165 259.566C129.165 259.566 129.731 275.837 130.589 294.047H173.001C177.774 234.747 160.08 188.025 148.677 179.229Z" fill="white" stroke="#44403C" stroke-width="3" stroke-miterlimit="10" stroke-linejoin="round"/>
<path d="M229.752 102.266C216.348 84.6793 212.401 79.0671 209.763 74.7832L211.492 73.957L201.838 58.2835C180.463 61.4678 179.662 70.1308 179.662 70.1308C182.789 77.7323 188.986 84.7365 188.986 84.7365L190.937 83.8022C193.054 86.2809 194.764 88.2639 194.764 88.2639C199.791 94.0795 206.001 110.547 208.994 121.27C208.994 121.27 214.187 137.89 217.53 139.791C217.53 139.791 214.816 145.562 218.445 146.483C218.445 146.483 214.53 148.441 213.628 155.14C212.725 161.845 210.965 162.761 208.518 165.614C206.515 167.953 203.598 173.095 202.657 177.996L184.156 177.055C186.679 190.675 197.223 248.933 201.647 294.059H221.75L218.496 270.231C218.496 270.231 221.115 247.09 216.596 220.02C222.068 210.715 247.453 166.148 248.489 138.132C248.489 138.132 250.218 129.119 229.752 102.279V102.266Z" fill="white" stroke="#44403C" stroke-width="3" stroke-miterlimit="10" stroke-linejoin="round"/>
<path d="M158.154 160.733C158.154 160.733 171.324 168.36 178.321 156.494L158.154 160.733Z" fill="white"/>
<path d="M158.154 160.733C158.154 160.733 171.324 168.36 178.321 156.494" stroke="#44403C" stroke-width="3" stroke-miterlimit="10" stroke-linecap="round" stroke-linejoin="round"/>
<path d="M162.81 140.051C162.81 140.051 156.243 138.25 154.611 144.227L162.81 140.051Z" fill="white"/>
<path d="M162.81 140.051C162.81 140.051 156.243 138.25 154.611 144.227" stroke="#44403C" stroke-width="3" stroke-miterlimit="10" stroke-linecap="round" stroke-linejoin="round"/>
<path d="M179.982 140.835C179.982 140.835 175.467 135.737 170.834 139.851L179.982 140.835Z" fill="white"/>
<path d="M179.982 140.835C179.982 140.835 175.467 135.737 170.834 139.851" stroke="#44403C" stroke-width="3" stroke-miterlimit="10" stroke-linecap="round" stroke-linejoin="round"/>
</g>
<path d="M318.797 87.5671L288.908 199.644C288.314 201.861 289.636 204.143 291.853 204.737L371.789 226.052C374.007 226.646 376.288 225.324 376.882 223.107L392.808 163.384C393.378 161.258 394.655 159.394 396.436 158.102L397.937 157.015C399.718 155.723 400.995 153.859 401.565 151.734L412.045 112.438C412.639 110.221 411.317 107.939 409.1 107.345L323.895 84.6237C321.677 84.0296 319.396 85.3512 318.802 87.5685L318.797 87.5671Z" fill="white" stroke="#44403C" stroke-width="3" stroke-miterlimit="10"/>
<g style="mix-blend-mode:multiply">
<path d="M404.117 118.101L327.141 92.1357L291.778 196.973L368.754 222.938L404.117 118.101Z" fill="#F5F5F5"/>
</g>
<path d="M403.185 117.054L326.209 91.0884L290.846 195.925L367.822 221.891L403.185 117.054Z" fill="#E1E2E1"/>
<path d="M403.761 113.286L326.044 89.6292L293.825 195.475L371.542 219.131L403.761 113.286Z" fill="#F5F5F5"/>
<g style="mix-blend-mode:multiply">
<path d="M402.164 114.507L323.669 93.5775L295.164 200.483L373.659 221.413L402.164 114.507Z" fill="#F5F5F5"/>
</g>
<path d="M401.285 114.27L322.806 93.2411L294.17 200.112L372.65 221.14L401.285 114.27Z" fill="white"/>
<path d="M359.289 207.659C358.313 207.398 357.39 206.942 356.563 206.31C354.91 205.04 353.851 203.207 353.578 201.14C353.017 196.878 356.03 192.949 360.293 192.388C362.359 192.115 364.408 192.664 366.061 193.933C367.714 195.203 368.772 197.036 369.046 199.103C369.606 203.365 366.593 207.295 362.331 207.855C361.298 207.99 360.27 207.922 359.294 207.661L359.289 207.659ZM363.059 193.589C362.211 193.362 361.323 193.305 360.427 193.42C356.731 193.909 354.124 197.306 354.612 201.001C354.982 203.789 357.007 205.958 359.572 206.645C360.405 206.869 361.29 206.936 362.193 206.816C365.888 206.328 368.496 202.931 368.008 199.235C367.77 197.447 366.855 195.855 365.424 194.759C364.705 194.211 363.908 193.816 363.059 193.589Z" fill="#44403C"/>
<path d="M358.659 210.065C354.756 209.019 351.665 205.716 351.107 201.464C350.747 198.74 351.472 196.037 353.145 193.857C354.819 191.677 357.242 190.278 359.967 189.919C365.592 189.176 370.769 193.153 371.512 198.779C372.255 204.404 368.278 209.581 362.653 210.324C361.273 210.508 359.926 210.404 358.659 210.065ZM363.554 191.696C362.481 191.408 361.338 191.321 360.168 191.479C357.857 191.785 355.805 192.965 354.389 194.815C352.974 196.664 352.36 198.953 352.662 201.262C353.29 206.03 357.677 209.396 362.445 208.768C367.213 208.14 370.579 203.752 369.951 198.985C369.476 195.385 366.859 192.582 363.554 191.696Z" fill="#44403C"/>
<path d="M371.721 196.081L350.205 198.914L350.898 204.173L372.414 201.341L371.721 196.081Z" fill="#44403C"/>
<path d="M340.24 188.067L305.438 178.742L305.194 179.651L339.997 188.977L340.24 188.067Z" fill="#F5F5F5"/>
<path d="M338.583 194.249L303.78 184.924L303.537 185.833L338.339 195.158L338.583 194.249Z" fill="#F5F5F5"/>
<path d="M336.928 200.431L302.125 191.106L301.881 192.015L336.684 201.341L336.928 200.431Z" fill="#F5F5F5"/>
<path d="M339.14 138.231L317.912 132.543L317.429 134.346L338.657 140.034L339.14 138.231Z" fill="#F5F5F5"/>
<path d="M385.959 150.776L344.418 139.645L343.935 141.449L385.476 152.58L385.959 150.776Z" fill="#F5F5F5"/>
<path d="M347.39 107.434L326.162 101.746L325.679 103.549L346.907 109.237L347.39 107.434Z" fill="#F5F5F5"/>
<path d="M394.21 119.979L352.669 108.848L352.186 110.652L393.727 121.783L394.21 119.979Z" fill="#F5F5F5"/>
<path d="M384.223 157.249L362.995 151.561L362.512 153.365L383.74 159.053L384.223 157.249Z" fill="#F5F5F5"/>
<path d="M357.716 150.147L316.175 139.016L315.692 140.82L357.233 151.951L357.716 150.147Z" fill="#F5F5F5"/>
<path d="M335.67 151.178L314.442 145.49L313.959 147.293L335.187 152.981L335.67 151.178Z" fill="#F5F5F5"/>
<path d="M382.49 163.723L340.948 152.592L340.465 154.395L382.007 165.526L382.49 163.723Z" fill="#F5F5F5"/>
<path d="M380.754 170.196L359.526 164.508L359.043 166.311L380.271 171.999L380.754 170.196Z" fill="#F5F5F5"/>
<path d="M354.248 163.094L312.706 151.963L312.223 153.766L353.764 164.897L354.248 163.094Z" fill="#F5F5F5"/>
<path d="M392.11 127.817L323.976 109.56L323.732 110.469L391.866 128.726L392.11 127.817Z" fill="#F5F5F5"/>
<path d="M390.757 132.859L322.623 114.602L322.379 115.512L390.513 133.768L390.757 132.859Z" fill="#F5F5F5"/>
<path d="M389.407 137.902L321.273 119.645L321.03 120.555L389.164 138.811L389.407 137.902Z" fill="#F5F5F5"/>
<path d="M388.058 142.939L319.924 124.683L319.68 125.592L387.814 143.849L388.058 142.939Z" fill="#F5F5F5"/>
<path d="M320.068 165.621L309.783 162.865L309.23 164.929L319.515 167.685L320.068 165.621Z" fill="#F5F5F5"/>
<path d="M377.52 182.253L324.34 168.003L324.096 168.913L377.276 183.162L377.52 182.253Z" fill="#F5F5F5"/>
<path d="M318.999 169.606L308.715 166.85L308.162 168.914L318.446 171.67L318.999 169.606Z" fill="#F5F5F5"/>
<path d="M362.969 182.625L323.271 171.988L323.028 172.898L362.725 183.534L362.969 182.625Z" fill="#F5F5F5"/>
<path d="M317.932 173.596L307.647 170.84L307.094 172.904L317.379 175.66L317.932 173.596Z" fill="#F5F5F5"/>
<path d="M369.994 188.784L322.204 175.979L321.96 176.888L369.75 189.693L369.994 188.784Z" fill="#F5F5F5"/>
<path d="M336.453 171.666C336.453 172.476 336.442 173.285 336.416 174.094C336.215 180.24 335.257 186.392 333.427 192.257C331.851 197.319 329.645 202.206 326.884 206.713C324.473 210.643 321.638 214.329 318.49 217.678C315.856 220.481 312.984 223.025 309.954 225.363C307.875 226.965 305.706 228.457 303.453 229.79C302.803 230.176 301.983 230.176 301.337 229.79C301.121 229.663 300.904 229.531 300.687 229.399C298.185 227.87 295.81 226.156 293.515 224.326C290.568 221.978 287.813 219.386 285.285 216.577C282.159 213.102 279.361 209.294 277.017 205.227C274.341 200.572 272.236 195.553 270.797 190.364C269.115 184.297 268.332 177.961 268.327 171.661C268.327 170.476 269.295 169.561 270.427 169.524C272.305 169.471 274.172 169.286 276.034 169.043C276.425 168.99 276.811 168.932 277.197 168.874C281.011 168.292 284.793 167.477 288.543 166.557C291.917 165.726 295.271 164.806 298.598 163.796C299.264 163.595 299.925 163.389 300.586 163.177C300.883 163.082 301.179 162.987 301.47 162.891C301.771 162.791 302.062 162.712 302.385 162.696C302.713 162.68 303.004 162.791 303.3 162.891C304.606 163.32 305.918 163.722 307.235 164.113C310.662 165.134 314.116 166.06 317.597 166.885C321.278 167.758 324.991 168.514 328.741 169.038C330.603 169.281 332.47 169.466 334.348 169.519C335.48 169.466 336.447 170.534 336.447 171.656L336.453 171.666Z" fill="white" stroke="#44403C" stroke-width="3" stroke-miterlimit="10"/>
<path d="M320.725 174.42C317.874 175.594 315.557 177.54 313.383 179.666C308.686 184.252 304.846 189.526 301.255 194.989C300.694 195.846 300.118 196.698 299.43 197.729C299.129 197.084 298.986 196.677 298.764 196.317C297.648 194.524 296.675 192.609 295.342 190.985C293.051 188.203 290.042 187.859 287.016 189.801C286.297 190.261 285.668 190.859 284.885 191.483C285.297 191.89 285.604 192.144 285.847 192.445C287.561 194.54 289.608 196.455 290.877 198.787C291.962 200.776 292.766 202.897 293.533 205.023C294.062 206.483 294.316 208.969 295.881 209.672C296.786 210.08 297.843 210 298.806 209.757C301.345 209.112 303.434 207.34 304.635 205.039C306.163 202.103 307.65 199.136 309.073 196.148C311.955 190.097 315.208 184.273 319.281 178.931C320.561 177.255 321.915 175.636 323.237 173.991C322.338 173.97 321.497 174.102 320.73 174.414L320.725 174.42Z" fill="#44403C"/>
<g style="mix-blend-mode:multiply">
<path d="M302.387 167.864C302.275 167.901 302.17 167.933 302.059 167.97C301.403 168.176 300.736 168.388 300.006 168.61C296.616 169.641 293.146 170.593 289.692 171.44C285.334 172.508 281.489 173.291 277.934 173.836C277.49 173.904 277.062 173.963 276.697 174.015H276.665C275.48 174.174 274.364 174.296 273.312 174.386C273.513 179.474 274.258 184.377 275.544 189.005C276.871 193.797 278.802 198.404 281.272 202.699C283.388 206.375 285.963 209.908 288.92 213.198C291.237 215.774 293.807 218.197 296.558 220.386C298.594 222.01 300.509 223.391 302.392 224.586V167.864H302.387Z" fill="#F5F5F5"/>
</g>
<path d="M90.2363 308.188V348H81.0215V318.578L71.9434 321.23V314.23L89.3887 308.188H90.2363ZM129.967 324.457V331.73C129.967 334.592 129.63 337.081 128.955 339.195C128.299 341.31 127.351 343.06 126.111 344.445C124.89 345.831 123.432 346.861 121.736 347.535C120.041 348.21 118.173 348.547 116.131 348.547C114.49 348.547 112.959 348.337 111.537 347.918C110.115 347.48 108.83 346.824 107.682 345.949C106.551 345.056 105.576 343.944 104.756 342.613C103.936 341.283 103.307 339.715 102.869 337.91C102.432 336.087 102.213 334.027 102.213 331.73V324.457C102.213 321.577 102.541 319.089 103.197 316.992C103.872 314.878 104.829 313.128 106.068 311.742C107.308 310.357 108.775 309.327 110.471 308.652C112.166 307.978 114.035 307.641 116.076 307.641C117.717 307.641 119.239 307.859 120.643 308.297C122.064 308.716 123.35 309.372 124.498 310.266C125.646 311.141 126.622 312.243 127.424 313.574C128.244 314.905 128.873 316.482 129.311 318.305C129.748 320.109 129.967 322.16 129.967 324.457ZM120.752 332.852V323.281C120.752 322.005 120.679 320.893 120.533 319.945C120.406 318.997 120.205 318.195 119.932 317.539C119.676 316.883 119.357 316.354 118.975 315.953C118.592 315.534 118.154 315.233 117.662 315.051C117.188 314.85 116.66 314.75 116.076 314.75C115.347 314.75 114.691 314.905 114.107 315.215C113.542 315.507 113.059 315.98 112.658 316.637C112.257 317.293 111.947 318.168 111.729 319.262C111.528 320.355 111.428 321.695 111.428 323.281V332.852C111.428 334.146 111.492 335.276 111.619 336.242C111.765 337.19 111.965 338.001 112.221 338.676C112.494 339.332 112.822 339.87 113.205 340.289C113.588 340.69 114.025 340.982 114.518 341.164C115.01 341.346 115.548 341.438 116.131 341.438C116.842 341.438 117.48 341.292 118.045 341C118.61 340.708 119.093 340.234 119.494 339.578C119.913 338.904 120.223 338.02 120.424 336.926C120.643 335.814 120.752 334.456 120.752 332.852ZM162.451 324.457V331.73C162.451 334.592 162.114 337.081 161.439 339.195C160.783 341.31 159.835 343.06 158.596 344.445C157.374 345.831 155.916 346.861 154.221 347.535C152.525 348.21 150.657 348.547 148.615 348.547C146.975 348.547 145.443 348.337 144.021 347.918C142.6 347.48 141.314 346.824 140.166 345.949C139.036 345.056 138.061 343.944 137.24 342.613C136.42 341.283 135.791 339.715 135.354 337.91C134.916 336.087 134.697 334.027 134.697 331.73V324.457C134.697 321.577 135.025 319.089 135.682 316.992C136.356 314.878 137.313 313.128 138.553 311.742C139.792 310.357 141.26 309.327 142.955 308.652C144.65 307.978 146.519 307.641 148.561 307.641C150.201 307.641 151.723 307.859 153.127 308.297C154.549 308.716 155.834 309.372 156.982 310.266C158.131 311.141 159.106 312.243 159.908 313.574C160.729 314.905 161.357 316.482 161.795 318.305C162.232 320.109 162.451 322.16 162.451 324.457ZM153.236 332.852V323.281C153.236 322.005 153.163 320.893 153.018 319.945C152.89 318.997 152.689 318.195 152.416 317.539C152.161 316.883 151.842 316.354 151.459 315.953C151.076 315.534 150.639 315.233 150.146 315.051C149.673 314.85 149.144 314.75 148.561 314.75C147.831 314.75 147.175 314.905 146.592 315.215C146.027 315.507 145.544 315.98 145.143 316.637C144.742 317.293 144.432 318.168 144.213 319.262C144.012 320.355 143.912 321.695 143.912 323.281V332.852C143.912 334.146 143.976 335.276 144.104 336.242C144.249 337.19 144.45 338.001 144.705 338.676C144.979 339.332 145.307 339.87 145.689 340.289C146.072 340.69 146.51 340.982 147.002 341.164C147.494 341.346 148.032 341.438 148.615 341.438C149.326 341.438 149.964 341.292 150.529 341C151.094 340.708 151.577 340.234 151.979 339.578C152.398 338.904 152.708 338.02 152.908 336.926C153.127 335.814 153.236 334.456 153.236 332.852ZM168.029 343.68C168.029 342.367 168.503 341.273 169.451 340.398C170.399 339.505 171.62 339.059 173.115 339.059C174.628 339.059 175.85 339.505 176.779 340.398C177.727 341.273 178.201 342.367 178.201 343.68C178.201 344.992 177.727 346.095 176.779 346.988C175.85 347.863 174.628 348.301 173.115 348.301C171.62 348.301 170.399 347.863 169.451 346.988C168.503 346.095 168.029 344.992 168.029 343.68ZM211.889 324.457V331.73C211.889 334.592 211.551 337.081 210.877 339.195C210.221 341.31 209.273 343.06 208.033 344.445C206.812 345.831 205.354 346.861 203.658 347.535C201.963 348.21 200.094 348.547 198.053 348.547C196.412 348.547 194.881 348.337 193.459 347.918C192.037 347.48 190.752 346.824 189.604 345.949C188.473 345.056 187.498 343.944 186.678 342.613C185.857 341.283 185.229 339.715 184.791 337.91C184.354 336.087 184.135 334.027 184.135 331.73V324.457C184.135 321.577 184.463 319.089 185.119 316.992C185.794 314.878 186.751 313.128 187.99 311.742C189.23 310.357 190.697 309.327 192.393 308.652C194.088 307.978 195.956 307.641 197.998 307.641C199.639 307.641 201.161 307.859 202.564 308.297C203.986 308.716 205.271 309.372 206.42 310.266C207.568 311.141 208.544 312.243 209.346 313.574C210.166 314.905 210.795 316.482 211.232 318.305C211.67 320.109 211.889 322.16 211.889 324.457ZM202.674 332.852V323.281C202.674 322.005 202.601 320.893 202.455 319.945C202.327 318.997 202.127 318.195 201.854 317.539C201.598 316.883 201.279 316.354 200.896 315.953C200.514 315.534 200.076 315.233 199.584 315.051C199.11 314.85 198.581 314.75 197.998 314.75C197.269 314.75 196.613 314.905 196.029 315.215C195.464 315.507 194.981 315.98 194.58 316.637C194.179 317.293 193.869 318.168 193.65 319.262C193.45 320.355 193.35 321.695 193.35 323.281V332.852C193.35 334.146 193.413 335.276 193.541 336.242C193.687 337.19 193.887 338.001 194.143 338.676C194.416 339.332 194.744 339.87 195.127 340.289C195.51 340.69 195.947 340.982 196.439 341.164C196.932 341.346 197.469 341.438 198.053 341.438C198.764 341.438 199.402 341.292 199.967 341C200.532 340.708 201.015 340.234 201.416 339.578C201.835 338.904 202.145 338.02 202.346 336.926C202.564 335.814 202.674 334.456 202.674 332.852ZM244.373 324.457V331.73C244.373 334.592 244.036 337.081 243.361 339.195C242.705 341.31 241.757 343.06 240.518 344.445C239.296 345.831 237.838 346.861 236.143 347.535C234.447 348.21 232.579 348.547 230.537 348.547C228.896 348.547 227.365 348.337 225.943 347.918C224.521 347.48 223.236 346.824 222.088 345.949C220.958 345.056 219.982 343.944 219.162 342.613C218.342 341.283 217.713 339.715 217.275 337.91C216.838 336.087 216.619 334.027 216.619 331.73V324.457C216.619 321.577 216.947 319.089 217.604 316.992C218.278 314.878 219.235 313.128 220.475 311.742C221.714 310.357 223.182 309.327 224.877 308.652C226.572 307.978 228.441 307.641 230.482 307.641C232.123 307.641 233.645 307.859 235.049 308.297C236.471 308.716 237.756 309.372 238.904 310.266C240.053 311.141 241.028 312.243 241.83 313.574C242.65 314.905 243.279 316.482 243.717 318.305C244.154 320.109 244.373 322.16 244.373 324.457ZM235.158 332.852V323.281C235.158 322.005 235.085 320.893 234.939 319.945C234.812 318.997 234.611 318.195 234.338 317.539C234.083 316.883 233.764 316.354 233.381 315.953C232.998 315.534 232.561 315.233 232.068 315.051C231.594 314.85 231.066 314.75 230.482 314.75C229.753 314.75 229.097 314.905 228.514 315.215C227.949 315.507 227.465 315.98 227.064 316.637C226.663 317.293 226.354 318.168 226.135 319.262C225.934 320.355 225.834 321.695 225.834 323.281V332.852C225.834 334.146 225.898 335.276 226.025 336.242C226.171 337.19 226.372 338.001 226.627 338.676C226.9 339.332 227.229 339.87 227.611 340.289C227.994 340.69 228.432 340.982 228.924 341.164C229.416 341.346 229.954 341.438 230.537 341.438C231.248 341.438 231.886 341.292 232.451 341C233.016 340.708 233.499 340.234 233.9 339.578C234.32 338.904 234.63 338.02 234.83 336.926C235.049 335.814 235.158 334.456 235.158 332.852ZM276.857 324.457V331.73C276.857 334.592 276.52 337.081 275.846 339.195C275.189 341.31 274.242 343.06 273.002 344.445C271.781 345.831 270.322 346.861 268.627 347.535C266.932 348.21 265.063 348.547 263.021 348.547C261.381 348.547 259.85 348.337 258.428 347.918C257.006 347.48 255.721 346.824 254.572 345.949C253.442 345.056 252.467 343.944 251.646 342.613C250.826 341.283 250.197 339.715 249.76 337.91C249.322 336.087 249.104 334.027 249.104 331.73V324.457C249.104 321.577 249.432 319.089 250.088 316.992C250.762 314.878 251.719 313.128 252.959 311.742C254.199 310.357 255.666 309.327 257.361 308.652C259.057 307.978 260.925 307.641 262.967 307.641C264.607 307.641 266.13 307.859 267.533 308.297C268.955 308.716 270.24 309.372 271.389 310.266C272.537 311.141 273.512 312.243 274.314 313.574C275.135 314.905 275.764 316.482 276.201 318.305C276.639 320.109 276.857 322.16 276.857 324.457ZM267.643 332.852V323.281C267.643 322.005 267.57 320.893 267.424 319.945C267.296 318.997 267.096 318.195 266.822 317.539C266.567 316.883 266.248 316.354 265.865 315.953C265.482 315.534 265.045 315.233 264.553 315.051C264.079 314.85 263.55 314.75 262.967 314.75C262.238 314.75 261.581 314.905 260.998 315.215C260.433 315.507 259.95 315.98 259.549 316.637C259.148 317.293 258.838 318.168 258.619 319.262C258.419 320.355 258.318 321.695 258.318 323.281V332.852C258.318 334.146 258.382 335.276 258.51 336.242C258.656 337.19 258.856 338.001 259.111 338.676C259.385 339.332 259.713 339.87 260.096 340.289C260.479 340.69 260.916 340.982 261.408 341.164C261.9 341.346 262.438 341.438 263.021 341.438C263.732 341.438 264.37 341.292 264.936 341C265.501 340.708 265.984 340.234 266.385 339.578C266.804 338.904 267.114 338.02 267.314 336.926C267.533 335.814 267.643 334.456 267.643 332.852ZM323.615 340.617V348H302.396V340.617H323.615ZM305.814 308.188V348H296.217V308.188H305.814ZM320.881 323.992V331.129H302.396V323.992H320.881ZM323.697 308.188V315.598H302.396V308.188H323.697ZM349.154 308.188H358.752V334.191C358.752 337.29 358.105 339.915 356.811 342.066C355.516 344.199 353.702 345.812 351.369 346.906C349.036 348 346.292 348.547 343.139 348.547C340.021 348.547 337.278 348 334.908 346.906C332.557 345.812 330.715 344.199 329.385 342.066C328.072 339.915 327.416 337.29 327.416 334.191V308.188H337.041V334.191C337.041 335.832 337.278 337.172 337.752 338.211C338.226 339.232 338.919 339.979 339.83 340.453C340.742 340.927 341.844 341.164 343.139 341.164C344.451 341.164 345.554 340.927 346.447 340.453C347.34 339.979 348.015 339.232 348.471 338.211C348.926 337.172 349.154 335.832 349.154 334.191V308.188ZM364.795 308.188H380.463C383.525 308.188 386.187 308.643 388.447 309.555C390.708 310.466 392.449 311.815 393.67 313.602C394.91 315.388 395.529 317.594 395.529 320.219C395.529 322.497 395.174 324.402 394.463 325.934C393.752 327.465 392.758 328.732 391.482 329.734C390.225 330.719 388.757 331.53 387.08 332.168L383.936 333.945H370.783L370.729 326.535H380.463C381.684 326.535 382.696 326.316 383.498 325.879C384.3 325.441 384.902 324.822 385.303 324.02C385.722 323.199 385.932 322.224 385.932 321.094C385.932 319.945 385.722 318.961 385.303 318.141C384.883 317.32 384.264 316.691 383.443 316.254C382.641 315.816 381.648 315.598 380.463 315.598H374.393V348H364.795V308.188ZM386.588 348L377.783 330.391L387.955 330.336L396.869 347.59V348H386.588Z" fill="#FF7141"/>
<path d="M78.5237 366.625V378H76.3753V366.625H78.5237ZM89.9846 366.625V378H87.8284L82.9924 370.109V378H80.844V366.625H82.9924L87.844 374.523V366.625H89.9846ZM94.3206 366.625V378H92.1721V366.625H94.3206ZM101.149 366.625L96.5862 372.172L93.9768 374.961L93.594 372.875L95.4065 370.523L98.5159 366.625H101.149ZM98.7581 378L95.219 372.672L96.7581 371.281L101.313 378H98.7581ZM109.532 376.312V378H103.813V376.312H109.532ZM104.461 366.625V378H102.313V366.625H104.461ZM110.899 376.992C110.899 376.68 111.005 376.417 111.219 376.203C111.433 375.99 111.722 375.883 112.086 375.883C112.451 375.883 112.74 375.99 112.953 376.203C113.167 376.417 113.274 376.68 113.274 376.992C113.274 377.299 113.167 377.56 112.953 377.773C112.74 377.982 112.451 378.086 112.086 378.086C111.722 378.086 111.433 377.982 111.219 377.773C111.005 377.56 110.899 377.299 110.899 376.992ZM127.594 376.312V378H119.61V376.312H127.594ZM127.446 367.883L120.492 378H119.016V376.711L126 366.625H127.446V367.883ZM126.68 366.625V368.32H119.039V366.625H126.68ZM131.477 366.625V378H129.328V366.625H131.477ZM142.938 366.625V378H140.782L135.946 370.109V378H133.797V366.625H135.946L140.797 374.523V366.625H142.938ZM151.078 375.047C151.078 374.828 151.045 374.633 150.977 374.461C150.914 374.284 150.797 374.125 150.625 373.984C150.459 373.839 150.222 373.698 149.914 373.562C149.612 373.422 149.222 373.276 148.742 373.125C148.211 372.958 147.716 372.771 147.258 372.562C146.8 372.354 146.396 372.112 146.047 371.836C145.703 371.56 145.435 371.242 145.242 370.883C145.05 370.518 144.953 370.096 144.953 369.617C144.953 369.148 145.052 368.721 145.25 368.336C145.453 367.951 145.74 367.62 146.11 367.344C146.479 367.062 146.914 366.846 147.414 366.695C147.92 366.544 148.477 366.469 149.086 366.469C149.93 366.469 150.659 366.622 151.274 366.93C151.893 367.237 152.373 367.654 152.711 368.18C153.05 368.706 153.219 369.297 153.219 369.953H151.078C151.078 369.599 151.003 369.286 150.852 369.016C150.706 368.745 150.482 368.531 150.18 368.375C149.883 368.219 149.508 368.141 149.055 368.141C148.617 368.141 148.253 368.206 147.961 368.336C147.675 368.466 147.459 368.643 147.313 368.867C147.172 369.091 147.102 369.341 147.102 369.617C147.102 369.826 147.151 370.013 147.25 370.18C147.349 370.341 147.498 370.495 147.696 370.641C147.893 370.781 148.138 370.914 148.43 371.039C148.727 371.159 149.071 371.279 149.461 371.398C150.086 371.586 150.633 371.794 151.102 372.023C151.576 372.253 151.969 372.513 152.282 372.805C152.599 373.096 152.836 373.424 152.992 373.789C153.154 374.154 153.235 374.568 153.235 375.031C153.235 375.521 153.138 375.958 152.946 376.344C152.753 376.729 152.477 377.057 152.117 377.328C151.758 377.599 151.326 377.805 150.821 377.945C150.321 378.086 149.761 378.156 149.141 378.156C148.589 378.156 148.042 378.083 147.5 377.938C146.964 377.786 146.477 377.562 146.039 377.266C145.602 376.964 145.253 376.583 144.992 376.125C144.732 375.661 144.602 375.12 144.602 374.5H146.758C146.758 374.859 146.815 375.167 146.93 375.422C147.05 375.672 147.216 375.878 147.43 376.039C147.649 376.195 147.904 376.31 148.196 376.383C148.487 376.456 148.802 376.492 149.141 376.492C149.578 376.492 149.938 376.432 150.219 376.312C150.505 376.188 150.719 376.016 150.86 375.797C151.005 375.578 151.078 375.328 151.078 375.047ZM162.43 376.312V378H156.383V376.312H162.43ZM157.039 366.625V378H154.891V366.625H157.039ZM161.641 371.32V372.969H156.383V371.32H161.641ZM162.407 366.625V368.32H156.383V366.625H162.407ZM163.922 366.625H168.055C168.92 366.625 169.662 366.755 170.282 367.016C170.901 367.276 171.378 367.661 171.711 368.172C172.045 368.682 172.211 369.31 172.211 370.055C172.211 370.643 172.107 371.154 171.899 371.586C171.69 372.018 171.396 372.38 171.016 372.672C170.641 372.964 170.198 373.193 169.688 373.359L169.016 373.703H165.367L165.352 372.008H168.078C168.521 372.008 168.888 371.93 169.18 371.773C169.472 371.617 169.69 371.401 169.836 371.125C169.987 370.849 170.063 370.534 170.063 370.18C170.063 369.799 169.99 369.471 169.844 369.195C169.698 368.914 169.477 368.698 169.18 368.547C168.883 368.396 168.508 368.32 168.055 368.32H166.071V378H163.922V366.625ZM170.344 378L167.711 372.906L169.985 372.898L172.649 377.891V378H170.344ZM178.477 366.625V378H176.336V366.625H178.477ZM182.008 366.625V368.32H172.844V366.625H182.008ZM183.438 366.625H187.571C188.435 366.625 189.177 366.755 189.797 367.016C190.417 367.276 190.893 367.661 191.227 368.172C191.56 368.682 191.727 369.31 191.727 370.055C191.727 370.643 191.623 371.154 191.414 371.586C191.206 372.018 190.912 372.38 190.532 372.672C190.157 372.964 189.714 373.193 189.203 373.359L188.532 373.703H184.883L184.867 372.008H187.594C188.037 372.008 188.404 371.93 188.696 371.773C188.987 371.617 189.206 371.401 189.352 371.125C189.503 370.849 189.578 370.534 189.578 370.18C189.578 369.799 189.505 369.471 189.36 369.195C189.214 368.914 188.992 368.698 188.696 368.547C188.399 368.396 188.024 368.32 187.571 368.32H185.586V378H183.438V366.625ZM189.86 378L187.227 372.906L189.5 372.898L192.164 377.891V378H189.86ZM198.133 368.352L194.891 378H192.617L196.867 366.625H198.321L198.133 368.352ZM200.844 378L197.586 368.352L197.391 366.625H198.852L203.125 378H200.844ZM200.696 373.773V375.469H194.594V373.773H200.696ZM213.032 372.117V376.547C212.865 376.76 212.602 376.992 212.242 377.242C211.888 377.492 211.425 377.708 210.852 377.891C210.279 378.068 209.576 378.156 208.742 378.156C208.018 378.156 207.357 378.036 206.758 377.797C206.159 377.552 205.643 377.195 205.211 376.727C204.779 376.258 204.446 375.685 204.211 375.008C203.977 374.331 203.86 373.557 203.86 372.688V371.938C203.86 371.068 203.969 370.294 204.188 369.617C204.412 368.94 204.729 368.367 205.141 367.898C205.558 367.43 206.055 367.073 206.633 366.828C207.216 366.583 207.867 366.461 208.586 366.461C209.55 366.461 210.341 366.62 210.961 366.938C211.586 367.255 212.065 367.693 212.399 368.25C212.732 368.802 212.94 369.438 213.024 370.156H210.93C210.873 369.76 210.758 369.414 210.586 369.117C210.414 368.815 210.17 368.581 209.852 368.414C209.539 368.242 209.133 368.156 208.633 368.156C208.211 368.156 207.839 368.24 207.516 368.406C207.193 368.573 206.922 368.815 206.703 369.133C206.485 369.451 206.318 369.844 206.203 370.312C206.094 370.781 206.039 371.318 206.039 371.922V372.688C206.039 373.297 206.102 373.839 206.227 374.312C206.352 374.781 206.532 375.177 206.766 375.5C207.005 375.818 207.3 376.06 207.649 376.227C208.003 376.388 208.404 376.469 208.852 376.469C209.258 376.469 209.594 376.435 209.86 376.367C210.13 376.294 210.347 376.208 210.508 376.109C210.67 376.01 210.795 375.914 210.883 375.82V373.688H208.625V372.117H213.032ZM222.602 376.312V378H216.555V376.312H222.602ZM217.211 366.625V378H215.063V366.625H217.211ZM221.813 371.32V372.969H216.555V371.32H221.813ZM222.578 366.625V368.32H216.555V366.625H222.578ZM232.719 374.547V366.625H234.867V374.547C234.867 375.302 234.703 375.951 234.375 376.492C234.047 377.029 233.599 377.44 233.032 377.727C232.464 378.013 231.823 378.156 231.11 378.156C230.375 378.156 229.724 378.034 229.157 377.789C228.589 377.539 228.143 377.159 227.821 376.648C227.503 376.138 227.344 375.49 227.344 374.703H229.5C229.5 375.13 229.565 375.474 229.696 375.734C229.826 375.995 230.011 376.182 230.25 376.297C230.495 376.411 230.782 376.469 231.11 376.469C231.427 376.469 231.706 376.396 231.946 376.25C232.19 376.099 232.38 375.88 232.516 375.594C232.651 375.307 232.719 374.958 232.719 374.547ZM244.539 376.312V378H238.492V376.312H244.539ZM239.149 366.625V378H237V366.625H239.149ZM243.75 371.32V372.969H238.492V371.32H243.75ZM244.516 366.625V368.32H238.492V366.625H244.516ZM252.164 366.625V378H250.016V366.625H252.164ZM258.992 366.625L254.43 372.172L251.821 374.961L251.438 372.875L253.25 370.523L256.36 366.625H258.992ZM256.602 378L253.063 372.672L254.602 371.281L259.157 378H256.602ZM266.485 366.625H268.633V374.18C268.633 375.049 268.446 375.781 268.071 376.375C267.696 376.964 267.185 377.409 266.539 377.711C265.893 378.008 265.159 378.156 264.336 378.156C263.503 378.156 262.761 378.008 262.11 377.711C261.459 377.409 260.948 376.964 260.578 376.375C260.209 375.781 260.024 375.049 260.024 374.18V366.625H262.172V374.18C262.172 374.711 262.261 375.146 262.438 375.484C262.615 375.818 262.865 376.065 263.188 376.227C263.511 376.388 263.893 376.469 264.336 376.469C264.784 376.469 265.167 376.388 265.485 376.227C265.808 376.065 266.055 375.818 266.227 375.484C266.399 375.146 266.485 374.711 266.485 374.18V366.625ZM279.813 366.625V378H277.657L272.821 370.109V378H270.672V366.625H272.821L277.672 374.523V366.625H279.813ZM285.399 378H282.946L282.961 376.312H285.399C286.06 376.312 286.615 376.167 287.063 375.875C287.511 375.578 287.849 375.154 288.078 374.602C288.308 374.044 288.422 373.378 288.422 372.602V372.016C288.422 371.417 288.357 370.888 288.227 370.43C288.097 369.971 287.904 369.586 287.649 369.273C287.399 368.961 287.089 368.724 286.719 368.562C286.349 368.401 285.925 368.32 285.446 368.32H282.899V366.625H285.446C286.206 366.625 286.899 366.753 287.524 367.008C288.154 367.263 288.698 367.63 289.157 368.109C289.62 368.583 289.974 369.151 290.219 369.812C290.469 370.474 290.594 371.214 290.594 372.031V372.602C290.594 373.414 290.469 374.154 290.219 374.82C289.974 375.482 289.62 376.049 289.157 376.523C288.698 376.997 288.151 377.362 287.516 377.617C286.88 377.872 286.175 378 285.399 378ZM284.149 366.625V378H282V366.625H284.149ZM299.961 376.312V378H293.914V376.312H299.961ZM294.571 366.625V378H292.422V366.625H294.571ZM299.172 371.32V372.969H293.914V371.32H299.172ZM299.938 366.625V368.32H293.914V366.625H299.938ZM311.766 366.625H313.914V374.18C313.914 375.049 313.727 375.781 313.352 376.375C312.977 376.964 312.466 377.409 311.821 377.711C311.175 378.008 310.44 378.156 309.617 378.156C308.784 378.156 308.042 378.008 307.391 377.711C306.74 377.409 306.229 376.964 305.86 376.375C305.49 375.781 305.305 375.049 305.305 374.18V366.625H307.453V374.18C307.453 374.711 307.542 375.146 307.719 375.484C307.896 375.818 308.146 376.065 308.469 376.227C308.792 376.388 309.175 376.469 309.617 376.469C310.065 376.469 310.448 376.388 310.766 376.227C311.089 376.065 311.336 375.818 311.508 375.484C311.68 375.146 311.766 374.711 311.766 374.18V366.625ZM325.094 366.625V378H322.938L318.102 370.109V378H315.953V366.625H318.102L322.953 374.523V366.625H325.094ZM330.68 378H328.227L328.242 376.312H330.68C331.341 376.312 331.896 376.167 332.344 375.875C332.792 375.578 333.13 375.154 333.36 374.602C333.589 374.044 333.703 373.378 333.703 372.602V372.016C333.703 371.417 333.638 370.888 333.508 370.43C333.378 369.971 333.185 369.586 332.93 369.273C332.68 368.961 332.37 368.724 332 368.562C331.63 368.401 331.206 368.32 330.727 368.32H328.18V366.625H330.727C331.487 366.625 332.18 366.753 332.805 367.008C333.435 367.263 333.979 367.63 334.438 368.109C334.901 368.583 335.255 369.151 335.5 369.812C335.75 370.474 335.875 371.214 335.875 372.031V372.602C335.875 373.414 335.75 374.154 335.5 374.82C335.255 375.482 334.901 376.049 334.438 376.523C333.979 376.997 333.433 377.362 332.797 377.617C332.162 377.872 331.456 378 330.68 378ZM329.43 366.625V378H327.281V366.625H329.43ZM346.328 374.547V366.625H348.477V374.547C348.477 375.302 348.313 375.951 347.985 376.492C347.656 377.029 347.209 377.44 346.641 377.727C346.073 378.013 345.433 378.156 344.719 378.156C343.985 378.156 343.334 378.034 342.766 377.789C342.198 377.539 341.753 377.159 341.43 376.648C341.112 376.138 340.953 375.49 340.953 374.703H343.11C343.11 375.13 343.175 375.474 343.305 375.734C343.435 375.995 343.62 376.182 343.86 376.297C344.104 376.411 344.391 376.469 344.719 376.469C345.037 376.469 345.315 376.396 345.555 376.25C345.8 376.099 345.99 375.88 346.125 375.594C346.261 375.307 346.328 374.958 346.328 374.547ZM358.149 376.312V378H352.102V376.312H358.149ZM352.758 366.625V378H350.61V366.625H352.758ZM357.36 371.32V372.969H352.102V371.32H357.36ZM358.125 366.625V368.32H352.102V366.625H358.125ZM367.985 372.93H365.078L365.063 371.414H367.555C367.982 371.414 368.339 371.354 368.625 371.234C368.912 371.115 369.128 370.94 369.274 370.711C369.425 370.482 369.5 370.203 369.5 369.875C369.5 369.51 369.43 369.214 369.289 368.984C369.154 368.755 368.94 368.589 368.649 368.484C368.357 368.375 367.987 368.32 367.539 368.32H365.774V378H363.625V366.625H367.539C368.185 366.625 368.761 366.688 369.266 366.812C369.776 366.932 370.209 367.12 370.563 367.375C370.917 367.63 371.185 367.951 371.367 368.336C371.555 368.721 371.649 369.18 371.649 369.711C371.649 370.18 371.539 370.612 371.321 371.008C371.107 371.398 370.776 371.716 370.328 371.961C369.886 372.206 369.323 372.346 368.641 372.383L367.985 372.93ZM367.891 378H364.446L365.344 376.312H367.891C368.318 376.312 368.67 376.242 368.946 376.102C369.227 375.961 369.435 375.768 369.571 375.523C369.711 375.273 369.781 374.987 369.781 374.664C369.781 374.31 369.719 374.003 369.594 373.742C369.474 373.482 369.281 373.281 369.016 373.141C368.755 373 368.412 372.93 367.985 372.93H365.75L365.766 371.414H368.61L369.102 372C369.758 372.005 370.292 372.135 370.703 372.391C371.12 372.646 371.427 372.974 371.625 373.375C371.823 373.776 371.922 374.208 371.922 374.672C371.922 375.401 371.763 376.013 371.446 376.508C371.133 377.003 370.675 377.375 370.071 377.625C369.472 377.875 368.745 378 367.891 378ZM378.305 368.352L375.063 378H372.789L377.039 366.625H378.492L378.305 368.352ZM381.016 378L377.758 368.352L377.563 366.625H379.024L383.297 378H381.016ZM380.867 373.773V375.469H374.766V373.773H380.867ZM393.61 366.625V378H391.453L386.617 370.109V378H384.469V366.625H386.617L391.469 374.523V366.625H393.61ZM397.946 366.625V378H395.797V366.625H397.946ZM404.774 366.625L400.211 372.172L397.602 374.961L397.219 372.875L399.031 370.523L402.141 366.625H404.774ZM402.383 378L398.844 372.672L400.383 371.281L404.938 378H402.383ZM148.477 392.117V396.547C148.31 396.76 148.047 396.992 147.688 397.242C147.334 397.492 146.87 397.708 146.297 397.891C145.724 398.068 145.021 398.156 144.188 398.156C143.464 398.156 142.802 398.036 142.203 397.797C141.604 397.552 141.089 397.195 140.657 396.727C140.224 396.258 139.891 395.685 139.657 395.008C139.422 394.331 139.305 393.557 139.305 392.688V391.938C139.305 391.068 139.414 390.294 139.633 389.617C139.857 388.94 140.175 388.367 140.586 387.898C141.003 387.43 141.5 387.073 142.078 386.828C142.662 386.583 143.313 386.461 144.032 386.461C144.995 386.461 145.787 386.62 146.407 386.938C147.032 387.255 147.511 387.693 147.844 388.25C148.177 388.802 148.386 389.438 148.469 390.156H146.375C146.318 389.76 146.203 389.414 146.032 389.117C145.86 388.815 145.615 388.581 145.297 388.414C144.985 388.242 144.578 388.156 144.078 388.156C143.657 388.156 143.284 388.24 142.961 388.406C142.638 388.573 142.367 388.815 142.149 389.133C141.93 389.451 141.763 389.844 141.649 390.312C141.539 390.781 141.485 391.318 141.485 391.922V392.688C141.485 393.297 141.547 393.839 141.672 394.312C141.797 394.781 141.977 395.177 142.211 395.5C142.451 395.818 142.745 396.06 143.094 396.227C143.448 396.388 143.849 396.469 144.297 396.469C144.703 396.469 145.039 396.435 145.305 396.367C145.576 396.294 145.792 396.208 145.953 396.109C146.115 396.01 146.24 395.914 146.328 395.82V393.688H144.071V392.117H148.477ZM158.047 396.312V398H152V396.312H158.047ZM152.657 386.625V398H150.508V386.625H152.657ZM157.258 391.32V392.969H152V391.32H157.258ZM158.024 386.625V388.32H152V386.625H158.024ZM165.492 395.047C165.492 394.828 165.459 394.633 165.391 394.461C165.328 394.284 165.211 394.125 165.039 393.984C164.873 393.839 164.636 393.698 164.328 393.562C164.026 393.422 163.636 393.276 163.157 393.125C162.625 392.958 162.13 392.771 161.672 392.562C161.214 392.354 160.81 392.112 160.461 391.836C160.117 391.56 159.849 391.242 159.657 390.883C159.464 390.518 159.367 390.096 159.367 389.617C159.367 389.148 159.466 388.721 159.664 388.336C159.867 387.951 160.154 387.62 160.524 387.344C160.893 387.062 161.328 386.846 161.828 386.695C162.334 386.544 162.891 386.469 163.5 386.469C164.344 386.469 165.073 386.622 165.688 386.93C166.308 387.237 166.787 387.654 167.125 388.18C167.464 388.706 167.633 389.297 167.633 389.953H165.492C165.492 389.599 165.417 389.286 165.266 389.016C165.12 388.745 164.896 388.531 164.594 388.375C164.297 388.219 163.922 388.141 163.469 388.141C163.032 388.141 162.667 388.206 162.375 388.336C162.089 388.466 161.873 388.643 161.727 388.867C161.586 389.091 161.516 389.341 161.516 389.617C161.516 389.826 161.565 390.013 161.664 390.18C161.763 390.341 161.912 390.495 162.11 390.641C162.308 390.781 162.552 390.914 162.844 391.039C163.141 391.159 163.485 391.279 163.875 391.398C164.5 391.586 165.047 391.794 165.516 392.023C165.99 392.253 166.383 392.513 166.696 392.805C167.013 393.096 167.25 393.424 167.407 393.789C167.568 394.154 167.649 394.568 167.649 395.031C167.649 395.521 167.552 395.958 167.36 396.344C167.167 396.729 166.891 397.057 166.532 397.328C166.172 397.599 165.74 397.805 165.235 397.945C164.735 398.086 164.175 398.156 163.555 398.156C163.003 398.156 162.456 398.083 161.914 397.938C161.378 397.786 160.891 397.562 160.453 397.266C160.016 396.964 159.667 396.583 159.407 396.125C159.146 395.661 159.016 395.12 159.016 394.5H161.172C161.172 394.859 161.229 395.167 161.344 395.422C161.464 395.672 161.63 395.878 161.844 396.039C162.063 396.195 162.318 396.31 162.61 396.383C162.901 396.456 163.216 396.492 163.555 396.492C163.992 396.492 164.352 396.432 164.633 396.312C164.92 396.188 165.133 396.016 165.274 395.797C165.42 395.578 165.492 395.328 165.492 395.047ZM176.844 396.312V398H170.797V396.312H176.844ZM171.453 386.625V398H169.305V386.625H171.453ZM176.055 391.32V392.969H170.797V391.32H176.055ZM176.821 386.625V388.32H170.797V386.625H176.821ZM183.375 386.625V398H181.235V386.625H183.375ZM186.907 386.625V388.32H177.742V386.625H186.907ZM196.43 396.312V398H188.446V396.312H196.43ZM196.282 387.883L189.328 398H187.852V396.711L194.836 386.625H196.282V387.883ZM195.516 386.625V388.32H187.875V386.625H195.516ZM205.242 396.312V398H199.524V396.312H205.242ZM200.172 386.625V398H198.024V386.625H200.172ZM208.969 386.625V398H206.821V386.625H208.969ZM217.946 394.258H220.094C220.037 395.018 219.826 395.693 219.461 396.281C219.097 396.865 218.589 397.323 217.938 397.656C217.287 397.99 216.498 398.156 215.571 398.156C214.857 398.156 214.214 398.031 213.641 397.781C213.073 397.526 212.586 397.164 212.18 396.695C211.779 396.221 211.472 395.654 211.258 394.992C211.045 394.326 210.938 393.578 210.938 392.75V391.883C210.938 391.055 211.047 390.307 211.266 389.641C211.485 388.974 211.797 388.406 212.203 387.938C212.615 387.464 213.107 387.099 213.68 386.844C214.258 386.589 214.904 386.461 215.617 386.461C216.545 386.461 217.328 386.633 217.969 386.977C218.61 387.315 219.107 387.781 219.461 388.375C219.815 388.969 220.029 389.651 220.102 390.422H217.953C217.912 389.943 217.808 389.536 217.641 389.203C217.479 388.87 217.235 388.617 216.907 388.445C216.584 388.268 216.154 388.18 215.617 388.18C215.201 388.18 214.834 388.258 214.516 388.414C214.203 388.57 213.943 388.805 213.735 389.117C213.526 389.424 213.37 389.81 213.266 390.273C213.162 390.732 213.11 391.263 213.11 391.867V392.75C213.11 393.328 213.157 393.846 213.25 394.305C213.344 394.763 213.49 395.151 213.688 395.469C213.886 395.786 214.141 396.029 214.453 396.195C214.766 396.362 215.138 396.445 215.571 396.445C216.097 396.445 216.524 396.362 216.852 396.195C217.185 396.029 217.438 395.784 217.61 395.461C217.787 395.138 217.899 394.737 217.946 394.258ZM229.305 391.32V393.008H223.321V391.32H229.305ZM223.907 386.625V398H221.758V386.625H223.907ZM230.899 386.625V398H228.75V386.625H230.899ZM241.594 388.352L238.352 398H236.078L240.328 386.625H241.782L241.594 388.352ZM244.305 398L241.047 388.352L240.852 386.625H242.313L246.586 398H244.305ZM244.157 393.773V395.469H238.055V393.773H244.157ZM252.117 392.93H249.211L249.196 391.414H251.688C252.115 391.414 252.472 391.354 252.758 391.234C253.045 391.115 253.261 390.94 253.407 390.711C253.558 390.482 253.633 390.203 253.633 389.875C253.633 389.51 253.563 389.214 253.422 388.984C253.287 388.755 253.073 388.589 252.782 388.484C252.49 388.375 252.12 388.32 251.672 388.32H249.907V398H247.758V386.625H251.672C252.318 386.625 252.893 386.688 253.399 386.812C253.909 386.932 254.341 387.12 254.696 387.375C255.05 387.63 255.318 387.951 255.5 388.336C255.688 388.721 255.782 389.18 255.782 389.711C255.782 390.18 255.672 390.612 255.453 391.008C255.24 391.398 254.909 391.716 254.461 391.961C254.018 392.206 253.456 392.346 252.774 392.383L252.117 392.93ZM252.024 398H248.578L249.477 396.312H252.024C252.451 396.312 252.802 396.242 253.078 396.102C253.36 395.961 253.568 395.768 253.703 395.523C253.844 395.273 253.914 394.987 253.914 394.664C253.914 394.31 253.852 394.003 253.727 393.742C253.607 393.482 253.414 393.281 253.149 393.141C252.888 393 252.545 392.93 252.117 392.93H249.883L249.899 391.414H252.742L253.235 392C253.891 392.005 254.425 392.135 254.836 392.391C255.253 392.646 255.56 392.974 255.758 393.375C255.956 393.776 256.055 394.208 256.055 394.672C256.055 395.401 255.896 396.013 255.578 396.508C255.266 397.003 254.808 397.375 254.203 397.625C253.604 397.875 252.878 398 252.024 398ZM266.789 392.117V396.547C266.623 396.76 266.36 396.992 266 397.242C265.646 397.492 265.183 397.708 264.61 397.891C264.037 398.068 263.334 398.156 262.5 398.156C261.776 398.156 261.115 398.036 260.516 397.797C259.917 397.552 259.401 397.195 258.969 396.727C258.537 396.258 258.203 395.685 257.969 395.008C257.735 394.331 257.617 393.557 257.617 392.688V391.938C257.617 391.068 257.727 390.294 257.946 389.617C258.17 388.94 258.487 388.367 258.899 387.898C259.315 387.43 259.813 387.073 260.391 386.828C260.974 386.583 261.625 386.461 262.344 386.461C263.308 386.461 264.099 386.62 264.719 386.938C265.344 387.255 265.823 387.693 266.157 388.25C266.49 388.802 266.698 389.438 266.782 390.156H264.688C264.63 389.76 264.516 389.414 264.344 389.117C264.172 388.815 263.927 388.581 263.61 388.414C263.297 388.242 262.891 388.156 262.391 388.156C261.969 388.156 261.597 388.24 261.274 388.406C260.951 388.573 260.68 388.815 260.461 389.133C260.242 389.451 260.076 389.844 259.961 390.312C259.852 390.781 259.797 391.318 259.797 391.922V392.688C259.797 393.297 259.86 393.839 259.985 394.312C260.11 394.781 260.289 395.177 260.524 395.5C260.763 395.818 261.058 396.06 261.407 396.227C261.761 396.388 262.162 396.469 262.61 396.469C263.016 396.469 263.352 396.435 263.617 396.367C263.888 396.294 264.104 396.208 264.266 396.109C264.427 396.01 264.552 395.914 264.641 395.82V393.688H262.383V392.117H266.789ZM276.36 396.312V398H270.313V396.312H276.36ZM270.969 386.625V398H268.821V386.625H270.969ZM275.571 391.32V392.969H270.313V391.32H275.571ZM276.336 386.625V388.32H270.313V386.625H276.336ZM283.805 395.047C283.805 394.828 283.771 394.633 283.703 394.461C283.641 394.284 283.524 394.125 283.352 393.984C283.185 393.839 282.948 393.698 282.641 393.562C282.339 393.422 281.948 393.276 281.469 393.125C280.938 392.958 280.443 392.771 279.985 392.562C279.526 392.354 279.123 392.112 278.774 391.836C278.43 391.56 278.162 391.242 277.969 390.883C277.776 390.518 277.68 390.096 277.68 389.617C277.68 389.148 277.779 388.721 277.977 388.336C278.18 387.951 278.466 387.62 278.836 387.344C279.206 387.062 279.641 386.846 280.141 386.695C280.646 386.544 281.203 386.469 281.813 386.469C282.657 386.469 283.386 386.622 284 386.93C284.62 387.237 285.099 387.654 285.438 388.18C285.776 388.706 285.946 389.297 285.946 389.953H283.805C283.805 389.599 283.729 389.286 283.578 389.016C283.433 388.745 283.209 388.531 282.907 388.375C282.61 388.219 282.235 388.141 281.782 388.141C281.344 388.141 280.979 388.206 280.688 388.336C280.401 388.466 280.185 388.643 280.039 388.867C279.899 389.091 279.828 389.341 279.828 389.617C279.828 389.826 279.878 390.013 279.977 390.18C280.076 390.341 280.224 390.495 280.422 390.641C280.62 390.781 280.865 390.914 281.157 391.039C281.453 391.159 281.797 391.279 282.188 391.398C282.813 391.586 283.36 391.794 283.828 392.023C284.302 392.253 284.696 392.513 285.008 392.805C285.326 393.096 285.563 393.424 285.719 393.789C285.88 394.154 285.961 394.568 285.961 395.031C285.961 395.521 285.865 395.958 285.672 396.344C285.479 396.729 285.203 397.057 284.844 397.328C284.485 397.599 284.052 397.805 283.547 397.945C283.047 398.086 282.487 398.156 281.867 398.156C281.315 398.156 280.768 398.083 280.227 397.938C279.69 397.786 279.203 397.562 278.766 397.266C278.328 396.964 277.979 396.583 277.719 396.125C277.459 395.661 277.328 395.12 277.328 394.5H279.485C279.485 394.859 279.542 395.167 279.657 395.422C279.776 395.672 279.943 395.878 280.157 396.039C280.375 396.195 280.63 396.31 280.922 396.383C281.214 396.456 281.529 396.492 281.867 396.492C282.305 396.492 282.664 396.432 282.946 396.312C283.232 396.188 283.446 396.016 283.586 395.797C283.732 395.578 283.805 395.328 283.805 395.047ZM289.907 386.625V398H287.758V386.625H289.907ZM298.883 394.258H301.032C300.974 395.018 300.763 395.693 300.399 396.281C300.034 396.865 299.526 397.323 298.875 397.656C298.224 397.99 297.435 398.156 296.508 398.156C295.795 398.156 295.151 398.031 294.578 397.781C294.011 397.526 293.524 397.164 293.117 396.695C292.716 396.221 292.409 395.654 292.196 394.992C291.982 394.326 291.875 393.578 291.875 392.75V391.883C291.875 391.055 291.985 390.307 292.203 389.641C292.422 388.974 292.735 388.406 293.141 387.938C293.552 387.464 294.045 387.099 294.617 386.844C295.196 386.589 295.841 386.461 296.555 386.461C297.482 386.461 298.266 386.633 298.907 386.977C299.547 387.315 300.045 387.781 300.399 388.375C300.753 388.969 300.966 389.651 301.039 390.422H298.891C298.849 389.943 298.745 389.536 298.578 389.203C298.417 388.87 298.172 388.617 297.844 388.445C297.521 388.268 297.091 388.18 296.555 388.18C296.138 388.18 295.771 388.258 295.453 388.414C295.141 388.57 294.88 388.805 294.672 389.117C294.464 389.424 294.308 389.81 294.203 390.273C294.099 390.732 294.047 391.263 294.047 391.867V392.75C294.047 393.328 294.094 393.846 294.188 394.305C294.282 394.763 294.427 395.151 294.625 395.469C294.823 395.786 295.078 396.029 295.391 396.195C295.703 396.362 296.076 396.445 296.508 396.445C297.034 396.445 297.461 396.362 297.789 396.195C298.123 396.029 298.375 395.784 298.547 395.461C298.724 395.138 298.836 394.737 298.883 394.258ZM310.242 391.32V393.008H304.258V391.32H310.242ZM304.844 386.625V398H302.696V386.625H304.844ZM311.836 386.625V398H309.688V386.625H311.836ZM321.563 396.312V398H315.516V396.312H321.563ZM316.172 386.625V398H314.024V386.625H316.172ZM320.774 391.32V392.969H315.516V391.32H320.774ZM321.539 386.625V388.32H315.516V386.625H321.539ZM323.055 386.625H327.188C328.052 386.625 328.795 386.755 329.414 387.016C330.034 387.276 330.511 387.661 330.844 388.172C331.177 388.682 331.344 389.31 331.344 390.055C331.344 390.643 331.24 391.154 331.032 391.586C330.823 392.018 330.529 392.38 330.149 392.672C329.774 392.964 329.331 393.193 328.821 393.359L328.149 393.703H324.5L324.485 392.008H327.211C327.654 392.008 328.021 391.93 328.313 391.773C328.604 391.617 328.823 391.401 328.969 391.125C329.12 390.849 329.196 390.534 329.196 390.18C329.196 389.799 329.123 389.471 328.977 389.195C328.831 388.914 328.61 388.698 328.313 388.547C328.016 388.396 327.641 388.32 327.188 388.32H325.203V398H323.055V386.625ZM329.477 398L326.844 392.906L329.117 392.898L331.782 397.891V398H329.477ZM337.61 386.625V398H335.469V386.625H337.61ZM341.141 386.625V388.32H331.977V386.625H341.141Z" fill="#3C3C3B"/>
<defs>
<clipPath id="clip0_1_6224">
<rect width="182.647" height="256" fill="white" transform="translate(66.834 39)"/>
</clipPath>
</defs>
</svg>
