<svg width="608" height="287" viewBox="0 0 608 287" fill="none" xmlns="http://www.w3.org/2000/svg">
<circle cx="303.285" cy="170.5" r="103.5" stroke="#44403C" stroke-width="3"/>
<mask id="mask0_1_6338" style="mask-type:alpha" maskUnits="userSpaceOnUse" x="253" y="26" width="101" height="100">
<circle cx="303.785" cy="76" r="50" fill="white"/>
</mask>
<g mask="url(#mask0_1_6338)">
<circle cx="303.785" cy="76" r="48.5" fill="white" stroke="#44403C" stroke-width="3"/>
<path d="M353.508 71.8153C353.508 101.741 329.242 126 299.308 126C283.424 126 269.136 119.17 259.223 108.286C307.646 108.286 341.195 95.7816 341.198 37.4287C348.89 46.7834 353.508 58.7601 353.508 71.8153Z" fill="#F5F5F5"/>
</g>
<g clip-path="url(#clip0_1_6338)">
<path d="M296.986 67.9269H289.669C282.708 67.9269 277.043 62.2779 277.043 55.3359C277.043 53.3503 278.648 51.7495 280.639 51.7495C282.631 51.7495 284.236 53.3503 284.236 55.3359C284.236 58.3221 286.675 60.7541 289.669 60.7541H299.054" stroke="#FF7141" stroke-width="3" stroke-miterlimit="10"/>
<path d="M283.695 66.4182V90.338" stroke="#FF7141" stroke-width="3" stroke-miterlimit="10"/>
<path d="M290.332 68.3115V85.9512" stroke="#FF7141" stroke-width="3" stroke-miterlimit="10"/>
<path d="M296.984 67.9268V81.2104" stroke="#FF7141" stroke-width="3" stroke-miterlimit="10"/>
<path d="M296.986 81.2105L277.043 95.4793V55.3359" stroke="#FF7141" stroke-width="3" stroke-miterlimit="10"/>
<path d="M294.345 92.7544L285.068 103.806" stroke="#FF7141" stroke-width="3" stroke-miterlimit="10"/>
<path d="M289.639 98.4653H284.221" stroke="#FF7141" stroke-width="3" stroke-miterlimit="10"/>
<path d="M289.639 98.4653V103.806" stroke="#FF7141" stroke-width="3" stroke-miterlimit="10"/>
<path d="M310.954 67.9269H318.1C325.062 67.9269 330.726 62.2779 330.726 55.3359C330.726 53.3503 329.121 51.7495 327.13 51.7495C325.139 51.7495 323.533 53.3503 323.533 55.3359C323.533 58.3221 321.095 60.7541 318.1 60.7541H310.83" stroke="#FF7141" stroke-width="3" stroke-miterlimit="10"/>
<path d="M324.074 66.4182V90.338" stroke="#FF7141" stroke-width="3" stroke-miterlimit="10"/>
<path d="M317.438 68.3115V85.9512" stroke="#FF7141" stroke-width="3" stroke-miterlimit="10"/>
<path d="M310.924 81.3029L330.728 95.4793V55.3359" stroke="#FF7141" stroke-width="3" stroke-miterlimit="10"/>
<path d="M313.424 92.7546L322.701 103.806" stroke="#FF7141" stroke-width="3" stroke-miterlimit="10"/>
<path d="M318.131 98.4653H323.549" stroke="#FF7141" stroke-width="3" stroke-miterlimit="10"/>
<path d="M318.131 98.4653V103.806" stroke="#FF7141" stroke-width="3" stroke-miterlimit="10"/>
<path d="M301.014 81.6875L299.254 78.5628C297.772 75.9461 296.985 72.9754 296.985 69.9739C296.985 66.6183 297.957 63.3398 299.763 60.5383C300.319 59.6764 300.612 58.6759 300.612 57.66V51.7493C300.612 48.9325 302.897 46.6544 305.721 46.6544C308.546 46.6544 310.831 48.9325 310.831 51.7493V68.6501V67.9267V81.2103L315.847 90.3534L310.939 95.2482L307.172 90.338V103.806L303.915 100.697L300.612 103.806V90.338L296.846 95.2482L291.938 90.3534L298.297 78.8861" stroke="#FF7141" stroke-width="3" stroke-miterlimit="10"/>
<path d="M300.752 50.749C298.606 50.749 296.8 52.2267 296.291 54.2123H300.011" stroke="#FF7141" stroke-width="3" stroke-miterlimit="10"/>
</g>
<circle cx="303.785" cy="76" r="48.5" stroke="#44403C" stroke-width="3"/>
<mask id="mask1_1_6338" style="mask-type:alpha" maskUnits="userSpaceOnUse" x="347" y="186" width="101" height="101">
<circle cx="397.484" cy="236.5" r="50" fill="white"/>
</mask>
<g mask="url(#mask1_1_6338)">
<circle cx="397.484" cy="236.5" r="48.5" fill="white" stroke="#44403C" stroke-width="3"/>
<path d="M447.208 232.315C447.208 262.241 422.941 286.5 393.007 286.5C377.123 286.5 362.835 279.67 352.922 268.786C401.345 268.786 434.895 256.282 434.897 197.929C442.589 207.283 447.208 219.26 447.208 232.315Z" fill="#F5F5F5"/>
</g>
<g clip-path="url(#clip1_1_6338)">
<path d="M413.746 234.7C412.681 231.652 410.438 229.183 407.415 227.744C407.344 227.716 407.258 227.673 407.187 227.645L398.144 224.428C398.144 224.428 398.045 224.4 398.002 224.386C397.96 224.386 397.903 224.357 397.846 224.343C397.278 224.089 396.696 223.892 396.114 223.722C393.786 222.763 390.379 220.802 390.379 217.57C390.379 213.859 393.488 210.84 397.321 210.84H398.599C402.588 210.84 405.725 213.817 405.725 217.627C405.725 218.967 406.818 220.054 408.167 220.054C409.516 220.054 410.609 218.967 410.609 217.627C410.609 214.48 409.345 211.545 407.06 209.344C404.802 207.185 401.807 206 398.613 206H397.335C390.805 206 385.51 211.193 385.51 217.57C385.51 219.997 386.418 222.241 388.15 224.16C385.396 225.232 383.04 227.278 381.634 230.086C380.2 232.95 379.987 236.168 381.024 239.145C382.088 242.193 384.331 244.662 387.355 246.101C387.426 246.143 387.511 246.172 387.597 246.2L397.236 249.572C397.236 249.572 397.321 249.6 397.364 249.614C398.641 249.981 404.987 252.027 404.987 256.43C404.987 260.141 401.878 263.16 398.045 263.16H396.767C392.778 263.16 389.641 260.183 389.641 256.373C389.641 255.033 388.548 253.946 387.199 253.946C385.85 253.946 384.757 255.033 384.757 256.373C384.757 259.52 386.021 262.455 388.306 264.656C390.564 266.815 393.559 268 396.753 268H398.031C404.547 268 409.842 262.807 409.842 256.43C409.842 253.438 408.451 250.715 405.825 248.542C403.993 247.032 401.481 245.762 398.769 244.972L389.329 241.67C387.54 240.796 386.234 239.342 385.609 237.564C384.999 235.829 385.141 233.938 385.978 232.231C387.54 229.084 391.131 227.532 394.496 228.336C395.021 228.548 395.547 228.731 396.1 228.901C396.271 228.971 396.427 229.028 396.597 229.056L405.385 232.174C407.173 233.049 408.493 234.503 409.104 236.28C409.714 238.016 409.572 239.907 408.735 241.614C408.139 242.813 408.635 244.267 409.842 244.859C410.183 245.029 410.552 245.113 410.921 245.113C411.815 245.113 412.681 244.619 413.107 243.759C414.541 240.894 414.754 237.677 413.718 234.7H413.746Z" fill="#FF7141"/>
</g>
<circle cx="397.484" cy="236.5" r="48.5" stroke="#44403C" stroke-width="3"/>
<mask id="mask2_1_6338" style="mask-type:alpha" maskUnits="userSpaceOnUse" x="156" y="186" width="101" height="101">
<circle cx="206.785" cy="236.25" r="50" fill="white"/>
</mask>
<g mask="url(#mask2_1_6338)">
<circle cx="206.785" cy="236.25" r="48.5" fill="white" stroke="#44403C" stroke-width="3"/>
<path d="M256.508 232.065C256.508 261.991 232.242 286.25 202.308 286.25C186.424 286.25 172.136 279.42 162.223 268.536C210.646 268.536 244.195 256.032 244.198 197.679C251.89 207.033 256.508 219.01 256.508 232.065Z" fill="#F5F5F5"/>
</g>
<mask id="mask3_1_6338" style="mask-type:luminance" maskUnits="userSpaceOnUse" x="176" y="203" width="61" height="61">
<path d="M176.785 203.75H236.785V263.75H176.785V203.75Z" fill="white"/>
</mask>
<g mask="url(#mask3_1_6338)">
<path d="M235.027 219.688H178.543L206.785 205.508L235.027 219.688Z" stroke="#FF7141" stroke-width="3" stroke-miterlimit="10" stroke-linecap="round" stroke-linejoin="round"/>
<path d="M182.059 226.719C182.059 226.719 178.543 223.203 178.543 219.688" stroke="#FF7141" stroke-width="3" stroke-miterlimit="10" stroke-linecap="round" stroke-linejoin="round"/>
<path d="M182.059 226.719H231.512C231.512 226.719 235.027 223.203 235.027 219.688" stroke="#FF7141" stroke-width="3" stroke-miterlimit="10" stroke-linecap="round" stroke-linejoin="round"/>
<path d="M231.512 254.961H182.059C182.059 254.961 178.543 258.477 178.543 261.992H235.027C235.027 258.477 231.512 254.961 231.512 254.961Z" stroke="#FF7141" stroke-width="3" stroke-miterlimit="10" stroke-linecap="round" stroke-linejoin="round"/>
<path d="M192.605 226.719V254.961" stroke="#FF7141" stroke-width="3" stroke-miterlimit="10" stroke-linecap="round" stroke-linejoin="round"/>
<path d="M185.574 254.961V226.719" stroke="#FF7141" stroke-width="3" stroke-miterlimit="10" stroke-linecap="round" stroke-linejoin="round"/>
<path d="M210.301 226.719V254.961" stroke="#FF7141" stroke-width="3" stroke-miterlimit="10" stroke-linecap="round" stroke-linejoin="round"/>
<path d="M203.27 254.961V226.719" stroke="#FF7141" stroke-width="3" stroke-miterlimit="10" stroke-linecap="round" stroke-linejoin="round"/>
<path d="M227.996 226.719V254.961" stroke="#FF7141" stroke-width="3" stroke-miterlimit="10" stroke-linecap="round" stroke-linejoin="round"/>
<path d="M220.965 254.961V226.719" stroke="#FF7141" stroke-width="3" stroke-miterlimit="10" stroke-linecap="round" stroke-linejoin="round"/>
</g>
<circle cx="206.785" cy="236.25" r="48.5" stroke="#44403C" stroke-width="3"/>
<path d="M225.794 158H223.317L223.333 156.172H225.794C226.408 156.172 226.927 156.034 227.348 155.758C227.77 155.477 228.088 155.068 228.302 154.531C228.52 153.995 228.63 153.346 228.63 152.586V152.031C228.63 151.448 228.567 150.935 228.442 150.492C228.322 150.049 228.143 149.677 227.903 149.375C227.663 149.073 227.369 148.846 227.02 148.695C226.671 148.539 226.27 148.461 225.817 148.461H223.27V146.625H225.817C226.578 146.625 227.273 146.755 227.903 147.016C228.538 147.271 229.088 147.638 229.552 148.117C230.015 148.596 230.372 149.169 230.622 149.836C230.877 150.497 231.005 151.234 231.005 152.047V152.586C231.005 153.393 230.877 154.13 230.622 154.797C230.372 155.464 230.015 156.036 229.552 156.516C229.093 156.99 228.544 157.357 227.903 157.617C227.268 157.872 226.565 158 225.794 158ZM224.645 146.625V158H222.302V146.625H224.645ZM235.2 146.625V158H232.864V146.625H235.2ZM245.028 156.172V158H238.973V156.172H245.028ZM239.739 146.625V158H237.395V146.625H239.739ZM244.239 151.258V153.039H238.973V151.258H244.239ZM245.02 146.625V148.461H238.973V146.625H245.02ZM253.872 158H251.395L251.411 156.172H253.872C254.486 156.172 255.005 156.034 255.427 155.758C255.848 155.477 256.166 155.068 256.38 154.531C256.598 153.995 256.708 153.346 256.708 152.586V152.031C256.708 151.448 256.645 150.935 256.52 150.492C256.4 150.049 256.221 149.677 255.981 149.375C255.742 149.073 255.447 148.846 255.098 148.695C254.749 148.539 254.348 148.461 253.895 148.461H251.348V146.625H253.895C254.656 146.625 255.351 146.755 255.981 147.016C256.617 147.271 257.166 147.638 257.63 148.117C258.093 148.596 258.45 149.169 258.7 149.836C258.955 150.497 259.083 151.234 259.083 152.047V152.586C259.083 153.393 258.955 154.13 258.7 154.797C258.45 155.464 258.093 156.036 257.63 156.516C257.171 156.99 256.622 157.357 255.981 157.617C255.346 157.872 254.643 158 253.872 158ZM252.723 146.625V158H250.38V146.625H252.723ZM260.786 146.625H265.028C265.898 146.625 266.645 146.755 267.27 147.016C267.9 147.276 268.385 147.661 268.723 148.172C269.062 148.682 269.231 149.31 269.231 150.055C269.231 150.664 269.127 151.188 268.919 151.625C268.716 152.057 268.427 152.419 268.052 152.711C267.682 152.997 267.247 153.227 266.747 153.398L266.005 153.789H262.317L262.302 151.961H265.044C265.455 151.961 265.796 151.888 266.067 151.742C266.338 151.596 266.541 151.393 266.677 151.133C266.817 150.872 266.887 150.57 266.887 150.227C266.887 149.862 266.82 149.547 266.684 149.281C266.549 149.016 266.343 148.812 266.067 148.672C265.791 148.531 265.445 148.461 265.028 148.461H263.13V158H260.786V146.625ZM267.145 158L264.552 152.93L267.028 152.914L269.653 157.891V158H267.145ZM278.669 156.172V158H272.614V156.172H278.669ZM273.38 146.625V158H271.036V146.625H273.38ZM277.88 151.258V153.039H272.614V151.258H277.88ZM278.661 146.625V148.461H272.614V146.625H278.661ZM282.528 146.625V158H280.192V146.625H282.528ZM294.63 155.023C294.63 154.82 294.598 154.638 294.536 154.477C294.479 154.31 294.369 154.159 294.208 154.023C294.046 153.883 293.82 153.745 293.528 153.609C293.236 153.474 292.859 153.333 292.395 153.188C291.88 153.021 291.39 152.833 290.927 152.625C290.468 152.417 290.062 152.174 289.708 151.898C289.359 151.617 289.083 151.292 288.88 150.922C288.682 150.552 288.583 150.122 288.583 149.633C288.583 149.159 288.687 148.729 288.895 148.344C289.104 147.953 289.395 147.62 289.77 147.344C290.145 147.062 290.588 146.846 291.098 146.695C291.614 146.544 292.179 146.469 292.794 146.469C293.632 146.469 294.364 146.62 294.989 146.922C295.614 147.224 296.098 147.638 296.442 148.164C296.791 148.69 296.966 149.292 296.966 149.969H294.637C294.637 149.635 294.567 149.344 294.427 149.094C294.291 148.839 294.083 148.638 293.802 148.492C293.525 148.346 293.177 148.273 292.755 148.273C292.348 148.273 292.01 148.336 291.739 148.461C291.468 148.581 291.265 148.745 291.13 148.953C290.994 149.156 290.927 149.385 290.927 149.641C290.927 149.833 290.973 150.008 291.067 150.164C291.166 150.32 291.312 150.466 291.505 150.602C291.697 150.737 291.934 150.865 292.216 150.984C292.497 151.104 292.822 151.221 293.192 151.336C293.812 151.523 294.356 151.734 294.825 151.969C295.299 152.203 295.695 152.466 296.012 152.758C296.33 153.049 296.57 153.38 296.731 153.75C296.893 154.12 296.973 154.539 296.973 155.008C296.973 155.503 296.877 155.945 296.684 156.336C296.492 156.727 296.213 157.057 295.848 157.328C295.484 157.599 295.049 157.805 294.544 157.945C294.038 158.086 293.473 158.156 292.848 158.156C292.286 158.156 291.731 158.083 291.184 157.938C290.637 157.786 290.14 157.56 289.692 157.258C289.249 156.956 288.895 156.57 288.63 156.102C288.364 155.633 288.231 155.078 288.231 154.438H290.583C290.583 154.792 290.637 155.091 290.747 155.336C290.856 155.581 291.01 155.779 291.208 155.93C291.411 156.081 291.65 156.19 291.927 156.258C292.208 156.326 292.515 156.359 292.848 156.359C293.255 156.359 293.588 156.302 293.848 156.188C294.114 156.073 294.309 155.914 294.434 155.711C294.565 155.508 294.63 155.279 294.63 155.023ZM303.192 148.57L300.098 158H297.606L301.833 146.625H303.419L303.192 148.57ZM305.762 158L302.661 148.57L302.411 146.625H304.012L308.262 158H305.762ZM305.622 153.766V155.602H299.614V153.766H305.622ZM315.458 146.625H317.794V154.141C317.794 155.016 317.606 155.753 317.231 156.352C316.861 156.951 316.348 157.401 315.692 157.703C315.041 158.005 314.291 158.156 313.442 158.156C312.593 158.156 311.838 158.005 311.177 157.703C310.52 157.401 310.005 156.951 309.63 156.352C309.26 155.753 309.075 155.016 309.075 154.141V146.625H311.419V154.141C311.419 154.651 311.499 155.068 311.661 155.391C311.822 155.714 312.054 155.951 312.356 156.102C312.663 156.253 313.025 156.328 313.442 156.328C313.869 156.328 314.231 156.253 314.528 156.102C314.83 155.951 315.059 155.714 315.216 155.391C315.377 155.068 315.458 154.651 315.458 154.141V146.625ZM327.036 156.172V158H321.309V156.172H327.036ZM322.067 146.625V158H319.723V146.625H322.067ZM336.012 156.172V158H329.958V156.172H336.012ZM330.723 146.625V158H328.38V146.625H330.723ZM335.223 151.258V153.039H329.958V151.258H335.223ZM336.005 146.625V148.461H329.958V146.625H336.005ZM346.637 146.625V158H344.294L339.723 150.375V158H337.38V146.625H339.723L344.302 154.258V146.625H346.637ZM356.153 158H353.677L353.692 156.172H356.153C356.768 156.172 357.286 156.034 357.708 155.758C358.13 155.477 358.447 155.068 358.661 154.531C358.88 153.995 358.989 153.346 358.989 152.586V152.031C358.989 151.448 358.927 150.935 358.802 150.492C358.682 150.049 358.502 149.677 358.262 149.375C358.023 149.073 357.729 148.846 357.38 148.695C357.031 148.539 356.63 148.461 356.177 148.461H353.63V146.625H356.177C356.937 146.625 357.632 146.755 358.262 147.016C358.898 147.271 359.447 147.638 359.911 148.117C360.374 148.596 360.731 149.169 360.981 149.836C361.236 150.497 361.364 151.234 361.364 152.047V152.586C361.364 153.393 361.236 154.13 360.981 154.797C360.731 155.464 360.374 156.036 359.911 156.516C359.453 156.99 358.903 157.357 358.262 157.617C357.627 157.872 356.924 158 356.153 158ZM355.005 146.625V158H352.661V146.625H355.005ZM370.7 156.172V158H364.645V156.172H370.7ZM365.411 146.625V158H363.067V146.625H365.411ZM369.911 151.258V153.039H364.645V151.258H369.911ZM370.692 146.625V148.461H364.645V146.625H370.692ZM372.067 146.625H376.309C377.179 146.625 377.927 146.755 378.552 147.016C379.182 147.276 379.666 147.661 380.005 148.172C380.343 148.682 380.512 149.31 380.512 150.055C380.512 150.664 380.408 151.188 380.2 151.625C379.997 152.057 379.708 152.419 379.333 152.711C378.963 152.997 378.528 153.227 378.028 153.398L377.286 153.789H373.598L373.583 151.961H376.325C376.736 151.961 377.078 151.888 377.348 151.742C377.619 151.596 377.822 151.393 377.958 151.133C378.098 150.872 378.169 150.57 378.169 150.227C378.169 149.862 378.101 149.547 377.966 149.281C377.83 149.016 377.624 148.812 377.348 148.672C377.072 148.531 376.726 148.461 376.309 148.461H374.411V158H372.067V146.625ZM378.427 158L375.833 152.93L378.309 152.914L380.934 157.891V158H378.427ZM229.973 176.172V178H223.919V176.172H229.973ZM224.684 166.625V178H222.341V166.625H224.684ZM229.184 171.258V173.039H223.919V171.258H229.184ZM229.966 166.625V168.461H223.919V166.625H229.966ZM233.833 166.625V178H231.497V166.625H233.833ZM245.286 166.625V178H242.942L238.372 170.375V178H236.028V166.625H238.372L242.95 174.258V166.625H245.286ZM254.637 176.172V178H248.911V176.172H254.637ZM249.669 166.625V178H247.325V166.625H249.669ZM260.762 168.57L257.669 178H255.177L259.403 166.625H260.989L260.762 168.57ZM263.333 178L260.231 168.57L259.981 166.625H261.583L265.833 178H263.333ZM263.192 173.766V175.602H257.184V173.766H263.192ZM275.762 172.055V176.562C275.585 176.776 275.312 177.008 274.942 177.258C274.572 177.503 274.096 177.714 273.512 177.891C272.929 178.068 272.223 178.156 271.395 178.156C270.661 178.156 269.992 178.036 269.387 177.797C268.783 177.552 268.262 177.195 267.825 176.727C267.393 176.258 267.059 175.685 266.825 175.008C266.591 174.326 266.473 173.547 266.473 172.672V171.961C266.473 171.086 266.585 170.307 266.809 169.625C267.038 168.943 267.364 168.367 267.786 167.898C268.208 167.43 268.71 167.073 269.294 166.828C269.877 166.583 270.525 166.461 271.239 166.461C272.229 166.461 273.041 166.622 273.677 166.945C274.312 167.263 274.796 167.706 275.13 168.273C275.468 168.836 275.677 169.482 275.755 170.211H273.481C273.424 169.826 273.315 169.49 273.153 169.203C272.992 168.917 272.76 168.693 272.458 168.531C272.161 168.37 271.775 168.289 271.302 168.289C270.911 168.289 270.562 168.37 270.255 168.531C269.953 168.688 269.697 168.919 269.489 169.227C269.281 169.534 269.122 169.914 269.012 170.367C268.903 170.82 268.848 171.346 268.848 171.945V172.672C268.848 173.266 268.906 173.792 269.02 174.25C269.135 174.703 269.304 175.086 269.528 175.398C269.757 175.706 270.038 175.938 270.372 176.094C270.705 176.25 271.093 176.328 271.536 176.328C271.906 176.328 272.213 176.297 272.458 176.234C272.708 176.172 272.908 176.096 273.059 176.008C273.216 175.914 273.335 175.826 273.419 175.742V173.727H271.278V172.055H275.762ZM285.286 176.172V178H279.231V176.172H285.286ZM279.997 166.625V178H277.653V166.625H279.997ZM284.497 171.258V173.039H279.231V171.258H284.497ZM285.278 166.625V168.461H279.231V166.625H285.278ZM295.911 166.625V178H293.567L288.997 170.375V178H286.653V166.625H288.997L293.575 174.258V166.625H295.911ZM303.872 175.023C303.872 174.82 303.841 174.638 303.778 174.477C303.721 174.31 303.611 174.159 303.45 174.023C303.288 173.883 303.062 173.745 302.77 173.609C302.479 173.474 302.101 173.333 301.637 173.188C301.122 173.021 300.632 172.833 300.169 172.625C299.71 172.417 299.304 172.174 298.95 171.898C298.601 171.617 298.325 171.292 298.122 170.922C297.924 170.552 297.825 170.122 297.825 169.633C297.825 169.159 297.929 168.729 298.137 168.344C298.346 167.953 298.637 167.62 299.012 167.344C299.387 167.062 299.83 166.846 300.341 166.695C300.856 166.544 301.421 166.469 302.036 166.469C302.874 166.469 303.606 166.62 304.231 166.922C304.856 167.224 305.341 167.638 305.684 168.164C306.033 168.69 306.208 169.292 306.208 169.969H303.88C303.88 169.635 303.809 169.344 303.669 169.094C303.533 168.839 303.325 168.638 303.044 168.492C302.768 168.346 302.419 168.273 301.997 168.273C301.591 168.273 301.252 168.336 300.981 168.461C300.71 168.581 300.507 168.745 300.372 168.953C300.236 169.156 300.169 169.385 300.169 169.641C300.169 169.833 300.216 170.008 300.309 170.164C300.408 170.32 300.554 170.466 300.747 170.602C300.94 170.737 301.177 170.865 301.458 170.984C301.739 171.104 302.065 171.221 302.434 171.336C303.054 171.523 303.598 171.734 304.067 171.969C304.541 172.203 304.937 172.466 305.255 172.758C305.572 173.049 305.812 173.38 305.973 173.75C306.135 174.12 306.216 174.539 306.216 175.008C306.216 175.503 306.119 175.945 305.927 176.336C305.734 176.727 305.455 177.057 305.091 177.328C304.726 177.599 304.291 177.805 303.786 177.945C303.281 178.086 302.716 178.156 302.091 178.156C301.528 178.156 300.973 178.083 300.427 177.938C299.88 177.786 299.382 177.56 298.934 177.258C298.492 176.956 298.137 176.57 297.872 176.102C297.606 175.633 297.473 175.078 297.473 174.438H299.825C299.825 174.792 299.88 175.091 299.989 175.336C300.098 175.581 300.252 175.779 300.45 175.93C300.653 176.081 300.893 176.19 301.169 176.258C301.45 176.326 301.757 176.359 302.091 176.359C302.497 176.359 302.83 176.302 303.091 176.188C303.356 176.073 303.552 175.914 303.677 175.711C303.807 175.508 303.872 175.279 303.872 175.023ZM310.302 166.625V178H307.966V166.625H310.302ZM319.091 174.227H321.427C321.38 174.992 321.169 175.672 320.794 176.266C320.424 176.859 319.906 177.323 319.239 177.656C318.578 177.99 317.781 178.156 316.848 178.156C316.119 178.156 315.466 178.031 314.887 177.781C314.309 177.526 313.815 177.161 313.403 176.688C312.997 176.214 312.687 175.641 312.473 174.969C312.26 174.297 312.153 173.544 312.153 172.711V171.922C312.153 171.089 312.262 170.336 312.481 169.664C312.705 168.987 313.023 168.411 313.434 167.938C313.851 167.464 314.348 167.099 314.927 166.844C315.505 166.589 316.15 166.461 316.864 166.461C317.812 166.461 318.611 166.633 319.262 166.977C319.919 167.32 320.427 167.794 320.786 168.398C321.15 169.003 321.369 169.69 321.442 170.461H319.098C319.072 170.003 318.981 169.615 318.825 169.297C318.669 168.974 318.432 168.732 318.114 168.57C317.802 168.404 317.385 168.32 316.864 168.32C316.473 168.32 316.132 168.393 315.841 168.539C315.549 168.685 315.304 168.906 315.106 169.203C314.908 169.5 314.76 169.875 314.661 170.328C314.567 170.776 314.52 171.302 314.52 171.906V172.711C314.52 173.299 314.565 173.818 314.653 174.266C314.742 174.708 314.877 175.083 315.059 175.391C315.247 175.693 315.486 175.922 315.778 176.078C316.075 176.229 316.432 176.305 316.848 176.305C317.338 176.305 317.742 176.227 318.059 176.07C318.377 175.914 318.619 175.682 318.786 175.375C318.958 175.068 319.059 174.685 319.091 174.227ZM330.552 171.258V173.086H324.614V171.258H330.552ZM325.309 166.625V178H322.966V166.625H325.309ZM332.223 166.625V178H329.887V166.625H332.223ZM341.895 176.172V178H335.841V176.172H341.895ZM336.606 166.625V178H334.262V166.625H336.606ZM341.106 171.258V173.039H335.841V171.258H341.106ZM341.887 166.625V168.461H335.841V166.625H341.887ZM343.262 166.625H347.505C348.374 166.625 349.122 166.755 349.747 167.016C350.377 167.276 350.861 167.661 351.2 168.172C351.538 168.682 351.708 169.31 351.708 170.055C351.708 170.664 351.604 171.188 351.395 171.625C351.192 172.057 350.903 172.419 350.528 172.711C350.158 172.997 349.723 173.227 349.223 173.398L348.481 173.789H344.794L344.778 171.961H347.52C347.932 171.961 348.273 171.888 348.544 171.742C348.815 171.596 349.018 171.393 349.153 171.133C349.294 170.872 349.364 170.57 349.364 170.227C349.364 169.862 349.296 169.547 349.161 169.281C349.025 169.016 348.82 168.812 348.544 168.672C348.268 168.531 347.921 168.461 347.505 168.461H345.606V178H343.262V166.625ZM349.622 178L347.028 172.93L349.505 172.914L352.13 177.891V178H349.622ZM359.794 166.625H362.13V174.141C362.13 175.016 361.942 175.753 361.567 176.352C361.197 176.951 360.684 177.401 360.028 177.703C359.377 178.005 358.627 178.156 357.778 178.156C356.929 178.156 356.174 178.005 355.512 177.703C354.856 177.401 354.341 176.951 353.966 176.352C353.596 175.753 353.411 175.016 353.411 174.141V166.625H355.755V174.141C355.755 174.651 355.835 175.068 355.997 175.391C356.158 175.714 356.39 175.951 356.692 176.102C356.999 176.253 357.361 176.328 357.778 176.328C358.205 176.328 358.567 176.253 358.864 176.102C359.166 175.951 359.395 175.714 359.552 175.391C359.713 175.068 359.794 174.651 359.794 174.141V166.625ZM373.317 166.625V178H370.973L366.403 170.375V178H364.059V166.625H366.403L370.981 174.258V166.625H373.317ZM384.372 172.055V176.562C384.195 176.776 383.921 177.008 383.552 177.258C383.182 177.503 382.705 177.714 382.122 177.891C381.538 178.068 380.833 178.156 380.005 178.156C379.27 178.156 378.601 178.036 377.997 177.797C377.393 177.552 376.872 177.195 376.434 176.727C376.002 176.258 375.669 175.685 375.434 175.008C375.2 174.326 375.083 173.547 375.083 172.672V171.961C375.083 171.086 375.195 170.307 375.419 169.625C375.648 168.943 375.973 168.367 376.395 167.898C376.817 167.43 377.32 167.073 377.903 166.828C378.486 166.583 379.135 166.461 379.848 166.461C380.838 166.461 381.65 166.622 382.286 166.945C382.921 167.263 383.406 167.706 383.739 168.273C384.078 168.836 384.286 169.482 384.364 170.211H382.091C382.033 169.826 381.924 169.49 381.762 169.203C381.601 168.917 381.369 168.693 381.067 168.531C380.77 168.37 380.385 168.289 379.911 168.289C379.52 168.289 379.171 168.37 378.864 168.531C378.562 168.688 378.307 168.919 378.098 169.227C377.89 169.534 377.731 169.914 377.622 170.367C377.512 170.82 377.458 171.346 377.458 171.945V172.672C377.458 173.266 377.515 173.792 377.63 174.25C377.744 174.703 377.913 175.086 378.137 175.398C378.367 175.706 378.648 175.938 378.981 176.094C379.315 176.25 379.703 176.328 380.145 176.328C380.515 176.328 380.822 176.297 381.067 176.234C381.317 176.172 381.518 176.096 381.669 176.008C381.825 175.914 381.945 175.826 382.028 175.742V173.727H379.887V172.055H384.372Z" fill="#FF7141"/>
<path d="M71.8242 220.625V232H69.6758V220.625H71.8242ZM76.4102 225.539V227.234H71.2617V225.539H76.4102ZM77.0117 220.625V222.32H71.2617V220.625H77.0117ZM80.1758 225.273V232H78.1133V223.547H80.0664L80.1758 225.273ZM82.7461 223.492L82.7148 225.414C82.6003 225.393 82.4701 225.378 82.3242 225.367C82.1836 225.357 82.0508 225.352 81.9258 225.352C81.6081 225.352 81.3294 225.396 81.0898 225.484C80.8503 225.568 80.6497 225.69 80.4883 225.852C80.332 226.013 80.2122 226.211 80.1289 226.445C80.0456 226.674 79.9987 226.935 79.9883 227.227L79.543 227.172C79.543 226.635 79.5977 226.138 79.707 225.68C79.8164 225.221 79.9753 224.82 80.1836 224.477C80.3919 224.133 80.6523 223.867 80.9648 223.68C81.2826 223.487 81.6471 223.391 82.0586 223.391C82.1732 223.391 82.2956 223.401 82.4258 223.422C82.5612 223.438 82.668 223.461 82.7461 223.492ZM87.5195 232.156C86.8789 232.156 86.3034 232.052 85.793 231.844C85.2826 231.635 84.8477 231.346 84.4883 230.977C84.1341 230.602 83.8607 230.167 83.668 229.672C83.4805 229.172 83.3867 228.635 83.3867 228.062V227.75C83.3867 227.099 83.4805 226.508 83.668 225.977C83.8555 225.44 84.1211 224.979 84.4648 224.594C84.8086 224.208 85.2201 223.911 85.6992 223.703C86.1784 223.495 86.707 223.391 87.2852 223.391C87.8841 223.391 88.4128 223.492 88.8711 223.695C89.3294 223.893 89.7122 224.174 90.0195 224.539C90.3268 224.904 90.5586 225.341 90.7148 225.852C90.8711 226.357 90.9492 226.917 90.9492 227.531V228.398H84.3242V226.977H88.918V226.82C88.9076 226.492 88.8451 226.193 88.7305 225.922C88.6159 225.646 88.4388 225.427 88.1992 225.266C87.9596 225.099 87.6497 225.016 87.2695 225.016C86.9622 225.016 86.694 225.083 86.4648 225.219C86.2409 225.349 86.0534 225.536 85.9023 225.781C85.7565 226.021 85.6471 226.307 85.5742 226.641C85.5013 226.974 85.4648 227.344 85.4648 227.75V228.062C85.4648 228.417 85.5117 228.745 85.6055 229.047C85.7044 229.349 85.8477 229.612 86.0352 229.836C86.2279 230.055 86.457 230.227 86.7227 230.352C86.9935 230.471 87.3008 230.531 87.6445 230.531C88.0768 230.531 88.4674 230.448 88.8164 230.281C89.1706 230.109 89.4779 229.857 89.7383 229.523L90.7773 230.602C90.6003 230.862 90.3607 231.112 90.0586 231.352C89.7617 231.591 89.4023 231.786 88.9805 231.938C88.5586 232.083 88.0716 232.156 87.5195 232.156ZM94.5195 223.547V232H92.4492V223.547H94.5195ZM92.3086 221.336C92.3086 221.029 92.4128 220.773 92.6211 220.57C92.8346 220.367 93.1211 220.266 93.4805 220.266C93.8398 220.266 94.1237 220.367 94.332 220.57C94.5456 220.773 94.6523 221.029 94.6523 221.336C94.6523 221.638 94.5456 221.891 94.332 222.094C94.1237 222.297 93.8398 222.398 93.4805 222.398C93.1211 222.398 92.8346 222.297 92.6211 222.094C92.4128 221.891 92.3086 221.638 92.3086 221.336ZM98.8398 229.969L100.691 223.547H102.004L101.613 225.766L99.7461 232H98.6133L98.8398 229.969ZM97.8164 223.547L99.207 229.984L99.332 232H98.0273L95.8086 223.547H97.8164ZM103.723 229.891L105.082 223.547H107.082L104.879 232H103.574L103.723 229.891ZM102.207 223.547L104.043 229.906L104.285 232H103.152L101.27 225.766L100.887 223.547H102.207ZM110.488 223.547V232H108.418V223.547H110.488ZM108.277 221.336C108.277 221.029 108.382 220.773 108.59 220.57C108.803 220.367 109.09 220.266 109.449 220.266C109.809 220.266 110.092 220.367 110.301 220.57C110.514 220.773 110.621 221.029 110.621 221.336C110.621 221.638 110.514 221.891 110.301 222.094C110.092 222.297 109.809 222.398 109.449 222.398C109.09 222.398 108.803 222.297 108.59 222.094C108.382 221.891 108.277 221.638 108.277 221.336ZM114.645 220V232H112.574V220H114.645ZM118.801 220V232H116.73V220H118.801ZM122.957 223.547V232H120.887V223.547H122.957ZM120.746 221.336C120.746 221.029 120.85 220.773 121.059 220.57C121.272 220.367 121.559 220.266 121.918 220.266C122.277 220.266 122.561 220.367 122.77 220.57C122.983 220.773 123.09 221.029 123.09 221.336C123.09 221.638 122.983 221.891 122.77 222.094C122.561 222.297 122.277 222.398 121.918 222.398C121.559 222.398 121.272 222.297 121.059 222.094C120.85 221.891 120.746 221.638 120.746 221.336ZM130.301 223.547H132.176V231.742C132.176 232.508 132.009 233.156 131.676 233.688C131.348 234.224 130.887 234.63 130.293 234.906C129.699 235.188 129.009 235.328 128.223 235.328C127.884 235.328 127.517 235.281 127.121 235.188C126.73 235.094 126.353 234.945 125.988 234.742C125.629 234.544 125.329 234.286 125.09 233.969L126.02 232.75C126.301 233.078 126.618 233.326 126.973 233.492C127.327 233.664 127.71 233.75 128.121 233.75C128.538 233.75 128.892 233.672 129.184 233.516C129.48 233.365 129.707 233.141 129.863 232.844C130.025 232.552 130.105 232.193 130.105 231.766V225.477L130.301 223.547ZM124.59 227.875V227.711C124.59 227.065 124.668 226.479 124.824 225.953C124.98 225.422 125.204 224.966 125.496 224.586C125.793 224.206 126.15 223.911 126.566 223.703C126.988 223.495 127.462 223.391 127.988 223.391C128.546 223.391 129.014 223.492 129.395 223.695C129.78 223.898 130.098 224.188 130.348 224.562C130.603 224.938 130.801 225.383 130.941 225.898C131.087 226.409 131.199 226.971 131.277 227.586V228.031C131.204 228.63 131.087 229.18 130.926 229.68C130.77 230.18 130.561 230.617 130.301 230.992C130.04 231.362 129.717 231.648 129.332 231.852C128.947 232.055 128.493 232.156 127.973 232.156C127.452 232.156 126.983 232.049 126.566 231.836C126.15 231.622 125.793 231.323 125.496 230.938C125.204 230.552 124.98 230.099 124.824 229.578C124.668 229.057 124.59 228.49 124.59 227.875ZM126.652 227.711V227.875C126.652 228.24 126.689 228.581 126.762 228.898C126.835 229.216 126.947 229.497 127.098 229.742C127.249 229.982 127.439 230.169 127.668 230.305C127.897 230.44 128.171 230.508 128.488 230.508C128.915 230.508 129.264 230.419 129.535 230.242C129.811 230.06 130.02 229.812 130.16 229.5C130.306 229.182 130.4 228.826 130.441 228.43V227.203C130.415 226.891 130.358 226.602 130.27 226.336C130.186 226.07 130.069 225.841 129.918 225.648C129.767 225.456 129.574 225.305 129.34 225.195C129.105 225.086 128.827 225.031 128.504 225.031C128.191 225.031 127.918 225.102 127.684 225.242C127.449 225.378 127.257 225.568 127.105 225.812C126.954 226.057 126.84 226.341 126.762 226.664C126.689 226.987 126.652 227.336 126.652 227.711ZM137.832 232.156C137.191 232.156 136.616 232.052 136.105 231.844C135.595 231.635 135.16 231.346 134.801 230.977C134.447 230.602 134.173 230.167 133.98 229.672C133.793 229.172 133.699 228.635 133.699 228.062V227.75C133.699 227.099 133.793 226.508 133.98 225.977C134.168 225.44 134.434 224.979 134.777 224.594C135.121 224.208 135.533 223.911 136.012 223.703C136.491 223.495 137.02 223.391 137.598 223.391C138.197 223.391 138.725 223.492 139.184 223.695C139.642 223.893 140.025 224.174 140.332 224.539C140.639 224.904 140.871 225.341 141.027 225.852C141.184 226.357 141.262 226.917 141.262 227.531V228.398H134.637V226.977H139.23V226.82C139.22 226.492 139.158 226.193 139.043 225.922C138.928 225.646 138.751 225.427 138.512 225.266C138.272 225.099 137.962 225.016 137.582 225.016C137.275 225.016 137.007 225.083 136.777 225.219C136.553 225.349 136.366 225.536 136.215 225.781C136.069 226.021 135.96 226.307 135.887 226.641C135.814 226.974 135.777 227.344 135.777 227.75V228.062C135.777 228.417 135.824 228.745 135.918 229.047C136.017 229.349 136.16 229.612 136.348 229.836C136.54 230.055 136.77 230.227 137.035 230.352C137.306 230.471 137.613 230.531 137.957 230.531C138.389 230.531 138.78 230.448 139.129 230.281C139.483 230.109 139.79 229.857 140.051 229.523L141.09 230.602C140.913 230.862 140.673 231.112 140.371 231.352C140.074 231.591 139.715 231.786 139.293 231.938C138.871 232.083 138.384 232.156 137.832 232.156ZM17.7773 250.312V252H11.7305V250.312H17.7773ZM12.3867 240.625V252H10.2383V240.625H12.3867ZM16.9883 245.32V246.969H11.7305V245.32H16.9883ZM17.7539 240.625V242.32H11.7305V240.625H17.7539ZM21.3008 243.547V252H19.2305V243.547H21.3008ZM19.0898 241.336C19.0898 241.029 19.194 240.773 19.4023 240.57C19.6159 240.367 19.9023 240.266 20.2617 240.266C20.6211 240.266 20.9049 240.367 21.1133 240.57C21.3268 240.773 21.4336 241.029 21.4336 241.336C21.4336 241.638 21.3268 241.891 21.1133 242.094C20.9049 242.297 20.6211 242.398 20.2617 242.398C19.9023 242.398 19.6159 242.297 19.4023 242.094C19.194 241.891 19.0898 241.638 19.0898 241.336ZM25.293 245.352V252H23.2305V243.547H25.168L25.293 245.352ZM24.9648 247.469H24.3555C24.3607 246.854 24.444 246.297 24.6055 245.797C24.7669 245.297 24.9935 244.867 25.2852 244.508C25.582 244.148 25.9336 243.872 26.3398 243.68C26.7461 243.487 27.1992 243.391 27.6992 243.391C28.1055 243.391 28.4727 243.448 28.8008 243.562C29.1289 243.677 29.4102 243.859 29.6445 244.109C29.8841 244.359 30.0664 244.688 30.1914 245.094C30.3216 245.495 30.3867 245.99 30.3867 246.578V252H28.3086V246.562C28.3086 246.177 28.2513 245.872 28.1367 245.648C28.0273 245.424 27.8659 245.266 27.6523 245.172C27.444 245.078 27.1862 245.031 26.8789 245.031C26.5612 245.031 26.2826 245.096 26.043 245.227C25.8086 245.352 25.6107 245.526 25.4492 245.75C25.293 245.974 25.1732 246.232 25.0898 246.523C25.0065 246.815 24.9648 247.13 24.9648 247.469ZM34.3945 240V252H32.3242V240H34.3945ZM41.0195 250.203V246.305C41.0195 246.018 40.9701 245.771 40.8711 245.562C40.7721 245.354 40.6211 245.193 40.418 245.078C40.2148 244.964 39.957 244.906 39.6445 244.906C39.3685 244.906 39.1263 244.953 38.918 245.047C38.7148 245.141 38.5586 245.273 38.4492 245.445C38.3398 245.612 38.2852 245.805 38.2852 246.023H36.2148C36.2148 245.674 36.2982 245.344 36.4648 245.031C36.6315 244.714 36.8685 244.432 37.1758 244.188C37.4883 243.938 37.8607 243.742 38.293 243.602C38.7305 243.461 39.2201 243.391 39.7617 243.391C40.4023 243.391 40.9727 243.5 41.4727 243.719C41.9779 243.932 42.3737 244.255 42.6602 244.688C42.9518 245.12 43.0977 245.664 43.0977 246.32V250.008C43.0977 250.43 43.1237 250.792 43.1758 251.094C43.2331 251.391 43.3164 251.648 43.4258 251.867V252H41.3242C41.2253 251.786 41.1497 251.516 41.0977 251.188C41.0456 250.854 41.0195 250.526 41.0195 250.203ZM41.3086 246.852L41.3242 248.078H40.0195C39.6966 248.078 39.4128 248.112 39.168 248.18C38.9232 248.242 38.7227 248.336 38.5664 248.461C38.4102 248.581 38.293 248.727 38.2148 248.898C38.1367 249.065 38.0977 249.255 38.0977 249.469C38.0977 249.677 38.1445 249.865 38.2383 250.031C38.3372 250.198 38.4779 250.331 38.6602 250.43C38.8477 250.523 39.0664 250.57 39.3164 250.57C39.681 250.57 39.9987 250.497 40.2695 250.352C40.5404 250.201 40.7513 250.018 40.9023 249.805C41.0534 249.591 41.1341 249.388 41.1445 249.195L41.7383 250.086C41.6654 250.299 41.556 250.526 41.4102 250.766C41.2643 251.005 41.0768 251.229 40.8477 251.438C40.6185 251.646 40.3424 251.818 40.0195 251.953C39.6966 252.089 39.3216 252.156 38.8945 252.156C38.3477 252.156 37.8581 252.047 37.4258 251.828C36.9935 251.609 36.6523 251.31 36.4023 250.93C36.1523 250.549 36.0273 250.117 36.0273 249.633C36.0273 249.185 36.1107 248.789 36.2773 248.445C36.444 248.102 36.6914 247.812 37.0195 247.578C37.3477 247.339 37.7539 247.159 38.2383 247.039C38.7279 246.914 39.2878 246.852 39.918 246.852H41.3086ZM50.332 243.547H52.207V251.742C52.207 252.508 52.0404 253.156 51.707 253.688C51.3789 254.224 50.918 254.63 50.3242 254.906C49.7305 255.188 49.0404 255.328 48.2539 255.328C47.9154 255.328 47.5482 255.281 47.1523 255.188C46.7617 255.094 46.3841 254.945 46.0195 254.742C45.6602 254.544 45.3607 254.286 45.1211 253.969L46.0508 252.75C46.332 253.078 46.6497 253.326 47.0039 253.492C47.3581 253.664 47.7409 253.75 48.1523 253.75C48.569 253.75 48.9232 253.672 49.2148 253.516C49.5117 253.365 49.7383 253.141 49.8945 252.844C50.056 252.552 50.1367 252.193 50.1367 251.766V245.477L50.332 243.547ZM44.6211 247.875V247.711C44.6211 247.065 44.6992 246.479 44.8555 245.953C45.0117 245.422 45.2357 244.966 45.5273 244.586C45.8242 244.206 46.181 243.911 46.5977 243.703C47.0195 243.495 47.4935 243.391 48.0195 243.391C48.5768 243.391 49.0456 243.492 49.4258 243.695C49.8112 243.898 50.1289 244.188 50.3789 244.562C50.6341 244.938 50.832 245.383 50.9727 245.898C51.1185 246.409 51.2305 246.971 51.3086 247.586V248.031C51.2357 248.63 51.1185 249.18 50.957 249.68C50.8008 250.18 50.5924 250.617 50.332 250.992C50.0716 251.362 49.7487 251.648 49.3633 251.852C48.9779 252.055 48.5247 252.156 48.0039 252.156C47.4831 252.156 47.0143 252.049 46.5977 251.836C46.181 251.622 45.8242 251.323 45.5273 250.938C45.2357 250.552 45.0117 250.099 44.8555 249.578C44.6992 249.057 44.6211 248.49 44.6211 247.875ZM46.6836 247.711V247.875C46.6836 248.24 46.7201 248.581 46.793 248.898C46.8659 249.216 46.9779 249.497 47.1289 249.742C47.2799 249.982 47.4701 250.169 47.6992 250.305C47.9284 250.44 48.2018 250.508 48.5195 250.508C48.9466 250.508 49.2956 250.419 49.5664 250.242C49.8424 250.06 50.0508 249.812 50.1914 249.5C50.3372 249.182 50.431 248.826 50.4727 248.43V247.203C50.4466 246.891 50.3893 246.602 50.3008 246.336C50.2174 246.07 50.1003 245.841 49.9492 245.648C49.7982 245.456 49.6055 245.305 49.3711 245.195C49.1367 245.086 48.8581 245.031 48.5352 245.031C48.2227 245.031 47.9492 245.102 47.7148 245.242C47.4805 245.378 47.2878 245.568 47.1367 245.812C46.9857 246.057 46.8711 246.341 46.793 246.664C46.7201 246.987 46.6836 247.336 46.6836 247.711ZM57.8633 252.156C57.2227 252.156 56.6471 252.052 56.1367 251.844C55.6263 251.635 55.1914 251.346 54.832 250.977C54.4779 250.602 54.2044 250.167 54.0117 249.672C53.8242 249.172 53.7305 248.635 53.7305 248.062V247.75C53.7305 247.099 53.8242 246.508 54.0117 245.977C54.1992 245.44 54.4648 244.979 54.8086 244.594C55.1523 244.208 55.5638 243.911 56.043 243.703C56.5221 243.495 57.0508 243.391 57.6289 243.391C58.2279 243.391 58.7565 243.492 59.2148 243.695C59.6732 243.893 60.056 244.174 60.3633 244.539C60.6706 244.904 60.9023 245.341 61.0586 245.852C61.2148 246.357 61.293 246.917 61.293 247.531V248.398H54.668V246.977H59.2617V246.82C59.2513 246.492 59.1888 246.193 59.0742 245.922C58.9596 245.646 58.7826 245.427 58.543 245.266C58.3034 245.099 57.9935 245.016 57.6133 245.016C57.306 245.016 57.0378 245.083 56.8086 245.219C56.5846 245.349 56.3971 245.536 56.2461 245.781C56.1003 246.021 55.9909 246.307 55.918 246.641C55.8451 246.974 55.8086 247.344 55.8086 247.75V248.062C55.8086 248.417 55.8555 248.745 55.9492 249.047C56.0482 249.349 56.1914 249.612 56.3789 249.836C56.5716 250.055 56.8008 250.227 57.0664 250.352C57.3372 250.471 57.6445 250.531 57.9883 250.531C58.4206 250.531 58.8112 250.448 59.1602 250.281C59.5143 250.109 59.8216 249.857 60.082 249.523L61.1211 250.602C60.944 250.862 60.7044 251.112 60.4023 251.352C60.1055 251.591 59.7461 251.786 59.3242 251.938C58.9023 252.083 58.4154 252.156 57.8633 252.156ZM64.6992 245.352V252H62.6367V243.547H64.5742L64.6992 245.352ZM64.3711 247.469H63.7617C63.7669 246.854 63.8503 246.297 64.0117 245.797C64.1732 245.297 64.3997 244.867 64.6914 244.508C64.9883 244.148 65.3398 243.872 65.7461 243.68C66.1523 243.487 66.6055 243.391 67.1055 243.391C67.5117 243.391 67.8789 243.448 68.207 243.562C68.5352 243.677 68.8164 243.859 69.0508 244.109C69.2904 244.359 69.4727 244.688 69.5977 245.094C69.7279 245.495 69.793 245.99 69.793 246.578V252H67.7148V246.562C67.7148 246.177 67.6576 245.872 67.543 245.648C67.4336 245.424 67.2721 245.266 67.0586 245.172C66.8503 245.078 66.5924 245.031 66.2852 245.031C65.9674 245.031 65.6888 245.096 65.4492 245.227C65.2148 245.352 65.0169 245.526 64.8555 245.75C64.6992 245.974 64.5794 246.232 64.4961 246.523C64.4128 246.815 64.3711 247.13 64.3711 247.469ZM76.2617 249.688C76.2617 249.51 76.2148 249.352 76.1211 249.211C76.0273 249.07 75.8503 248.943 75.5898 248.828C75.3346 248.708 74.9596 248.596 74.4648 248.492C74.0273 248.398 73.6237 248.281 73.2539 248.141C72.8841 248 72.5664 247.831 72.3008 247.633C72.0352 247.43 71.8268 247.193 71.6758 246.922C71.5299 246.646 71.457 246.328 71.457 245.969C71.457 245.62 71.5326 245.292 71.6836 244.984C71.8346 244.672 72.0534 244.398 72.3398 244.164C72.6263 243.924 72.9753 243.737 73.3867 243.602C73.7982 243.461 74.2617 243.391 74.7773 243.391C75.4961 243.391 76.1133 243.508 76.6289 243.742C77.1497 243.977 77.5482 244.299 77.8242 244.711C78.1003 245.117 78.2383 245.576 78.2383 246.086H76.1758C76.1758 245.862 76.1237 245.659 76.0195 245.477C75.9206 245.294 75.7669 245.148 75.5586 245.039C75.3503 244.924 75.0872 244.867 74.7695 244.867C74.4831 244.867 74.2409 244.914 74.043 245.008C73.8503 245.102 73.7044 245.224 73.6055 245.375C73.5065 245.526 73.457 245.693 73.457 245.875C73.457 246.01 73.4831 246.133 73.5352 246.242C73.5924 246.346 73.6836 246.443 73.8086 246.531C73.9336 246.62 74.1029 246.701 74.3164 246.773C74.5352 246.846 74.8034 246.917 75.1211 246.984C75.7513 247.109 76.3008 247.276 76.7695 247.484C77.2435 247.688 77.6133 247.958 77.8789 248.297C78.1445 248.635 78.2773 249.068 78.2773 249.594C78.2773 249.969 78.1966 250.312 78.0352 250.625C77.8737 250.932 77.6393 251.201 77.332 251.43C77.0247 251.659 76.6576 251.839 76.2305 251.969C75.8034 252.094 75.3216 252.156 74.7852 252.156C74.0091 252.156 73.3529 252.018 72.8164 251.742C72.2799 251.461 71.8737 251.107 71.5977 250.68C71.3216 250.247 71.1836 249.799 71.1836 249.336H73.1602C73.1758 249.664 73.2643 249.927 73.4258 250.125C73.5872 250.323 73.7904 250.466 74.0352 250.555C74.2852 250.638 74.5482 250.68 74.8242 250.68C75.1367 250.68 75.3997 250.638 75.6133 250.555C75.8268 250.466 75.9883 250.349 76.0977 250.203C76.207 250.052 76.2617 249.88 76.2617 249.688ZM82.0352 243.547V252H79.9648V243.547H82.0352ZM79.8242 241.336C79.8242 241.029 79.9284 240.773 80.1367 240.57C80.3503 240.367 80.6367 240.266 80.9961 240.266C81.3555 240.266 81.6393 240.367 81.8477 240.57C82.0612 240.773 82.168 241.029 82.168 241.336C82.168 241.638 82.0612 241.891 81.8477 242.094C81.6393 242.297 81.3555 242.398 80.9961 242.398C80.6367 242.398 80.3503 242.297 80.1367 242.094C79.9284 241.891 79.8242 241.638 79.8242 241.336ZM87.4727 250.531C87.7643 250.531 88.0247 250.474 88.2539 250.359C88.4831 250.245 88.6654 250.083 88.8008 249.875C88.9414 249.667 89.0169 249.424 89.0273 249.148H90.9727C90.9622 249.721 90.8008 250.234 90.4883 250.688C90.1758 251.141 89.7591 251.5 89.2383 251.766C88.7227 252.026 88.1445 252.156 87.5039 252.156C86.8529 252.156 86.2852 252.047 85.8008 251.828C85.3164 251.609 84.9128 251.305 84.5898 250.914C84.2721 250.523 84.0326 250.07 83.8711 249.555C83.7148 249.039 83.6367 248.487 83.6367 247.898V247.648C83.6367 247.06 83.7148 246.508 83.8711 245.992C84.0326 245.477 84.2721 245.023 84.5898 244.633C84.9128 244.242 85.3164 243.938 85.8008 243.719C86.2852 243.5 86.8503 243.391 87.4961 243.391C88.1784 243.391 88.7773 243.523 89.293 243.789C89.8138 244.055 90.2201 244.43 90.5117 244.914C90.8086 245.398 90.9622 245.969 90.9727 246.625H89.0273C89.0169 246.323 88.9492 246.052 88.8242 245.812C88.6992 245.573 88.5221 245.38 88.293 245.234C88.0638 245.089 87.7852 245.016 87.457 245.016C87.1081 245.016 86.8164 245.089 86.582 245.234C86.3529 245.38 86.1732 245.581 86.043 245.836C85.918 246.086 85.8294 246.367 85.7773 246.68C85.7305 246.987 85.707 247.31 85.707 247.648V247.898C85.707 248.242 85.7305 248.57 85.7773 248.883C85.8294 249.195 85.918 249.477 86.043 249.727C86.1732 249.971 86.3529 250.167 86.582 250.312C86.8164 250.458 87.1133 250.531 87.4727 250.531ZM94.3711 240V252H92.3008V240H94.3711ZM94.043 247.469H93.4336C93.4336 246.88 93.5117 246.339 93.668 245.844C93.8242 245.349 94.0456 244.919 94.332 244.555C94.6185 244.185 94.9596 243.898 95.3555 243.695C95.7565 243.492 96.1992 243.391 96.6836 243.391C97.1003 243.391 97.4779 243.451 97.8164 243.57C98.1602 243.685 98.4544 243.87 98.6992 244.125C98.944 244.38 99.1315 244.714 99.2617 245.125C99.3971 245.531 99.4648 246.026 99.4648 246.609V252H97.3867V246.594C97.3867 246.203 97.3294 245.896 97.2148 245.672C97.1003 245.443 96.9362 245.279 96.7227 245.18C96.5143 245.081 96.2565 245.031 95.9492 245.031C95.6159 245.031 95.3294 245.096 95.0898 245.227C94.8503 245.352 94.6523 245.526 94.4961 245.75C94.3451 245.974 94.2305 246.232 94.1523 246.523C94.0794 246.815 94.043 247.13 94.043 247.469ZM105.082 252.156C104.441 252.156 103.866 252.052 103.355 251.844C102.845 251.635 102.41 251.346 102.051 250.977C101.697 250.602 101.423 250.167 101.23 249.672C101.043 249.172 100.949 248.635 100.949 248.062V247.75C100.949 247.099 101.043 246.508 101.23 245.977C101.418 245.44 101.684 244.979 102.027 244.594C102.371 244.208 102.783 243.911 103.262 243.703C103.741 243.495 104.27 243.391 104.848 243.391C105.447 243.391 105.975 243.492 106.434 243.695C106.892 243.893 107.275 244.174 107.582 244.539C107.889 244.904 108.121 245.341 108.277 245.852C108.434 246.357 108.512 246.917 108.512 247.531V248.398H101.887V246.977H106.48V246.82C106.47 246.492 106.408 246.193 106.293 245.922C106.178 245.646 106.001 245.427 105.762 245.266C105.522 245.099 105.212 245.016 104.832 245.016C104.525 245.016 104.257 245.083 104.027 245.219C103.803 245.349 103.616 245.536 103.465 245.781C103.319 246.021 103.21 246.307 103.137 246.641C103.064 246.974 103.027 247.344 103.027 247.75V248.062C103.027 248.417 103.074 248.745 103.168 249.047C103.267 249.349 103.41 249.612 103.598 249.836C103.79 250.055 104.02 250.227 104.285 250.352C104.556 250.471 104.863 250.531 105.207 250.531C105.639 250.531 106.03 250.448 106.379 250.281C106.733 250.109 107.04 249.857 107.301 249.523L108.34 250.602C108.163 250.862 107.923 251.112 107.621 251.352C107.324 251.591 106.965 251.786 106.543 251.938C106.121 252.083 105.634 252.156 105.082 252.156ZM111.957 245.273V252H109.895V243.547H111.848L111.957 245.273ZM114.527 243.492L114.496 245.414C114.382 245.393 114.251 245.378 114.105 245.367C113.965 245.357 113.832 245.352 113.707 245.352C113.389 245.352 113.111 245.396 112.871 245.484C112.632 245.568 112.431 245.69 112.27 245.852C112.113 246.013 111.993 246.211 111.91 246.445C111.827 246.674 111.78 246.935 111.77 247.227L111.324 247.172C111.324 246.635 111.379 246.138 111.488 245.68C111.598 245.221 111.757 244.82 111.965 244.477C112.173 244.133 112.434 243.867 112.746 243.68C113.064 243.487 113.428 243.391 113.84 243.391C113.954 243.391 114.077 243.401 114.207 243.422C114.342 243.438 114.449 243.461 114.527 243.492ZM120.691 249.992V243.547H122.77V252H120.816L120.691 249.992ZM120.957 248.242L121.598 248.227C121.598 248.794 121.535 249.318 121.41 249.797C121.285 250.276 121.09 250.693 120.824 251.047C120.564 251.396 120.233 251.669 119.832 251.867C119.431 252.06 118.957 252.156 118.41 252.156C117.993 252.156 117.613 252.099 117.27 251.984C116.926 251.865 116.629 251.68 116.379 251.43C116.134 251.174 115.944 250.849 115.809 250.453C115.673 250.052 115.605 249.57 115.605 249.008V243.547H117.668V249.023C117.668 249.305 117.699 249.539 117.762 249.727C117.829 249.914 117.921 250.068 118.035 250.188C118.155 250.302 118.293 250.385 118.449 250.438C118.611 250.484 118.783 250.508 118.965 250.508C119.465 250.508 119.858 250.409 120.145 250.211C120.436 250.008 120.645 249.737 120.77 249.398C120.895 249.055 120.957 248.669 120.957 248.242ZM126.621 245.352V252H124.559V243.547H126.496L126.621 245.352ZM126.293 247.469H125.684C125.689 246.854 125.772 246.297 125.934 245.797C126.095 245.297 126.322 244.867 126.613 244.508C126.91 244.148 127.262 243.872 127.668 243.68C128.074 243.487 128.527 243.391 129.027 243.391C129.434 243.391 129.801 243.448 130.129 243.562C130.457 243.677 130.738 243.859 130.973 244.109C131.212 244.359 131.395 244.688 131.52 245.094C131.65 245.495 131.715 245.99 131.715 246.578V252H129.637V246.562C129.637 246.177 129.579 245.872 129.465 245.648C129.355 245.424 129.194 245.266 128.98 245.172C128.772 245.078 128.514 245.031 128.207 245.031C127.889 245.031 127.611 245.096 127.371 245.227C127.137 245.352 126.939 245.526 126.777 245.75C126.621 245.974 126.501 246.232 126.418 246.523C126.335 246.815 126.293 247.13 126.293 247.469ZM138.91 243.547H140.785V251.742C140.785 252.508 140.618 253.156 140.285 253.688C139.957 254.224 139.496 254.63 138.902 254.906C138.309 255.188 137.618 255.328 136.832 255.328C136.493 255.328 136.126 255.281 135.73 255.188C135.34 255.094 134.962 254.945 134.598 254.742C134.238 254.544 133.939 254.286 133.699 253.969L134.629 252.75C134.91 253.078 135.228 253.326 135.582 253.492C135.936 253.664 136.319 253.75 136.73 253.75C137.147 253.75 137.501 253.672 137.793 253.516C138.09 253.365 138.316 253.141 138.473 252.844C138.634 252.552 138.715 252.193 138.715 251.766V245.477L138.91 243.547ZM133.199 247.875V247.711C133.199 247.065 133.277 246.479 133.434 245.953C133.59 245.422 133.814 244.966 134.105 244.586C134.402 244.206 134.759 243.911 135.176 243.703C135.598 243.495 136.072 243.391 136.598 243.391C137.155 243.391 137.624 243.492 138.004 243.695C138.389 243.898 138.707 244.188 138.957 244.562C139.212 244.938 139.41 245.383 139.551 245.898C139.697 246.409 139.809 246.971 139.887 247.586V248.031C139.814 248.63 139.697 249.18 139.535 249.68C139.379 250.18 139.171 250.617 138.91 250.992C138.65 251.362 138.327 251.648 137.941 251.852C137.556 252.055 137.103 252.156 136.582 252.156C136.061 252.156 135.592 252.049 135.176 251.836C134.759 251.622 134.402 251.323 134.105 250.938C133.814 250.552 133.59 250.099 133.434 249.578C133.277 249.057 133.199 248.49 133.199 247.875ZM135.262 247.711V247.875C135.262 248.24 135.298 248.581 135.371 248.898C135.444 249.216 135.556 249.497 135.707 249.742C135.858 249.982 136.048 250.169 136.277 250.305C136.507 250.44 136.78 250.508 137.098 250.508C137.525 250.508 137.874 250.419 138.145 250.242C138.421 250.06 138.629 249.812 138.77 249.5C138.915 249.182 139.009 248.826 139.051 248.43V247.203C139.025 246.891 138.967 246.602 138.879 246.336C138.796 246.07 138.678 245.841 138.527 245.648C138.376 245.456 138.184 245.305 137.949 245.195C137.715 245.086 137.436 245.031 137.113 245.031C136.801 245.031 136.527 245.102 136.293 245.242C136.059 245.378 135.866 245.568 135.715 245.812C135.564 246.057 135.449 246.341 135.371 246.664C135.298 246.987 135.262 247.336 135.262 247.711Z" fill="#3C3C3B"/>
<path d="M252.652 12.0469C252.652 11.8281 252.618 11.6328 252.551 11.4609C252.488 11.2839 252.371 11.125 252.199 10.9844C252.033 10.8385 251.796 10.6979 251.488 10.5625C251.186 10.4219 250.796 10.276 250.316 10.125C249.785 9.95833 249.29 9.77083 248.832 9.5625C248.374 9.35417 247.97 9.11198 247.621 8.83594C247.277 8.5599 247.009 8.24219 246.816 7.88281C246.624 7.51823 246.527 7.09635 246.527 6.61719C246.527 6.14844 246.626 5.72135 246.824 5.33594C247.027 4.95052 247.314 4.61979 247.684 4.34375C248.053 4.0625 248.488 3.84635 248.988 3.69531C249.493 3.54427 250.051 3.46875 250.66 3.46875C251.504 3.46875 252.233 3.6224 252.848 3.92969C253.467 4.23698 253.947 4.65365 254.285 5.17969C254.624 5.70573 254.793 6.29688 254.793 6.95312H252.652C252.652 6.59896 252.577 6.28646 252.426 6.01562C252.28 5.74479 252.056 5.53125 251.754 5.375C251.457 5.21875 251.082 5.14062 250.629 5.14062C250.191 5.14062 249.827 5.20573 249.535 5.33594C249.249 5.46615 249.033 5.64323 248.887 5.86719C248.746 6.09115 248.676 6.34115 248.676 6.61719C248.676 6.82552 248.725 7.01302 248.824 7.17969C248.923 7.34115 249.072 7.49479 249.27 7.64062C249.467 7.78125 249.712 7.91406 250.004 8.03906C250.301 8.15885 250.645 8.27865 251.035 8.39844C251.66 8.58594 252.207 8.79427 252.676 9.02344C253.15 9.2526 253.543 9.51302 253.855 9.80469C254.173 10.0964 254.41 10.4245 254.566 10.7891C254.728 11.1536 254.809 11.5677 254.809 12.0312C254.809 12.5208 254.712 12.9583 254.52 13.3438C254.327 13.7292 254.051 14.0573 253.691 14.3281C253.332 14.599 252.9 14.8047 252.395 14.9453C251.895 15.0859 251.335 15.1562 250.715 15.1562C250.163 15.1562 249.616 15.0833 249.074 14.9375C248.538 14.7865 248.051 14.5625 247.613 14.2656C247.176 13.9635 246.827 13.5833 246.566 13.125C246.306 12.6615 246.176 12.1198 246.176 11.5H248.332C248.332 11.8594 248.389 12.1667 248.504 12.4219C248.624 12.6719 248.79 12.8776 249.004 13.0391C249.223 13.1953 249.478 13.3099 249.77 13.3828C250.061 13.4557 250.376 13.4922 250.715 13.4922C251.152 13.4922 251.512 13.4323 251.793 13.3125C252.079 13.1875 252.293 13.0156 252.434 12.7969C252.579 12.5781 252.652 12.3281 252.652 12.0469ZM260.309 6.54688V8.03125H255.465V6.54688H260.309ZM256.762 4.46875H258.832V12.5625C258.832 12.8125 258.866 13.0052 258.934 13.1406C259.001 13.276 259.103 13.3672 259.238 13.4141C259.374 13.4609 259.535 13.4844 259.723 13.4844C259.858 13.4844 259.983 13.4766 260.098 13.4609C260.212 13.4453 260.309 13.4297 260.387 13.4141L260.395 14.9609C260.223 15.0182 260.027 15.0651 259.809 15.1016C259.595 15.138 259.353 15.1562 259.082 15.1562C258.618 15.1562 258.212 15.0781 257.863 14.9219C257.514 14.7604 257.243 14.5026 257.051 14.1484C256.858 13.7891 256.762 13.3151 256.762 12.7266V4.46875ZM266.34 13.2031V9.30469C266.34 9.01823 266.29 8.77083 266.191 8.5625C266.092 8.35417 265.941 8.19271 265.738 8.07812C265.535 7.96354 265.277 7.90625 264.965 7.90625C264.689 7.90625 264.447 7.95312 264.238 8.04688C264.035 8.14062 263.879 8.27344 263.77 8.44531C263.66 8.61198 263.605 8.80469 263.605 9.02344H261.535C261.535 8.67448 261.618 8.34375 261.785 8.03125C261.952 7.71354 262.189 7.43229 262.496 7.1875C262.809 6.9375 263.181 6.74219 263.613 6.60156C264.051 6.46094 264.54 6.39062 265.082 6.39062C265.723 6.39062 266.293 6.5 266.793 6.71875C267.298 6.93229 267.694 7.25521 267.98 7.6875C268.272 8.11979 268.418 8.66406 268.418 9.32031V13.0078C268.418 13.4297 268.444 13.7917 268.496 14.0938C268.553 14.3906 268.637 14.6484 268.746 14.8672V15H266.645C266.546 14.7865 266.47 14.5156 266.418 14.1875C266.366 13.8542 266.34 13.526 266.34 13.2031ZM266.629 9.85156L266.645 11.0781H265.34C265.017 11.0781 264.733 11.112 264.488 11.1797C264.243 11.2422 264.043 11.3359 263.887 11.4609C263.73 11.5807 263.613 11.7266 263.535 11.8984C263.457 12.0651 263.418 12.2552 263.418 12.4688C263.418 12.6771 263.465 12.8646 263.559 13.0312C263.658 13.1979 263.798 13.3307 263.98 13.4297C264.168 13.5234 264.387 13.5703 264.637 13.5703C265.001 13.5703 265.319 13.4974 265.59 13.3516C265.861 13.2005 266.072 13.0182 266.223 12.8047C266.374 12.5911 266.454 12.388 266.465 12.1953L267.059 13.0859C266.986 13.2995 266.876 13.526 266.73 13.7656C266.585 14.0052 266.397 14.2292 266.168 14.4375C265.939 14.6458 265.663 14.8177 265.34 14.9531C265.017 15.0885 264.642 15.1562 264.215 15.1562C263.668 15.1562 263.178 15.0469 262.746 14.8281C262.314 14.6094 261.973 14.3099 261.723 13.9297C261.473 13.5495 261.348 13.1172 261.348 12.6328C261.348 12.1849 261.431 11.7891 261.598 11.4453C261.764 11.1016 262.012 10.8125 262.34 10.5781C262.668 10.3385 263.074 10.1589 263.559 10.0391C264.048 9.91406 264.608 9.85156 265.238 9.85156H266.629ZM274.934 13.2031V9.30469C274.934 9.01823 274.884 8.77083 274.785 8.5625C274.686 8.35417 274.535 8.19271 274.332 8.07812C274.129 7.96354 273.871 7.90625 273.559 7.90625C273.283 7.90625 273.04 7.95312 272.832 8.04688C272.629 8.14062 272.473 8.27344 272.363 8.44531C272.254 8.61198 272.199 8.80469 272.199 9.02344H270.129C270.129 8.67448 270.212 8.34375 270.379 8.03125C270.546 7.71354 270.783 7.43229 271.09 7.1875C271.402 6.9375 271.775 6.74219 272.207 6.60156C272.645 6.46094 273.134 6.39062 273.676 6.39062C274.316 6.39062 274.887 6.5 275.387 6.71875C275.892 6.93229 276.288 7.25521 276.574 7.6875C276.866 8.11979 277.012 8.66406 277.012 9.32031V13.0078C277.012 13.4297 277.038 13.7917 277.09 14.0938C277.147 14.3906 277.23 14.6484 277.34 14.8672V15H275.238C275.139 14.7865 275.064 14.5156 275.012 14.1875C274.96 13.8542 274.934 13.526 274.934 13.2031ZM275.223 9.85156L275.238 11.0781H273.934C273.611 11.0781 273.327 11.112 273.082 11.1797C272.837 11.2422 272.637 11.3359 272.48 11.4609C272.324 11.5807 272.207 11.7266 272.129 11.8984C272.051 12.0651 272.012 12.2552 272.012 12.4688C272.012 12.6771 272.059 12.8646 272.152 13.0312C272.251 13.1979 272.392 13.3307 272.574 13.4297C272.762 13.5234 272.98 13.5703 273.23 13.5703C273.595 13.5703 273.913 13.4974 274.184 13.3516C274.454 13.2005 274.665 13.0182 274.816 12.8047C274.967 12.5911 275.048 12.388 275.059 12.1953L275.652 13.0859C275.579 13.2995 275.47 13.526 275.324 13.7656C275.178 14.0052 274.991 14.2292 274.762 14.4375C274.533 14.6458 274.257 14.8177 273.934 14.9531C273.611 15.0885 273.236 15.1562 272.809 15.1562C272.262 15.1562 271.772 15.0469 271.34 14.8281C270.908 14.6094 270.566 14.3099 270.316 13.9297C270.066 13.5495 269.941 13.1172 269.941 12.6328C269.941 12.1849 270.025 11.7891 270.191 11.4453C270.358 11.1016 270.605 10.8125 270.934 10.5781C271.262 10.3385 271.668 10.1589 272.152 10.0391C272.642 9.91406 273.202 9.85156 273.832 9.85156H275.223ZM282.871 6.54688V8.03125H278.027V6.54688H282.871ZM279.324 4.46875H281.395V12.5625C281.395 12.8125 281.428 13.0052 281.496 13.1406C281.564 13.276 281.665 13.3672 281.801 13.4141C281.936 13.4609 282.098 13.4844 282.285 13.4844C282.421 13.4844 282.546 13.4766 282.66 13.4609C282.775 13.4453 282.871 13.4297 282.949 13.4141L282.957 14.9609C282.785 15.0182 282.59 15.0651 282.371 15.1016C282.158 15.138 281.915 15.1562 281.645 15.1562C281.181 15.1562 280.775 15.0781 280.426 14.9219C280.077 14.7604 279.806 14.5026 279.613 14.1484C279.421 13.7891 279.324 13.3151 279.324 12.7266V4.46875ZM288.895 12.6875C288.895 12.5104 288.848 12.3516 288.754 12.2109C288.66 12.0703 288.483 11.9427 288.223 11.8281C287.967 11.7083 287.592 11.5964 287.098 11.4922C286.66 11.3984 286.257 11.2812 285.887 11.1406C285.517 11 285.199 10.8307 284.934 10.6328C284.668 10.4297 284.46 10.1927 284.309 9.92188C284.163 9.64583 284.09 9.32812 284.09 8.96875C284.09 8.61979 284.165 8.29167 284.316 7.98438C284.467 7.67188 284.686 7.39844 284.973 7.16406C285.259 6.92448 285.608 6.73698 286.02 6.60156C286.431 6.46094 286.895 6.39062 287.41 6.39062C288.129 6.39062 288.746 6.50781 289.262 6.74219C289.783 6.97656 290.181 7.29948 290.457 7.71094C290.733 8.11719 290.871 8.57552 290.871 9.08594H288.809C288.809 8.86198 288.757 8.65885 288.652 8.47656C288.553 8.29427 288.4 8.14844 288.191 8.03906C287.983 7.92448 287.72 7.86719 287.402 7.86719C287.116 7.86719 286.874 7.91406 286.676 8.00781C286.483 8.10156 286.337 8.22396 286.238 8.375C286.139 8.52604 286.09 8.69271 286.09 8.875C286.09 9.01042 286.116 9.13281 286.168 9.24219C286.225 9.34635 286.316 9.44271 286.441 9.53125C286.566 9.61979 286.736 9.70052 286.949 9.77344C287.168 9.84635 287.436 9.91667 287.754 9.98438C288.384 10.1094 288.934 10.276 289.402 10.4844C289.876 10.6875 290.246 10.9583 290.512 11.2969C290.777 11.6354 290.91 12.0677 290.91 12.5938C290.91 12.9688 290.829 13.3125 290.668 13.625C290.507 13.9323 290.272 14.2005 289.965 14.4297C289.658 14.6589 289.29 14.8385 288.863 14.9688C288.436 15.0938 287.954 15.1562 287.418 15.1562C286.642 15.1562 285.986 15.0182 285.449 14.7422C284.913 14.4609 284.507 14.1068 284.23 13.6797C283.954 13.2474 283.816 12.7995 283.816 12.3359H285.793C285.809 12.6641 285.897 12.9271 286.059 13.125C286.22 13.3229 286.423 13.4661 286.668 13.5547C286.918 13.638 287.181 13.6797 287.457 13.6797C287.77 13.6797 288.033 13.638 288.246 13.5547C288.46 13.4661 288.621 13.349 288.73 13.2031C288.84 13.0521 288.895 12.8802 288.895 12.6875ZM300.574 9.3125V10.9453H296.301V9.3125H300.574ZM307.715 6.54688H309.59V14.7422C309.59 15.5078 309.423 16.1562 309.09 16.6875C308.762 17.224 308.301 17.6302 307.707 17.9062C307.113 18.1875 306.423 18.3281 305.637 18.3281C305.298 18.3281 304.931 18.2812 304.535 18.1875C304.145 18.0938 303.767 17.9453 303.402 17.7422C303.043 17.5443 302.743 17.2865 302.504 16.9688L303.434 15.75C303.715 16.0781 304.033 16.3255 304.387 16.4922C304.741 16.6641 305.124 16.75 305.535 16.75C305.952 16.75 306.306 16.6719 306.598 16.5156C306.895 16.3646 307.121 16.1406 307.277 15.8438C307.439 15.5521 307.52 15.1927 307.52 14.7656V8.47656L307.715 6.54688ZM302.004 10.875V10.7109C302.004 10.0651 302.082 9.47917 302.238 8.95312C302.395 8.42188 302.618 7.96615 302.91 7.58594C303.207 7.20573 303.564 6.91146 303.98 6.70312C304.402 6.49479 304.876 6.39062 305.402 6.39062C305.96 6.39062 306.428 6.49219 306.809 6.69531C307.194 6.89844 307.512 7.1875 307.762 7.5625C308.017 7.9375 308.215 8.38281 308.355 8.89844C308.501 9.40885 308.613 9.97135 308.691 10.5859V11.0312C308.618 11.6302 308.501 12.1797 308.34 12.6797C308.184 13.1797 307.975 13.6172 307.715 13.9922C307.454 14.362 307.132 14.6484 306.746 14.8516C306.361 15.0547 305.908 15.1562 305.387 15.1562C304.866 15.1562 304.397 15.0495 303.98 14.8359C303.564 14.6224 303.207 14.3229 302.91 13.9375C302.618 13.5521 302.395 13.099 302.238 12.5781C302.082 12.0573 302.004 11.4896 302.004 10.875ZM304.066 10.7109V10.875C304.066 11.2396 304.103 11.5807 304.176 11.8984C304.249 12.2161 304.361 12.4974 304.512 12.7422C304.663 12.9818 304.853 13.1693 305.082 13.3047C305.311 13.4401 305.585 13.5078 305.902 13.5078C306.329 13.5078 306.678 13.4193 306.949 13.2422C307.225 13.0599 307.434 12.8125 307.574 12.5C307.72 12.1823 307.814 11.8255 307.855 11.4297V10.2031C307.829 9.89062 307.772 9.60156 307.684 9.33594C307.6 9.07031 307.483 8.84115 307.332 8.64844C307.181 8.45573 306.988 8.30469 306.754 8.19531C306.52 8.08594 306.241 8.03125 305.918 8.03125C305.605 8.03125 305.332 8.10156 305.098 8.24219C304.863 8.3776 304.671 8.56771 304.52 8.8125C304.368 9.05729 304.254 9.34115 304.176 9.66406C304.103 9.98698 304.066 10.3359 304.066 10.7109ZM316.105 13.2031V9.30469C316.105 9.01823 316.056 8.77083 315.957 8.5625C315.858 8.35417 315.707 8.19271 315.504 8.07812C315.301 7.96354 315.043 7.90625 314.73 7.90625C314.454 7.90625 314.212 7.95312 314.004 8.04688C313.801 8.14062 313.645 8.27344 313.535 8.44531C313.426 8.61198 313.371 8.80469 313.371 9.02344H311.301C311.301 8.67448 311.384 8.34375 311.551 8.03125C311.717 7.71354 311.954 7.43229 312.262 7.1875C312.574 6.9375 312.947 6.74219 313.379 6.60156C313.816 6.46094 314.306 6.39062 314.848 6.39062C315.488 6.39062 316.059 6.5 316.559 6.71875C317.064 6.93229 317.46 7.25521 317.746 7.6875C318.038 8.11979 318.184 8.66406 318.184 9.32031V13.0078C318.184 13.4297 318.21 13.7917 318.262 14.0938C318.319 14.3906 318.402 14.6484 318.512 14.8672V15H316.41C316.311 14.7865 316.236 14.5156 316.184 14.1875C316.132 13.8542 316.105 13.526 316.105 13.2031ZM316.395 9.85156L316.41 11.0781H315.105C314.783 11.0781 314.499 11.112 314.254 11.1797C314.009 11.2422 313.809 11.3359 313.652 11.4609C313.496 11.5807 313.379 11.7266 313.301 11.8984C313.223 12.0651 313.184 12.2552 313.184 12.4688C313.184 12.6771 313.23 12.8646 313.324 13.0312C313.423 13.1979 313.564 13.3307 313.746 13.4297C313.934 13.5234 314.152 13.5703 314.402 13.5703C314.767 13.5703 315.085 13.4974 315.355 13.3516C315.626 13.2005 315.837 13.0182 315.988 12.8047C316.139 12.5911 316.22 12.388 316.23 12.1953L316.824 13.0859C316.751 13.2995 316.642 13.526 316.496 13.7656C316.35 14.0052 316.163 14.2292 315.934 14.4375C315.704 14.6458 315.428 14.8177 315.105 14.9531C314.783 15.0885 314.408 15.1562 313.98 15.1562C313.434 15.1562 312.944 15.0469 312.512 14.8281C312.079 14.6094 311.738 14.3099 311.488 13.9297C311.238 13.5495 311.113 13.1172 311.113 12.6328C311.113 12.1849 311.197 11.7891 311.363 11.4453C311.53 11.1016 311.777 10.8125 312.105 10.5781C312.434 10.3385 312.84 10.1589 313.324 10.0391C313.814 9.91406 314.374 9.85156 315.004 9.85156H316.395ZM322.105 8.27344V15H320.043V6.54688H321.996L322.105 8.27344ZM324.676 6.49219L324.645 8.41406C324.53 8.39323 324.4 8.3776 324.254 8.36719C324.113 8.35677 323.98 8.35156 323.855 8.35156C323.538 8.35156 323.259 8.39583 323.02 8.48438C322.78 8.56771 322.579 8.6901 322.418 8.85156C322.262 9.01302 322.142 9.21094 322.059 9.44531C321.975 9.67448 321.928 9.9349 321.918 10.2266L321.473 10.1719C321.473 9.63542 321.527 9.13802 321.637 8.67969C321.746 8.22135 321.905 7.82031 322.113 7.47656C322.322 7.13281 322.582 6.86719 322.895 6.67969C323.212 6.48698 323.577 6.39062 323.988 6.39062C324.103 6.39062 324.225 6.40104 324.355 6.42188C324.491 6.4375 324.598 6.46094 324.676 6.49219ZM330.199 13.2031V9.30469C330.199 9.01823 330.15 8.77083 330.051 8.5625C329.952 8.35417 329.801 8.19271 329.598 8.07812C329.395 7.96354 329.137 7.90625 328.824 7.90625C328.548 7.90625 328.306 7.95312 328.098 8.04688C327.895 8.14062 327.738 8.27344 327.629 8.44531C327.52 8.61198 327.465 8.80469 327.465 9.02344H325.395C325.395 8.67448 325.478 8.34375 325.645 8.03125C325.811 7.71354 326.048 7.43229 326.355 7.1875C326.668 6.9375 327.04 6.74219 327.473 6.60156C327.91 6.46094 328.4 6.39062 328.941 6.39062C329.582 6.39062 330.152 6.5 330.652 6.71875C331.158 6.93229 331.553 7.25521 331.84 7.6875C332.132 8.11979 332.277 8.66406 332.277 9.32031V13.0078C332.277 13.4297 332.303 13.7917 332.355 14.0938C332.413 14.3906 332.496 14.6484 332.605 14.8672V15H330.504C330.405 14.7865 330.329 14.5156 330.277 14.1875C330.225 13.8542 330.199 13.526 330.199 13.2031ZM330.488 9.85156L330.504 11.0781H329.199C328.876 11.0781 328.592 11.112 328.348 11.1797C328.103 11.2422 327.902 11.3359 327.746 11.4609C327.59 11.5807 327.473 11.7266 327.395 11.8984C327.316 12.0651 327.277 12.2552 327.277 12.4688C327.277 12.6771 327.324 12.8646 327.418 13.0312C327.517 13.1979 327.658 13.3307 327.84 13.4297C328.027 13.5234 328.246 13.5703 328.496 13.5703C328.861 13.5703 329.178 13.4974 329.449 13.3516C329.72 13.2005 329.931 13.0182 330.082 12.8047C330.233 12.5911 330.314 12.388 330.324 12.1953L330.918 13.0859C330.845 13.2995 330.736 13.526 330.59 13.7656C330.444 14.0052 330.257 14.2292 330.027 14.4375C329.798 14.6458 329.522 14.8177 329.199 14.9531C328.876 15.0885 328.501 15.1562 328.074 15.1562C327.527 15.1562 327.038 15.0469 326.605 14.8281C326.173 14.6094 325.832 14.3099 325.582 13.9297C325.332 13.5495 325.207 13.1172 325.207 12.6328C325.207 12.1849 325.29 11.7891 325.457 11.4453C325.624 11.1016 325.871 10.8125 326.199 10.5781C326.527 10.3385 326.934 10.1589 327.418 10.0391C327.908 9.91406 328.467 9.85156 329.098 9.85156H330.488ZM336.16 8.35156V15H334.098V6.54688H336.035L336.16 8.35156ZM335.832 10.4688H335.223C335.228 9.85417 335.311 9.29688 335.473 8.79688C335.634 8.29688 335.861 7.86719 336.152 7.50781C336.449 7.14844 336.801 6.8724 337.207 6.67969C337.613 6.48698 338.066 6.39062 338.566 6.39062C338.973 6.39062 339.34 6.44792 339.668 6.5625C339.996 6.67708 340.277 6.85938 340.512 7.10938C340.751 7.35938 340.934 7.6875 341.059 8.09375C341.189 8.49479 341.254 8.98958 341.254 9.57812V15H339.176V9.5625C339.176 9.17708 339.118 8.8724 339.004 8.64844C338.895 8.42448 338.733 8.26562 338.52 8.17188C338.311 8.07812 338.053 8.03125 337.746 8.03125C337.428 8.03125 337.15 8.09635 336.91 8.22656C336.676 8.35156 336.478 8.52604 336.316 8.75C336.16 8.97396 336.04 9.23177 335.957 9.52344C335.874 9.8151 335.832 10.1302 335.832 10.4688ZM347.074 6.54688V8.03125H342.23V6.54688H347.074ZM343.527 4.46875H345.598V12.5625C345.598 12.8125 345.632 13.0052 345.699 13.1406C345.767 13.276 345.868 13.3672 346.004 13.4141C346.139 13.4609 346.301 13.4844 346.488 13.4844C346.624 13.4844 346.749 13.4766 346.863 13.4609C346.978 13.4453 347.074 13.4297 347.152 13.4141L347.16 14.9609C346.988 15.0182 346.793 15.0651 346.574 15.1016C346.361 15.138 346.118 15.1562 345.848 15.1562C345.384 15.1562 344.978 15.0781 344.629 14.9219C344.28 14.7604 344.009 14.5026 343.816 14.1484C343.624 13.7891 343.527 13.3151 343.527 12.7266V4.46875ZM350.637 6.54688V15H348.566V6.54688H350.637ZM348.426 4.33594C348.426 4.02865 348.53 3.77344 348.738 3.57031C348.952 3.36719 349.238 3.26562 349.598 3.26562C349.957 3.26562 350.241 3.36719 350.449 3.57031C350.663 3.77344 350.77 4.02865 350.77 4.33594C350.77 4.63802 350.663 4.89062 350.449 5.09375C350.241 5.29688 349.957 5.39844 349.598 5.39844C349.238 5.39844 348.952 5.29688 348.738 5.09375C348.53 4.89062 348.426 4.63802 348.426 4.33594ZM356.402 15.1562C355.762 15.1562 355.186 15.0521 354.676 14.8438C354.165 14.6354 353.73 14.3464 353.371 13.9766C353.017 13.6016 352.743 13.1667 352.551 12.6719C352.363 12.1719 352.27 11.6354 352.27 11.0625V10.75C352.27 10.099 352.363 9.50781 352.551 8.97656C352.738 8.4401 353.004 7.97917 353.348 7.59375C353.691 7.20833 354.103 6.91146 354.582 6.70312C355.061 6.49479 355.59 6.39062 356.168 6.39062C356.767 6.39062 357.296 6.49219 357.754 6.69531C358.212 6.89323 358.595 7.17448 358.902 7.53906C359.21 7.90365 359.441 8.34115 359.598 8.85156C359.754 9.35677 359.832 9.91667 359.832 10.5312V11.3984H353.207V9.97656H357.801V9.82031C357.79 9.49219 357.728 9.19271 357.613 8.92188C357.499 8.64583 357.322 8.42708 357.082 8.26562C356.842 8.09896 356.533 8.01562 356.152 8.01562C355.845 8.01562 355.577 8.08333 355.348 8.21875C355.124 8.34896 354.936 8.53646 354.785 8.78125C354.639 9.02083 354.53 9.30729 354.457 9.64062C354.384 9.97396 354.348 10.3438 354.348 10.75V11.0625C354.348 11.4167 354.395 11.7448 354.488 12.0469C354.587 12.349 354.73 12.612 354.918 12.8359C355.111 13.0547 355.34 13.2266 355.605 13.3516C355.876 13.4714 356.184 13.5312 356.527 13.5312C356.96 13.5312 357.35 13.4479 357.699 13.2812C358.053 13.1094 358.361 12.8568 358.621 12.5234L359.66 13.6016C359.483 13.862 359.243 14.112 358.941 14.3516C358.645 14.5911 358.285 14.7865 357.863 14.9375C357.441 15.0833 356.954 15.1562 356.402 15.1562Z" fill="#3C3C3B"/>
<path d="M476.246 226.117V230.547C476.079 230.76 475.816 230.992 475.457 231.242C475.103 231.492 474.639 231.708 474.066 231.891C473.493 232.068 472.79 232.156 471.957 232.156C471.233 232.156 470.572 232.036 469.973 231.797C469.374 231.552 468.858 231.195 468.426 230.727C467.993 230.258 467.66 229.685 467.426 229.008C467.191 228.331 467.074 227.557 467.074 226.688V225.938C467.074 225.068 467.184 224.294 467.402 223.617C467.626 222.94 467.944 222.367 468.355 221.898C468.772 221.43 469.27 221.073 469.848 220.828C470.431 220.583 471.082 220.461 471.801 220.461C472.764 220.461 473.556 220.62 474.176 220.938C474.801 221.255 475.28 221.693 475.613 222.25C475.947 222.802 476.155 223.438 476.238 224.156H474.145C474.087 223.76 473.973 223.414 473.801 223.117C473.629 222.815 473.384 222.581 473.066 222.414C472.754 222.242 472.348 222.156 471.848 222.156C471.426 222.156 471.053 222.24 470.73 222.406C470.408 222.573 470.137 222.815 469.918 223.133C469.699 223.451 469.533 223.844 469.418 224.312C469.309 224.781 469.254 225.318 469.254 225.922V226.688C469.254 227.297 469.316 227.839 469.441 228.312C469.566 228.781 469.746 229.177 469.98 229.5C470.22 229.818 470.514 230.06 470.863 230.227C471.217 230.388 471.618 230.469 472.066 230.469C472.473 230.469 472.809 230.435 473.074 230.367C473.345 230.294 473.561 230.208 473.723 230.109C473.884 230.01 474.009 229.914 474.098 229.82V227.688H471.84V226.117H476.246ZM481.918 232.156C481.277 232.156 480.702 232.052 480.191 231.844C479.681 231.635 479.246 231.346 478.887 230.977C478.533 230.602 478.259 230.167 478.066 229.672C477.879 229.172 477.785 228.635 477.785 228.062V227.75C477.785 227.099 477.879 226.508 478.066 225.977C478.254 225.44 478.52 224.979 478.863 224.594C479.207 224.208 479.618 223.911 480.098 223.703C480.577 223.495 481.105 223.391 481.684 223.391C482.283 223.391 482.811 223.492 483.27 223.695C483.728 223.893 484.111 224.174 484.418 224.539C484.725 224.904 484.957 225.341 485.113 225.852C485.27 226.357 485.348 226.917 485.348 227.531V228.398H478.723V226.977H483.316V226.82C483.306 226.492 483.243 226.193 483.129 225.922C483.014 225.646 482.837 225.427 482.598 225.266C482.358 225.099 482.048 225.016 481.668 225.016C481.361 225.016 481.092 225.083 480.863 225.219C480.639 225.349 480.452 225.536 480.301 225.781C480.155 226.021 480.046 226.307 479.973 226.641C479.9 226.974 479.863 227.344 479.863 227.75V228.062C479.863 228.417 479.91 228.745 480.004 229.047C480.103 229.349 480.246 229.612 480.434 229.836C480.626 230.055 480.855 230.227 481.121 230.352C481.392 230.471 481.699 230.531 482.043 230.531C482.475 230.531 482.866 230.448 483.215 230.281C483.569 230.109 483.876 229.857 484.137 229.523L485.176 230.602C484.999 230.862 484.759 231.112 484.457 231.352C484.16 231.591 483.801 231.786 483.379 231.938C482.957 232.083 482.47 232.156 481.918 232.156ZM491.379 229.688C491.379 229.51 491.332 229.352 491.238 229.211C491.145 229.07 490.967 228.943 490.707 228.828C490.452 228.708 490.077 228.596 489.582 228.492C489.145 228.398 488.741 228.281 488.371 228.141C488.001 228 487.684 227.831 487.418 227.633C487.152 227.43 486.944 227.193 486.793 226.922C486.647 226.646 486.574 226.328 486.574 225.969C486.574 225.62 486.65 225.292 486.801 224.984C486.952 224.672 487.171 224.398 487.457 224.164C487.743 223.924 488.092 223.737 488.504 223.602C488.915 223.461 489.379 223.391 489.895 223.391C490.613 223.391 491.23 223.508 491.746 223.742C492.267 223.977 492.665 224.299 492.941 224.711C493.217 225.117 493.355 225.576 493.355 226.086H491.293C491.293 225.862 491.241 225.659 491.137 225.477C491.038 225.294 490.884 225.148 490.676 225.039C490.467 224.924 490.204 224.867 489.887 224.867C489.6 224.867 489.358 224.914 489.16 225.008C488.967 225.102 488.822 225.224 488.723 225.375C488.624 225.526 488.574 225.693 488.574 225.875C488.574 226.01 488.6 226.133 488.652 226.242C488.71 226.346 488.801 226.443 488.926 226.531C489.051 226.62 489.22 226.701 489.434 226.773C489.652 226.846 489.921 226.917 490.238 226.984C490.868 227.109 491.418 227.276 491.887 227.484C492.361 227.688 492.73 227.958 492.996 228.297C493.262 228.635 493.395 229.068 493.395 229.594C493.395 229.969 493.314 230.312 493.152 230.625C492.991 230.932 492.757 231.201 492.449 231.43C492.142 231.659 491.775 231.839 491.348 231.969C490.921 232.094 490.439 232.156 489.902 232.156C489.126 232.156 488.47 232.018 487.934 231.742C487.397 231.461 486.991 231.107 486.715 230.68C486.439 230.247 486.301 229.799 486.301 229.336H488.277C488.293 229.664 488.382 229.927 488.543 230.125C488.704 230.323 488.908 230.466 489.152 230.555C489.402 230.638 489.665 230.68 489.941 230.68C490.254 230.68 490.517 230.638 490.73 230.555C490.944 230.466 491.105 230.349 491.215 230.203C491.324 230.052 491.379 229.88 491.379 229.688ZM498.762 232.156C498.121 232.156 497.546 232.052 497.035 231.844C496.525 231.635 496.09 231.346 495.73 230.977C495.376 230.602 495.103 230.167 494.91 229.672C494.723 229.172 494.629 228.635 494.629 228.062V227.75C494.629 227.099 494.723 226.508 494.91 225.977C495.098 225.44 495.363 224.979 495.707 224.594C496.051 224.208 496.462 223.911 496.941 223.703C497.421 223.495 497.949 223.391 498.527 223.391C499.126 223.391 499.655 223.492 500.113 223.695C500.572 223.893 500.954 224.174 501.262 224.539C501.569 224.904 501.801 225.341 501.957 225.852C502.113 226.357 502.191 226.917 502.191 227.531V228.398H495.566V226.977H500.16V226.82C500.15 226.492 500.087 226.193 499.973 225.922C499.858 225.646 499.681 225.427 499.441 225.266C499.202 225.099 498.892 225.016 498.512 225.016C498.204 225.016 497.936 225.083 497.707 225.219C497.483 225.349 497.296 225.536 497.145 225.781C496.999 226.021 496.889 226.307 496.816 226.641C496.743 226.974 496.707 227.344 496.707 227.75V228.062C496.707 228.417 496.754 228.745 496.848 229.047C496.947 229.349 497.09 229.612 497.277 229.836C497.47 230.055 497.699 230.227 497.965 230.352C498.236 230.471 498.543 230.531 498.887 230.531C499.319 230.531 499.71 230.448 500.059 230.281C500.413 230.109 500.72 229.857 500.98 229.523L502.02 230.602C501.842 230.862 501.603 231.112 501.301 231.352C501.004 231.591 500.645 231.786 500.223 231.938C499.801 232.083 499.314 232.156 498.762 232.156ZM507.574 223.547V225.031H502.73V223.547H507.574ZM504.027 221.469H506.098V229.562C506.098 229.812 506.132 230.005 506.199 230.141C506.267 230.276 506.368 230.367 506.504 230.414C506.639 230.461 506.801 230.484 506.988 230.484C507.124 230.484 507.249 230.477 507.363 230.461C507.478 230.445 507.574 230.43 507.652 230.414L507.66 231.961C507.488 232.018 507.293 232.065 507.074 232.102C506.861 232.138 506.618 232.156 506.348 232.156C505.884 232.156 505.478 232.078 505.129 231.922C504.78 231.76 504.509 231.503 504.316 231.148C504.124 230.789 504.027 230.315 504.027 229.727V221.469ZM515.574 230.375V232H509.215V230.375H515.574ZM515.426 224.781L509.988 232H508.629V230.727L514.035 223.547H515.426V224.781ZM514.668 223.547V225.18H508.738V223.547H514.668ZM519.23 220V232H517.16V220H519.23ZM523.387 223.547V232H521.316V223.547H523.387ZM521.176 221.336C521.176 221.029 521.28 220.773 521.488 220.57C521.702 220.367 521.988 220.266 522.348 220.266C522.707 220.266 522.991 220.367 523.199 220.57C523.413 220.773 523.52 221.029 523.52 221.336C523.52 221.638 523.413 221.891 523.199 222.094C522.991 222.297 522.707 222.398 522.348 222.398C521.988 222.398 521.702 222.297 521.488 222.094C521.28 221.891 521.176 221.638 521.176 221.336ZM528.824 230.531C529.116 230.531 529.376 230.474 529.605 230.359C529.835 230.245 530.017 230.083 530.152 229.875C530.293 229.667 530.368 229.424 530.379 229.148H532.324C532.314 229.721 532.152 230.234 531.84 230.688C531.527 231.141 531.111 231.5 530.59 231.766C530.074 232.026 529.496 232.156 528.855 232.156C528.204 232.156 527.637 232.047 527.152 231.828C526.668 231.609 526.264 231.305 525.941 230.914C525.624 230.523 525.384 230.07 525.223 229.555C525.066 229.039 524.988 228.487 524.988 227.898V227.648C524.988 227.06 525.066 226.508 525.223 225.992C525.384 225.477 525.624 225.023 525.941 224.633C526.264 224.242 526.668 223.938 527.152 223.719C527.637 223.5 528.202 223.391 528.848 223.391C529.53 223.391 530.129 223.523 530.645 223.789C531.165 224.055 531.572 224.43 531.863 224.914C532.16 225.398 532.314 225.969 532.324 226.625H530.379C530.368 226.323 530.301 226.052 530.176 225.812C530.051 225.573 529.874 225.38 529.645 225.234C529.415 225.089 529.137 225.016 528.809 225.016C528.46 225.016 528.168 225.089 527.934 225.234C527.704 225.38 527.525 225.581 527.395 225.836C527.27 226.086 527.181 226.367 527.129 226.68C527.082 226.987 527.059 227.31 527.059 227.648V227.898C527.059 228.242 527.082 228.57 527.129 228.883C527.181 229.195 527.27 229.477 527.395 229.727C527.525 229.971 527.704 230.167 527.934 230.312C528.168 230.458 528.465 230.531 528.824 230.531ZM535.723 220V232H533.652V220H535.723ZM535.395 227.469H534.785C534.785 226.88 534.863 226.339 535.02 225.844C535.176 225.349 535.397 224.919 535.684 224.555C535.97 224.185 536.311 223.898 536.707 223.695C537.108 223.492 537.551 223.391 538.035 223.391C538.452 223.391 538.829 223.451 539.168 223.57C539.512 223.685 539.806 223.87 540.051 224.125C540.296 224.38 540.483 224.714 540.613 225.125C540.749 225.531 540.816 226.026 540.816 226.609V232H538.738V226.594C538.738 226.203 538.681 225.896 538.566 225.672C538.452 225.443 538.288 225.279 538.074 225.18C537.866 225.081 537.608 225.031 537.301 225.031C536.967 225.031 536.681 225.096 536.441 225.227C536.202 225.352 536.004 225.526 535.848 225.75C535.697 225.974 535.582 226.232 535.504 226.523C535.431 226.815 535.395 227.13 535.395 227.469ZM546.434 232.156C545.793 232.156 545.217 232.052 544.707 231.844C544.197 231.635 543.762 231.346 543.402 230.977C543.048 230.602 542.775 230.167 542.582 229.672C542.395 229.172 542.301 228.635 542.301 228.062V227.75C542.301 227.099 542.395 226.508 542.582 225.977C542.77 225.44 543.035 224.979 543.379 224.594C543.723 224.208 544.134 223.911 544.613 223.703C545.092 223.495 545.621 223.391 546.199 223.391C546.798 223.391 547.327 223.492 547.785 223.695C548.243 223.893 548.626 224.174 548.934 224.539C549.241 224.904 549.473 225.341 549.629 225.852C549.785 226.357 549.863 226.917 549.863 227.531V228.398H543.238V226.977H547.832V226.82C547.822 226.492 547.759 226.193 547.645 225.922C547.53 225.646 547.353 225.427 547.113 225.266C546.874 225.099 546.564 225.016 546.184 225.016C545.876 225.016 545.608 225.083 545.379 225.219C545.155 225.349 544.967 225.536 544.816 225.781C544.671 226.021 544.561 226.307 544.488 226.641C544.415 226.974 544.379 227.344 544.379 227.75V228.062C544.379 228.417 544.426 228.745 544.52 229.047C544.618 229.349 544.762 229.612 544.949 229.836C545.142 230.055 545.371 230.227 545.637 230.352C545.908 230.471 546.215 230.531 546.559 230.531C546.991 230.531 547.382 230.448 547.73 230.281C548.085 230.109 548.392 229.857 548.652 229.523L549.691 230.602C549.514 230.862 549.275 231.112 548.973 231.352C548.676 231.591 548.316 231.786 547.895 231.938C547.473 232.083 546.986 232.156 546.434 232.156ZM474.91 250.312V252H468.863V250.312H474.91ZM469.52 240.625V252H467.371V240.625H469.52ZM474.121 245.32V246.969H468.863V245.32H474.121ZM474.887 240.625V242.32H468.863V240.625H474.887ZM478.434 243.547V252H476.363V243.547H478.434ZM476.223 241.336C476.223 241.029 476.327 240.773 476.535 240.57C476.749 240.367 477.035 240.266 477.395 240.266C477.754 240.266 478.038 240.367 478.246 240.57C478.46 240.773 478.566 241.029 478.566 241.336C478.566 241.638 478.46 241.891 478.246 242.094C478.038 242.297 477.754 242.398 477.395 242.398C477.035 242.398 476.749 242.297 476.535 242.094C476.327 241.891 476.223 241.638 476.223 241.336ZM482.426 245.352V252H480.363V243.547H482.301L482.426 245.352ZM482.098 247.469H481.488C481.493 246.854 481.577 246.297 481.738 245.797C481.9 245.297 482.126 244.867 482.418 244.508C482.715 244.148 483.066 243.872 483.473 243.68C483.879 243.487 484.332 243.391 484.832 243.391C485.238 243.391 485.605 243.448 485.934 243.562C486.262 243.677 486.543 243.859 486.777 244.109C487.017 244.359 487.199 244.688 487.324 245.094C487.454 245.495 487.52 245.99 487.52 246.578V252H485.441V246.562C485.441 246.177 485.384 245.872 485.27 245.648C485.16 245.424 484.999 245.266 484.785 245.172C484.577 245.078 484.319 245.031 484.012 245.031C483.694 245.031 483.415 245.096 483.176 245.227C482.941 245.352 482.743 245.526 482.582 245.75C482.426 245.974 482.306 246.232 482.223 246.523C482.139 246.815 482.098 247.13 482.098 247.469ZM491.527 240V252H489.457V240H491.527ZM498.152 250.203V246.305C498.152 246.018 498.103 245.771 498.004 245.562C497.905 245.354 497.754 245.193 497.551 245.078C497.348 244.964 497.09 244.906 496.777 244.906C496.501 244.906 496.259 244.953 496.051 245.047C495.848 245.141 495.691 245.273 495.582 245.445C495.473 245.612 495.418 245.805 495.418 246.023H493.348C493.348 245.674 493.431 245.344 493.598 245.031C493.764 244.714 494.001 244.432 494.309 244.188C494.621 243.938 494.993 243.742 495.426 243.602C495.863 243.461 496.353 243.391 496.895 243.391C497.535 243.391 498.105 243.5 498.605 243.719C499.111 243.932 499.507 244.255 499.793 244.688C500.085 245.12 500.23 245.664 500.23 246.32V250.008C500.23 250.43 500.257 250.792 500.309 251.094C500.366 251.391 500.449 251.648 500.559 251.867V252H498.457C498.358 251.786 498.283 251.516 498.23 251.188C498.178 250.854 498.152 250.526 498.152 250.203ZM498.441 246.852L498.457 248.078H497.152C496.829 248.078 496.546 248.112 496.301 248.18C496.056 248.242 495.855 248.336 495.699 248.461C495.543 248.581 495.426 248.727 495.348 248.898C495.27 249.065 495.23 249.255 495.23 249.469C495.23 249.677 495.277 249.865 495.371 250.031C495.47 250.198 495.611 250.331 495.793 250.43C495.98 250.523 496.199 250.57 496.449 250.57C496.814 250.57 497.132 250.497 497.402 250.352C497.673 250.201 497.884 250.018 498.035 249.805C498.186 249.591 498.267 249.388 498.277 249.195L498.871 250.086C498.798 250.299 498.689 250.526 498.543 250.766C498.397 251.005 498.21 251.229 497.98 251.438C497.751 251.646 497.475 251.818 497.152 251.953C496.829 252.089 496.454 252.156 496.027 252.156C495.48 252.156 494.991 252.047 494.559 251.828C494.126 251.609 493.785 251.31 493.535 250.93C493.285 250.549 493.16 250.117 493.16 249.633C493.16 249.185 493.243 248.789 493.41 248.445C493.577 248.102 493.824 247.812 494.152 247.578C494.48 247.339 494.887 247.159 495.371 247.039C495.861 246.914 496.421 246.852 497.051 246.852H498.441ZM507.465 243.547H509.34V251.742C509.34 252.508 509.173 253.156 508.84 253.688C508.512 254.224 508.051 254.63 507.457 254.906C506.863 255.188 506.173 255.328 505.387 255.328C505.048 255.328 504.681 255.281 504.285 255.188C503.895 255.094 503.517 254.945 503.152 254.742C502.793 254.544 502.493 254.286 502.254 253.969L503.184 252.75C503.465 253.078 503.783 253.326 504.137 253.492C504.491 253.664 504.874 253.75 505.285 253.75C505.702 253.75 506.056 253.672 506.348 253.516C506.645 253.365 506.871 253.141 507.027 252.844C507.189 252.552 507.27 252.193 507.27 251.766V245.477L507.465 243.547ZM501.754 247.875V247.711C501.754 247.065 501.832 246.479 501.988 245.953C502.145 245.422 502.368 244.966 502.66 244.586C502.957 244.206 503.314 243.911 503.73 243.703C504.152 243.495 504.626 243.391 505.152 243.391C505.71 243.391 506.178 243.492 506.559 243.695C506.944 243.898 507.262 244.188 507.512 244.562C507.767 244.938 507.965 245.383 508.105 245.898C508.251 246.409 508.363 246.971 508.441 247.586V248.031C508.368 248.63 508.251 249.18 508.09 249.68C507.934 250.18 507.725 250.617 507.465 250.992C507.204 251.362 506.882 251.648 506.496 251.852C506.111 252.055 505.658 252.156 505.137 252.156C504.616 252.156 504.147 252.049 503.73 251.836C503.314 251.622 502.957 251.323 502.66 250.938C502.368 250.552 502.145 250.099 501.988 249.578C501.832 249.057 501.754 248.49 501.754 247.875ZM503.816 247.711V247.875C503.816 248.24 503.853 248.581 503.926 248.898C503.999 249.216 504.111 249.497 504.262 249.742C504.413 249.982 504.603 250.169 504.832 250.305C505.061 250.44 505.335 250.508 505.652 250.508C506.079 250.508 506.428 250.419 506.699 250.242C506.975 250.06 507.184 249.812 507.324 249.5C507.47 249.182 507.564 248.826 507.605 248.43V247.203C507.579 246.891 507.522 246.602 507.434 246.336C507.35 246.07 507.233 245.841 507.082 245.648C506.931 245.456 506.738 245.305 506.504 245.195C506.27 245.086 505.991 245.031 505.668 245.031C505.355 245.031 505.082 245.102 504.848 245.242C504.613 245.378 504.421 245.568 504.27 245.812C504.118 246.057 504.004 246.341 503.926 246.664C503.853 246.987 503.816 247.336 503.816 247.711ZM514.996 252.156C514.355 252.156 513.78 252.052 513.27 251.844C512.759 251.635 512.324 251.346 511.965 250.977C511.611 250.602 511.337 250.167 511.145 249.672C510.957 249.172 510.863 248.635 510.863 248.062V247.75C510.863 247.099 510.957 246.508 511.145 245.977C511.332 245.44 511.598 244.979 511.941 244.594C512.285 244.208 512.697 243.911 513.176 243.703C513.655 243.495 514.184 243.391 514.762 243.391C515.361 243.391 515.889 243.492 516.348 243.695C516.806 243.893 517.189 244.174 517.496 244.539C517.803 244.904 518.035 245.341 518.191 245.852C518.348 246.357 518.426 246.917 518.426 247.531V248.398H511.801V246.977H516.395V246.82C516.384 246.492 516.322 246.193 516.207 245.922C516.092 245.646 515.915 245.427 515.676 245.266C515.436 245.099 515.126 245.016 514.746 245.016C514.439 245.016 514.171 245.083 513.941 245.219C513.717 245.349 513.53 245.536 513.379 245.781C513.233 246.021 513.124 246.307 513.051 246.641C512.978 246.974 512.941 247.344 512.941 247.75V248.062C512.941 248.417 512.988 248.745 513.082 249.047C513.181 249.349 513.324 249.612 513.512 249.836C513.704 250.055 513.934 250.227 514.199 250.352C514.47 250.471 514.777 250.531 515.121 250.531C515.553 250.531 515.944 250.448 516.293 250.281C516.647 250.109 516.954 249.857 517.215 249.523L518.254 250.602C518.077 250.862 517.837 251.112 517.535 251.352C517.238 251.591 516.879 251.786 516.457 251.938C516.035 252.083 515.548 252.156 514.996 252.156ZM521.832 245.352V252H519.77V243.547H521.707L521.832 245.352ZM521.504 247.469H520.895C520.9 246.854 520.983 246.297 521.145 245.797C521.306 245.297 521.533 244.867 521.824 244.508C522.121 244.148 522.473 243.872 522.879 243.68C523.285 243.487 523.738 243.391 524.238 243.391C524.645 243.391 525.012 243.448 525.34 243.562C525.668 243.677 525.949 243.859 526.184 244.109C526.423 244.359 526.605 244.688 526.73 245.094C526.861 245.495 526.926 245.99 526.926 246.578V252H524.848V246.562C524.848 246.177 524.79 245.872 524.676 245.648C524.566 245.424 524.405 245.266 524.191 245.172C523.983 245.078 523.725 245.031 523.418 245.031C523.1 245.031 522.822 245.096 522.582 245.227C522.348 245.352 522.15 245.526 521.988 245.75C521.832 245.974 521.712 246.232 521.629 246.523C521.546 246.815 521.504 247.13 521.504 247.469ZM533.395 249.688C533.395 249.51 533.348 249.352 533.254 249.211C533.16 249.07 532.983 248.943 532.723 248.828C532.467 248.708 532.092 248.596 531.598 248.492C531.16 248.398 530.757 248.281 530.387 248.141C530.017 248 529.699 247.831 529.434 247.633C529.168 247.43 528.96 247.193 528.809 246.922C528.663 246.646 528.59 246.328 528.59 245.969C528.59 245.62 528.665 245.292 528.816 244.984C528.967 244.672 529.186 244.398 529.473 244.164C529.759 243.924 530.108 243.737 530.52 243.602C530.931 243.461 531.395 243.391 531.91 243.391C532.629 243.391 533.246 243.508 533.762 243.742C534.283 243.977 534.681 244.299 534.957 244.711C535.233 245.117 535.371 245.576 535.371 246.086H533.309C533.309 245.862 533.257 245.659 533.152 245.477C533.053 245.294 532.9 245.148 532.691 245.039C532.483 244.924 532.22 244.867 531.902 244.867C531.616 244.867 531.374 244.914 531.176 245.008C530.983 245.102 530.837 245.224 530.738 245.375C530.639 245.526 530.59 245.693 530.59 245.875C530.59 246.01 530.616 246.133 530.668 246.242C530.725 246.346 530.816 246.443 530.941 246.531C531.066 246.62 531.236 246.701 531.449 246.773C531.668 246.846 531.936 246.917 532.254 246.984C532.884 247.109 533.434 247.276 533.902 247.484C534.376 247.688 534.746 247.958 535.012 248.297C535.277 248.635 535.41 249.068 535.41 249.594C535.41 249.969 535.329 250.312 535.168 250.625C535.007 250.932 534.772 251.201 534.465 251.43C534.158 251.659 533.79 251.839 533.363 251.969C532.936 252.094 532.454 252.156 531.918 252.156C531.142 252.156 530.486 252.018 529.949 251.742C529.413 251.461 529.007 251.107 528.73 250.68C528.454 250.247 528.316 249.799 528.316 249.336H530.293C530.309 249.664 530.397 249.927 530.559 250.125C530.72 250.323 530.923 250.466 531.168 250.555C531.418 250.638 531.681 250.68 531.957 250.68C532.27 250.68 532.533 250.638 532.746 250.555C532.96 250.466 533.121 250.349 533.23 250.203C533.34 250.052 533.395 249.88 533.395 249.688ZM539.168 243.547V252H537.098V243.547H539.168ZM536.957 241.336C536.957 241.029 537.061 240.773 537.27 240.57C537.483 240.367 537.77 240.266 538.129 240.266C538.488 240.266 538.772 240.367 538.98 240.57C539.194 240.773 539.301 241.029 539.301 241.336C539.301 241.638 539.194 241.891 538.98 242.094C538.772 242.297 538.488 242.398 538.129 242.398C537.77 242.398 537.483 242.297 537.27 242.094C537.061 241.891 536.957 241.638 536.957 241.336ZM544.605 250.531C544.897 250.531 545.158 250.474 545.387 250.359C545.616 250.245 545.798 250.083 545.934 249.875C546.074 249.667 546.15 249.424 546.16 249.148H548.105C548.095 249.721 547.934 250.234 547.621 250.688C547.309 251.141 546.892 251.5 546.371 251.766C545.855 252.026 545.277 252.156 544.637 252.156C543.986 252.156 543.418 252.047 542.934 251.828C542.449 251.609 542.046 251.305 541.723 250.914C541.405 250.523 541.165 250.07 541.004 249.555C540.848 249.039 540.77 248.487 540.77 247.898V247.648C540.77 247.06 540.848 246.508 541.004 245.992C541.165 245.477 541.405 245.023 541.723 244.633C542.046 244.242 542.449 243.938 542.934 243.719C543.418 243.5 543.983 243.391 544.629 243.391C545.311 243.391 545.91 243.523 546.426 243.789C546.947 244.055 547.353 244.43 547.645 244.914C547.941 245.398 548.095 245.969 548.105 246.625H546.16C546.15 246.323 546.082 246.052 545.957 245.812C545.832 245.573 545.655 245.38 545.426 245.234C545.197 245.089 544.918 245.016 544.59 245.016C544.241 245.016 543.949 245.089 543.715 245.234C543.486 245.38 543.306 245.581 543.176 245.836C543.051 246.086 542.962 246.367 542.91 246.68C542.863 246.987 542.84 247.31 542.84 247.648V247.898C542.84 248.242 542.863 248.57 542.91 248.883C542.962 249.195 543.051 249.477 543.176 249.727C543.306 249.971 543.486 250.167 543.715 250.312C543.949 250.458 544.246 250.531 544.605 250.531ZM551.504 240V252H549.434V240H551.504ZM551.176 247.469H550.566C550.566 246.88 550.645 246.339 550.801 245.844C550.957 245.349 551.178 244.919 551.465 244.555C551.751 244.185 552.092 243.898 552.488 243.695C552.889 243.492 553.332 243.391 553.816 243.391C554.233 243.391 554.611 243.451 554.949 243.57C555.293 243.685 555.587 243.87 555.832 244.125C556.077 244.38 556.264 244.714 556.395 245.125C556.53 245.531 556.598 246.026 556.598 246.609V252H554.52V246.594C554.52 246.203 554.462 245.896 554.348 245.672C554.233 245.443 554.069 245.279 553.855 245.18C553.647 245.081 553.389 245.031 553.082 245.031C552.749 245.031 552.462 245.096 552.223 245.227C551.983 245.352 551.785 245.526 551.629 245.75C551.478 245.974 551.363 246.232 551.285 246.523C551.212 246.815 551.176 247.13 551.176 247.469ZM562.215 252.156C561.574 252.156 560.999 252.052 560.488 251.844C559.978 251.635 559.543 251.346 559.184 250.977C558.829 250.602 558.556 250.167 558.363 249.672C558.176 249.172 558.082 248.635 558.082 248.062V247.75C558.082 247.099 558.176 246.508 558.363 245.977C558.551 245.44 558.816 244.979 559.16 244.594C559.504 244.208 559.915 243.911 560.395 243.703C560.874 243.495 561.402 243.391 561.98 243.391C562.579 243.391 563.108 243.492 563.566 243.695C564.025 243.893 564.408 244.174 564.715 244.539C565.022 244.904 565.254 245.341 565.41 245.852C565.566 246.357 565.645 246.917 565.645 247.531V248.398H559.02V246.977H563.613V246.82C563.603 246.492 563.54 246.193 563.426 245.922C563.311 245.646 563.134 245.427 562.895 245.266C562.655 245.099 562.345 245.016 561.965 245.016C561.658 245.016 561.389 245.083 561.16 245.219C560.936 245.349 560.749 245.536 560.598 245.781C560.452 246.021 560.342 246.307 560.27 246.641C560.197 246.974 560.16 247.344 560.16 247.75V248.062C560.16 248.417 560.207 248.745 560.301 249.047C560.4 249.349 560.543 249.612 560.73 249.836C560.923 250.055 561.152 250.227 561.418 250.352C561.689 250.471 561.996 250.531 562.34 250.531C562.772 250.531 563.163 250.448 563.512 250.281C563.866 250.109 564.173 249.857 564.434 249.523L565.473 250.602C565.296 250.862 565.056 251.112 564.754 251.352C564.457 251.591 564.098 251.786 563.676 251.938C563.254 252.083 562.767 252.156 562.215 252.156ZM569.09 245.273V252H567.027V243.547H568.98L569.09 245.273ZM571.66 243.492L571.629 245.414C571.514 245.393 571.384 245.378 571.238 245.367C571.098 245.357 570.965 245.352 570.84 245.352C570.522 245.352 570.243 245.396 570.004 245.484C569.764 245.568 569.564 245.69 569.402 245.852C569.246 246.013 569.126 246.211 569.043 246.445C568.96 246.674 568.913 246.935 568.902 247.227L568.457 247.172C568.457 246.635 568.512 246.138 568.621 245.68C568.73 245.221 568.889 244.82 569.098 244.477C569.306 244.133 569.566 243.867 569.879 243.68C570.197 243.487 570.561 243.391 570.973 243.391C571.087 243.391 571.21 243.401 571.34 243.422C571.475 243.438 571.582 243.461 571.66 243.492ZM577.824 249.992V243.547H579.902V252H577.949L577.824 249.992ZM578.09 248.242L578.73 248.227C578.73 248.794 578.668 249.318 578.543 249.797C578.418 250.276 578.223 250.693 577.957 251.047C577.697 251.396 577.366 251.669 576.965 251.867C576.564 252.06 576.09 252.156 575.543 252.156C575.126 252.156 574.746 252.099 574.402 251.984C574.059 251.865 573.762 251.68 573.512 251.43C573.267 251.174 573.077 250.849 572.941 250.453C572.806 250.052 572.738 249.57 572.738 249.008V243.547H574.801V249.023C574.801 249.305 574.832 249.539 574.895 249.727C574.962 249.914 575.053 250.068 575.168 250.188C575.288 250.302 575.426 250.385 575.582 250.438C575.743 250.484 575.915 250.508 576.098 250.508C576.598 250.508 576.991 250.409 577.277 250.211C577.569 250.008 577.777 249.737 577.902 249.398C578.027 249.055 578.09 248.669 578.09 248.242ZM583.754 245.352V252H581.691V243.547H583.629L583.754 245.352ZM583.426 247.469H582.816C582.822 246.854 582.905 246.297 583.066 245.797C583.228 245.297 583.454 244.867 583.746 244.508C584.043 244.148 584.395 243.872 584.801 243.68C585.207 243.487 585.66 243.391 586.16 243.391C586.566 243.391 586.934 243.448 587.262 243.562C587.59 243.677 587.871 243.859 588.105 244.109C588.345 244.359 588.527 244.688 588.652 245.094C588.783 245.495 588.848 245.99 588.848 246.578V252H586.77V246.562C586.77 246.177 586.712 245.872 586.598 245.648C586.488 245.424 586.327 245.266 586.113 245.172C585.905 245.078 585.647 245.031 585.34 245.031C585.022 245.031 584.743 245.096 584.504 245.227C584.27 245.352 584.072 245.526 583.91 245.75C583.754 245.974 583.634 246.232 583.551 246.523C583.467 246.815 583.426 247.13 583.426 247.469ZM596.043 243.547H597.918V251.742C597.918 252.508 597.751 253.156 597.418 253.688C597.09 254.224 596.629 254.63 596.035 254.906C595.441 255.188 594.751 255.328 593.965 255.328C593.626 255.328 593.259 255.281 592.863 255.188C592.473 255.094 592.095 254.945 591.73 254.742C591.371 254.544 591.072 254.286 590.832 253.969L591.762 252.75C592.043 253.078 592.361 253.326 592.715 253.492C593.069 253.664 593.452 253.75 593.863 253.75C594.28 253.75 594.634 253.672 594.926 253.516C595.223 253.365 595.449 253.141 595.605 252.844C595.767 252.552 595.848 252.193 595.848 251.766V245.477L596.043 243.547ZM590.332 247.875V247.711C590.332 247.065 590.41 246.479 590.566 245.953C590.723 245.422 590.947 244.966 591.238 244.586C591.535 244.206 591.892 243.911 592.309 243.703C592.73 243.495 593.204 243.391 593.73 243.391C594.288 243.391 594.757 243.492 595.137 243.695C595.522 243.898 595.84 244.188 596.09 244.562C596.345 244.938 596.543 245.383 596.684 245.898C596.829 246.409 596.941 246.971 597.02 247.586V248.031C596.947 248.63 596.829 249.18 596.668 249.68C596.512 250.18 596.303 250.617 596.043 250.992C595.783 251.362 595.46 251.648 595.074 251.852C594.689 252.055 594.236 252.156 593.715 252.156C593.194 252.156 592.725 252.049 592.309 251.836C591.892 251.622 591.535 251.323 591.238 250.938C590.947 250.552 590.723 250.099 590.566 249.578C590.41 249.057 590.332 248.49 590.332 247.875ZM592.395 247.711V247.875C592.395 248.24 592.431 248.581 592.504 248.898C592.577 249.216 592.689 249.497 592.84 249.742C592.991 249.982 593.181 250.169 593.41 250.305C593.639 250.44 593.913 250.508 594.23 250.508C594.658 250.508 595.007 250.419 595.277 250.242C595.553 250.06 595.762 249.812 595.902 249.5C596.048 249.182 596.142 248.826 596.184 248.43V247.203C596.158 246.891 596.1 246.602 596.012 246.336C595.928 246.07 595.811 245.841 595.66 245.648C595.509 245.456 595.316 245.305 595.082 245.195C594.848 245.086 594.569 245.031 594.246 245.031C593.934 245.031 593.66 245.102 593.426 245.242C593.191 245.378 592.999 245.568 592.848 245.812C592.697 246.057 592.582 246.341 592.504 246.664C592.431 246.987 592.395 247.336 592.395 247.711Z" fill="#3C3C3B"/>
<defs>
<clipPath id="clip0_1_6338">
<rect width="56" height="61" fill="white" transform="translate(275.885 45.5)"/>
</clipPath>
<clipPath id="clip1_1_6338">
<rect width="34" height="62" fill="white" transform="translate(380.385 206)"/>
</clipPath>
</defs>
</svg>
