<svg width="520" height="338" viewBox="0 0 520 338" fill="none" xmlns="http://www.w3.org/2000/svg">
<g clip-path="url(#clip0_1_5925)">
<path d="M509.07 172.545H10.5703V228.545H509.07V172.545Z" fill="#F5F5F5"/>
<path d="M66.5703 172.545H10.5703V228.545H66.5703V172.545Z" fill="#FACC15"/>
<path d="M512.07 230.045H9.07031V171.045H512.07V230.045ZM12.0703 227.045H509.07V174.045H12.0703V227.045Z" fill="#44403C"/>
<path d="M364.07 230.045H157.07V171.045H364.07V230.045ZM160.07 227.045H361.07V174.045H160.07V227.045Z" fill="#44403C"/>
<path d="M230.41 95.5249C230.41 94.4203 229.515 93.5249 228.41 93.5249C227.306 93.5249 226.41 94.4203 226.41 95.5249V146.825C226.41 147.929 227.306 148.825 228.41 148.825C229.515 148.825 230.41 147.929 230.41 146.825V95.5249Z" fill="#44403C"/>
<path d="M217.32 90.1953C217.32 89.0907 216.425 88.1953 215.32 88.1953C214.216 88.1953 213.32 89.0907 213.32 90.1953V160.895C213.32 162 214.216 162.895 215.32 162.895C216.425 162.895 217.32 162 217.32 160.895V90.1953Z" fill="#44403C"/>
<path d="M269.109 95.5249C269.109 94.4203 268.214 93.5249 267.109 93.5249C266.005 93.5249 265.109 94.4203 265.109 95.5249V146.825C265.109 147.929 266.005 148.825 267.109 148.825C268.214 148.825 269.109 147.929 269.109 146.825V95.5249Z" fill="#44403C"/>
<path d="M256.029 95.5249C256.029 94.4203 255.134 93.5249 254.029 93.5249C252.925 93.5249 252.029 94.4203 252.029 95.5249V146.825C252.029 147.929 252.925 148.825 254.029 148.825C255.134 148.825 256.029 147.929 256.029 146.825V95.5249Z" fill="#44403C"/>
<path d="M307.82 90.1953C307.82 89.0907 306.925 88.1953 305.82 88.1953C304.716 88.1953 303.82 89.0907 303.82 90.1953V160.895C303.82 162 304.716 162.895 305.82 162.895C306.925 162.895 307.82 162 307.82 160.895V90.1953Z" fill="#44403C"/>
<path d="M294.73 95.5249C294.73 94.4203 293.835 93.5249 292.73 93.5249C291.626 93.5249 290.73 94.4203 290.73 95.5249V146.825C290.73 147.929 291.626 148.825 292.73 148.825C293.835 148.825 294.73 147.929 294.73 146.825V95.5249Z" fill="#44403C"/>
<path d="M313.359 172.655C312.259 172.655 311.359 171.755 311.359 170.655V167.255C311.359 166.155 310.459 165.255 309.359 165.255H211.779C210.679 165.255 209.779 166.155 209.779 167.255V170.655C209.779 171.755 208.879 172.655 207.779 172.655C206.679 172.655 205.779 171.755 205.779 170.655V165.255C205.779 163.045 207.569 161.255 209.779 161.255H311.359C313.569 161.255 315.359 163.045 315.359 165.255V170.655C315.359 171.755 314.459 172.655 313.359 172.655Z" fill="#44403C"/>
<path d="M296.12 162.935C295.02 162.935 294.12 162.035 294.12 160.935V157.535C294.12 156.435 293.22 155.535 292.12 155.535H229.01C227.91 155.535 227.01 156.435 227.01 157.535V160.935C227.01 162.035 226.11 162.935 225.01 162.935C223.91 162.935 223.01 162.035 223.01 160.935V155.535C223.01 153.325 224.8 151.535 227.01 151.535H294.12C296.33 151.535 298.12 153.325 298.12 155.535V160.935C298.12 162.035 297.22 162.935 296.12 162.935Z" fill="#44403C"/>
<path d="M312.2 90.1951H208.92C206.71 90.1951 204.92 88.4051 204.92 86.1951V74.1951C204.92 73.3851 205.41 72.6551 206.15 72.3451L259.81 50.1051C260.3 49.9051 260.85 49.9051 261.34 50.1051L314.97 72.3451C315.72 72.6551 316.2 73.3851 316.2 74.1951V86.1951C316.2 88.4051 314.41 90.1951 312.2 90.1951ZM210.92 86.1951H310.2C311.3 86.1951 312.2 85.2951 312.2 84.1951V76.8751C312.2 76.0651 311.71 75.3351 310.97 75.0251L261.34 54.4351C260.85 54.2351 260.3 54.2351 259.81 54.4351L210.16 75.0251C209.41 75.3351 208.93 76.0651 208.93 76.8751V84.1951C208.93 85.2951 209.83 86.1951 210.93 86.1951H210.92Z" fill="#44403C"/>
<path d="M219.86 97.3149H217.32C216.216 97.3149 215.32 98.2104 215.32 99.3149C215.32 100.42 216.216 101.315 217.32 101.315H219.86C220.965 101.315 221.86 100.42 221.86 99.3149C221.86 98.2104 220.965 97.3149 219.86 97.3149Z" fill="#44403C"/>
<path d="M219.86 110.435H217.32C216.216 110.435 215.32 111.33 215.32 112.435C215.32 113.54 216.216 114.435 217.32 114.435H219.86C220.965 114.435 221.86 113.54 221.86 112.435C221.86 111.33 220.965 110.435 219.86 110.435Z" fill="#44403C"/>
<path d="M219.86 123.555H217.32C216.216 123.555 215.32 124.451 215.32 125.555C215.32 126.66 216.216 127.555 217.32 127.555H219.86C220.965 127.555 221.86 126.66 221.86 125.555C221.86 124.451 220.965 123.555 219.86 123.555Z" fill="#44403C"/>
<path d="M219.86 136.665H217.32C216.216 136.665 215.32 137.56 215.32 138.665C215.32 139.77 216.216 140.665 217.32 140.665H219.86C220.965 140.665 221.86 139.77 221.86 138.665C221.86 137.56 220.965 136.665 219.86 136.665Z" fill="#44403C"/>
<path d="M219.86 149.785H217.32C216.216 149.785 215.32 150.681 215.32 151.785C215.32 152.89 216.216 153.785 217.32 153.785H219.86C220.965 153.785 221.86 152.89 221.86 151.785C221.86 150.681 220.965 149.785 219.86 149.785Z" fill="#44403C"/>
<path d="M303.819 97.3149H301.279C300.175 97.3149 299.279 98.2104 299.279 99.3149C299.279 100.42 300.175 101.315 301.279 101.315H303.819C304.924 101.315 305.819 100.42 305.819 99.3149C305.819 98.2104 304.924 97.3149 303.819 97.3149Z" fill="#44403C"/>
<path d="M303.819 110.435H301.279C300.175 110.435 299.279 111.33 299.279 112.435C299.279 113.54 300.175 114.435 301.279 114.435H303.819C304.924 114.435 305.819 113.54 305.819 112.435C305.819 111.33 304.924 110.435 303.819 110.435Z" fill="#44403C"/>
<path d="M303.819 123.555H301.279C300.175 123.555 299.279 124.451 299.279 125.555C299.279 126.66 300.175 127.555 301.279 127.555H303.819C304.924 127.555 305.819 126.66 305.819 125.555C305.819 124.451 304.924 123.555 303.819 123.555Z" fill="#44403C"/>
<path d="M303.819 136.665H301.279C300.175 136.665 299.279 137.56 299.279 138.665C299.279 139.77 300.175 140.665 301.279 140.665H303.819C304.924 140.665 305.819 139.77 305.819 138.665C305.819 137.56 304.924 136.665 303.819 136.665Z" fill="#44403C"/>
<path d="M303.819 149.785H301.279C300.175 149.785 299.279 150.681 299.279 151.785C299.279 152.89 300.175 153.785 301.279 153.785H303.819C304.924 153.785 305.819 152.89 305.819 151.785C305.819 150.681 304.924 149.785 303.819 149.785Z" fill="#44403C"/>
<path d="M36.2897 137.585C9.24969 137.585 7.92969 129.595 7.92969 115.455C7.92969 106.105 13.5597 92.4251 29.3597 82.0451C30.0497 81.5951 30.9797 81.7851 31.4397 82.4751C31.8997 83.1651 31.6997 84.0951 31.0097 84.5551C16.1997 94.2751 10.9297 106.885 10.9297 115.455C10.9297 127.795 10.9297 134.585 36.2897 134.585C37.4797 134.585 38.6197 134.565 39.7097 134.535C40.4897 134.515 41.2297 135.165 41.2497 135.995C41.2697 136.825 40.6197 137.515 39.7897 137.535C38.6797 137.565 37.5097 137.585 36.2897 137.585Z" fill="#44403C"/>
<path d="M60.2388 104.645C59.6688 104.645 59.1188 104.315 58.8688 103.765C55.5588 96.4653 49.5788 89.8253 41.5688 84.5653C40.8788 84.1153 40.6788 83.1853 41.1388 82.4853C41.5988 81.7953 42.5288 81.6053 43.2188 82.0553C51.7088 87.6253 58.0688 94.7053 61.6088 102.525C61.9488 103.275 61.6088 104.165 60.8588 104.515C60.6588 104.605 60.4488 104.645 60.2388 104.645Z" fill="#44403C"/>
<path d="M33.8198 123.435C33.4798 123.435 33.1398 123.415 32.7998 123.385C30.0998 123.125 27.6698 121.875 26.1098 119.935C25.5898 119.285 25.6898 118.345 26.3398 117.825C26.9798 117.305 27.9298 117.405 28.4498 118.055C29.4998 119.365 31.1898 120.215 33.0898 120.395C36.4298 120.715 39.3498 118.855 39.5998 116.255C39.8298 113.855 39.2798 111.555 33.7798 110.925C26.9198 110.145 26.2798 105.965 26.5098 103.535C26.8598 99.8751 30.6198 97.2351 34.8798 97.6451C37.1798 97.8651 39.2598 98.9351 40.5898 100.585C41.1098 101.235 41.0098 102.175 40.3598 102.695C39.7098 103.215 38.7698 103.115 38.2498 102.465C37.4298 101.445 36.0898 100.775 34.5898 100.625C31.9898 100.375 29.6898 101.805 29.4898 103.815C29.3298 105.465 29.7198 107.435 34.1098 107.935C41.7098 108.795 42.9098 113.085 42.5798 116.525C42.1998 120.485 38.3698 123.415 33.8198 123.415V123.435Z" fill="#44403C"/>
<path d="M34.209 100.495C33.379 100.495 32.709 99.8251 32.709 98.9951V95.2351C32.709 94.4051 33.379 93.7351 34.209 93.7351C35.039 93.7351 35.709 94.4051 35.709 95.2351V98.9951C35.709 99.8251 35.039 100.495 34.209 100.495Z" fill="#44403C"/>
<path d="M34.209 127.255C33.379 127.255 32.709 126.585 32.709 125.755V121.995C32.709 121.165 33.379 120.495 34.209 120.495C35.039 120.495 35.709 121.165 35.709 121.995V125.755C35.709 126.585 35.039 127.255 34.209 127.255Z" fill="#44403C"/>
<path d="M40.2287 84.8049H32.1087C28.9987 84.8049 26.4688 82.2749 26.4688 79.1549C26.4688 76.0349 28.9987 73.5049 32.1087 73.5049H40.2287C43.3387 73.5049 45.8687 76.0349 45.8687 79.1549C45.8687 82.2749 43.3387 84.8049 40.2287 84.8049ZM32.1087 76.5149C30.6487 76.5149 29.4688 77.7049 29.4688 79.1649C29.4688 80.6249 30.6587 81.8149 32.1087 81.8149H40.2287C41.6887 81.8149 42.8687 80.6249 42.8687 79.1649C42.8687 77.7049 41.6787 76.5149 40.2287 76.5149H32.1087Z" fill="#44403C"/>
<path d="M41.3302 76.5051H31.0102C30.5202 76.5051 30.0602 76.2651 29.7802 75.8651C27.5202 72.6451 22.4602 64.8151 24.4502 61.5851C26.2702 58.6251 28.8202 59.9351 29.9102 60.4951C30.2102 60.6451 30.6602 60.8751 30.8202 60.8851C30.9502 60.8251 31.4402 60.2951 31.7702 59.9451C32.7402 58.9051 34.0602 57.4751 36.1802 57.4751C38.3002 57.4751 39.6202 58.8951 40.5902 59.9351C40.9102 60.2851 41.4002 60.8151 41.6102 60.8851C41.7002 60.8651 42.1502 60.6351 42.4502 60.4851C43.5402 59.9251 46.0902 58.6251 47.9002 61.5751C49.8802 64.8051 44.8302 72.6351 42.5702 75.8551C42.2902 76.2551 41.8302 76.4951 41.3402 76.4951L41.3302 76.5051ZM31.8002 73.5051H40.5502C43.6002 69.0151 45.8502 64.1951 45.3302 63.1551C45.0902 62.7684 44.5802 62.7718 43.8002 63.1651C43.0102 63.5651 42.1202 64.0251 41.0802 63.8551C39.9202 63.6651 39.1302 62.8151 38.3702 61.9951C37.5202 61.0851 36.9102 60.4851 36.1602 60.4851C35.4102 60.4851 34.8002 61.0851 33.9502 61.9951C33.1902 62.8151 32.4102 63.6551 31.2502 63.8551C30.2102 64.0251 29.3202 63.5751 28.5302 63.1651C27.3602 62.5651 27.3602 62.5651 27.0002 63.1651C26.4902 64.1951 28.7302 69.0151 31.7902 73.5151L31.8002 73.5051Z" fill="#44403C"/>
<path d="M68.7388 88.8451C61.7488 88.8451 56.4688 86.1451 56.4688 82.5551C56.4688 78.9651 61.7388 76.2651 68.7388 76.2651C75.7388 76.2651 80.9987 78.9651 80.9987 82.5551C80.9987 86.1451 75.7288 88.8451 68.7388 88.8451ZM68.7388 79.2651C63.1688 79.2651 59.4688 81.2451 59.4688 82.5551C59.4688 83.8651 63.1688 85.8451 68.7388 85.8451C74.3088 85.8451 77.9987 83.8651 77.9987 82.5551C77.9987 81.2451 74.3088 79.2651 68.7388 79.2651Z" fill="#44403C"/>
<path d="M68.7406 94.9653C67.3306 94.9653 64.0205 94.9653 60.8205 93.5953C60.0605 93.2653 59.7105 92.3853 60.0305 91.6253C60.3605 90.8653 61.2405 90.5153 62.0005 90.8353C64.6205 91.9653 67.5005 91.9653 68.7305 91.9653C74.3006 91.9653 77.9905 89.9853 77.9905 88.6753C77.9905 87.8453 78.6605 87.1753 79.4905 87.1753C80.3205 87.1753 80.9905 87.8453 80.9905 88.6753C80.9905 92.2653 75.7205 94.9653 68.7305 94.9653H68.7406Z" fill="#44403C"/>
<path d="M68.7398 101.755C67.3598 101.755 66.0198 101.625 64.7298 101.385C63.9198 101.225 63.3798 100.445 63.5398 99.6251C63.6998 98.8151 64.4898 98.2751 65.2998 98.4351C66.3998 98.6451 67.5498 98.7551 68.7398 98.7551C74.0398 98.7551 77.9998 96.5651 77.9998 94.5951C77.9998 93.7651 78.6698 93.0951 79.4998 93.0951C80.3298 93.0951 80.9998 93.7651 80.9998 94.5951C80.9998 98.6051 75.6098 101.755 68.7398 101.755Z" fill="#44403C"/>
<path d="M67.5304 151.195C65.5704 151.195 63.6104 150.615 62.3404 149.555L45.9204 135.895C45.2804 135.365 45.2004 134.415 45.7304 133.785C46.2604 133.145 47.2004 133.065 47.8404 133.595L64.2704 147.255C65.4404 148.235 67.9604 148.505 69.6704 147.825L110.16 131.955C110.93 131.655 111.8 132.035 112.1 132.805C112.4 133.575 112.02 134.445 111.25 134.745L70.7704 150.615C69.7804 151.005 68.6604 151.195 67.5304 151.195Z" fill="#44403C"/>
<path d="M93.7702 132.945C93.1702 132.945 92.6002 132.585 92.3702 131.995C92.0702 131.225 92.4502 130.355 93.2202 130.055L110.15 123.415C110.92 123.115 111.79 123.495 112.09 124.265C112.39 125.035 112.01 125.905 111.24 126.205L94.3102 132.845C94.1302 132.915 93.9402 132.945 93.7602 132.945H93.7702Z" fill="#44403C"/>
<path d="M67.5304 142.935C65.5604 142.935 63.6004 142.355 62.3404 141.285L45.9204 127.625C45.2804 127.095 45.2004 126.145 45.7304 125.515C46.2604 124.875 47.2004 124.795 47.8404 125.325L64.2704 138.985C65.4404 139.965 67.9504 140.235 69.6704 139.555L84.2804 133.825C85.0504 133.525 85.9204 133.905 86.2204 134.675C86.5204 135.445 86.1404 136.315 85.3704 136.615L70.7604 142.345C69.7704 142.735 68.6504 142.925 67.5304 142.925V142.935Z" fill="#44403C"/>
<path d="M67.5304 134.195C65.5704 134.195 63.6104 133.615 62.3404 132.555L48.1204 120.555C47.0304 119.635 46.5204 118.425 46.7204 117.215C46.9404 115.845 48.0404 114.675 49.7204 114.005L86.9804 99.3351C89.7104 98.2551 93.4104 98.7151 95.4004 100.395L109.62 112.395C110.7 113.305 111.22 114.525 111.02 115.735C110.8 117.105 109.7 118.275 108.02 118.945L94.4104 124.305C93.6404 124.605 92.7704 124.235 92.4604 123.455C92.1604 122.685 92.5404 121.815 93.3104 121.515L106.92 116.155C107.76 115.825 108.03 115.425 108.06 115.255C108.08 115.115 107.94 114.905 107.69 114.695L93.4704 102.695C92.3104 101.715 89.8004 101.455 88.0904 102.125L50.8304 116.795C49.9904 117.125 49.7104 117.525 49.6904 117.695C49.6704 117.835 49.8104 118.045 50.0604 118.265L64.2804 130.265C65.4404 131.245 67.9604 131.505 69.6704 130.835L84.3404 125.065C85.1104 124.765 85.9804 125.135 86.2904 125.915C86.5904 126.685 86.2104 127.555 85.4404 127.855L70.7704 133.625C69.7804 134.015 68.6504 134.205 67.5304 134.205V134.195Z" fill="#44403C"/>
<path d="M85.1888 144.845C84.8888 144.845 84.5988 144.755 84.3388 144.585C83.9288 144.305 83.6888 143.845 83.6888 143.345V127.025L64.4088 110.605C64.0088 110.265 63.8188 109.735 63.8988 109.215C63.9888 108.695 64.3388 108.255 64.8288 108.065L73.5788 104.625C74.0988 104.425 74.6888 104.525 75.1188 104.895L94.6188 121.885C94.9488 122.165 95.1288 122.585 95.1288 123.015V140.045C95.1288 140.665 94.7488 141.215 94.1788 141.445L85.7388 144.755C85.5588 144.825 85.3788 144.855 85.1888 144.855V144.845ZM68.2588 109.945L86.1588 125.195C86.4888 125.485 86.6888 125.895 86.6888 126.335V141.155L92.1288 139.025V123.705L73.8288 107.765L68.2588 109.955V109.945Z" fill="#44403C"/>
<path d="M68.0703 172.125H65.0703V229.395H68.0703V172.125Z" fill="#44403C"/>
<path d="M66.5693 176.695L52.7793 162.915H80.3493L66.5693 176.695Z" fill="#44403C"/>
<path d="M10.584 245.183V251H8.7793V243.604H10.4746L10.584 245.183ZM10.2969 247.035H9.76367C9.76823 246.497 9.84115 246.01 9.98242 245.572C10.1237 245.135 10.3219 244.759 10.5771 244.444C10.8369 244.13 11.1445 243.888 11.5 243.72C11.8555 243.551 12.252 243.467 12.6895 243.467C13.0449 243.467 13.3662 243.517 13.6533 243.617C13.9404 243.717 14.1865 243.877 14.3916 244.096C14.6012 244.314 14.7607 244.602 14.8701 244.957C14.984 245.308 15.041 245.741 15.041 246.256V251H13.2227V246.242C13.2227 245.905 13.1725 245.638 13.0723 245.442C12.9766 245.246 12.8353 245.107 12.6484 245.025C12.4661 244.943 12.2406 244.902 11.9717 244.902C11.6937 244.902 11.4499 244.959 11.2402 245.073C11.0352 245.183 10.862 245.335 10.7207 245.531C10.584 245.727 10.4792 245.953 10.4062 246.208C10.3333 246.463 10.2969 246.739 10.2969 247.035ZM18.5479 243.604V251H16.7363V243.604H18.5479ZM16.6133 241.669C16.6133 241.4 16.7044 241.177 16.8867 240.999C17.0736 240.821 17.3242 240.732 17.6387 240.732C17.9531 240.732 18.2015 240.821 18.3838 240.999C18.5706 241.177 18.6641 241.4 18.6641 241.669C18.6641 241.933 18.5706 242.154 18.3838 242.332C18.2015 242.51 17.9531 242.599 17.6387 242.599C17.3242 242.599 17.0736 242.51 16.8867 242.332C16.7044 242.154 16.6133 241.933 16.6133 241.669ZM23.5928 251.137C23.0322 251.137 22.5286 251.046 22.082 250.863C21.6354 250.681 21.2549 250.428 20.9404 250.104C20.6305 249.776 20.3913 249.396 20.2227 248.963C20.0586 248.525 19.9766 248.056 19.9766 247.555V247.281C19.9766 246.712 20.0586 246.194 20.2227 245.729C20.3867 245.26 20.6191 244.857 20.9199 244.52C21.2207 244.182 21.5807 243.923 22 243.74C22.4193 243.558 22.8818 243.467 23.3877 243.467C23.9118 243.467 24.3743 243.556 24.7754 243.733C25.1764 243.907 25.5114 244.153 25.7803 244.472C26.0492 244.791 26.252 245.174 26.3887 245.62C26.5254 246.062 26.5938 246.552 26.5938 247.09V247.849H20.7969V246.604H24.8164V246.468C24.8073 246.181 24.7526 245.919 24.6523 245.682C24.5521 245.44 24.3971 245.249 24.1875 245.107C23.9779 244.962 23.7067 244.889 23.374 244.889C23.1051 244.889 22.8704 244.948 22.6699 245.066C22.474 245.18 22.3099 245.344 22.1777 245.559C22.0501 245.768 21.9544 246.019 21.8906 246.311C21.8268 246.602 21.7949 246.926 21.7949 247.281V247.555C21.7949 247.865 21.8359 248.152 21.918 248.416C22.0046 248.68 22.1299 248.91 22.2939 249.106C22.4626 249.298 22.6631 249.448 22.8955 249.558C23.1325 249.662 23.4014 249.715 23.7021 249.715C24.0804 249.715 24.4222 249.642 24.7275 249.496C25.0374 249.346 25.3063 249.125 25.5342 248.833L26.4434 249.776C26.2884 250.004 26.0788 250.223 25.8145 250.433C25.5547 250.642 25.2402 250.813 24.8711 250.945C24.502 251.073 24.0758 251.137 23.5928 251.137ZM32.2402 249.428V240.5H34.0586V251H32.418L32.2402 249.428ZM27.4893 247.391V247.247C27.4893 246.682 27.5531 246.169 27.6807 245.709C27.8128 245.244 28.0042 244.845 28.2549 244.513C28.5055 244.18 28.8086 243.923 29.1641 243.74C29.5241 243.558 29.932 243.467 30.3877 243.467C30.8298 243.467 31.2148 243.556 31.543 243.733C31.8757 243.911 32.1582 244.164 32.3906 244.492C32.6276 244.82 32.8167 245.21 32.958 245.661C33.0993 246.108 33.2018 246.6 33.2656 247.138V247.527C33.2018 248.051 33.0993 248.532 32.958 248.97C32.8167 249.407 32.6276 249.79 32.3906 250.118C32.1582 250.442 31.8757 250.692 31.543 250.87C31.2103 251.048 30.8206 251.137 30.374 251.137C29.9229 251.137 29.5173 251.043 29.1572 250.856C28.8018 250.67 28.4987 250.408 28.248 250.07C28.002 249.733 27.8128 249.337 27.6807 248.881C27.5531 248.425 27.4893 247.928 27.4893 247.391ZM29.3008 247.247V247.391C29.3008 247.71 29.3281 248.008 29.3828 248.286C29.4375 248.564 29.5264 248.81 29.6494 249.024C29.7725 249.234 29.9297 249.398 30.1211 249.517C30.3171 249.635 30.554 249.694 30.832 249.694C31.1875 249.694 31.4792 249.617 31.707 249.462C31.9395 249.302 32.1195 249.086 32.2471 248.812C32.3747 248.535 32.4567 248.222 32.4932 247.876V246.803C32.4749 246.529 32.4271 246.276 32.3496 246.044C32.2767 245.812 32.1719 245.611 32.0352 245.442C31.903 245.274 31.7389 245.142 31.543 245.046C31.347 244.95 31.1146 244.902 30.8457 244.902C30.5677 244.902 30.3307 244.964 30.1348 245.087C29.9388 245.205 29.7793 245.372 29.6562 245.586C29.5332 245.8 29.4421 246.049 29.3828 246.331C29.3281 246.614 29.3008 246.919 29.3008 247.247ZM37.4971 245.114V251H35.6924V243.604H37.4014L37.4971 245.114ZM39.7461 243.556L39.7188 245.237C39.6185 245.219 39.5046 245.205 39.377 245.196C39.2539 245.187 39.1377 245.183 39.0283 245.183C38.7503 245.183 38.5065 245.221 38.2969 245.299C38.0872 245.372 37.9118 245.479 37.7705 245.62C37.6338 245.761 37.529 245.935 37.4561 246.14C37.3831 246.34 37.3421 246.568 37.333 246.823L36.9434 246.775C36.9434 246.306 36.9912 245.871 37.0869 245.47C37.1826 245.069 37.3216 244.718 37.5039 244.417C37.6862 244.116 37.9141 243.884 38.1875 243.72C38.4655 243.551 38.7845 243.467 39.1445 243.467C39.2448 243.467 39.3519 243.476 39.4658 243.494C39.5843 243.508 39.6777 243.528 39.7461 243.556ZM42.6514 243.604V251H40.8398V243.604H42.6514ZM40.7168 241.669C40.7168 241.4 40.8079 241.177 40.9902 240.999C41.1771 240.821 41.4277 240.732 41.7422 240.732C42.0566 240.732 42.305 240.821 42.4873 240.999C42.6742 241.177 42.7676 241.4 42.7676 241.669C42.7676 241.933 42.6742 242.154 42.4873 242.332C42.305 242.51 42.0566 242.599 41.7422 242.599C41.4277 242.599 41.1771 242.51 40.9902 242.332C40.8079 242.154 40.7168 241.933 40.7168 241.669ZM49.0771 243.604H50.7178V250.774C50.7178 251.444 50.5719 252.012 50.2803 252.477C49.9932 252.946 49.5898 253.301 49.0703 253.543C48.5508 253.789 47.9469 253.912 47.2588 253.912C46.9626 253.912 46.6413 253.871 46.2949 253.789C45.9531 253.707 45.6227 253.577 45.3037 253.399C44.9893 253.226 44.7272 253.001 44.5176 252.723L45.3311 251.656C45.5771 251.943 45.8551 252.16 46.165 252.306C46.4749 252.456 46.8099 252.531 47.1699 252.531C47.5345 252.531 47.8444 252.463 48.0996 252.326C48.3594 252.194 48.5576 251.998 48.6943 251.738C48.8356 251.483 48.9062 251.169 48.9062 250.795V245.292L49.0771 243.604ZM44.0801 247.391V247.247C44.0801 246.682 44.1484 246.169 44.2852 245.709C44.4219 245.244 44.6178 244.845 44.873 244.513C45.1328 244.18 45.445 243.923 45.8096 243.74C46.1787 243.558 46.5934 243.467 47.0537 243.467C47.5413 243.467 47.9515 243.556 48.2842 243.733C48.6214 243.911 48.8994 244.164 49.1182 244.492C49.3415 244.82 49.5146 245.21 49.6377 245.661C49.7653 246.108 49.8633 246.6 49.9316 247.138V247.527C49.8678 248.051 49.7653 248.532 49.624 248.97C49.4873 249.407 49.305 249.79 49.0771 250.118C48.8493 250.442 48.5667 250.692 48.2295 250.87C47.8923 251.048 47.4958 251.137 47.04 251.137C46.5843 251.137 46.1742 251.043 45.8096 250.856C45.445 250.67 45.1328 250.408 44.873 250.07C44.6178 249.733 44.4219 249.337 44.2852 248.881C44.1484 248.425 44.0801 247.928 44.0801 247.391ZM45.8848 247.247V247.391C45.8848 247.71 45.9167 248.008 45.9805 248.286C46.0443 248.564 46.1423 248.81 46.2744 249.024C46.4066 249.234 46.5729 249.398 46.7734 249.517C46.974 249.635 47.2132 249.694 47.4912 249.694C47.8649 249.694 48.1702 249.617 48.4072 249.462C48.6488 249.302 48.8311 249.086 48.9541 248.812C49.0817 248.535 49.1637 248.222 49.2002 247.876V246.803C49.1774 246.529 49.1273 246.276 49.0498 246.044C48.9769 245.812 48.8743 245.611 48.7422 245.442C48.61 245.274 48.4414 245.142 48.2363 245.046C48.0312 244.95 47.7874 244.902 47.5049 244.902C47.2314 244.902 46.9922 244.964 46.7871 245.087C46.582 245.205 46.4134 245.372 46.2812 245.586C46.1491 245.8 46.0488 246.049 45.9805 246.331C45.9167 246.614 45.8848 246.919 45.8848 247.247ZM55.667 251.137C55.1064 251.137 54.6029 251.046 54.1562 250.863C53.7096 250.681 53.3291 250.428 53.0146 250.104C52.7048 249.776 52.4655 249.396 52.2969 248.963C52.1328 248.525 52.0508 248.056 52.0508 247.555V247.281C52.0508 246.712 52.1328 246.194 52.2969 245.729C52.4609 245.26 52.6934 244.857 52.9941 244.52C53.2949 244.182 53.6549 243.923 54.0742 243.74C54.4935 243.558 54.9561 243.467 55.4619 243.467C55.986 243.467 56.4486 243.556 56.8496 243.733C57.2507 243.907 57.5856 244.153 57.8545 244.472C58.1234 244.791 58.3262 245.174 58.4629 245.62C58.5996 246.062 58.668 246.552 58.668 247.09V247.849H52.8711V246.604H56.8906V246.468C56.8815 246.181 56.8268 245.919 56.7266 245.682C56.6263 245.44 56.4714 245.249 56.2617 245.107C56.0521 244.962 55.7809 244.889 55.4482 244.889C55.1794 244.889 54.9447 244.948 54.7441 245.066C54.5482 245.18 54.3841 245.344 54.252 245.559C54.1243 245.768 54.0286 246.019 53.9648 246.311C53.901 246.602 53.8691 246.926 53.8691 247.281V247.555C53.8691 247.865 53.9102 248.152 53.9922 248.416C54.0788 248.68 54.2041 248.91 54.3682 249.106C54.5368 249.298 54.7373 249.448 54.9697 249.558C55.2067 249.662 55.4756 249.715 55.7764 249.715C56.1546 249.715 56.4964 249.642 56.8018 249.496C57.1117 249.346 57.3805 249.125 57.6084 248.833L58.5176 249.776C58.3626 250.004 58.153 250.223 57.8887 250.433C57.6289 250.642 57.3145 250.813 56.9453 250.945C56.5762 251.073 56.1501 251.137 55.667 251.137ZM63.9453 248.977C63.9453 248.822 63.9043 248.683 63.8223 248.56C63.7402 248.437 63.5853 248.325 63.3574 248.225C63.1341 248.12 62.806 248.022 62.373 247.931C61.9902 247.849 61.637 247.746 61.3135 247.623C60.9899 247.5 60.7119 247.352 60.4795 247.179C60.2471 247.001 60.0648 246.794 59.9326 246.557C59.805 246.315 59.7412 246.037 59.7412 245.723C59.7412 245.417 59.8073 245.13 59.9395 244.861C60.0716 244.588 60.263 244.349 60.5137 244.144C60.7643 243.934 61.0697 243.77 61.4297 243.651C61.7897 243.528 62.1953 243.467 62.6465 243.467C63.2754 243.467 63.8154 243.569 64.2666 243.774C64.7223 243.979 65.071 244.262 65.3125 244.622C65.554 244.978 65.6748 245.379 65.6748 245.825H63.8701C63.8701 245.629 63.8245 245.451 63.7334 245.292C63.6468 245.132 63.5124 245.005 63.3301 244.909C63.1478 244.809 62.9176 244.759 62.6396 244.759C62.389 244.759 62.1771 244.8 62.0039 244.882C61.8353 244.964 61.7077 245.071 61.6211 245.203C61.5345 245.335 61.4912 245.481 61.4912 245.641C61.4912 245.759 61.514 245.866 61.5596 245.962C61.6097 246.053 61.6895 246.137 61.7988 246.215C61.9082 246.292 62.0563 246.363 62.2432 246.427C62.4346 246.491 62.6693 246.552 62.9473 246.611C63.4987 246.721 63.9795 246.867 64.3896 247.049C64.8044 247.227 65.1279 247.464 65.3604 247.76C65.5928 248.056 65.709 248.434 65.709 248.895C65.709 249.223 65.6383 249.523 65.4971 249.797C65.3558 250.066 65.1507 250.3 64.8818 250.501C64.613 250.701 64.2917 250.859 63.918 250.973C63.5443 251.082 63.1227 251.137 62.6533 251.137C61.9743 251.137 61.4001 251.016 60.9307 250.774C60.4613 250.528 60.1058 250.218 59.8643 249.845C59.6227 249.466 59.502 249.075 59.502 248.669H61.2314C61.2451 248.956 61.3226 249.186 61.4639 249.359C61.6051 249.533 61.7829 249.658 61.9971 249.735C62.2158 249.808 62.446 249.845 62.6875 249.845C62.9609 249.845 63.1911 249.808 63.3779 249.735C63.5648 249.658 63.7061 249.555 63.8018 249.428C63.8975 249.296 63.9453 249.145 63.9453 248.977ZM70.7061 241.047H74.3223C75.0788 241.047 75.7282 241.161 76.2705 241.389C76.8128 241.617 77.2298 241.954 77.5215 242.4C77.8132 242.847 77.959 243.396 77.959 244.048C77.959 244.563 77.8678 245.009 77.6855 245.388C77.5033 245.766 77.2458 246.083 76.9131 246.338C76.585 246.593 76.1976 246.794 75.751 246.939L75.1631 247.24H71.9707L71.957 245.757H74.3428C74.7301 245.757 75.0514 245.688 75.3066 245.552C75.5618 245.415 75.7533 245.226 75.8809 244.984C76.013 244.743 76.0791 244.467 76.0791 244.157C76.0791 243.825 76.0153 243.537 75.8877 243.296C75.7601 243.05 75.5664 242.861 75.3066 242.729C75.0469 242.596 74.7188 242.53 74.3223 242.53H72.5859V251H70.7061V241.047ZM76.3252 251L74.0215 246.543L76.0107 246.536L78.3418 250.904V251H76.3252ZM81.3838 243.604V251H79.5723V243.604H81.3838ZM79.4492 241.669C79.4492 241.4 79.5404 241.177 79.7227 240.999C79.9095 240.821 80.1602 240.732 80.4746 240.732C80.7891 240.732 81.0374 240.821 81.2197 240.999C81.4066 241.177 81.5 241.4 81.5 241.669C81.5 241.933 81.4066 242.154 81.2197 242.332C81.0374 242.51 80.7891 242.599 80.4746 242.599C80.1602 242.599 79.9095 242.51 79.7227 242.332C79.5404 242.154 79.4492 241.933 79.4492 241.669ZM87.1738 248.977C87.1738 248.822 87.1328 248.683 87.0508 248.56C86.9688 248.437 86.8138 248.325 86.5859 248.225C86.3626 248.12 86.0345 248.022 85.6016 247.931C85.2188 247.849 84.8656 247.746 84.542 247.623C84.2184 247.5 83.9404 247.352 83.708 247.179C83.4756 247.001 83.2933 246.794 83.1611 246.557C83.0335 246.315 82.9697 246.037 82.9697 245.723C82.9697 245.417 83.0358 245.13 83.168 244.861C83.3001 244.588 83.4915 244.349 83.7422 244.144C83.9928 243.934 84.2982 243.77 84.6582 243.651C85.0182 243.528 85.4238 243.467 85.875 243.467C86.5039 243.467 87.0439 243.569 87.4951 243.774C87.9508 243.979 88.2995 244.262 88.541 244.622C88.7826 244.978 88.9033 245.379 88.9033 245.825H87.0986C87.0986 245.629 87.0531 245.451 86.9619 245.292C86.8753 245.132 86.7409 245.005 86.5586 244.909C86.3763 244.809 86.1462 244.759 85.8682 244.759C85.6175 244.759 85.4056 244.8 85.2324 244.882C85.0638 244.964 84.9362 245.071 84.8496 245.203C84.763 245.335 84.7197 245.481 84.7197 245.641C84.7197 245.759 84.7425 245.866 84.7881 245.962C84.8382 246.053 84.918 246.137 85.0273 246.215C85.1367 246.292 85.2848 246.363 85.4717 246.427C85.6631 246.491 85.8978 246.552 86.1758 246.611C86.7272 246.721 87.208 246.867 87.6182 247.049C88.0329 247.227 88.3564 247.464 88.5889 247.76C88.8213 248.056 88.9375 248.434 88.9375 248.895C88.9375 249.223 88.8669 249.523 88.7256 249.797C88.5843 250.066 88.3792 250.3 88.1104 250.501C87.8415 250.701 87.5202 250.859 87.1465 250.973C86.7728 251.082 86.3512 251.137 85.8818 251.137C85.2028 251.137 84.6286 251.016 84.1592 250.774C83.6898 250.528 83.3343 250.218 83.0928 249.845C82.8512 249.466 82.7305 249.075 82.7305 248.669H84.46C84.4736 248.956 84.5511 249.186 84.6924 249.359C84.8337 249.533 85.0114 249.658 85.2256 249.735C85.4443 249.808 85.6745 249.845 85.916 249.845C86.1895 249.845 86.4196 249.808 86.6064 249.735C86.7933 249.658 86.9346 249.555 87.0303 249.428C87.126 249.296 87.1738 249.145 87.1738 248.977ZM92.1162 240.493V251H90.3115V240.493H92.1162ZM96.751 243.604L93.5312 247.22L91.7881 248.99L91.2139 247.589L92.5605 245.894L94.5703 243.604H96.751ZM94.9053 251L92.6152 247.555L93.8184 246.386L96.9971 251H94.9053ZM99.6221 243.604V251H97.8105V243.604H99.6221ZM97.6875 241.669C97.6875 241.4 97.7786 241.177 97.9609 240.999C98.1478 240.821 98.3984 240.732 98.7129 240.732C99.0273 240.732 99.2757 240.821 99.458 240.999C99.6449 241.177 99.7383 241.4 99.7383 241.669C99.7383 241.933 99.6449 242.154 99.458 242.332C99.2757 242.51 99.0273 242.599 98.7129 242.599C98.3984 242.599 98.1478 242.51 97.9609 242.332C97.7786 242.154 97.6875 241.933 97.6875 241.669ZM101.023 247.377V247.233C101.023 246.691 101.101 246.192 101.256 245.736C101.411 245.276 101.636 244.877 101.933 244.54C102.229 244.203 102.591 243.941 103.02 243.754C103.448 243.562 103.936 243.467 104.482 243.467C105.038 243.467 105.531 243.562 105.959 243.754C106.392 243.941 106.757 244.203 107.053 244.54C107.349 244.877 107.575 245.276 107.729 245.736C107.884 246.192 107.962 246.691 107.962 247.233V247.377C107.962 247.915 107.884 248.414 107.729 248.874C107.575 249.33 107.349 249.729 107.053 250.07C106.757 250.408 106.394 250.67 105.966 250.856C105.537 251.043 105.048 251.137 104.496 251.137C103.949 251.137 103.459 251.043 103.026 250.856C102.593 250.67 102.229 250.408 101.933 250.07C101.636 249.729 101.411 249.33 101.256 248.874C101.101 248.414 101.023 247.915 101.023 247.377ZM102.828 247.233V247.377C102.828 247.701 102.86 248.004 102.924 248.286C102.988 248.569 103.086 248.817 103.218 249.031C103.35 249.245 103.521 249.414 103.73 249.537C103.945 249.656 104.2 249.715 104.496 249.715C104.788 249.715 105.038 249.656 105.248 249.537C105.458 249.414 105.629 249.245 105.761 249.031C105.897 248.817 105.998 248.569 106.062 248.286C106.125 248.004 106.157 247.701 106.157 247.377V247.233C106.157 246.914 106.125 246.616 106.062 246.338C105.998 246.055 105.897 245.807 105.761 245.593C105.629 245.374 105.455 245.203 105.241 245.08C105.032 244.952 104.779 244.889 104.482 244.889C104.191 244.889 103.94 244.952 103.73 245.08C103.521 245.203 103.35 245.374 103.218 245.593C103.086 245.807 102.988 246.055 102.924 246.338C102.86 246.616 102.828 246.914 102.828 247.233Z" fill="#3C3C3B"/>
<path d="M433.584 240.5V251H431.772V240.5H433.584ZM433.297 247.035H432.764C432.764 246.52 432.832 246.046 432.969 245.613C433.105 245.18 433.299 244.804 433.55 244.485C433.8 244.162 434.099 243.911 434.445 243.733C434.796 243.556 435.184 243.467 435.607 243.467C435.972 243.467 436.302 243.519 436.599 243.624C436.899 243.724 437.157 243.886 437.371 244.109C437.585 244.333 437.749 244.624 437.863 244.984C437.982 245.34 438.041 245.773 438.041 246.283V251H436.223V246.27C436.223 245.928 436.173 245.659 436.072 245.463C435.972 245.262 435.828 245.119 435.642 245.032C435.459 244.946 435.234 244.902 434.965 244.902C434.673 244.902 434.423 244.959 434.213 245.073C434.003 245.183 433.83 245.335 433.693 245.531C433.561 245.727 433.461 245.953 433.393 246.208C433.329 246.463 433.297 246.739 433.297 247.035ZM439.312 247.377V247.233C439.312 246.691 439.39 246.192 439.545 245.736C439.7 245.276 439.925 244.877 440.222 244.54C440.518 244.203 440.88 243.941 441.309 243.754C441.737 243.562 442.225 243.467 442.771 243.467C443.327 243.467 443.82 243.562 444.248 243.754C444.681 243.941 445.046 244.203 445.342 244.54C445.638 244.877 445.864 245.276 446.019 245.736C446.174 246.192 446.251 246.691 446.251 247.233V247.377C446.251 247.915 446.174 248.414 446.019 248.874C445.864 249.33 445.638 249.729 445.342 250.07C445.046 250.408 444.683 250.67 444.255 250.856C443.826 251.043 443.337 251.137 442.785 251.137C442.238 251.137 441.748 251.043 441.315 250.856C440.882 250.67 440.518 250.408 440.222 250.07C439.925 249.729 439.7 249.33 439.545 248.874C439.39 248.414 439.312 247.915 439.312 247.377ZM441.117 247.233V247.377C441.117 247.701 441.149 248.004 441.213 248.286C441.277 248.569 441.375 248.817 441.507 249.031C441.639 249.245 441.81 249.414 442.02 249.537C442.234 249.656 442.489 249.715 442.785 249.715C443.077 249.715 443.327 249.656 443.537 249.537C443.747 249.414 443.918 249.245 444.05 249.031C444.187 248.817 444.287 248.569 444.351 248.286C444.414 248.004 444.446 247.701 444.446 247.377V247.233C444.446 246.914 444.414 246.616 444.351 246.338C444.287 246.055 444.187 245.807 444.05 245.593C443.918 245.374 443.744 245.203 443.53 245.08C443.321 244.952 443.068 244.889 442.771 244.889C442.48 244.889 442.229 244.952 442.02 245.08C441.81 245.203 441.639 245.374 441.507 245.593C441.375 245.807 441.277 246.055 441.213 246.338C441.149 246.616 441.117 246.914 441.117 247.233ZM449.334 240.5V251H447.522V240.5H449.334ZM449.047 247.035H448.514C448.514 246.52 448.582 246.046 448.719 245.613C448.855 245.18 449.049 244.804 449.3 244.485C449.55 244.162 449.849 243.911 450.195 243.733C450.546 243.556 450.934 243.467 451.357 243.467C451.722 243.467 452.052 243.519 452.349 243.624C452.649 243.724 452.907 243.886 453.121 244.109C453.335 244.333 453.499 244.624 453.613 244.984C453.732 245.34 453.791 245.773 453.791 246.283V251H451.973V246.27C451.973 245.928 451.923 245.659 451.822 245.463C451.722 245.262 451.578 245.119 451.392 245.032C451.209 244.946 450.984 244.902 450.715 244.902C450.423 244.902 450.173 244.959 449.963 245.073C449.753 245.183 449.58 245.335 449.443 245.531C449.311 245.727 449.211 245.953 449.143 246.208C449.079 246.463 449.047 246.739 449.047 247.035ZM458.706 251.137C458.146 251.137 457.642 251.046 457.195 250.863C456.749 250.681 456.368 250.428 456.054 250.104C455.744 249.776 455.505 249.396 455.336 248.963C455.172 248.525 455.09 248.056 455.09 247.555V247.281C455.09 246.712 455.172 246.194 455.336 245.729C455.5 245.26 455.732 244.857 456.033 244.52C456.334 244.182 456.694 243.923 457.113 243.74C457.533 243.558 457.995 243.467 458.501 243.467C459.025 243.467 459.488 243.556 459.889 243.733C460.29 243.907 460.625 244.153 460.894 244.472C461.162 244.791 461.365 245.174 461.502 245.62C461.639 246.062 461.707 246.552 461.707 247.09V247.849H455.91V246.604H459.93V246.468C459.921 246.181 459.866 245.919 459.766 245.682C459.665 245.44 459.51 245.249 459.301 245.107C459.091 244.962 458.82 244.889 458.487 244.889C458.218 244.889 457.984 244.948 457.783 245.066C457.587 245.18 457.423 245.344 457.291 245.559C457.163 245.768 457.068 246.019 457.004 246.311C456.94 246.602 456.908 246.926 456.908 247.281V247.555C456.908 247.865 456.949 248.152 457.031 248.416C457.118 248.68 457.243 248.91 457.407 249.106C457.576 249.298 457.776 249.448 458.009 249.558C458.246 249.662 458.515 249.715 458.815 249.715C459.194 249.715 459.535 249.642 459.841 249.496C460.151 249.346 460.42 249.125 460.647 248.833L461.557 249.776C461.402 250.004 461.192 250.223 460.928 250.433C460.668 250.642 460.354 250.813 459.984 250.945C459.615 251.073 459.189 251.137 458.706 251.137ZM466.984 248.977C466.984 248.822 466.943 248.683 466.861 248.56C466.779 248.437 466.624 248.325 466.396 248.225C466.173 248.12 465.845 248.022 465.412 247.931C465.029 247.849 464.676 247.746 464.353 247.623C464.029 247.5 463.751 247.352 463.519 247.179C463.286 247.001 463.104 246.794 462.972 246.557C462.844 246.315 462.78 246.037 462.78 245.723C462.78 245.417 462.846 245.13 462.979 244.861C463.111 244.588 463.302 244.349 463.553 244.144C463.803 243.934 464.109 243.77 464.469 243.651C464.829 243.528 465.234 243.467 465.686 243.467C466.314 243.467 466.854 243.569 467.306 243.774C467.761 243.979 468.11 244.262 468.352 244.622C468.593 244.978 468.714 245.379 468.714 245.825H466.909C466.909 245.629 466.864 245.451 466.772 245.292C466.686 245.132 466.551 245.005 466.369 244.909C466.187 244.809 465.957 244.759 465.679 244.759C465.428 244.759 465.216 244.8 465.043 244.882C464.874 244.964 464.747 245.071 464.66 245.203C464.574 245.335 464.53 245.481 464.53 245.641C464.53 245.759 464.553 245.866 464.599 245.962C464.649 246.053 464.729 246.137 464.838 246.215C464.947 246.292 465.095 246.363 465.282 246.427C465.474 246.491 465.708 246.552 465.986 246.611C466.538 246.721 467.019 246.867 467.429 247.049C467.843 247.227 468.167 247.464 468.399 247.76C468.632 248.056 468.748 248.434 468.748 248.895C468.748 249.223 468.677 249.523 468.536 249.797C468.395 250.066 468.19 250.3 467.921 250.501C467.652 250.701 467.331 250.859 466.957 250.973C466.583 251.082 466.162 251.137 465.692 251.137C465.013 251.137 464.439 251.016 463.97 250.774C463.5 250.528 463.145 250.218 462.903 249.845C462.662 249.466 462.541 249.075 462.541 248.669H464.271C464.284 248.956 464.362 249.186 464.503 249.359C464.644 249.533 464.822 249.658 465.036 249.735C465.255 249.808 465.485 249.845 465.727 249.845C466 249.845 466.23 249.808 466.417 249.735C466.604 249.658 466.745 249.555 466.841 249.428C466.937 249.296 466.984 249.145 466.984 248.977ZM473.745 241.047H477.361C478.118 241.047 478.767 241.161 479.31 241.389C479.852 241.617 480.269 241.954 480.561 242.4C480.852 242.847 480.998 243.396 480.998 244.048C480.998 244.563 480.907 245.009 480.725 245.388C480.542 245.766 480.285 246.083 479.952 246.338C479.624 246.593 479.237 246.794 478.79 246.939L478.202 247.24H475.01L474.996 245.757H477.382C477.769 245.757 478.09 245.688 478.346 245.552C478.601 245.415 478.792 245.226 478.92 244.984C479.052 244.743 479.118 244.467 479.118 244.157C479.118 243.825 479.054 243.537 478.927 243.296C478.799 243.05 478.605 242.861 478.346 242.729C478.086 242.596 477.758 242.53 477.361 242.53H475.625V251H473.745V241.047ZM479.364 251L477.061 246.543L479.05 246.536L481.381 250.904V251H479.364ZM484.423 243.604V251H482.611V243.604H484.423ZM482.488 241.669C482.488 241.4 482.579 241.177 482.762 240.999C482.949 240.821 483.199 240.732 483.514 240.732C483.828 240.732 484.076 240.821 484.259 240.999C484.446 241.177 484.539 241.4 484.539 241.669C484.539 241.933 484.446 242.154 484.259 242.332C484.076 242.51 483.828 242.599 483.514 242.599C483.199 242.599 482.949 242.51 482.762 242.332C482.579 242.154 482.488 241.933 482.488 241.669ZM490.213 248.977C490.213 248.822 490.172 248.683 490.09 248.56C490.008 248.437 489.853 248.325 489.625 248.225C489.402 248.12 489.074 248.022 488.641 247.931C488.258 247.849 487.905 247.746 487.581 247.623C487.257 247.5 486.979 247.352 486.747 247.179C486.515 247.001 486.332 246.794 486.2 246.557C486.073 246.315 486.009 246.037 486.009 245.723C486.009 245.417 486.075 245.13 486.207 244.861C486.339 244.588 486.531 244.349 486.781 244.144C487.032 243.934 487.337 243.77 487.697 243.651C488.057 243.528 488.463 243.467 488.914 243.467C489.543 243.467 490.083 243.569 490.534 243.774C490.99 243.979 491.339 244.262 491.58 244.622C491.822 244.978 491.942 245.379 491.942 245.825H490.138C490.138 245.629 490.092 245.451 490.001 245.292C489.914 245.132 489.78 245.005 489.598 244.909C489.415 244.809 489.185 244.759 488.907 244.759C488.657 244.759 488.445 244.8 488.271 244.882C488.103 244.964 487.975 245.071 487.889 245.203C487.802 245.335 487.759 245.481 487.759 245.641C487.759 245.759 487.782 245.866 487.827 245.962C487.877 246.053 487.957 246.137 488.066 246.215C488.176 246.292 488.324 246.363 488.511 246.427C488.702 246.491 488.937 246.552 489.215 246.611C489.766 246.721 490.247 246.867 490.657 247.049C491.072 247.227 491.396 247.464 491.628 247.76C491.86 248.056 491.977 248.434 491.977 248.895C491.977 249.223 491.906 249.523 491.765 249.797C491.623 250.066 491.418 250.3 491.149 250.501C490.881 250.701 490.559 250.859 490.186 250.973C489.812 251.082 489.39 251.137 488.921 251.137C488.242 251.137 487.668 251.016 487.198 250.774C486.729 250.528 486.373 250.218 486.132 249.845C485.89 249.466 485.77 249.075 485.77 248.669H487.499C487.513 248.956 487.59 249.186 487.731 249.359C487.873 249.533 488.05 249.658 488.265 249.735C488.483 249.808 488.714 249.845 488.955 249.845C489.229 249.845 489.459 249.808 489.646 249.735C489.832 249.658 489.974 249.555 490.069 249.428C490.165 249.296 490.213 249.145 490.213 248.977ZM495.155 240.493V251H493.351V240.493H495.155ZM499.79 243.604L496.57 247.22L494.827 248.99L494.253 247.589L495.6 245.894L497.609 243.604H499.79ZM497.944 251L495.654 247.555L496.857 246.386L500.036 251H497.944ZM502.661 243.604V251H500.85V243.604H502.661ZM500.727 241.669C500.727 241.4 500.818 241.177 501 240.999C501.187 240.821 501.438 240.732 501.752 240.732C502.066 240.732 502.315 240.821 502.497 240.999C502.684 241.177 502.777 241.4 502.777 241.669C502.777 241.933 502.684 242.154 502.497 242.332C502.315 242.51 502.066 242.599 501.752 242.599C501.438 242.599 501.187 242.51 501 242.332C500.818 242.154 500.727 241.933 500.727 241.669ZM504.062 247.377V247.233C504.062 246.691 504.14 246.192 504.295 245.736C504.45 245.276 504.675 244.877 504.972 244.54C505.268 244.203 505.63 243.941 506.059 243.754C506.487 243.562 506.975 243.467 507.521 243.467C508.077 243.467 508.57 243.562 508.998 243.754C509.431 243.941 509.796 244.203 510.092 244.54C510.388 244.877 510.614 245.276 510.769 245.736C510.924 246.192 511.001 246.691 511.001 247.233V247.377C511.001 247.915 510.924 248.414 510.769 248.874C510.614 249.33 510.388 249.729 510.092 250.07C509.796 250.408 509.433 250.67 509.005 250.856C508.576 251.043 508.087 251.137 507.535 251.137C506.988 251.137 506.498 251.043 506.065 250.856C505.632 250.67 505.268 250.408 504.972 250.07C504.675 249.729 504.45 249.33 504.295 248.874C504.14 248.414 504.062 247.915 504.062 247.377ZM505.867 247.233V247.377C505.867 247.701 505.899 248.004 505.963 248.286C506.027 248.569 506.125 248.817 506.257 249.031C506.389 249.245 506.56 249.414 506.77 249.537C506.984 249.656 507.239 249.715 507.535 249.715C507.827 249.715 508.077 249.656 508.287 249.537C508.497 249.414 508.668 249.245 508.8 249.031C508.937 248.817 509.037 248.569 509.101 248.286C509.164 248.004 509.196 247.701 509.196 247.377V247.233C509.196 246.914 509.164 246.616 509.101 246.338C509.037 246.055 508.937 245.807 508.8 245.593C508.668 245.374 508.494 245.203 508.28 245.08C508.071 244.952 507.818 244.889 507.521 244.889C507.23 244.889 506.979 244.952 506.77 245.08C506.56 245.203 506.389 245.374 506.257 245.593C506.125 245.807 506.027 246.055 505.963 246.338C505.899 246.616 505.867 246.914 505.867 247.233Z" fill="#3C3C3B"/>
</g>
<defs>
<clipPath id="clip0_1_5925">
<rect width="504" height="238" fill="white" transform="translate(8 50)"/>
</clipPath>
</defs>
</svg>
