<svg width="480" height="334" viewBox="0 0 480 334" fill="none" xmlns="http://www.w3.org/2000/svg">
<rect width="480" height="334" fill="#D9D9D9"/>
<rect width="480" height="334" fill="#003399"/>
<path d="M239.892 251.806L243.776 263.307L255.608 263.296L247.21 269.654L249.519 282L239.892 274.997L230.233 281.814L232.571 269.654L224.26 263.254H236.081L239.892 251.806Z" fill="#F8EC26"/>
<path d="M239.892 52L243.776 63.5015L255.608 63.4903L247.21 69.8488L249.519 82.1944L239.892 75.1916L230.233 82.0087L232.571 69.8488L224.26 63.4509H236.081L239.892 52Z" fill="#F8EC26"/>
<path d="M287.999 64.8492L291.883 76.3508L303.718 76.3395L295.32 82.698L297.626 95.0436L287.999 88.0408L278.341 94.8579L280.681 82.698L272.37 76.3001H284.188L287.999 64.8492Z" fill="#F8EC26"/>
<path d="M189.459 64.8492L193.343 76.3508L205.178 76.3395L196.78 82.698L199.086 95.0436L189.459 88.0408L179.801 94.8579L182.141 82.698L173.83 76.3001H185.648L189.459 64.8492Z" fill="#F8EC26"/>
<path d="M287.999 238.306L291.883 249.811L303.718 249.797L295.32 256.158L297.626 268.504L287.999 261.501L278.341 268.318L280.681 256.158L272.37 249.757H284.188L287.999 238.306Z" fill="#F8EC26"/>
<path d="M189.459 238.306L193.343 249.811L205.178 249.797L196.78 256.158L199.086 268.504L189.459 261.501L179.801 268.318L182.141 256.158L173.83 249.757H185.648L189.459 238.306Z" fill="#F8EC26"/>
<path d="M152.614 102.556L156.498 114.06L168.33 114.046L159.932 120.404L162.238 132.753L152.614 125.747L142.956 132.564L145.293 120.404L136.982 114.007H148.803L152.614 102.556Z" fill="#F8EC26"/>
<path d="M326.056 102.556L329.94 114.06L341.772 114.046L333.374 120.404L335.683 132.753L326.056 125.747L316.398 132.564L318.735 120.404L310.424 114.007H322.245L326.056 102.556Z" fill="#F8EC26"/>
<path d="M152.614 202.282L156.498 213.787L168.33 213.773L159.932 220.131L162.238 232.48L152.614 225.474L142.956 232.291L145.293 220.131L136.982 213.733H148.803L152.614 202.282Z" fill="#F8EC26"/>
<path d="M326.056 202.282L329.94 213.787L341.772 213.773L333.374 220.131L335.683 232.48L326.056 225.474L316.398 232.291L318.735 220.131L310.424 213.733H322.245L326.056 202.282Z" fill="#F8EC26"/>
<path d="M141.166 152.045L145.05 163.549L156.882 163.535L148.484 169.894L150.79 182.242L141.166 175.236L131.508 182.054L133.845 169.894L125.534 163.496H137.355L141.166 152.045Z" fill="#F8EC26"/>
<path d="M338.746 152.045L342.63 163.549L354.465 163.535L346.067 169.894L348.373 182.242L338.746 175.236L329.088 182.054L331.425 169.894L323.117 163.496H334.935L338.746 152.045Z" fill="#F8EC26"/>
</svg>
