<svg width="140" height="140" viewBox="0 0 140 140" fill="none" xmlns="http://www.w3.org/2000/svg">
<path d="M0 70C0 31.3401 31.3401 0 70 0C108.66 0 140 31.3401 140 70C140 108.66 108.66 140 70 140C31.3401 140 0 108.66 0 70Z" fill="white"/>
<mask id="mask0_1_7464" style="mask-type:alpha" maskUnits="userSpaceOnUse" x="0" y="0" width="140" height="140">
<circle cx="70" cy="70" r="70" fill="white"/>
</mask>
<g mask="url(#mask0_1_7464)">
<path d="M139.612 64.1414C139.612 106.037 105.639 140 63.7317 140C41.4943 140 21.4911 130.437 7.6123 115.201C75.4044 115.201 122.374 97.6944 122.377 16.0002C133.147 29.0968 139.612 45.8642 139.612 64.1414Z" fill="#F5F5F5"/>
</g>
<g clip-path="url(#clip0_1_7464)">
<path d="M53.3672 46.9478H43.6605C41.6502 46.9478 40.0205 48.5774 40.0205 50.5878V56.6544C40.0205 58.6647 41.6502 60.2944 43.6605 60.2944H53.3672C55.3775 60.2944 57.0072 58.6647 57.0072 56.6544V50.5878C57.0072 48.5774 55.3775 46.9478 53.3672 46.9478ZM42.4472 56.6544V50.5878C42.4472 49.9176 42.9904 49.3744 43.6605 49.3744H44.8738V57.8678H43.6605C42.9904 57.8678 42.4472 57.3245 42.4472 56.6544ZM47.3005 57.8678V49.3744H49.7272V57.8678H47.3005ZM54.5805 56.6544C54.5805 57.3245 54.0373 57.8678 53.3672 57.8678H52.1538V49.3744H53.3672C54.0373 49.3744 54.5805 49.9176 54.5805 50.5878V56.6544Z" fill="#FF7141"/>
<path d="M99.4722 49.3745H61.8588C61.1887 49.3745 60.6455 49.9177 60.6455 50.5878C60.6455 51.258 61.1887 51.8012 61.8588 51.8012H99.4722C100.142 51.8012 100.686 51.258 100.686 50.5878C100.686 49.9177 100.142 49.3745 99.4722 49.3745Z" fill="#FF7141"/>
<path d="M80.0588 55.4419H61.8588C61.1887 55.4419 60.6455 55.9851 60.6455 56.6552C60.6455 57.3253 61.1887 57.8686 61.8588 57.8686H80.0588C80.7289 57.8686 81.2722 57.3253 81.2722 56.6552C81.2722 55.9851 80.7289 55.4419 80.0588 55.4419Z" fill="#FF7141"/>
<path d="M103.112 40.8813H37.5921C35.5818 40.8813 33.9521 42.511 33.9521 44.5213V88.2013C33.9521 90.2117 35.5818 91.8414 37.5921 91.8414H77.6321V96.6947C77.6321 98.0349 78.7186 99.1213 80.0588 99.1213H104.325C105.666 99.1213 106.752 98.0349 106.752 96.6947V44.5213C106.752 42.511 105.122 40.8813 103.112 40.8813ZM37.5921 89.4147C36.922 89.4147 36.3788 88.8715 36.3788 88.2013V84.5613H43.6588C44.3289 84.5613 44.8721 84.0181 44.8721 83.348C44.8721 82.6779 44.3289 82.1347 43.6588 82.1347H36.3788V74.8547H80.9081C78.8192 76.6967 77.6254 79.3496 77.6321 82.1347H50.9388C50.2687 82.1347 49.7255 82.6779 49.7255 83.348C49.7255 84.0181 50.2687 84.5613 50.9388 84.5613H77.6321V89.4147H37.5921ZM92.1922 74.8547C87.5014 74.8547 83.6988 71.0521 83.6988 66.3613C83.6988 61.6706 87.5014 57.868 92.1922 57.868C96.8829 57.868 100.685 61.6706 100.685 66.3613C100.68 71.0499 96.8807 74.8493 92.1922 74.8547ZM104.325 96.6947H99.4722V83.348C99.4722 82.6779 98.9289 82.1347 98.2588 82.1347C97.5887 82.1347 97.0455 82.6779 97.0455 83.348V96.6947H87.3388V83.348C87.3388 82.6779 86.7956 82.1347 86.1255 82.1347C85.4554 82.1347 84.9122 82.6779 84.9122 83.348V96.6947H80.0588V82.1347C80.0502 78.7685 82.3684 75.8428 85.6474 75.0816C89.5177 78.0144 94.8666 78.0144 98.7369 75.0816C102.016 75.8428 104.334 78.7685 104.325 82.1347V96.6947ZM100.726 73.156C104.217 68.7787 103.832 62.4698 99.8342 58.5495C95.8362 54.6293 89.5209 54.3682 85.213 57.945C80.9051 61.5218 80.0005 67.7774 83.1188 72.428H36.3788V44.5213C36.3788 43.8512 36.922 43.308 37.5921 43.308H103.112C103.782 43.308 104.325 43.8512 104.325 44.5213V75.704C103.339 74.5872 102.107 73.715 100.726 73.156Z" fill="#FF7141"/>
<path d="M63.0717 63.9351C62.4016 63.9351 61.8584 64.4783 61.8584 65.1484V67.5751C61.8584 68.2452 62.4016 68.7884 63.0717 68.7884C63.7418 68.7884 64.2851 68.2452 64.2851 67.5751V65.1484C64.2851 64.4783 63.7418 63.9351 63.0717 63.9351Z" fill="#FF7141"/>
<path d="M67.9252 63.9351C67.2551 63.9351 66.7119 64.4783 66.7119 65.1484V67.5751C66.7119 68.2452 67.2551 68.7884 67.9252 68.7884C68.5954 68.7884 69.1386 68.2452 69.1386 67.5751V65.1484C69.1386 64.4783 68.5954 63.9351 67.9252 63.9351Z" fill="#FF7141"/>
<path d="M72.7788 63.9351C72.1087 63.9351 71.5654 64.4783 71.5654 65.1484V67.5751C71.5654 68.2452 72.1087 68.7884 72.7788 68.7884C73.4489 68.7884 73.9921 68.2452 73.9921 67.5751V65.1484C73.9921 64.4783 73.4489 63.9351 72.7788 63.9351Z" fill="#FF7141"/>
<path d="M77.6323 63.9351C76.9622 63.9351 76.4189 64.4783 76.4189 65.1484V67.5751C76.4189 68.2452 76.9622 68.7884 77.6323 68.7884C78.3024 68.7884 78.8456 68.2452 78.8456 67.5751V65.1484C78.8456 64.4783 78.3024 63.9351 77.6323 63.9351Z" fill="#FF7141"/>
<path d="M41.2338 63.9351C40.5637 63.9351 40.0205 64.4783 40.0205 65.1484V67.5751C40.0205 68.2452 40.5637 68.7884 41.2338 68.7884C41.9039 68.7884 42.4472 68.2452 42.4472 67.5751V65.1484C42.4472 64.4783 41.9039 63.9351 41.2338 63.9351Z" fill="#FF7141"/>
<path d="M46.0874 63.9351C45.4173 63.9351 44.874 64.4783 44.874 65.1484V67.5751C44.874 68.2452 45.4173 68.7884 46.0874 68.7884C46.7575 68.7884 47.3007 68.2452 47.3007 67.5751V65.1484C47.3007 64.4783 46.7575 63.9351 46.0874 63.9351Z" fill="#FF7141"/>
<path d="M50.9409 63.9351C50.2708 63.9351 49.7275 64.4783 49.7275 65.1484V67.5751C49.7275 68.2452 50.2708 68.7884 50.9409 68.7884C51.611 68.7884 52.1542 68.2452 52.1542 67.5751V65.1484C52.1542 64.4783 51.611 63.9351 50.9409 63.9351Z" fill="#FF7141"/>
<path d="M55.7905 63.9351C55.1204 63.9351 54.5771 64.4783 54.5771 65.1484V67.5751C54.5771 68.2452 55.1204 68.7884 55.7905 68.7884C56.4606 68.7884 57.0038 68.2452 57.0038 67.5751V65.1484C57.0038 64.4783 56.4606 63.9351 55.7905 63.9351Z" fill="#FF7141"/>
</g>
<circle cx="70" cy="70" r="67.9" stroke="#44403C" stroke-width="4.2"/>
<defs>
<clipPath id="clip0_1_7464">
<rect width="72.8" height="72.8" fill="white" transform="translate(33.9502 33.6001)"/>
</clipPath>
</defs>
</svg>
