<svg width="38" height="38" viewBox="0 0 38 38" fill="none" xmlns="http://www.w3.org/2000/svg">
<g clip-path="url(#clip0_1_5734)">
<path fill-rule="evenodd" clip-rule="evenodd" d="M19.91 25.7724C19.6554 25.9876 19.3328 26.1058 18.9995 26.1058C18.6661 26.1058 18.3435 25.9876 18.0889 25.7724L4.10156 14.1522L18.0364 2.57403C18.3055 2.34621 18.6468 2.22119 18.9995 2.22119C19.3521 2.22119 19.6934 2.34621 19.9626 2.57403L33.8973 14.1522L19.91 25.7724Z" fill="#FACC15"/>
<path fill-rule="evenodd" clip-rule="evenodd" d="M16.9575 32.5471C16.9577 32.7031 16.9272 32.8576 16.8676 33.0017C16.808 33.1458 16.7206 33.2768 16.6104 33.3871C16.5001 33.4974 16.3692 33.5849 16.2251 33.6445C16.081 33.7042 15.9265 33.7348 15.7706 33.7346H6.59111C6.27617 33.7346 5.97412 33.6095 5.75142 33.3868C5.52872 33.1641 5.40361 32.8621 5.40361 32.5471C5.40361 32.2322 5.52872 31.9301 5.75142 31.7074C5.97412 31.4847 6.27617 31.3596 6.59111 31.3596H15.7706C15.9266 31.3594 16.0811 31.39 16.2252 31.4496C16.3694 31.5092 16.5003 31.5967 16.6106 31.707C16.7208 31.8173 16.8082 31.9483 16.8678 32.0925C16.9273 32.2367 16.9578 32.3912 16.9575 32.5471H16.9575ZM18.1301 2.68833C18.3727 2.48257 18.6804 2.36962 18.9985 2.36962C19.3166 2.36962 19.6243 2.48257 19.8668 2.68833L33.6641 14.1522L19.8143 25.6582C19.5866 25.8518 19.2974 25.9581 18.9986 25.9581C18.6997 25.9581 18.4105 25.8518 18.1828 25.6582L4.33286 14.1522L18.1301 2.68833ZM33.4434 35.6192C33.7828 35.6193 34.1083 35.4847 34.3486 35.245C34.5888 35.0053 34.7241 34.68 34.7248 34.3406V16.3593L21.3335 27.4854C20.6773 28.0302 19.8512 28.3285 18.9983 28.3285C18.1454 28.3285 17.3194 28.0302 16.6632 27.4854L3.2722 16.3593V34.3403C3.27283 34.6797 3.40811 35.005 3.64835 35.2447C3.88858 35.4844 4.21413 35.619 4.55351 35.6189L33.4434 35.6192ZM4.55329 37.9942H33.4436C34.4125 37.9936 35.3417 37.6085 36.0269 36.9235C36.7122 36.2385 37.0977 35.3096 37.0987 34.3406V15.6332C37.1026 15.0959 36.9861 14.5646 36.7577 14.0783C36.5293 13.592 36.1948 13.163 35.7788 12.823L21.3863 0.861513C20.7151 0.304738 19.8706 0 18.9986 0C18.1266 0 17.282 0.304738 16.6109 0.861513L2.21837 12.823C1.80238 13.163 1.4679 13.592 1.23949 14.0783C1.01109 14.5646 0.894585 15.0959 0.898535 15.6332V34.3403C0.899518 35.3093 1.28495 36.2382 1.97022 36.9232C2.65549 37.6082 3.58458 37.9933 4.55351 37.9939L4.55329 37.9942Z" fill="white"/>
</g>
<defs>
<clipPath id="clip0_1_5734">
<rect width="38" height="38" fill="white"/>
</clipPath>
</defs>
</svg>
