<svg width="480" height="800" viewBox="0 0 480 800" fill="none" xmlns="http://www.w3.org/2000/svg">
<mask id="path-1-inside-1_1_7538" fill="white">
<path d="M389.842 365.675C386.537 364.196 382.843 361.243 382.352 357.326C382.099 355.943 382.04 355.417 382.583 354.523C382.784 354.179 382.83 353.769 382.698 353.393C382.247 352.115 383.487 349.167 384.685 346.319C387.251 340.206 390.766 331.838 384.322 326.068C381.807 323.818 378.145 319.134 378.389 315.448C378.48 314.041 379.154 312.927 380.459 312.038C382.167 310.865 382.956 309.208 382.741 307.241C382.132 301.627 372.773 294.419 368.075 292.512C366.665 291.965 365.487 290.432 365.449 289.1C365.411 288.013 366.142 287.119 367.61 286.44C374.282 283.374 372.947 275.687 371.653 268.251C371.13 265.241 370.593 262.127 370.515 259.171C370.432 257.786 369.299 257.115 368.203 256.465C366.134 255.241 362.665 253.187 361.449 244.698C361.223 242.883 357.975 233.117 354.211 231.919C351.094 229.425 349.47 229.267 347.601 229.291C345.996 229.345 344.133 229.355 337.977 223.626C336.17 221.98 334.218 220.88 332.331 219.817C329.426 218.179 326.424 216.482 323.501 212.638C322.985 211.932 321.981 211.091 320.137 211.078H320.091C314.827 211.078 305.645 218.125 302.85 221.814C295.508 231.514 275.026 240.556 261.818 233.184C260.355 232.341 256.545 230.775 252.129 228.966C247.476 227.057 240.542 224.211 239.197 223.199C236.558 212.305 226.71 207.671 218.017 203.58C212.701 201.08 207.686 198.723 204.886 195.249C202.285 192.143 194.419 190.841 189.678 191.818C186.067 192.57 184.821 194.358 184.418 195.73C183.61 198.452 185.264 201.802 189.476 205.977C192.309 208.766 190.867 210.933 188.072 214.525C186.126 217.03 184.118 219.621 185.03 222.56C185.957 225.546 189.67 227.924 197.077 230.279C205.176 232.81 205.251 239.909 204.664 246.384C200.18 243.02 190.854 238.201 183.667 240.212C178.233 241.726 175.258 246.629 174.829 254.79C174.692 257.676 173.306 259.996 171.014 261.147C168.922 262.2 166.447 262.073 164.552 260.806C162.079 259.147 160.898 255.837 161.233 251.493C161.274 250.991 161.027 250.505 160.592 250.247C159.776 249.756 144.046 243.896 137.667 247.619C135.861 248.677 134.937 250.409 134.996 252.637C135.67 271.003 132.921 277.494 130.26 283.766C128.733 287.369 127.154 291.092 126.22 296.87C125.817 299.444 124.182 299.705 120.579 299.664C118.236 299.664 115.782 299.621 114.633 301.627C113.264 304.027 114.128 308.572 122.8 322.951C124.273 325.376 123.855 329.25 121.712 333.067C119.183 337.567 113.889 342.372 106.622 342.372C103.754 342.372 101.494 342.227 99.6764 342.112C96.2132 341.884 94.3044 341.763 93.0211 343.051C91.5633 344.509 91.719 346.955 92.1003 352.861C92.3795 357.229 92.7634 363.216 92.7634 371.949C92.7634 376.473 89.2706 381.386 86.1859 385.727C82.8408 390.436 79.9494 394.503 81.477 397.873C82.5857 400.316 85.7913 401.725 91.5553 402.313C94.7447 402.657 96.9676 403.696 98.3448 405.484C101.188 409.178 100.197 415.68 99.2361 421.968C98.0978 429.426 96.9193 437.136 103.287 439.026C106.278 439.963 106.074 443.365 105.462 449.303C104.78 455.889 103.934 464.082 110.241 469.774C110.77 470.262 111.019 471.777 111.261 473.245C111.741 476.158 112.404 480.145 116.021 482.322C120.093 484.773 127.052 484.29 137.273 480.853C142.333 479.192 144.057 481.125 146.696 484.035C149.466 487.098 152.919 490.916 161.097 490.916C163.494 490.916 164.015 491.49 164.117 491.667C164.608 492.505 163.29 494.857 162.501 496.264C161.958 497.233 161.478 498.094 161.239 498.849C155.759 503.807 153.174 511.537 150.889 518.372C149.066 523.827 147.346 528.976 144.556 531.162C144.28 531.376 144.103 531.693 144.057 532.04C143.735 534.528 141.061 556.478 145.364 561.37C146.062 562.164 146.943 562.583 147.883 562.58C148.838 562.602 150.21 562.693 151.834 562.798C162.501 563.509 173.231 563.856 177.25 559.971C178.319 558.935 178.861 557.611 178.815 556.124C178.662 552.969 180.053 551.187 183.189 550.51C192.633 548.497 211.617 557.396 212.653 559.917C212.653 562.025 212.363 563.525 212.148 564.621C211.891 565.971 211.684 567.04 212.398 567.963C213.297 569.131 214.817 569.23 219.851 569.563C221.577 569.676 223.727 569.818 226.399 570.039C227.932 570.165 229.285 571.059 230.589 571.92C231.875 572.769 233.196 573.641 234.633 573.641C235.035 573.641 235.454 573.572 235.876 573.413C238.16 572.559 239.908 569.295 241.903 562.159C242.413 560.433 245.511 557.815 249.396 557.469C252.69 557.176 257.444 558.438 261.281 566.103C262.419 568.406 263.737 569.614 265.305 569.794C268.081 570.151 270.368 567.268 273.313 563.681C278.111 557.845 283.566 551.235 291.73 555.254C296.394 557.512 299.596 553.12 301.723 550.215C302.292 549.442 303.108 548.328 303.586 547.944C303.959 548.472 304.746 550.36 305.645 557.034C305.701 557.431 305.93 557.786 306.273 557.992C308.247 559.187 310.37 557.37 312.639 555.455C314.639 553.764 317.141 551.648 318.824 552.295C319.909 552.704 321.917 554.714 323.235 563.598C323.399 564.599 324.631 565.152 325.63 565.442C327.772 566.062 329.678 565.614 330.889 564.25C333.413 561.413 332.57 555.12 328.309 545.012C322.338 530.823 323.729 529.819 328.905 526.077C332.425 523.537 337.238 520.061 342.465 511.725C343.539 509.988 348.495 508.943 352.474 508.103C358.233 506.889 363.672 505.743 364.158 502.159C364.544 499.324 362.203 495.012 341.939 484.529C339.714 483.38 339.668 482.98 339.63 482.628C339.381 480.386 338.409 478.698 322.228 472.48C318.73 471.13 312.413 464.434 310.856 457.411C309.873 452.973 310.902 449.137 313.909 446.012C314.872 445.021 315.313 443.824 315.189 442.556C314.789 438.599 308.837 434.519 303.079 430.569C299.884 428.381 294.539 424.714 294.708 423.493C294.796 423.28 296.074 421.425 312.368 422.172C312.459 422.174 312.547 422.174 312.631 422.174C315.871 422.174 316.008 419.624 316.091 418.083C316.169 416.668 316.242 415.326 317.484 414.222C319.769 412.201 325.361 411.479 334.044 412.042C340.986 412.536 341.923 409.854 342.42 406.319C342.962 402.461 343.706 397.183 364.603 396.189C366.287 396.069 367.476 394.329 368.62 392.646C369.009 392.074 369.597 391.212 369.624 391.118C371.111 390.906 371.479 389.37 371.771 388.133C372.029 387.051 372.322 385.826 373.092 385.424C373.766 385.072 374.964 385.217 376.483 385.818C376.859 386.079 377.377 387.676 377.718 388.734C378.521 391.207 379.522 394.286 381.973 395.467C383.299 396.103 384.832 396.09 386.626 395.416C387.82 394.89 388.371 393.639 388.959 392.315C389.917 390.13 391.01 387.655 394.964 386.984C396.967 386.648 398.452 383.319 398.828 380.358C399.217 377.324 399.12 369.823 389.829 365.673L389.842 365.675Z"/>
</mask>
<path d="M389.842 365.675C386.537 364.196 382.843 361.243 382.352 357.326C382.099 355.943 382.04 355.417 382.583 354.523C382.784 354.179 382.83 353.769 382.698 353.393C382.247 352.115 383.487 349.167 384.685 346.319C387.251 340.206 390.766 331.838 384.322 326.068C381.807 323.818 378.145 319.134 378.389 315.448C378.48 314.041 379.154 312.927 380.459 312.038C382.167 310.865 382.956 309.208 382.741 307.241C382.132 301.627 372.773 294.419 368.075 292.512C366.665 291.965 365.487 290.432 365.449 289.1C365.411 288.013 366.142 287.119 367.61 286.44C374.282 283.374 372.947 275.687 371.653 268.251C371.13 265.241 370.593 262.127 370.515 259.171C370.432 257.786 369.299 257.115 368.203 256.465C366.134 255.241 362.665 253.187 361.449 244.698C361.223 242.883 357.975 233.117 354.211 231.919C351.094 229.425 349.47 229.267 347.601 229.291C345.996 229.345 344.133 229.355 337.977 223.626C336.17 221.98 334.218 220.88 332.331 219.817C329.426 218.179 326.424 216.482 323.501 212.638C322.985 211.932 321.981 211.091 320.137 211.078H320.091C314.827 211.078 305.645 218.125 302.85 221.814C295.508 231.514 275.026 240.556 261.818 233.184C260.355 232.341 256.545 230.775 252.129 228.966C247.476 227.057 240.542 224.211 239.197 223.199C236.558 212.305 226.71 207.671 218.017 203.58C212.701 201.08 207.686 198.723 204.886 195.249C202.285 192.143 194.419 190.841 189.678 191.818C186.067 192.57 184.821 194.358 184.418 195.73C183.61 198.452 185.264 201.802 189.476 205.977C192.309 208.766 190.867 210.933 188.072 214.525C186.126 217.03 184.118 219.621 185.03 222.56C185.957 225.546 189.67 227.924 197.077 230.279C205.176 232.81 205.251 239.909 204.664 246.384C200.18 243.02 190.854 238.201 183.667 240.212C178.233 241.726 175.258 246.629 174.829 254.79C174.692 257.676 173.306 259.996 171.014 261.147C168.922 262.2 166.447 262.073 164.552 260.806C162.079 259.147 160.898 255.837 161.233 251.493C161.274 250.991 161.027 250.505 160.592 250.247C159.776 249.756 144.046 243.896 137.667 247.619C135.861 248.677 134.937 250.409 134.996 252.637C135.67 271.003 132.921 277.494 130.26 283.766C128.733 287.369 127.154 291.092 126.22 296.87C125.817 299.444 124.182 299.705 120.579 299.664C118.236 299.664 115.782 299.621 114.633 301.627C113.264 304.027 114.128 308.572 122.8 322.951C124.273 325.376 123.855 329.25 121.712 333.067C119.183 337.567 113.889 342.372 106.622 342.372C103.754 342.372 101.494 342.227 99.6764 342.112C96.2132 341.884 94.3044 341.763 93.0211 343.051C91.5633 344.509 91.719 346.955 92.1003 352.861C92.3795 357.229 92.7634 363.216 92.7634 371.949C92.7634 376.473 89.2706 381.386 86.1859 385.727C82.8408 390.436 79.9494 394.503 81.477 397.873C82.5857 400.316 85.7913 401.725 91.5553 402.313C94.7447 402.657 96.9676 403.696 98.3448 405.484C101.188 409.178 100.197 415.68 99.2361 421.968C98.0978 429.426 96.9193 437.136 103.287 439.026C106.278 439.963 106.074 443.365 105.462 449.303C104.78 455.889 103.934 464.082 110.241 469.774C110.77 470.262 111.019 471.777 111.261 473.245C111.741 476.158 112.404 480.145 116.021 482.322C120.093 484.773 127.052 484.29 137.273 480.853C142.333 479.192 144.057 481.125 146.696 484.035C149.466 487.098 152.919 490.916 161.097 490.916C163.494 490.916 164.015 491.49 164.117 491.667C164.608 492.505 163.29 494.857 162.501 496.264C161.958 497.233 161.478 498.094 161.239 498.849C155.759 503.807 153.174 511.537 150.889 518.372C149.066 523.827 147.346 528.976 144.556 531.162C144.28 531.376 144.103 531.693 144.057 532.04C143.735 534.528 141.061 556.478 145.364 561.37C146.062 562.164 146.943 562.583 147.883 562.58C148.838 562.602 150.21 562.693 151.834 562.798C162.501 563.509 173.231 563.856 177.25 559.971C178.319 558.935 178.861 557.611 178.815 556.124C178.662 552.969 180.053 551.187 183.189 550.51C192.633 548.497 211.617 557.396 212.653 559.917C212.653 562.025 212.363 563.525 212.148 564.621C211.891 565.971 211.684 567.04 212.398 567.963C213.297 569.131 214.817 569.23 219.851 569.563C221.577 569.676 223.727 569.818 226.399 570.039C227.932 570.165 229.285 571.059 230.589 571.92C231.875 572.769 233.196 573.641 234.633 573.641C235.035 573.641 235.454 573.572 235.876 573.413C238.16 572.559 239.908 569.295 241.903 562.159C242.413 560.433 245.511 557.815 249.396 557.469C252.69 557.176 257.444 558.438 261.281 566.103C262.419 568.406 263.737 569.614 265.305 569.794C268.081 570.151 270.368 567.268 273.313 563.681C278.111 557.845 283.566 551.235 291.73 555.254C296.394 557.512 299.596 553.12 301.723 550.215C302.292 549.442 303.108 548.328 303.586 547.944C303.959 548.472 304.746 550.36 305.645 557.034C305.701 557.431 305.93 557.786 306.273 557.992C308.247 559.187 310.37 557.37 312.639 555.455C314.639 553.764 317.141 551.648 318.824 552.295C319.909 552.704 321.917 554.714 323.235 563.598C323.399 564.599 324.631 565.152 325.63 565.442C327.772 566.062 329.678 565.614 330.889 564.25C333.413 561.413 332.57 555.12 328.309 545.012C322.338 530.823 323.729 529.819 328.905 526.077C332.425 523.537 337.238 520.061 342.465 511.725C343.539 509.988 348.495 508.943 352.474 508.103C358.233 506.889 363.672 505.743 364.158 502.159C364.544 499.324 362.203 495.012 341.939 484.529C339.714 483.38 339.668 482.98 339.63 482.628C339.381 480.386 338.409 478.698 322.228 472.48C318.73 471.13 312.413 464.434 310.856 457.411C309.873 452.973 310.902 449.137 313.909 446.012C314.872 445.021 315.313 443.824 315.189 442.556C314.789 438.599 308.837 434.519 303.079 430.569C299.884 428.381 294.539 424.714 294.708 423.493C294.796 423.28 296.074 421.425 312.368 422.172C312.459 422.174 312.547 422.174 312.631 422.174C315.871 422.174 316.008 419.624 316.091 418.083C316.169 416.668 316.242 415.326 317.484 414.222C319.769 412.201 325.361 411.479 334.044 412.042C340.986 412.536 341.923 409.854 342.42 406.319C342.962 402.461 343.706 397.183 364.603 396.189C366.287 396.069 367.476 394.329 368.62 392.646C369.009 392.074 369.597 391.212 369.624 391.118C371.111 390.906 371.479 389.37 371.771 388.133C372.029 387.051 372.322 385.826 373.092 385.424C373.766 385.072 374.964 385.217 376.483 385.818C376.859 386.079 377.377 387.676 377.718 388.734C378.521 391.207 379.522 394.286 381.973 395.467C383.299 396.103 384.832 396.09 386.626 395.416C387.82 394.89 388.371 393.639 388.959 392.315C389.917 390.13 391.01 387.655 394.964 386.984C396.967 386.648 398.452 383.319 398.828 380.358C399.217 377.324 399.12 369.823 389.829 365.673L389.842 365.675Z" stroke="#44403C" stroke-width="10.3282" mask="url(#path-1-inside-1_1_7538)"/>
<path d="M283.911 307.655C283.911 308.7 283.897 309.745 283.863 310.79C283.603 318.725 282.367 326.666 280.005 334.239C277.97 340.774 275.122 347.083 271.558 352.901C268.444 357.975 264.784 362.734 260.721 367.057C257.32 370.676 253.612 373.961 249.7 376.979C247.016 379.048 244.216 380.973 241.307 382.694C240.467 383.193 239.409 383.193 238.576 382.694C238.296 382.53 238.016 382.36 237.736 382.189C234.506 380.216 231.44 378.003 228.476 375.64C224.673 372.609 221.115 369.263 217.851 365.637C213.816 361.15 210.203 356.234 207.178 350.983C203.723 344.973 201.005 338.493 199.148 331.794C196.976 323.962 195.966 315.781 195.959 307.649C195.959 306.119 197.209 304.938 198.67 304.89C201.094 304.822 203.505 304.583 205.908 304.268C206.413 304.2 206.912 304.125 207.41 304.05C212.334 303.299 217.216 302.247 222.058 301.059C226.414 299.987 230.744 298.799 235.039 297.495C235.899 297.235 236.753 296.969 237.606 296.696C237.989 296.573 238.371 296.45 238.747 296.327C239.136 296.197 239.511 296.095 239.928 296.074C240.351 296.054 240.727 296.197 241.109 296.327C242.796 296.88 244.489 297.399 246.19 297.904C250.615 299.222 255.074 300.417 259.567 301.482C264.32 302.609 269.113 303.586 273.955 304.262C276.358 304.576 278.769 304.815 281.193 304.883C282.654 304.815 283.904 306.194 283.904 307.642L283.911 307.655Z" fill="white" stroke="#44403C" stroke-width="3.87306" stroke-miterlimit="10"/>
<path d="M263.607 311.21C259.927 312.726 256.936 315.239 254.129 317.984C248.065 323.904 243.108 330.713 238.471 337.766C237.747 338.873 237.003 339.972 236.115 341.304C235.726 340.471 235.542 339.945 235.255 339.48C233.814 337.166 232.558 334.694 230.837 332.597C227.88 329.005 223.995 328.562 220.089 331.068C219.16 331.662 218.348 332.433 217.337 333.239C217.87 333.765 218.266 334.093 218.58 334.482C220.792 337.186 223.435 339.658 225.074 342.669C226.474 345.237 227.511 347.975 228.502 350.72C229.184 352.605 229.512 355.814 231.533 356.722C232.701 357.248 234.067 357.146 235.31 356.832C238.587 355.999 241.285 353.711 242.835 350.741C244.808 346.951 246.727 343.12 248.564 339.262C252.285 331.45 256.485 323.932 261.743 317.035C263.395 314.87 265.144 312.781 266.851 310.657C265.69 310.63 264.604 310.801 263.614 311.203L263.607 311.21Z" fill="#44403C"/>
<g style="mix-blend-mode:multiply">
<path d="M239.93 302.747C239.787 302.794 239.65 302.835 239.507 302.883C238.66 303.149 237.8 303.423 236.857 303.709C232.48 305.041 228.001 306.27 223.542 307.363C217.915 308.742 212.95 309.753 208.362 310.456C207.788 310.545 207.235 310.62 206.764 310.688H206.723C205.193 310.893 203.752 311.05 202.394 311.166C202.653 317.735 203.616 324.065 205.275 330.04C206.989 336.227 209.482 342.175 212.671 347.719C215.402 352.465 218.727 357.027 222.545 361.274C225.535 364.6 228.854 367.727 232.405 370.554C235.034 372.65 237.506 374.433 239.937 375.976V302.747H239.93Z" fill="#F5F5F5"/>
</g>
<path d="M250.087 508.465C250.087 508.443 250.087 508.421 250.109 508.377C250.153 508.333 250.175 508.333 250.197 508.333L260.881 510.161C268.812 511.527 276.941 511.307 284.783 509.501L288.374 508.663C288.418 508.641 288.462 508.663 288.484 508.708C288.506 508.752 288.506 508.752 288.506 508.774L276.742 528.247C276.654 528.402 276.566 528.578 276.522 528.754C275.993 528.622 275.465 528.512 274.936 528.402C274.936 528.38 274.958 528.358 274.958 528.314L276.786 521.132C277.095 519.942 276.368 518.753 275.2 518.466C274.033 518.18 272.821 518.885 272.535 520.053L270.728 527.256C270.662 527.476 270.662 527.697 270.662 527.917C270.244 527.895 269.825 527.895 269.406 527.895C269.12 527.895 268.812 527.895 268.525 527.917L264.89 516.506C264.538 515.338 263.304 514.699 262.137 515.052C260.969 515.404 260.33 516.638 260.683 517.806C260.683 517.828 260.683 517.828 260.705 517.85L264.053 528.38C263.392 528.49 262.754 528.644 262.093 528.798C262.049 528.49 261.961 528.203 261.784 527.939L250.087 508.465ZM241.958 591.185L244.007 556.247C244.844 542.214 256.894 531.508 270.927 532.345C272.469 532.433 274.011 532.675 275.509 533.05C286.325 535.737 294.123 545.122 294.806 556.247L296.855 591.185H241.958Z" fill="white"/>
<path d="M299.212 555.982C298.53 544.548 291.37 534.525 280.796 530.141L292.361 510.976C292.383 510.954 292.405 510.91 292.405 510.888C293.595 508.707 292.78 505.975 290.577 504.786C289.608 504.257 288.484 504.103 287.427 504.367L283.814 505.204C276.544 506.878 269.01 507.099 261.653 505.821L250.968 503.993C248.523 503.574 246.188 505.226 245.769 507.671C245.593 508.663 245.769 509.676 246.254 510.557C246.276 510.579 246.276 510.623 246.298 510.645L257.996 530.163C247.4 534.525 240.262 544.571 239.601 556.004L237.42 593.277C237.354 594.489 238.279 595.524 239.469 595.59C239.513 595.59 239.557 595.59 239.601 595.59H299.168C300.38 595.59 301.371 594.621 301.371 593.409C301.371 593.365 301.371 593.321 301.371 593.277L299.212 555.982ZM250.087 508.465C250.087 508.442 250.087 508.42 250.109 508.376C250.153 508.332 250.175 508.332 250.197 508.332L260.882 510.161C268.812 511.527 276.941 511.306 284.783 509.5L288.374 508.663C288.418 508.641 288.462 508.663 288.484 508.707C288.506 508.751 288.506 508.751 288.506 508.773L276.743 528.247C276.654 528.401 276.566 528.577 276.522 528.753C275.994 528.621 275.465 528.511 274.936 528.401C274.936 528.379 274.958 528.357 274.958 528.313L276.787 521.131C277.095 519.942 276.368 518.752 275.201 518.466C274.033 518.179 272.821 518.884 272.535 520.052L270.729 527.255C270.663 527.476 270.663 527.696 270.663 527.916C270.244 527.894 269.825 527.894 269.407 527.894C269.12 527.894 268.812 527.894 268.526 527.916L264.891 516.505C264.538 515.338 263.305 514.699 262.137 515.051C260.97 515.404 260.331 516.637 260.683 517.805C260.683 517.827 260.683 517.827 260.705 517.849L264.054 528.379C263.393 528.489 262.754 528.643 262.093 528.798C262.049 528.489 261.961 528.203 261.785 527.938L250.087 508.465ZM241.958 591.184L244.007 556.246C244.844 542.213 256.894 531.507 270.927 532.344C272.469 532.432 274.011 532.675 275.509 533.049C286.325 535.737 294.124 545.121 294.807 556.246L296.855 591.184H241.958Z" fill="#44403C"/>
<path d="M279.849 572.856C279.453 571.71 278.197 571.115 277.029 571.512C276.985 571.534 276.941 571.534 276.919 571.556C273.042 573.032 268.636 572.107 265.706 569.177C265.354 568.846 265.023 568.472 264.759 568.053H275.157C276.369 568.053 277.36 567.062 277.36 565.85C277.36 564.639 276.369 563.647 275.157 563.647H262.821C262.666 562.854 262.622 562.039 262.666 561.224H276.325C277.536 561.224 278.527 560.233 278.527 559.021C278.527 557.809 277.536 556.818 276.325 556.818H263.9C264.385 555.915 265.001 555.078 265.728 554.351C268.658 551.399 273.064 550.452 276.941 551.95C278.065 552.39 279.343 551.84 279.805 550.694C280.246 549.571 279.695 548.293 278.549 547.83H278.527C273.02 545.715 266.786 547.059 262.6 551.223C260.992 552.787 259.803 554.703 259.098 556.818H256.762C255.551 556.818 254.56 557.809 254.56 559.021C254.56 560.233 255.551 561.224 256.762 561.224H258.26C258.238 562.039 258.26 562.854 258.371 563.647H256.762C255.551 563.647 254.56 564.639 254.56 565.85C254.56 567.062 255.551 568.053 256.762 568.053H259.648C260.397 569.617 261.389 571.049 262.6 572.283C266.764 576.446 272.998 577.768 278.505 575.675C279.651 575.279 280.246 574.023 279.849 572.856Z" fill="#FF7141"/>
<path d="M171.953 506.472C171.953 506.453 171.953 506.434 171.972 506.397C172.009 506.36 172.028 506.36 172.046 506.36L181.075 507.905C187.777 509.059 194.647 508.873 201.274 507.347L204.309 506.639C204.346 506.62 204.383 506.639 204.402 506.676C204.42 506.714 204.42 506.714 204.42 506.732L194.479 523.189C194.405 523.319 194.33 523.468 194.293 523.617C193.846 523.505 193.399 523.412 192.953 523.319C192.953 523.301 192.971 523.282 192.971 523.245L194.516 517.176C194.777 516.171 194.163 515.165 193.176 514.923C192.189 514.681 191.165 515.277 190.923 516.264L189.397 522.351C189.341 522.537 189.341 522.724 189.341 522.91C188.987 522.891 188.634 522.891 188.28 522.891C188.038 522.891 187.777 522.891 187.535 522.91L184.464 513.267C184.166 512.28 183.123 511.74 182.137 512.038C181.15 512.336 180.61 513.378 180.908 514.365C180.908 514.383 180.908 514.383 180.926 514.402L183.756 523.301C183.198 523.394 182.658 523.524 182.099 523.654C182.062 523.394 181.988 523.152 181.839 522.928L171.953 506.472ZM165.084 576.376L166.815 546.85C167.523 534.992 177.706 525.944 189.564 526.652C190.868 526.726 192.171 526.931 193.437 527.247C202.577 529.519 209.167 537.449 209.744 546.85L211.476 576.376H165.084Z" fill="white"/>
<path d="M213.468 546.626C212.891 536.964 206.84 528.494 197.904 524.789L207.678 508.593C207.697 508.574 207.715 508.537 207.715 508.518C208.72 506.675 208.032 504.367 206.17 503.362C205.351 502.915 204.401 502.785 203.508 503.008L200.455 503.715C194.311 505.13 187.945 505.316 181.727 504.237L172.698 502.692C170.632 502.338 168.658 503.734 168.304 505.8C168.156 506.638 168.304 507.495 168.714 508.239C168.733 508.258 168.733 508.295 168.751 508.314L178.637 524.808C169.682 528.494 163.65 536.983 163.092 546.645L161.249 578.143C161.193 579.167 161.975 580.042 162.98 580.098C163.017 580.098 163.055 580.098 163.092 580.098H213.43C214.454 580.098 215.292 579.279 215.292 578.255C215.292 578.218 215.292 578.181 215.292 578.143L213.468 546.626ZM171.953 506.471C171.953 506.452 171.953 506.433 171.972 506.396C172.009 506.359 172.028 506.359 172.046 506.359L181.075 507.904C187.777 509.058 194.647 508.872 201.274 507.346L204.308 506.638C204.346 506.62 204.383 506.638 204.401 506.675C204.42 506.713 204.42 506.713 204.42 506.731L194.479 523.188C194.405 523.318 194.33 523.467 194.293 523.616C193.846 523.505 193.399 523.411 192.952 523.318C192.952 523.3 192.971 523.281 192.971 523.244L194.516 517.175C194.777 516.17 194.163 515.164 193.176 514.922C192.189 514.68 191.165 515.276 190.923 516.263L189.397 522.35C189.341 522.536 189.341 522.723 189.341 522.909C188.987 522.89 188.633 522.89 188.28 522.89C188.038 522.89 187.777 522.89 187.535 522.909L184.463 513.266C184.166 512.279 183.123 511.739 182.136 512.037C181.15 512.335 180.61 513.377 180.908 514.364C180.908 514.383 180.908 514.383 180.926 514.401L183.756 523.3C183.198 523.393 182.658 523.523 182.099 523.653C182.062 523.393 181.987 523.151 181.839 522.927L171.953 506.471ZM165.084 576.375L166.815 546.849C167.523 534.991 177.706 525.943 189.564 526.651C190.867 526.725 192.171 526.93 193.436 527.246C202.577 529.518 209.167 537.448 209.744 546.849L211.476 576.375H165.084Z" fill="#44403C"/>
<path d="M197.104 560.885C196.769 559.917 195.708 559.415 194.721 559.75C194.684 559.768 194.647 559.768 194.628 559.787C191.351 561.034 187.628 560.252 185.152 557.776C184.854 557.497 184.575 557.181 184.352 556.827H193.139C194.163 556.827 195 555.989 195 554.965C195 553.941 194.163 553.104 193.139 553.104H182.714C182.583 552.433 182.546 551.745 182.583 551.056H194.125C195.149 551.056 195.987 550.218 195.987 549.194C195.987 548.17 195.149 547.333 194.125 547.333H183.626C184.035 546.569 184.557 545.862 185.171 545.248C187.647 542.753 191.37 541.952 194.647 543.218C195.596 543.591 196.676 543.125 197.067 542.157C197.439 541.208 196.974 540.128 196.006 539.737H195.987C191.333 537.95 186.064 539.086 182.527 542.604C181.168 543.926 180.163 545.545 179.567 547.333H177.594C176.57 547.333 175.732 548.17 175.732 549.194C175.732 550.218 176.57 551.056 177.594 551.056H178.86C178.841 551.745 178.86 552.433 178.953 553.104H177.594C176.57 553.104 175.732 553.941 175.732 554.965C175.732 555.989 176.57 556.827 177.594 556.827H180.033C180.666 558.149 181.503 559.359 182.527 560.401C186.046 563.92 191.314 565.037 195.968 563.268C196.936 562.933 197.439 561.872 197.104 560.885Z" fill="#FF7141"/>
<path d="M201.027 521.376C201.027 521.354 201.027 521.332 201.049 521.288C201.093 521.244 201.115 521.244 201.137 521.244L211.822 523.072C219.752 524.438 227.881 524.218 235.723 522.411L239.314 521.574C239.358 521.552 239.402 521.574 239.424 521.618C239.446 521.662 239.446 521.662 239.446 521.684L227.683 541.158C227.595 541.312 227.506 541.489 227.462 541.665C226.934 541.533 226.405 541.422 225.876 541.312C225.876 541.29 225.898 541.268 225.898 541.224L227.727 534.043C228.035 532.853 227.308 531.664 226.141 531.377C224.973 531.091 223.761 531.796 223.475 532.963L221.669 540.167C221.603 540.387 221.603 540.607 221.603 540.828C221.184 540.806 220.765 540.806 220.347 540.806C220.061 540.806 219.752 540.806 219.466 540.828L215.831 529.417C215.478 528.249 214.245 527.61 213.077 527.963C211.91 528.315 211.271 529.549 211.623 530.716C211.623 530.738 211.623 530.738 211.645 530.76L214.994 541.29C214.333 541.4 213.694 541.555 213.033 541.709C212.989 541.4 212.901 541.114 212.725 540.85L201.027 521.376ZM192.898 604.096L194.947 569.157C195.784 555.125 207.834 544.418 221.867 545.256C223.409 545.344 224.951 545.586 226.449 545.961C237.265 548.648 245.064 558.033 245.747 569.157L247.795 604.096H192.898Z" fill="white"/>
<path d="M250.153 568.892C249.47 557.459 242.31 547.436 231.736 543.052L243.302 523.886C243.324 523.864 243.346 523.82 243.346 523.798C244.535 521.617 243.72 518.886 241.517 517.696C240.548 517.168 239.425 517.013 238.367 517.278L234.754 518.115C227.485 519.789 219.951 520.009 212.593 518.732L201.909 516.903C199.464 516.485 197.128 518.137 196.71 520.582C196.534 521.573 196.71 522.587 197.194 523.468C197.217 523.49 197.217 523.534 197.239 523.556L208.936 543.074C198.34 547.436 191.203 557.481 190.542 568.914L188.361 606.188C188.295 607.4 189.22 608.435 190.409 608.501C190.454 608.501 190.498 608.501 190.542 608.501H250.109C251.32 608.501 252.312 607.532 252.312 606.32C252.312 606.276 252.312 606.232 252.312 606.188L250.153 568.892ZM201.028 521.375C201.028 521.353 201.028 521.331 201.05 521.287C201.094 521.243 201.116 521.243 201.138 521.243L211.822 523.071C219.752 524.437 227.881 524.217 235.724 522.411L239.314 521.573C239.359 521.551 239.403 521.573 239.425 521.617C239.447 521.662 239.447 521.662 239.447 521.684L227.683 541.157C227.595 541.312 227.507 541.488 227.463 541.664C226.934 541.532 226.405 541.422 225.877 541.312C225.877 541.29 225.899 541.268 225.899 541.224L227.727 534.042C228.035 532.852 227.309 531.663 226.141 531.376C224.973 531.09 223.762 531.795 223.475 532.963L221.669 540.166C221.603 540.386 221.603 540.607 221.603 540.827C221.184 540.805 220.766 540.805 220.347 540.805C220.061 540.805 219.752 540.805 219.466 540.827L215.831 529.416C215.479 528.248 214.245 527.609 213.078 527.962C211.91 528.314 211.271 529.548 211.624 530.716C211.624 530.738 211.624 530.738 211.646 530.76L214.994 541.29C214.333 541.4 213.694 541.554 213.034 541.708C212.989 541.4 212.901 541.113 212.725 540.849L201.028 521.375ZM192.899 604.095L194.948 569.157C195.785 555.124 207.835 544.418 221.867 545.255C223.409 545.343 224.951 545.585 226.449 545.96C237.266 548.647 245.064 558.032 245.747 569.157L247.796 604.095H192.899Z" fill="#44403C"/>
<path d="M230.79 585.766C230.393 584.621 229.137 584.026 227.97 584.422C227.926 584.444 227.882 584.444 227.86 584.466C223.983 585.942 219.577 585.017 216.647 582.087C216.294 581.757 215.964 581.382 215.7 580.964H226.097C227.309 580.964 228.3 579.972 228.3 578.761C228.3 577.549 227.309 576.558 226.097 576.558H213.761C213.607 575.765 213.563 574.95 213.607 574.135H227.265C228.477 574.135 229.468 573.143 229.468 571.932C229.468 570.72 228.477 569.729 227.265 569.729H214.84C215.325 568.826 215.942 567.989 216.669 567.262C219.599 564.31 224.005 563.362 227.882 564.86C229.005 565.301 230.283 564.75 230.746 563.605C231.186 562.481 230.635 561.203 229.49 560.741H229.468C223.961 558.626 217.726 559.97 213.541 564.133C211.933 565.697 210.743 567.614 210.038 569.729H207.703C206.491 569.729 205.5 570.72 205.5 571.932C205.5 573.143 206.491 574.135 207.703 574.135H209.201C209.179 574.95 209.201 575.765 209.311 576.558H207.703C206.491 576.558 205.5 577.549 205.5 578.761C205.5 579.972 206.491 580.964 207.703 580.964H210.589C211.338 582.528 212.329 583.96 213.541 585.193C217.704 589.357 223.939 590.679 229.446 588.586C230.591 588.189 231.186 586.934 230.79 585.766Z" fill="#FF7141"/>
</svg>
