<svg width="480" height="532" viewBox="0 0 480 532" fill="none" xmlns="http://www.w3.org/2000/svg">
<path d="M225.132 358.867C294.162 358.867 350.122 303.207 350.122 234.548C350.122 165.889 294.162 110.23 225.132 110.23C156.102 110.23 100.142 165.889 100.142 234.548C100.142 303.207 156.102 358.867 225.132 358.867Z" fill="white" stroke="#44403C" stroke-width="4.03188" stroke-miterlimit="10" stroke-linejoin="round"/>
<path d="M140.267 291.275L143.41 281.048L135.093 274.638L145.645 274.397L149.082 265.073L152.648 274.397L163.081 274.634L154.834 281.048L157.801 291.258L149.091 285.133L140.267 291.271V291.275Z" fill="#FF7141"/>
<path d="M140.267 204.036L143.41 193.808L135.093 187.399L145.645 187.158L149.082 177.833L152.648 187.158L163.081 187.395L154.834 193.808L157.801 204.018L149.091 197.894L140.267 204.032V204.036Z" fill="#FF7141"/>
<path d="M128.578 247.656L131.72 237.428L123.403 231.019L133.955 230.778L137.393 221.453L140.959 230.778L151.392 231.014L143.145 237.428L146.111 247.638L137.402 241.514L128.578 247.651V247.656Z" fill="#FF7141"/>
<path d="M304.041 247.656L307.183 237.428L298.866 231.019L309.418 230.778L312.856 221.453L316.422 230.778L326.854 231.014L318.608 237.428L321.574 247.638L312.865 241.514L304.041 247.651V247.656Z" fill="#FF7141"/>
<path d="M292.258 291.275L295.4 281.048L287.083 274.638L297.635 274.397L301.073 265.073L304.638 274.397L315.071 274.634L306.825 281.048L309.791 291.258L301.081 285.133L292.258 291.271V291.275Z" fill="#FF7141"/>
<path d="M292.258 204.036L295.4 193.808L287.083 187.399L297.635 187.158L301.073 177.833L304.638 187.158L315.071 187.395L306.825 193.808L309.791 204.018L301.081 197.894L292.258 204.032V204.036Z" fill="#FF7141"/>
<path d="M216.253 160.39L219.395 150.162L211.078 143.753L221.63 143.512L225.068 134.188L228.634 143.512L239.066 143.749L230.82 150.162L233.786 160.372L225.077 154.248L216.253 160.386V160.39Z" fill="#FF7141"/>
<path d="M172.459 323.221L175.601 312.993L167.284 306.584L177.836 306.343L181.274 297.018L184.84 306.343L195.272 306.579L187.026 312.993L189.992 323.203L181.283 317.079L172.459 323.216V323.221Z" fill="#FF7141"/>
<path d="M260.139 323.221L263.282 312.993L254.965 306.584L265.517 306.343L268.955 297.018L272.52 306.343L282.953 306.579L274.706 312.993L277.673 323.203L268.963 317.079L260.139 323.216V323.221Z" fill="#FF7141"/>
<path d="M172.459 172.091L175.601 161.863L167.284 155.454L177.836 155.213L181.274 145.888L184.84 155.213L195.272 155.449L187.026 161.863L189.992 172.073L181.283 165.949L172.459 172.086V172.091Z" fill="#FF7141"/>
<path d="M260.139 172.091L263.282 161.863L254.965 155.454L265.517 155.213L268.955 145.888L272.52 155.213L282.953 155.449L274.706 161.863L277.673 172.073L268.963 165.949L260.139 172.086V172.091Z" fill="#FF7141"/>
<path d="M216.253 334.908L219.395 324.68L211.078 318.271L221.63 318.03L225.068 308.706L228.634 318.03L239.066 318.267L230.82 324.68L233.786 334.891L225.077 328.766L216.253 334.904V334.908Z" fill="#FF7141"/>
<path d="M213.169 265.643H175.004V202.344H211.706V213.952H189.337V228.033H210.15V239.598H189.337V254.078H213.169V265.643Z" fill="#44403C"/>
<path d="M275.254 238.23C275.254 257.239 266.346 266.743 248.54 266.743C230.733 266.743 222.623 257.458 222.623 238.892V202.344H237.001V239.068C237.001 249.308 241.025 254.429 249.073 254.429C257.121 254.429 260.921 249.484 260.921 239.598V202.344H275.254V238.23Z" fill="#44403C"/>
<path d="M246.384 335.362C246.384 335.339 246.384 335.316 246.407 335.27C246.453 335.225 246.476 335.225 246.499 335.225L257.621 337.128C265.877 338.55 274.339 338.321 282.503 336.44L286.241 335.569C286.287 335.546 286.333 335.569 286.355 335.614C286.378 335.66 286.378 335.66 286.378 335.683L274.132 355.956C274.041 356.116 273.949 356.3 273.903 356.483C273.353 356.346 272.802 356.231 272.252 356.116C272.252 356.093 272.275 356.07 272.275 356.024L274.178 348.548C274.499 347.31 273.743 346.072 272.527 345.774C271.312 345.475 270.05 346.209 269.752 347.425L267.872 354.924C267.803 355.153 267.803 355.382 267.803 355.612C267.367 355.589 266.932 355.589 266.496 355.589C266.198 355.589 265.877 355.589 265.579 355.612L261.795 343.733C261.428 342.517 260.144 341.852 258.928 342.219C257.713 342.586 257.048 343.87 257.415 345.086C257.415 345.109 257.415 345.109 257.437 345.131L260.923 356.093C260.235 356.208 259.57 356.368 258.882 356.529C258.836 356.208 258.745 355.91 258.561 355.635L246.384 335.362ZM237.922 421.474L240.055 385.103C240.926 370.495 253.47 359.35 268.078 360.221C269.683 360.313 271.289 360.565 272.848 360.955C284.108 363.753 292.226 373.522 292.937 385.103L295.07 421.474H237.922Z" fill="white"/>
<path d="M297.524 384.827C296.813 372.925 289.36 362.491 278.352 357.927L290.392 337.976C290.415 337.953 290.438 337.907 290.438 337.884C291.676 335.614 290.827 332.77 288.534 331.532C287.525 330.981 286.356 330.821 285.255 331.096L281.494 331.967C273.926 333.71 266.083 333.94 258.424 332.61L247.301 330.706C244.756 330.27 242.325 331.99 241.889 334.536C241.706 335.568 241.889 336.623 242.394 337.54C242.417 337.563 242.417 337.609 242.44 337.632L254.617 357.95C243.586 362.491 236.156 372.948 235.468 384.85L233.198 423.652C233.129 424.913 234.092 425.991 235.331 426.06C235.376 426.06 235.422 426.06 235.468 426.06H297.478C298.739 426.06 299.771 425.051 299.771 423.789C299.771 423.744 299.771 423.698 299.771 423.652L297.524 384.827ZM246.384 335.361C246.384 335.339 246.384 335.316 246.407 335.27C246.453 335.224 246.476 335.224 246.499 335.224L257.621 337.127C265.877 338.549 274.339 338.32 282.503 336.439L286.241 335.568C286.287 335.545 286.333 335.568 286.356 335.614C286.378 335.66 286.378 335.66 286.378 335.683L274.132 355.955C274.041 356.115 273.949 356.299 273.903 356.482C273.353 356.345 272.802 356.23 272.252 356.115C272.252 356.093 272.275 356.07 272.275 356.024L274.178 348.548C274.499 347.309 273.743 346.071 272.527 345.773C271.312 345.475 270.05 346.209 269.752 347.424L267.872 354.923C267.803 355.152 267.803 355.382 267.803 355.611C267.367 355.588 266.932 355.588 266.496 355.588C266.198 355.588 265.877 355.588 265.579 355.611L261.795 343.732C261.428 342.516 260.144 341.851 258.928 342.218C257.713 342.585 257.048 343.869 257.415 345.085C257.415 345.108 257.415 345.108 257.438 345.131L260.923 356.093C260.235 356.207 259.57 356.368 258.882 356.528C258.836 356.207 258.745 355.909 258.561 355.634L246.384 335.361ZM237.922 421.473L240.055 385.102C240.926 370.494 253.47 359.349 268.078 360.22C269.684 360.312 271.289 360.564 272.848 360.954C284.108 363.752 292.226 373.521 292.937 385.102L295.07 421.473H237.922Z" fill="#44403C"/>
<path d="M277.37 402.394C276.957 401.202 275.65 400.583 274.434 400.995C274.388 401.018 274.342 401.018 274.32 401.041C270.283 402.578 265.697 401.615 262.647 398.565C262.28 398.221 261.936 397.831 261.661 397.395H272.485C273.746 397.395 274.778 396.363 274.778 395.102C274.778 393.841 273.746 392.809 272.485 392.809H259.643C259.482 391.983 259.436 391.134 259.482 390.286H273.7C274.962 390.286 275.994 389.254 275.994 387.993C275.994 386.731 274.962 385.699 273.7 385.699H260.766C261.271 384.759 261.913 383.888 262.67 383.131C265.72 380.058 270.306 379.072 274.342 380.631C275.512 381.09 276.842 380.517 277.324 379.324C277.782 378.155 277.209 376.825 276.017 376.343H275.994C270.26 374.141 263.771 375.54 259.413 379.875C257.739 381.503 256.501 383.498 255.767 385.699H253.336C252.075 385.699 251.043 386.731 251.043 387.993C251.043 389.254 252.075 390.286 253.336 390.286H254.896C254.873 391.134 254.896 391.983 255.01 392.809H253.336C252.075 392.809 251.043 393.841 251.043 395.102C251.043 396.363 252.075 397.395 253.336 397.395H256.34C257.12 399.023 258.152 400.514 259.413 401.798C263.748 406.132 270.238 407.508 275.971 405.33C277.163 404.917 277.782 403.61 277.37 402.394Z" fill="#FF7141"/>
<path d="M165.046 333.289C165.046 333.269 165.046 333.25 165.065 333.211C165.104 333.172 165.123 333.172 165.143 333.172L174.542 334.781C181.518 335.982 188.669 335.789 195.569 334.199L198.727 333.463C198.766 333.444 198.805 333.463 198.824 333.502C198.844 333.541 198.844 333.541 198.844 333.56L188.495 350.692C188.417 350.827 188.34 350.982 188.301 351.137C187.836 351.021 187.371 350.924 186.906 350.827C186.906 350.808 186.925 350.788 186.925 350.75L188.534 344.432C188.805 343.385 188.166 342.339 187.138 342.087C186.111 341.835 185.045 342.455 184.793 343.482L183.204 349.819C183.146 350.013 183.146 350.207 183.146 350.401C182.778 350.381 182.41 350.381 182.042 350.381C181.79 350.381 181.518 350.381 181.266 350.401L178.069 340.362C177.759 339.335 176.673 338.773 175.646 339.083C174.619 339.393 174.057 340.478 174.367 341.506C174.367 341.525 174.367 341.525 174.387 341.544L177.332 350.808C176.751 350.905 176.189 351.04 175.608 351.176C175.569 350.905 175.491 350.653 175.336 350.42L165.046 333.289ZM157.895 406.059L159.697 375.323C160.433 362.978 171.034 353.56 183.379 354.296C184.735 354.374 186.092 354.587 187.41 354.916C196.925 357.281 203.786 365.536 204.386 375.323L206.189 406.059H157.895Z" fill="white"/>
<path d="M208.262 375.09C207.661 365.032 201.363 356.214 192.061 352.358L202.235 335.497C202.255 335.478 202.274 335.439 202.274 335.42C203.32 333.501 202.603 331.098 200.665 330.052C199.813 329.586 198.824 329.451 197.894 329.683L194.716 330.42C188.321 331.893 181.693 332.086 175.22 330.962L165.821 329.354C163.67 328.986 161.615 330.439 161.247 332.59C161.092 333.462 161.247 334.354 161.674 335.129C161.693 335.148 161.693 335.187 161.712 335.207L172.003 352.377C162.681 356.214 156.402 365.051 155.821 375.109L153.902 407.9C153.844 408.965 154.658 409.876 155.705 409.934C155.743 409.934 155.782 409.934 155.821 409.934H208.223C209.289 409.934 210.161 409.082 210.161 408.016C210.161 407.977 210.161 407.938 210.161 407.9L208.262 375.09ZM165.046 333.288C165.046 333.269 165.046 333.249 165.065 333.21C165.104 333.172 165.123 333.172 165.143 333.172L174.542 334.78C181.518 335.982 188.669 335.788 195.569 334.199L198.727 333.462C198.766 333.443 198.805 333.462 198.824 333.501C198.844 333.54 198.844 333.54 198.844 333.559L188.495 350.691C188.417 350.827 188.34 350.982 188.301 351.137C187.836 351.02 187.371 350.923 186.906 350.827C186.906 350.807 186.925 350.788 186.925 350.749L188.534 344.431C188.805 343.385 188.166 342.338 187.138 342.086C186.111 341.834 185.045 342.455 184.793 343.482L183.204 349.819C183.146 350.013 183.146 350.206 183.146 350.4C182.778 350.381 182.41 350.381 182.042 350.381C181.79 350.381 181.518 350.381 181.266 350.4L178.069 340.362C177.759 339.334 176.673 338.772 175.646 339.082C174.619 339.393 174.057 340.478 174.367 341.505C174.367 341.524 174.367 341.524 174.387 341.544L177.332 350.807C176.751 350.904 176.189 351.04 175.608 351.175C175.569 350.904 175.491 350.652 175.336 350.42L165.046 333.288ZM157.895 406.059L159.697 375.322C160.433 362.978 171.034 353.559 183.379 354.296C184.735 354.373 186.092 354.586 187.41 354.916C196.925 357.28 203.786 365.536 204.386 375.322L206.189 406.059H157.895Z" fill="#44403C"/>
<path d="M191.227 389.933C190.878 388.925 189.774 388.402 188.747 388.751C188.708 388.77 188.669 388.77 188.65 388.79C185.239 390.088 181.363 389.274 178.786 386.697C178.476 386.406 178.185 386.077 177.952 385.708H187.099C188.165 385.708 189.037 384.836 189.037 383.77C189.037 382.704 188.165 381.832 187.099 381.832H176.247C176.111 381.135 176.072 380.418 176.111 379.701H188.127C189.192 379.701 190.065 378.829 190.065 377.763C190.065 376.697 189.192 375.825 188.127 375.825H177.196C177.623 375.03 178.165 374.294 178.805 373.654C181.382 371.057 185.258 370.224 188.669 371.542C189.658 371.929 190.782 371.445 191.189 370.437C191.576 369.449 191.092 368.325 190.084 367.918H190.065C185.22 366.057 179.735 367.24 176.053 370.902C174.638 372.278 173.592 373.964 172.972 375.825H170.917C169.852 375.825 168.979 376.697 168.979 377.763C168.979 378.829 169.852 379.701 170.917 379.701H172.235C172.216 380.418 172.235 381.135 172.332 381.832H170.917C169.852 381.832 168.979 382.704 168.979 383.77C168.979 384.836 169.852 385.708 170.917 385.708H173.456C174.115 387.084 174.987 388.344 176.053 389.429C179.716 393.092 185.2 394.255 190.045 392.414C191.053 392.065 191.576 390.96 191.227 389.933Z" fill="#FF7141"/>
<path d="M195.314 348.802C195.314 348.779 195.314 348.756 195.337 348.71C195.382 348.665 195.405 348.665 195.428 348.665L206.551 350.568C214.806 351.99 223.268 351.76 231.432 349.88L235.17 349.009C235.216 348.986 235.262 349.009 235.285 349.054C235.308 349.1 235.308 349.1 235.308 349.123L223.062 369.396C222.97 369.556 222.879 369.74 222.833 369.923C222.282 369.785 221.732 369.671 221.182 369.556C221.182 369.533 221.205 369.51 221.205 369.464L223.108 361.988C223.429 360.75 222.672 359.512 221.457 359.214C220.241 358.915 218.98 359.649 218.682 360.865L216.802 368.364C216.733 368.593 216.733 368.822 216.733 369.052C216.297 369.029 215.861 369.029 215.426 369.029C215.127 369.029 214.806 369.029 214.508 369.052L210.724 357.173C210.357 355.957 209.073 355.292 207.858 355.659C206.642 356.026 205.977 357.31 206.344 358.526C206.344 358.548 206.344 358.548 206.367 358.571L209.853 369.533C209.165 369.648 208.5 369.808 207.812 369.969C207.766 369.648 207.674 369.35 207.491 369.075L195.314 348.802ZM186.852 434.914L188.984 398.543C189.856 383.935 202.4 372.79 217.008 373.661C218.613 373.753 220.218 374.005 221.778 374.395C233.038 377.193 241.156 386.962 241.867 398.543L244 434.914H186.852Z" fill="white"/>
<path d="M246.453 398.267C245.742 386.365 238.289 375.931 227.282 371.367L239.321 351.416C239.344 351.393 239.367 351.347 239.367 351.324C240.606 349.054 239.757 346.21 237.464 344.972C236.455 344.421 235.285 344.261 234.184 344.536L230.424 345.407C222.856 347.15 215.013 347.38 207.353 346.05L196.231 344.146C193.686 343.71 191.255 345.43 190.819 347.976C190.635 349.008 190.819 350.063 191.323 350.98C191.346 351.003 191.346 351.049 191.369 351.072L203.547 371.39C192.516 375.931 185.086 386.388 184.398 398.29L182.127 437.092C182.059 438.353 183.022 439.431 184.26 439.5C184.306 439.5 184.352 439.5 184.398 439.5H246.408C247.669 439.5 248.701 438.491 248.701 437.229C248.701 437.184 248.701 437.138 248.701 437.092L246.453 398.267ZM195.314 348.801C195.314 348.778 195.314 348.756 195.337 348.71C195.383 348.664 195.405 348.664 195.428 348.664L206.551 350.567C214.806 351.989 223.269 351.76 231.433 349.879L235.171 349.008C235.216 348.985 235.262 349.008 235.285 349.054C235.308 349.1 235.308 349.1 235.308 349.122L223.062 369.395C222.97 369.555 222.879 369.739 222.833 369.922C222.282 369.785 221.732 369.67 221.182 369.555C221.182 369.532 221.205 369.51 221.205 369.464L223.108 361.988C223.429 360.749 222.672 359.511 221.457 359.213C220.241 358.915 218.98 359.649 218.682 360.864L216.802 368.363C216.733 368.592 216.733 368.822 216.733 369.051C216.297 369.028 215.861 369.028 215.426 369.028C215.127 369.028 214.806 369.028 214.508 369.051L210.724 357.172C210.357 355.956 209.073 355.291 207.858 355.658C206.642 356.025 205.977 357.309 206.344 358.525C206.344 358.548 206.344 358.548 206.367 358.571L209.853 369.532C209.165 369.647 208.5 369.808 207.812 369.968C207.766 369.647 207.674 369.349 207.491 369.074L195.314 348.801ZM186.852 434.913L188.984 398.542C189.856 383.934 202.4 372.789 217.008 373.66C218.613 373.752 220.218 374.004 221.778 374.394C233.038 377.192 241.156 386.961 241.867 398.542L244 434.913H186.852Z" fill="#44403C"/>
<path d="M226.299 415.834C225.886 414.642 224.579 414.023 223.364 414.435C223.318 414.458 223.272 414.458 223.249 414.481C219.213 416.018 214.627 415.055 211.577 412.005C211.21 411.661 210.866 411.271 210.59 410.835H221.415C222.676 410.835 223.708 409.803 223.708 408.542C223.708 407.28 222.676 406.248 221.415 406.248H208.572C208.412 405.423 208.366 404.574 208.412 403.726H222.63C223.891 403.726 224.923 402.694 224.923 401.433C224.923 400.171 223.891 399.139 222.63 399.139H209.696C210.201 398.199 210.843 397.328 211.599 396.571C214.65 393.498 219.236 392.512 223.272 394.071C224.442 394.53 225.772 393.957 226.253 392.764C226.712 391.595 226.139 390.264 224.946 389.783H224.923C219.19 387.581 212.7 388.98 208.343 393.315C206.669 394.943 205.431 396.938 204.697 399.139H202.266C201.005 399.139 199.973 400.171 199.973 401.433C199.973 402.694 201.005 403.726 202.266 403.726H203.825C203.802 404.574 203.825 405.423 203.94 406.248H202.266C201.005 406.248 199.973 407.28 199.973 408.542C199.973 409.803 201.005 410.835 202.266 410.835H205.27C206.05 412.463 207.082 413.954 208.343 415.238C212.677 419.572 219.167 420.948 224.9 418.77C226.093 418.357 226.712 417.05 226.299 415.834Z" fill="#FF7141"/>
<path d="M379.858 104.559C379.858 105.646 379.844 106.734 379.808 107.821C379.538 116.082 378.251 124.349 375.792 132.232C373.673 139.035 370.709 145.603 366.998 151.66C363.757 156.941 359.947 161.896 355.717 166.396C352.177 170.163 348.317 173.583 344.244 176.725C341.45 178.878 338.536 180.883 335.508 182.674C334.633 183.193 333.531 183.193 332.664 182.674C332.373 182.504 332.081 182.326 331.79 182.148C328.428 180.094 325.236 177.791 322.151 175.331C318.191 172.175 314.488 168.692 311.09 164.917C306.889 160.247 303.128 155.129 299.979 149.662C296.382 143.407 293.553 136.661 291.619 129.687C289.359 121.534 288.307 113.018 288.3 104.552C288.3 102.959 289.601 101.729 291.122 101.68C293.645 101.609 296.155 101.36 298.657 101.033C299.183 100.962 299.702 100.884 300.221 100.805C305.346 100.023 310.429 98.9287 315.469 97.6918C320.004 96.5757 324.511 95.3388 328.982 93.9811C329.878 93.711 330.766 93.4338 331.655 93.1494C332.053 93.0215 332.451 92.8935 332.842 92.7656C333.247 92.6305 333.638 92.5239 334.072 92.5025C334.512 92.4812 334.903 92.6305 335.301 92.7656C337.057 93.3413 338.82 93.8816 340.59 94.4076C345.197 95.7796 349.838 97.0236 354.516 98.1325C359.463 99.3054 364.454 100.322 369.494 101.026C371.996 101.353 374.505 101.601 377.029 101.673C378.55 101.601 379.851 103.037 379.851 104.544L379.858 104.559Z" fill="white" stroke="#44403C" stroke-width="4.03188" stroke-miterlimit="10"/>
<path d="M358.721 108.259C354.89 109.837 351.776 112.453 348.855 115.311C342.542 121.474 337.381 128.561 332.555 135.904C331.801 137.056 331.026 138.2 330.102 139.586C329.697 138.719 329.505 138.172 329.207 137.688C327.707 135.278 326.399 132.705 324.607 130.523C321.529 126.784 317.485 126.322 313.418 128.931C312.452 129.549 311.606 130.352 310.554 131.191C311.108 131.738 311.52 132.08 311.847 132.485C314.151 135.3 316.902 137.873 318.608 141.008C320.065 143.681 321.145 146.531 322.176 149.389C322.887 151.351 323.228 154.692 325.332 155.637C326.548 156.185 327.97 156.078 329.263 155.751C332.675 154.884 335.483 152.502 337.097 149.41C339.151 145.465 341.149 141.477 343.061 137.461C346.935 129.329 351.307 121.502 356.781 114.322C358.501 112.069 360.321 109.894 362.098 107.683C360.889 107.655 359.759 107.832 358.728 108.252L358.721 108.259Z" fill="#44403C"/>
<g style="mix-blend-mode:multiply">
<path d="M334.075 99.4487C333.925 99.4985 333.783 99.5411 333.634 99.5909C332.752 99.8681 331.857 100.152 330.876 100.451C326.319 101.837 321.656 103.117 317.014 104.254C311.157 105.69 305.989 106.742 301.212 107.474C300.615 107.567 300.039 107.645 299.548 107.716H299.506C297.914 107.929 296.414 108.093 294.999 108.214C295.269 115.052 296.271 121.642 297.999 127.862C299.783 134.302 302.378 140.493 305.697 146.266C308.541 151.206 312.003 155.955 315.976 160.376C319.09 163.838 322.545 167.094 326.241 170.037C328.978 172.219 331.551 174.074 334.082 175.681V99.4487H334.075Z" fill="#F5F5F5"/>
</g>
</svg>
