<svg width="140" height="140" viewBox="0 0 140 140" fill="none" xmlns="http://www.w3.org/2000/svg">
<path d="M0 70C0 31.3401 31.3401 0 70 0C108.66 0 140 31.3401 140 70C140 108.66 108.66 140 70 140C31.3401 140 0 108.66 0 70Z" fill="white"/>
<mask id="mask0_1_7496" style="mask-type:alpha" maskUnits="userSpaceOnUse" x="0" y="0" width="140" height="140">
<circle cx="70" cy="70" r="70" fill="white"/>
</mask>
<g mask="url(#mask0_1_7496)">
<path d="M139.612 64.1414C139.612 106.037 105.639 140 63.7317 140C41.4943 140 21.4911 130.437 7.6123 115.201C75.4044 115.201 122.374 97.6944 122.377 16.0002C133.147 29.0968 139.612 45.8642 139.612 64.1414Z" fill="#F5F5F5"/>
</g>
<g clip-path="url(#clip0_1_7496)">
<path d="M101.197 53.0143H96.4186C96.1208 52.0342 95.7638 51.0731 95.3496 50.1363C101.24 48.8332 104.837 45.8314 104.837 42.0943C104.837 40.8071 104.325 39.5727 103.415 38.6625C102.505 37.7523 101.271 37.241 99.9834 37.241C98.6962 37.241 97.4617 37.7523 96.5515 38.6625C95.6414 39.5727 95.13 40.8071 95.13 42.0943C95.13 42.4161 95.2579 42.7247 95.4854 42.9523C95.713 43.1798 96.0216 43.3076 96.3434 43.3076C96.6652 43.3076 96.9738 43.1798 97.2013 42.9523C97.4289 42.7247 97.5567 42.4161 97.5567 42.0943C97.5567 41.4507 97.8124 40.8335 98.2675 40.3784C98.7225 39.9233 99.3398 39.6676 99.9834 39.6676C100.627 39.6676 101.244 39.9233 101.699 40.3784C102.154 40.8335 102.41 41.4507 102.41 42.0943C102.41 45.0184 98.423 47.069 94.2249 47.8953C89.3121 39.2478 79.5023 33.601 68.4367 33.601C64.4031 33.5888 60.4056 34.362 56.6674 35.8772C56.1929 35.6345 55.7707 35.4404 55.3655 35.2705C52.7057 34.165 49.8532 33.5976 46.9728 33.601C46.5147 33.5999 46.0633 33.7113 45.6583 33.9253C45.2532 34.1394 44.9069 34.4496 44.6497 34.8287C44.3925 35.2079 44.2323 35.6443 44.1832 36.0998C44.134 36.5553 44.1974 37.0159 44.3678 37.4412L46.5081 42.7447C43.898 45.4554 41.9075 48.7006 40.6744 52.256L36.264 52.9318C35.4223 53.0614 34.6551 53.4889 34.1019 54.1364C33.5488 54.784 33.2465 55.6086 33.25 56.4602V64.1406C33.2475 64.9918 33.5512 65.8156 34.1056 66.4616C34.66 67.1075 35.4282 67.5326 36.27 67.6592L40.6732 68.3351C42.6569 73.9558 46.4565 78.7557 51.4719 81.9766L52.7604 87.7824C52.9391 88.589 53.3875 89.3106 54.0317 89.8279C54.6758 90.3452 55.4772 90.6273 56.3034 90.6276H62.1274C62.9557 90.6284 63.7594 90.3459 64.4052 89.827C65.0509 89.3082 65.4999 88.5842 65.6776 87.7751L65.879 86.8821C67.1337 86.9777 68.3932 86.9947 69.65 86.933V101.548C69.65 102.835 70.1614 104.069 71.0715 104.979C71.9817 105.89 73.2162 106.401 74.5034 106.401H101.197C102.484 106.401 103.718 105.89 104.629 104.979C105.539 104.069 106.05 102.835 106.05 101.548V57.8676C106.05 56.5805 105.539 55.346 104.629 54.4358C103.718 53.5256 102.484 53.0143 101.197 53.0143ZM69.65 57.8676V84.527C68.1217 84.5972 66.5903 84.5424 65.0709 84.3632C64.7727 84.3264 64.4715 84.4022 64.2264 84.576C63.9813 84.7497 63.8099 85.0088 63.746 85.3023L63.3104 87.2436C63.252 87.5142 63.1028 87.7567 62.8876 87.9308C62.6724 88.105 62.4042 88.2003 62.1274 88.201H56.3034C56.0271 88.2001 55.7594 88.105 55.5445 87.9314C55.3296 87.7578 55.1804 87.516 55.1216 87.2461L53.7262 80.961C53.6915 80.8049 53.6262 80.6573 53.5342 80.5265C53.4421 80.3957 53.3251 80.2844 53.19 80.199C48.2338 77.1524 44.5323 72.432 42.7553 66.8924C42.6892 66.6731 42.5625 66.4769 42.3896 66.3266C42.2168 66.1763 42.0049 66.078 41.7786 66.0431L36.6474 65.2593C36.3781 65.2207 36.1317 65.0864 35.9534 64.8809C35.7751 64.6755 35.6769 64.4126 35.6767 64.1406V56.4602C35.6754 56.188 35.7715 55.9243 35.9478 55.7168C36.1241 55.5094 36.3688 55.372 36.6377 55.3293L41.781 54.5407C42.0065 54.5063 42.2177 54.4091 42.3905 54.2602C42.5632 54.1112 42.6905 53.9166 42.7577 53.6986C43.9237 49.9825 45.9931 46.6137 48.7807 43.8937C48.9508 43.7261 49.0677 43.512 49.1167 43.2782C49.1657 43.0445 49.1446 42.8015 49.0561 42.5796L46.621 36.5397C46.5982 36.4826 46.5899 36.4208 46.5967 36.3598C46.6036 36.2987 46.6253 36.2403 46.6601 36.1897C46.6949 36.139 46.7417 36.0978 46.7962 36.0695C46.8507 36.0412 46.9114 36.0269 46.9728 36.0276C49.5317 36.0252 52.0658 36.5296 54.4288 37.5115C54.9008 37.7081 55.4116 37.9544 56.0364 38.2881C56.1969 38.3735 56.3746 38.4218 56.5562 38.4294C56.7379 38.4369 56.9189 38.4036 57.086 38.3318C60.6729 36.798 64.5356 36.0139 68.4367 36.0276C80.2169 36.0276 90.4308 42.9436 93.8767 53.0143H74.5034C73.2162 53.0143 71.9817 53.5256 71.0715 54.4358C70.1614 55.346 69.65 56.5805 69.65 57.8676ZM103.623 101.548C103.623 102.191 103.368 102.808 102.913 103.264C102.458 103.719 101.84 103.974 101.197 103.974H74.5034C73.8598 103.974 73.2425 103.719 72.7875 103.264C72.3324 102.808 72.0767 102.191 72.0767 101.548V57.8676C72.0767 57.224 72.3324 56.6068 72.7875 56.1517C73.2425 55.6966 73.8598 55.441 74.5034 55.441H101.197C101.84 55.441 102.458 55.6966 102.913 56.1517C103.368 56.6068 103.623 57.224 103.623 57.8676V101.548Z" fill="#FF7141"/>
<path d="M98.7706 57.8674H76.9306C76.287 57.8674 75.6697 58.1231 75.2147 58.5782C74.7596 59.0333 74.5039 59.6505 74.5039 60.2941V70.0008C74.5039 70.6444 74.7596 71.2616 75.2147 71.7167C75.6697 72.1718 76.287 72.4274 76.9306 72.4274H98.7706C99.4142 72.4274 100.031 72.1718 100.486 71.7167C100.942 71.2616 101.197 70.6444 101.197 70.0008V60.2941C101.197 59.6505 100.942 59.0333 100.486 58.5782C100.031 58.1231 99.4142 57.8674 98.7706 57.8674ZM76.9306 70.0008V60.2941H98.7706V70.0008H76.9306Z" fill="#FF7141"/>
<path d="M79.3572 74.8547H76.9306C76.287 74.8547 75.6697 75.1104 75.2147 75.5655C74.7596 76.0206 74.5039 76.6378 74.5039 77.2814V79.7081C74.5039 80.3517 74.7596 80.9689 75.2147 81.424C75.6697 81.8791 76.287 82.1347 76.9306 82.1347H79.3572C80.0008 82.1347 80.6181 81.8791 81.0732 81.424C81.5282 80.9689 81.7839 80.3517 81.7839 79.7081V77.2814C81.7839 76.6378 81.5282 76.0206 81.0732 75.5655C80.6181 75.1104 80.0008 74.8547 79.3572 74.8547ZM76.9306 79.7081V77.2814H79.3572V79.7081H76.9306Z" fill="#FF7141"/>
<path d="M89.0643 74.8547H86.6376C85.994 74.8547 85.3768 75.1104 84.9217 75.5655C84.4666 76.0206 84.2109 76.6378 84.2109 77.2814V79.7081C84.2109 80.3517 84.4666 80.9689 84.9217 81.424C85.3768 81.8791 85.994 82.1347 86.6376 82.1347H89.0643C89.7079 82.1347 90.3251 81.8791 90.7802 81.424C91.2353 80.9689 91.4909 80.3517 91.4909 79.7081V77.2814C91.4909 76.6378 91.2353 76.0206 90.7802 75.5655C90.3251 75.1104 89.7079 74.8547 89.0643 74.8547ZM86.6376 79.7081V77.2814H89.0643V79.7081H86.6376Z" fill="#FF7141"/>
<path d="M98.7713 74.8547H96.3446C95.701 74.8547 95.0838 75.1104 94.6287 75.5655C94.1736 76.0206 93.918 76.6378 93.918 77.2814V79.7081C93.918 80.3517 94.1736 80.9689 94.6287 81.424C95.0838 81.8791 95.701 82.1347 96.3446 82.1347H98.7713C99.4149 82.1347 100.032 81.8791 100.487 81.424C100.942 80.9689 101.198 80.3517 101.198 79.7081V77.2814C101.198 76.6378 100.942 76.0206 100.487 75.5655C100.032 75.1104 99.4149 74.8547 98.7713 74.8547ZM96.3446 79.7081V77.2814H98.7713V79.7081H96.3446Z" fill="#FF7141"/>
<path d="M79.3572 84.5618H76.9306C76.287 84.5618 75.6697 84.8174 75.2147 85.2725C74.7596 85.7276 74.5039 86.3448 74.5039 86.9884V89.4151C74.5039 90.0587 74.7596 90.6759 75.2147 91.131C75.6697 91.5861 76.287 91.8418 76.9306 91.8418H79.3572C80.0008 91.8418 80.6181 91.5861 81.0732 91.131C81.5282 90.6759 81.7839 90.0587 81.7839 89.4151V86.9884C81.7839 86.3448 81.5282 85.7276 81.0732 85.2725C80.6181 84.8174 80.0008 84.5618 79.3572 84.5618ZM76.9306 89.4151V86.9884H79.3572V89.4151H76.9306Z" fill="#FF7141"/>
<path d="M89.0643 84.5618H86.6376C85.994 84.5618 85.3768 84.8174 84.9217 85.2725C84.4666 85.7276 84.2109 86.3448 84.2109 86.9884V89.4151C84.2109 90.0587 84.4666 90.6759 84.9217 91.131C85.3768 91.5861 85.994 91.8418 86.6376 91.8418H89.0643C89.7079 91.8418 90.3251 91.5861 90.7802 91.131C91.2353 90.6759 91.4909 90.0587 91.4909 89.4151V86.9884C91.4909 86.3448 91.2353 85.7276 90.7802 85.2725C90.3251 84.8174 89.7079 84.5618 89.0643 84.5618ZM86.6376 89.4151V86.9884H89.0643V89.4151H86.6376Z" fill="#FF7141"/>
<path d="M98.7713 84.5618H96.3446C95.701 84.5618 95.0838 84.8174 94.6287 85.2725C94.1736 85.7276 93.918 86.3448 93.918 86.9884V99.1218C93.918 99.7654 94.1736 100.383 94.6287 100.838C95.0838 101.293 95.701 101.548 96.3446 101.548H98.7713C99.4149 101.548 100.032 101.293 100.487 100.838C100.942 100.383 101.198 99.7654 101.198 99.1218V86.9884C101.198 86.3448 100.942 85.7276 100.487 85.2725C100.032 84.8174 99.4149 84.5618 98.7713 84.5618ZM96.3446 99.1218V86.9884H98.7713V99.1218H96.3446Z" fill="#FF7141"/>
<path d="M79.3572 94.2668H76.9306C76.287 94.2668 75.6697 94.5225 75.2147 94.9776C74.7596 95.4327 74.5039 96.0499 74.5039 96.6935V99.1202C74.5039 99.7638 74.7596 100.381 75.2147 100.836C75.6697 101.291 76.287 101.547 76.9306 101.547H79.3572C80.0008 101.547 80.6181 101.291 81.0732 100.836C81.5282 100.381 81.7839 99.7638 81.7839 99.1202V96.6935C81.7839 96.0499 81.5282 95.4327 81.0732 94.9776C80.6181 94.5225 80.0008 94.2668 79.3572 94.2668ZM76.9306 99.1202V96.6935H79.3572V99.1202H76.9306Z" fill="#FF7141"/>
<path d="M89.0643 94.2668H86.6376C85.994 94.2668 85.3768 94.5225 84.9217 94.9776C84.4666 95.4327 84.2109 96.0499 84.2109 96.6935V99.1202C84.2109 99.7638 84.4666 100.381 84.9217 100.836C85.3768 101.291 85.994 101.547 86.6376 101.547H89.0643C89.7079 101.547 90.3251 101.291 90.7802 100.836C91.2353 100.381 91.4909 99.7638 91.4909 99.1202V96.6935C91.4909 96.0499 91.2353 95.4327 90.7802 94.9776C90.3251 94.5225 89.7079 94.2668 89.0643 94.2668ZM86.6376 99.1202V96.6935H89.0643V99.1202H86.6376Z" fill="#FF7141"/>
<path d="M50.2357 48.1614C49.5158 48.1614 48.812 48.3749 48.2134 48.7748C47.6148 49.1748 47.1483 49.7433 46.8728 50.4084C46.5973 51.0735 46.5252 51.8054 46.6656 52.5115C46.8061 53.2176 47.1528 53.8662 47.6618 54.3752C48.1709 54.8843 48.8195 55.231 49.5256 55.3714C50.2317 55.5119 50.9636 55.4398 51.6287 55.1643C52.2938 54.8888 52.8623 54.4222 53.2623 53.8237C53.6622 53.2251 53.8757 52.5213 53.8757 51.8014C53.8757 50.836 53.4922 49.9101 52.8096 49.2275C52.1269 48.5449 51.2011 48.1614 50.2357 48.1614ZM50.2357 53.0147C49.9957 53.0147 49.7611 52.9436 49.5616 52.8102C49.3621 52.6769 49.2066 52.4874 49.1147 52.2657C49.0229 52.044 48.9989 51.8 49.0457 51.5647C49.0925 51.3293 49.2081 51.1131 49.3777 50.9434C49.5474 50.7737 49.7636 50.6582 49.999 50.6114C50.2344 50.5645 50.4783 50.5886 50.7 50.6804C50.9217 50.7722 51.1112 50.9278 51.2446 51.1273C51.3779 51.3268 51.449 51.5614 51.449 51.8014C51.449 52.1232 51.3212 52.4318 51.0937 52.6593C50.8661 52.8869 50.5575 53.0147 50.2357 53.0147Z" fill="#FF7141"/>
<path d="M75.2632 39.9334C75.0739 39.7817 73.2745 38.4543 68.4382 38.4543C63.6018 38.4543 61.8024 39.7817 61.6132 39.9334C61.3686 40.1304 61.211 40.4155 61.1743 40.7274C61.1375 41.0394 61.2245 41.3532 61.4166 41.6017C61.6118 41.8519 61.8963 42.0169 62.2104 42.0622C62.5246 42.1074 62.844 42.0294 63.1019 41.8444C63.1153 41.8395 64.5106 40.881 68.4382 40.881C72.3427 40.881 73.7441 41.8286 73.7465 41.8286C73.9978 42.0297 74.3187 42.1228 74.6387 42.0873C74.9586 42.0518 75.2513 41.8907 75.4524 41.6393C75.6536 41.388 75.7466 41.0671 75.7111 40.7472C75.6756 40.4272 75.5145 40.1345 75.2632 39.9334Z" fill="#FF7141"/>
</g>
<circle cx="70" cy="70" r="67.9" stroke="#44403C" stroke-width="4.2"/>
<defs>
<clipPath id="clip0_1_7496">
<rect width="72.8" height="72.8" fill="white" transform="translate(33.25 33.6001)"/>
</clipPath>
</defs>
</svg>
