<svg width="140" height="140" viewBox="0 0 140 140" fill="none" xmlns="http://www.w3.org/2000/svg">
<path d="M0 70C0 31.3401 31.3401 0 70 0C108.66 0 140 31.3401 140 70C140 108.66 108.66 140 70 140C31.3401 140 0 108.66 0 70Z" fill="white"/>
<mask id="mask0_1_7415" style="mask-type:alpha" maskUnits="userSpaceOnUse" x="0" y="0" width="140" height="140">
<circle cx="70" cy="70" r="70" fill="white"/>
</mask>
<g mask="url(#mask0_1_7415)">
<path d="M139.612 64.1414C139.612 106.037 105.639 140 63.7317 140C41.4943 140 21.4911 130.437 7.6123 115.201C75.4044 115.201 122.374 97.6944 122.377 16.0002C133.147 29.0968 139.612 45.8642 139.612 64.1414Z" fill="#F5F5F5"/>
</g>
<g clip-path="url(#clip0_1_7415)">
<path d="M101.899 79.8291V72.4277C101.894 69.1514 100.006 66.1697 97.0455 64.7655V39.6677C97.0415 36.3189 94.3277 33.6051 90.9788 33.6011H40.0188C36.67 33.6051 33.9562 36.3189 33.9521 39.6677V93.0544C33.9562 96.4033 36.67 99.1171 40.0188 99.1211H41.5719L43.1735 103.913C43.6684 105.397 45.0562 106.398 46.6206 106.401H52.8304C54.3948 106.398 55.7826 105.397 56.2775 103.913L57.8791 99.1211H73.1173L74.7129 103.917C75.2139 105.399 76.6021 106.397 78.166 106.401H84.3783C84.6432 106.398 84.9069 106.365 85.1645 106.304C85.4817 106.362 85.8031 106.395 86.1255 106.401H100.685C104.034 106.397 106.748 103.683 106.752 100.334V85.7744C106.749 82.8926 104.722 80.4096 101.899 79.8291ZM99.4722 72.4277V79.7077H97.0455V72.4277C97.0455 70.4174 95.4158 68.7877 93.4055 68.7877C91.3952 68.7877 89.7655 70.4174 89.7655 72.4277V79.7077H87.3388V72.4277C87.3388 69.0772 90.055 66.3611 93.4055 66.3611C96.756 66.3611 99.4722 69.0772 99.4722 72.4277ZM94.6188 79.7077H92.1922V72.4277C92.1922 71.7576 92.7354 71.2144 93.4055 71.2144C94.0756 71.2144 94.6188 71.7576 94.6188 72.4277V79.7077ZM80.0588 85.7744V91.8411H42.4455C41.7754 91.8411 41.2321 91.2978 41.2321 90.6277V42.0944C41.2321 41.4243 41.7754 40.8811 42.4455 40.8811H88.5522C89.2223 40.8811 89.7655 41.4243 89.7655 42.0944V64.7655C86.8052 66.1697 84.9166 69.1514 84.9122 72.4277V79.8291C82.0894 80.4096 80.0625 82.8926 80.0588 85.7744ZM36.3788 93.0544V39.6677C36.3788 37.6574 38.0085 36.0277 40.0188 36.0277H90.9788C92.9891 36.0277 94.6188 37.6574 94.6188 39.6677V64.0315C93.8151 63.9021 92.9959 63.9021 92.1922 64.0315V42.0944C92.1922 40.0841 90.5625 38.4544 88.5522 38.4544H42.4455C40.4352 38.4544 38.8055 40.0841 38.8055 42.0944V90.6277C38.8055 92.6381 40.4352 94.2677 42.4455 94.2677H80.0588V96.6944H40.0188C38.0085 96.6944 36.3788 95.0647 36.3788 93.0544ZM53.9819 103.144C53.8168 103.64 53.3529 103.975 52.8304 103.974H46.6206C46.0981 103.975 45.6342 103.64 45.4691 103.144L44.1296 99.1211H55.3214L53.9819 103.144ZM77.0121 103.144L75.675 99.1211H80.0588V100.334C80.0633 101.651 80.5007 102.93 81.3037 103.974H78.166C77.6432 103.971 77.1798 103.637 77.0121 103.142V103.144ZM104.325 100.334C104.325 102.345 102.696 103.974 100.685 103.974H86.1255C84.1152 103.974 82.4855 102.345 82.4855 100.334V85.7744C82.4855 83.7641 84.1152 82.1344 86.1255 82.1344H100.685C102.696 82.1344 104.325 83.7641 104.325 85.7744V100.334Z" fill="#FF7141"/>
<path d="M97.121 93.7523C97.9532 92.7604 98.3552 91.4774 98.2379 90.188C98.1206 88.8985 97.4937 87.7091 96.4961 86.8837C95.1359 85.7586 93.2721 85.4607 91.629 86.1058C89.9859 86.751 88.8226 88.2374 88.5913 89.9874C88.4079 91.3489 88.8145 92.724 89.7088 93.7669L88.0186 97.3778C87.7192 98.0228 87.77 98.7761 88.1532 99.3752C88.5364 99.9742 89.199 100.336 89.9102 100.335H96.899C97.6118 100.337 98.2759 99.9734 98.6588 99.3722C99.0417 98.771 99.0901 98.0156 98.7869 97.3705L97.121 93.7523ZM90.4489 97.908L91.9049 94.797C92.3006 93.9298 92.1587 92.9119 91.5409 92.1859C90.8551 91.3636 90.7894 90.1889 91.3792 89.2952C91.9689 88.4015 93.0747 88 94.1005 88.307C95.1263 88.6141 95.8296 89.5572 95.8312 90.628C95.8357 91.1993 95.6346 91.7531 95.2646 92.1884C94.6414 92.9104 94.4989 93.9307 94.9006 94.7958L96.3603 97.908H90.4489Z" fill="#FF7141"/>
<path d="M65.5009 50.5884C56.7895 50.5884 49.7275 57.6503 49.7275 66.3617C49.7275 75.0731 56.7895 82.135 65.5009 82.135C74.2122 82.135 81.2742 75.0731 81.2742 66.3617C81.2642 57.6545 74.2081 50.5984 65.5009 50.5884ZM65.5009 79.7084C58.1297 79.7084 52.1542 73.7329 52.1542 66.3617C52.1542 58.9906 58.1297 53.015 65.5009 53.015C72.872 53.015 78.8475 58.9906 78.8475 66.3617C78.8388 73.7293 72.8684 79.6997 65.5009 79.7084Z" fill="#FF7141"/>
<path d="M65.4988 61.5083C62.8184 61.5083 60.6455 63.6812 60.6455 66.3616C60.6455 69.0421 62.8184 71.215 65.4988 71.215C68.1793 71.215 70.3522 69.0421 70.3522 66.3616C70.3522 63.6812 68.1793 61.5083 65.4988 61.5083ZM65.4988 68.7883C64.1586 68.7883 63.0722 67.7018 63.0722 66.3616C63.0722 65.0214 64.1586 63.935 65.4988 63.935C66.8391 63.935 67.9255 65.0214 67.9255 66.3616C67.9255 67.7018 66.8391 68.7883 65.4988 68.7883Z" fill="#FF7141"/>
<path d="M65.4975 59.0809C66.1676 59.0809 66.7108 58.5377 66.7108 57.8676V56.6543C66.7108 55.9841 66.1676 55.4409 65.4975 55.4409C64.8274 55.4409 64.2842 55.9841 64.2842 56.6543V57.8676C64.2842 58.5377 64.8274 59.0809 65.4975 59.0809Z" fill="#FF7141"/>
<path d="M58.6369 61.2134C59.113 61.6732 59.8697 61.6666 60.3378 61.1986C60.8058 60.7306 60.8124 59.9738 60.3526 59.4977L59.4947 58.6399C59.0186 58.1801 58.2619 58.1867 57.7939 58.6547C57.3258 59.1227 57.3193 59.8795 57.7791 60.3556L58.6369 61.2134Z" fill="#FF7141"/>
<path d="M58.2171 66.3613C58.2171 65.6912 57.6739 65.1479 57.0038 65.1479H55.7905C55.1204 65.1479 54.5771 65.6912 54.5771 66.3613C54.5771 67.0314 55.1204 67.5746 55.7905 67.5746H57.0038C57.6739 67.5746 58.2171 67.0314 58.2171 66.3613Z" fill="#FF7141"/>
<path d="M58.6355 71.5086L57.7777 72.3665C57.4623 72.6711 57.3358 73.1222 57.4468 73.5464C57.5578 73.9707 57.8891 74.3019 58.3134 74.413C58.7376 74.524 59.1887 74.3975 59.4933 74.0821L60.3512 73.2243C60.6666 72.9196 60.7931 72.4685 60.682 72.0443C60.571 71.6201 60.2397 71.2888 59.8155 71.1778C59.3913 71.0667 58.9401 71.1932 58.6355 71.5086Z" fill="#FF7141"/>
<path d="M65.4975 73.6401C64.8274 73.6401 64.2842 74.1834 64.2842 74.8535V76.0668C64.2842 76.7369 64.8274 77.2801 65.4975 77.2801C66.1676 77.2801 66.7108 76.7369 66.7108 76.0668V74.8535C66.7108 74.1834 66.1676 73.6401 65.4975 73.6401Z" fill="#FF7141"/>
<path d="M72.3625 71.5086C72.0578 71.1932 71.6067 71.0667 71.1825 71.1778C70.7583 71.2888 70.427 71.6201 70.3159 72.0443C70.2049 72.4685 70.3314 72.9196 70.6468 73.2243L71.5046 74.0821C71.9807 74.5419 72.7375 74.5354 73.2055 74.0673C73.6735 73.5993 73.6801 72.8425 73.2203 72.3665L72.3625 71.5086Z" fill="#FF7141"/>
<path d="M72.7783 66.3613C72.7783 67.0314 73.3215 67.5746 73.9917 67.5746H75.205C75.8751 67.5746 76.4183 67.0314 76.4183 66.3613C76.4183 65.6912 75.8751 65.1479 75.205 65.1479H73.9917C73.3215 65.1479 72.7783 65.6912 72.7783 66.3613Z" fill="#FF7141"/>
<path d="M71.5051 61.5689C71.8269 61.5688 72.1354 61.441 72.3629 61.2134L73.2208 60.3556C73.6806 59.8795 73.674 59.1227 73.206 58.6547C72.738 58.1867 71.9812 58.1801 71.5051 58.6399L70.6473 59.4977C70.3004 59.8447 70.1966 60.3665 70.3844 60.8199C70.5721 61.2732 71.0144 61.5688 71.5051 61.5689Z" fill="#FF7141"/>
</g>
<circle cx="70" cy="70" r="67.9" stroke="#44403C" stroke-width="4.2"/>
<defs>
<clipPath id="clip0_1_7415">
<rect width="72.8" height="72.8" fill="white" transform="translate(33.9502 33.6001)"/>
</clipPath>
</defs>
</svg>
