<svg width="140" height="140" viewBox="0 0 140 140" fill="none" xmlns="http://www.w3.org/2000/svg">
<path d="M0 70C0 31.3401 31.3401 0 70 0C108.66 0 140 31.3401 140 70C140 108.66 108.66 140 70 140C31.3401 140 0 108.66 0 70Z" fill="white"/>
<mask id="mask0_1_7436" style="mask-type:alpha" maskUnits="userSpaceOnUse" x="0" y="0" width="140" height="140">
<circle cx="70" cy="70" r="70" fill="white"/>
</mask>
<g mask="url(#mask0_1_7436)">
<path d="M139.612 64.1414C139.612 106.037 105.639 140 63.7317 140C41.4943 140 21.4911 130.437 7.6123 115.201C75.4044 115.201 122.374 97.6944 122.377 16.0002C133.147 29.0968 139.612 45.8642 139.612 64.1414Z" fill="#F5F5F5"/>
</g>
<g clip-path="url(#clip0_1_7436)">
<path d="M36.89 62.7203H39.5351C40.7344 62.7198 41.9068 63.0758 42.9033 63.7432L46.5142 66.1419C47.4871 66.7926 48.5858 67.2316 49.7392 67.4305C46.5445 70.6725 42.9567 74.3598 42.9567 80.9203C42.9567 84.5688 44.3751 93.0536 57.5167 93.0536C70.6583 93.0536 72.0767 84.5688 72.0767 80.9203C72.1079 77.81 71.181 74.7654 69.4219 72.2001C68.2006 70.4695 66.8141 68.8615 65.282 67.3989C64.9997 67.1126 64.721 66.8295 64.446 66.5496C65.3081 65.8633 65.862 64.8624 65.9857 63.7674C66.0631 62.9887 65.9259 62.2036 65.589 61.4973C67.6678 61.3566 69.3579 59.7671 69.6257 57.7008C69.7098 56.8497 69.5378 55.9929 69.1319 55.2401C71.0409 54.6244 72.2587 52.7569 72.0524 50.7617C71.8502 49.0991 70.7011 47.7053 69.1076 47.1896C69.5277 46.4281 69.7067 45.5569 69.6209 44.6914C69.332 42.4897 67.4417 40.8522 65.2213 40.8803H62.2183L63.9692 37.3774C64.4195 36.48 64.3145 35.4037 63.6992 34.6102C63.0839 33.8167 62.0676 33.4471 61.0863 33.6598C58.7324 34.156 56.3009 34.156 53.947 33.6598C52.9632 33.4437 51.9431 33.8152 51.3287 34.6134C51.2813 34.6753 51.2571 34.7481 51.2146 34.8136H50.2367C48.3584 34.8115 46.5563 35.5557 45.2268 36.8824L42.5927 39.525C41.7214 40.39 40.5444 40.877 39.3167 40.8803H36.89C34.8797 40.8803 33.25 42.51 33.25 44.5203V59.0803C33.25 61.0906 34.8797 62.7203 36.89 62.7203ZM63.5494 69.1025C64.973 70.4585 66.2638 71.9476 67.4041 73.5493C68.9024 75.7123 69.6876 78.2893 69.65 80.9203C69.65 85.3478 67.5449 90.627 57.5167 90.627C47.4885 90.627 45.3833 85.3478 45.3833 80.9203C45.3833 75.305 48.3754 72.2705 51.5422 69.0588C52.0275 68.5649 52.5044 68.0699 52.9727 67.5737H61.5874C61.7397 67.5675 61.8916 67.5533 62.0424 67.5312C62.5253 68.059 63.0301 68.5759 63.5494 69.1025ZM53.4399 36.033C56.1277 36.6009 58.9045 36.6009 61.5923 36.033C61.6636 36.013 61.7399 36.039 61.784 36.0986C61.8294 36.1537 61.8353 36.2314 61.7985 36.2927L59.5053 40.8803H55.528L53.2348 36.2927C53.1981 36.2314 53.2039 36.1537 53.2494 36.0986C53.2931 36.0392 53.3689 36.0131 53.4399 36.033ZM35.6767 44.5203C35.6767 43.8502 36.2199 43.307 36.89 43.307H39.3167C41.1891 43.3038 42.9848 42.5627 44.3144 41.2443L46.94 38.6065C47.8185 37.7384 49.0016 37.248 50.2367 37.2403H51.0181C51.0375 37.2852 51.0411 37.3337 51.0642 37.3774L52.815 40.8803H50.2367C49.5666 40.8803 49.0233 41.4235 49.0233 42.0936C49.0233 42.7638 49.5666 43.307 50.2367 43.307H65.2213C66.1971 43.2726 67.0465 43.9683 67.2051 44.9316C67.2615 45.449 67.0937 45.9657 66.7441 46.3512C66.403 46.7326 65.9149 46.9494 65.4033 46.947H57.5167C56.8466 46.947 56.3033 47.4902 56.3033 48.1603C56.3033 48.8304 56.8466 49.3736 57.5167 49.3736H67.648C68.6237 49.3393 69.4731 50.035 69.6318 50.9983C69.6881 51.5157 69.5203 52.0324 69.1707 52.4179C68.8297 52.7992 68.3416 53.0161 67.83 53.0136H57.5167C56.8466 53.0136 56.3033 53.5569 56.3033 54.227C56.3033 54.8971 56.8466 55.4403 57.5167 55.4403H65.4033C65.9149 55.4379 66.403 55.6547 66.7441 56.0361C67.0933 56.4213 67.2611 56.9375 67.2051 57.4544C67.047 58.4183 66.1974 59.1146 65.2213 59.0803H57.5167C56.8466 59.0803 56.3033 59.6235 56.3033 60.2936C56.3033 60.9638 56.8466 61.507 57.5167 61.507H61.7633C62.2749 61.5045 62.763 61.7214 63.1041 62.1027C63.4533 62.488 63.6211 63.0042 63.5651 63.5211C63.4512 64.2973 62.8641 64.9193 62.0958 65.0778H62.08C61.9171 65.1206 61.7497 65.1438 61.5813 65.147H51.2195C50.0236 65.1498 48.8544 64.7935 47.8634 64.1241L44.2477 61.723C42.853 60.7903 41.2128 60.2928 39.5351 60.2936H36.89C36.2199 60.2936 35.6767 59.7504 35.6767 59.0803V44.5203Z" fill="#FF7141"/>
<path d="M103.623 55.4399H74.5028C73.1626 55.4399 72.0762 56.5264 72.0762 57.8666V60.2933C72.0788 61.1564 72.5412 61.9526 73.2895 62.3826V65.1466C73.2737 71.0694 76.5923 76.4971 81.8714 79.1824C82.5554 79.4899 82.9954 80.17 82.9954 80.9199C82.9954 81.6699 82.5554 82.35 81.8714 82.6574C76.5923 85.3428 73.2737 90.7705 73.2895 96.6933V99.4572C72.5412 99.8873 72.0788 100.684 72.0762 101.547V103.973C72.0762 105.313 73.1626 106.4 74.5028 106.4H103.623C104.963 106.4 106.05 105.313 106.05 103.973V101.547C106.047 100.684 105.584 99.8873 104.836 99.4572V96.6933C104.852 90.7705 101.533 85.3428 96.2543 82.6574C95.5703 82.35 95.1303 81.6699 95.1303 80.9199C95.1303 80.17 95.5703 79.4899 96.2543 79.1824C101.533 76.4971 104.852 71.0694 104.836 65.1466V62.3826C105.584 61.9526 106.047 61.1564 106.05 60.2933V57.8666C106.05 56.5264 104.963 55.4399 103.623 55.4399ZM74.5028 57.8666H103.623V60.2933H74.5028V57.8666ZM74.5028 103.973V101.547H103.623V103.973H74.5028ZM80.6362 99.1199C81.0257 95.6971 83.0957 94.0142 85.6485 91.9419C86.4869 91.26 87.3545 90.5562 88.1965 89.7579C88.673 89.3032 89.4239 89.3075 89.8952 89.7676C90.7445 90.5938 91.6387 91.3182 92.5014 92.0183C95.0385 94.081 97.0963 95.7481 97.487 99.1236L80.6362 99.1199ZM102.41 65.1466C102.423 70.1575 99.6159 74.7497 95.1501 77.0227C93.6539 77.7443 92.7028 79.2588 92.7028 80.9199C92.7028 82.5811 93.6539 84.0956 95.1501 84.8172C99.6159 87.0901 102.423 91.6824 102.41 96.6933L102.41 99.1199H99.921C99.4999 94.5797 96.7263 92.318 94.0327 90.1304C93.2112 89.4642 92.3607 88.7738 91.5854 88.0216C90.1792 86.6455 87.934 86.6358 86.5161 87.9997C85.7492 88.7277 84.9193 89.4072 84.1185 90.0624C81.4103 92.2573 78.6282 94.5323 78.2035 99.1199H75.7161L75.7162 96.6933C75.7028 91.6824 78.5098 87.0901 82.9755 84.8172C84.4718 84.0956 85.4228 82.5811 85.4228 80.9199C85.4228 79.2588 84.4718 77.7443 82.9755 77.0227C78.5098 74.7497 75.7028 70.1575 75.7162 65.1466L75.7161 62.7199H102.41L102.41 65.1466Z" fill="#FF7141"/>
<path d="M84.0879 74.8718C85.1705 75.4244 86.0904 76.2495 86.7572 77.2657C87.2535 78.0297 88.1018 78.4915 89.0128 78.4936H89.0249C89.9824 78.4906 90.8746 78.0076 91.4006 77.2075C91.914 76.436 92.5776 75.7757 93.3517 75.2662C93.5757 75.1222 93.8074 74.9906 94.0457 74.8718C96.714 73.499 98.7028 71.0923 99.5482 68.2131C99.7576 67.4964 99.6144 66.7228 99.1623 66.1286C98.6996 65.513 97.9753 65.1497 97.2052 65.147H80.9198C80.15 65.1494 79.4257 65.5123 78.9627 66.1273C78.5106 66.7211 78.3675 67.4943 78.5769 68.2106C79.4237 71.0923 81.4158 73.5002 84.0879 74.8718ZM97.204 67.5736C96.5449 69.7844 95.0168 71.6331 92.9695 72.6963C92.6485 72.8558 92.3367 73.0328 92.0352 73.2266C90.981 73.9168 90.0779 74.8137 89.3804 75.8631C89.2959 75.9787 89.1662 76.0528 89.0237 76.067C88.9297 76.0722 88.8403 76.0257 88.7907 75.9456C87.8915 74.5745 86.6497 73.462 85.1884 72.7182C83.1227 71.6582 81.5804 69.7995 80.9198 67.5736H97.204Z" fill="#FF7141"/>
<path fill-rule="evenodd" clip-rule="evenodd" d="M89.0629 80.9204C88.3928 80.9204 87.8496 81.4636 87.8496 82.1337V83.3471C87.8496 84.0172 88.3928 84.5604 89.0629 84.5604C89.733 84.5604 90.2763 84.0172 90.2763 83.3471V82.1337C90.2763 81.4636 89.733 80.9204 89.0629 80.9204Z" fill="#FF7141"/>
</g>
<circle cx="70" cy="70" r="67.9" stroke="#44403C" stroke-width="4.2"/>
<defs>
<clipPath id="clip0_1_7436">
<rect width="72.8" height="72.8" fill="white" transform="translate(33.25 33.6001)"/>
</clipPath>
</defs>
</svg>
