<svg width="480" height="305" viewBox="0 0 480 305" fill="none" xmlns="http://www.w3.org/2000/svg">
<path fill-rule="evenodd" clip-rule="evenodd" d="M260.794 2C268.166 2.26392 275.574 2.17595 282.893 2.89733C287.309 3.3372 291.761 4.58643 295.896 6.24034C309.039 11.5188 322.252 16.7796 333.759 25.2779C337.454 28.0051 340.709 31.3657 344.07 34.5327C350.404 40.4797 356.932 46.286 362.14 53.2711C369.16 62.7019 374.157 73.2236 377.658 84.3962C379.787 91.2054 381.248 98.2433 382.919 105.193C383.341 106.953 383.5 108.8 383.535 110.612C383.658 118.442 384.08 126.307 383.623 134.119C383.13 142.371 382.233 150.641 380.667 158.752C378.415 170.382 373.717 181.167 367.365 191.214C363.917 196.651 360.574 202.158 357.055 207.56C356.158 208.95 354.873 210.128 353.659 211.272C349.366 215.266 344.651 218.873 340.815 223.272C336.487 228.233 330.751 230.802 325.332 233.916C322.252 235.694 318.54 236.38 315.162 237.699C310.341 239.582 305.467 241.341 300.822 243.594C292.148 247.816 282.77 248.186 273.497 249.4C262.817 250.807 252.19 249.312 241.563 249.013C234.754 248.837 227.909 247.482 221.206 246.074C216.508 245.089 211.898 243.418 207.464 241.553C203.083 239.705 198.702 237.629 194.831 234.919C190.045 231.559 185.207 228.251 180.755 224.345C172.187 216.814 166.064 207.507 160.029 198.094C156.932 193.273 153.642 188.487 151.196 183.349C148.012 176.681 145.073 169.801 142.962 162.728C140.851 155.637 139.478 148.265 138.581 140.928C137.789 134.418 137.859 127.785 138 121.204C138.123 115.75 138.722 110.296 139.408 104.894C140.182 98.9295 140.956 92.9121 142.381 87.0882C143.261 83.4637 145.073 79.98 146.973 76.7249C151.108 69.5815 155.349 62.4908 159.958 55.6464C162.774 51.4765 166.064 47.5528 169.636 43.9987C174.773 38.861 180.544 34.3919 185.664 29.2367C192.298 22.5507 200.039 17.6417 208.432 13.6125C209.681 13.0143 211.018 12.5393 212.338 12.1522C218.655 10.3047 224.953 8.3869 231.305 6.73299C240.947 4.21694 250.677 2.21114 260.741 2L260.794 2ZM330.012 28.3569C326.458 26.2104 323.59 24.4509 320.704 22.7442C311.995 17.589 302.74 13.6301 293.256 10.1464C287.397 7.99981 281.257 7.22564 275.081 7.06729C266.53 6.85615 257.944 6.34591 249.463 7.06729C242.988 7.63032 236.654 9.84726 230.285 11.4484C226.361 12.4337 222.543 13.9117 218.602 14.721C207.376 17.0611 198.245 23.1489 189.764 30.4507C186.808 33.002 183.905 35.6412 181.037 38.2804C178.908 40.2334 176.849 42.2392 174.791 44.2274C177.465 47.1481 178.204 48.3094 178.099 52.5497C178.028 56.0863 179.207 58.0393 182.638 58.9718C187.318 60.2211 188.409 65.693 185.013 69.5287C183.922 70.7603 182.427 71.6576 181.072 72.643C178.292 74.6664 175.917 76.9361 175.442 80.631C175.037 83.798 176.621 85.3464 179.594 84.0444C182.233 82.8831 184.89 81.3348 186.931 79.3465C190.978 75.4053 195.834 74.1385 201.148 74.1033C206.021 74.0505 209.189 78.5372 208.133 83.3406C207.587 85.8214 206.373 87.7744 204.456 89.3052C200.919 92.1555 199.916 95.7273 201.728 99.8093C203.277 103.275 202.432 106.003 200.145 108.695C197.646 111.668 195.834 111.985 192.579 109.698C191.347 108.835 190.169 107.903 189.183 107.164C184.732 108.677 183.113 111.422 183.219 115.645C183.359 120.729 180.791 124.037 175.899 125.744C172.627 126.888 169.548 128.612 166.275 129.773C164.023 130.582 163.02 131.99 162.316 134.189C161.366 137.128 159.483 139.222 156.017 139.521C153.202 139.749 152.146 140.823 152.428 143.55C152.815 147.298 153.73 150.94 155.788 154.283C157.372 156.869 158.445 159.772 159.694 162.57C160.152 163.59 160.381 164.699 160.838 165.737C162.369 169.273 165.747 170.135 168.633 167.514C170.163 166.124 171.448 164.347 172.416 162.517C175.125 157.397 179.717 155.409 185.013 154.335C186.896 153.966 188.497 154.423 189.465 155.954C190.996 158.417 192.35 161.004 193.582 163.643C194.585 165.79 195.166 168.147 196.221 170.259C197.418 172.634 199.23 174.217 202.239 173.918C204.332 173.707 206.444 173.83 208.555 173.742C212.901 173.566 217.001 174.27 220.344 177.297C224.074 180.675 227.804 184.071 231.446 187.537C233.381 189.384 234.103 191.496 233.381 194.363C232.414 198.199 230.988 201.419 227.593 203.741C224.883 205.607 224.091 208.351 225.217 211.554C225.816 213.278 226.414 215.002 226.906 216.744C228.314 221.671 229.44 226.791 227.135 231.559C225.165 235.658 225.305 239.283 227.452 243.418C230.672 243.998 234.085 244.913 237.551 245.177C245.346 245.758 253.175 246.127 260.988 246.338C267.286 246.514 273.585 246.374 279.814 244.86C284.283 243.77 289.016 243.646 293.379 242.274C297.549 240.972 301.948 239.811 305.573 236.908C304.024 234.497 302.793 232.087 301.104 230.063C298.253 226.615 296.054 223.043 296.23 218.328C296.335 215.16 295.368 212.293 293.116 209.829C292.236 208.879 291.585 207.366 291.532 206.099C291.426 202.492 291.673 198.868 291.814 195.243C291.866 194.135 292.165 193.026 292.148 191.918C292.077 186.798 288.576 183.138 283.579 183.842C279.233 184.458 275.679 183.261 272.635 180.692C268.377 177.085 263.961 176.734 258.911 178.511C254.724 179.989 250.378 180.059 246.05 178.862C243.498 178.159 241.211 176.909 240.419 174.253C239.663 171.754 239.117 169.115 239.012 166.511C238.924 164.013 238.396 161.919 236.865 159.895C234.191 156.359 232.871 152.048 234.455 147.966C236.355 143.092 235.827 138.06 236.672 133.151C237.27 129.703 238.255 126.624 241.545 124.899C243.762 123.738 246.102 122.806 248.372 121.715C249.832 121.011 251.451 120.413 252.665 119.375C255.955 116.559 263.398 115.521 267.304 117.457C270.876 119.216 274.553 120.219 278.653 119.251C280.395 118.829 282.295 119.216 284.107 119.023C286.447 118.759 289.069 118.829 291.039 117.774C295.72 115.31 300.523 114.466 305.696 114.835C307.086 114.941 308.529 115.046 309.901 114.835C314.141 114.184 318.575 114.043 320.95 109.293C322.235 106.724 325.068 105.985 327.548 107.146C330.592 108.554 332.369 106.935 334.252 105.264C335.994 103.733 335.994 102.325 333.9 101.305C331.261 100.038 331.085 98.0498 331.331 95.7097C331.472 94.3373 331.824 92.9825 332.106 91.4693C330.029 90.2025 328.974 88.4958 328.956 85.9622C328.956 84.2203 326.774 83.3054 324.293 83.3582C322.393 83.4109 321.742 84.4138 321.355 86.1909C320.704 89.1116 322.094 91.0295 323.889 92.9297C328.199 97.4867 326.845 102.959 320.775 104.419C318.153 105.052 316.253 105.774 314.898 108.36C313.754 110.56 310.71 111.14 308.529 110.296C306.136 109.381 305.713 107.393 305.713 105.158C305.713 103.61 305.801 102.044 305.573 100.531C305.133 97.7331 302.529 94.8827 300.47 95.3226C297.373 95.9912 294.418 97.2756 291.426 98.3313C291.198 98.4017 290.951 98.7184 290.899 98.9647C290.089 102.695 286.887 105.703 288.013 110.102C288.787 113.076 287.186 115.398 284.318 116.26C282.207 116.894 279.937 117.122 277.72 117.316C275.503 117.51 273.744 116.718 272.266 114.835C271.316 113.621 269.697 112.653 268.201 112.214C266.143 111.615 265.21 110.419 264.682 108.501C264.049 106.214 263.363 103.926 262.483 101.709C260.495 96.7478 262.553 92.1028 267.621 90.3257C270.524 89.3052 273.445 88.2847 276.242 86.9827C278.336 86.015 280.219 84.6074 282.682 83.1118C282.981 82.3025 283.632 80.8949 284.037 79.4345C284.987 75.986 287.45 74.8775 290.687 74.8423C291.814 74.8247 292.94 74.8775 294.066 74.7895C295.737 74.6663 297.585 74.8247 299.045 74.1561C300.4 73.5227 301.649 72.1327 302.353 70.7779C303.215 69.1416 301.931 67.8748 300.593 66.9422C299.432 66.1505 298.236 65.4291 297.039 64.6725C295.245 63.5113 293.767 63.6168 292.271 65.3763C290.107 67.91 287.274 68.8777 283.931 68.1915C280.342 67.4701 279.374 66.2033 280.183 62.6315C280.676 60.4674 280.57 58.532 279.656 56.491C278.019 52.8313 279.99 46.8842 283.562 45.1951C293.028 40.7261 297.479 43.0134 302.793 50.7551C304.218 52.8312 305.537 54.2916 307.79 55.1889C307.455 50.4032 307.068 45.8461 306.875 41.2715C306.822 40.0926 307.262 38.8258 307.702 37.6998C309.162 34.0928 312.399 33.2131 315.795 32.6149C318.909 32.0694 321.971 31.6648 324.205 34.6735C324.082 36.4153 323.959 38.1572 323.836 40.0223C326.809 40.1806 327.373 38.5971 326.774 36.5561C325.789 33.2131 326.405 30.5035 329.959 28.3218L330.012 28.3569ZM308.863 235.623C312.611 234.497 316.217 233.353 319.86 232.333C322.428 231.612 323.783 230.151 324.241 227.424C324.557 225.594 325.56 223.799 326.563 222.163C327.513 220.615 328.921 219.383 330.029 217.923C332.018 215.301 333.32 212.521 332.721 209.002C332.07 205.272 331.683 201.489 331.455 197.706C331.331 195.806 331.507 193.783 332.088 191.988C332.774 189.877 333.83 187.783 335.167 186.024C336.275 184.563 336.223 183.208 336.012 181.695C335.871 180.587 335.519 179.496 335.325 178.387C334.164 171.983 336.645 166.177 342.363 163.168C345.354 161.602 347.167 159.491 347.958 156.324C348.469 154.283 349.489 152.242 349.436 150.218C349.366 147.368 348.838 144.412 347.888 141.72C347.131 139.591 345.266 138.219 342.61 138.289C335.097 138.483 331.93 133.063 329.22 127.398C327.988 124.811 329.343 121.31 331.947 119.656C336.275 116.894 338.616 117.035 341.167 119.058C342.821 120.36 345.161 121.398 347.202 121.416C351.037 121.468 353.571 123.087 355.436 126.184C355.929 127.011 356.298 127.926 356.633 128.841C358.339 133.486 361.999 137.216 362.421 142.582C362.632 145.133 365.465 145.257 367.172 143.057C367.594 142.512 367.893 141.843 368.104 141.175C369.371 136.952 368.931 133.011 366.521 129.192C364.726 126.36 363.072 123.386 361.788 120.29C360.275 116.63 361.471 114.184 364.902 112.777C368.052 111.475 370.216 112.425 372.01 115.961C372.327 116.577 372.521 117.263 372.837 117.897C374.263 120.747 375.107 121.117 378.908 120.589C379.031 120.36 379.259 120.114 379.277 119.867C379.347 119.023 379.347 118.178 379.365 117.351C379.506 105.492 375.846 94.3373 372.433 83.235C370.779 77.8334 367.541 72.9245 365.166 67.734C361.313 59.2885 355.63 52.233 349.014 45.8461C345.09 42.0457 341.202 38.21 337.261 34.4095C336.363 33.5298 335.466 32.4917 334.358 32.0167C333.179 31.524 331.56 31.1897 330.487 31.6296C329.783 31.9111 329.501 33.6882 329.396 34.8494C329.255 36.3802 329.66 37.9461 329.466 39.4592C329.167 41.7642 327.126 42.6791 323.783 42.292C321.654 42.0457 321.126 41.3947 321.126 38.8786C321.126 37.5414 321.126 36.2042 321.126 34.4271C318.241 34.9198 315.725 35.1661 313.332 35.8171C310.2 36.6793 309.303 38.4211 309.602 41.8345C309.69 42.8022 309.496 43.8051 309.602 44.7553C309.989 47.9047 310.27 51.0894 310.921 54.1861C311.484 56.8253 310.517 58.4968 307.895 58.1097C306.452 57.8985 304.851 57.2827 303.796 56.315C302.388 55.0482 301.297 53.3591 300.294 51.7052C296.652 45.7406 291.057 43.8579 285.691 46.8666C282.277 48.7845 281.257 51.8284 282.33 55.7168C282.875 57.705 282.893 59.8516 283.051 61.9277C283.139 63.1066 283.051 64.303 283.051 65.4467C285.937 65.9042 288.259 65.8338 289.861 63.9511C293.767 59.3765 294.805 60.4322 299.485 63.1066C300.083 63.4585 300.699 63.7928 301.332 64.0919C303.831 65.3059 305.238 67.2765 305.15 70.0741C305.045 73.3995 303.356 75.7924 300.136 76.461C297.444 77.024 294.629 77.0944 291.849 77.112C288.154 77.1472 287.573 77.6575 286.57 81.4051C285.796 84.2731 284.459 86.5604 281.239 87.88C277.491 89.4284 273.867 90.9063 269.785 91.5045C265.509 92.1203 263.556 96.3255 265.017 100.495C265.703 102.484 266.495 104.437 267.023 106.478C267.533 108.448 268.325 109.68 270.612 109.926C271.685 110.032 273.005 110.947 273.603 111.897C275.239 114.448 277.65 114.642 280.201 114.589C283.861 114.501 285.497 112.953 284.864 109.381C283.966 104.243 287.397 100.671 288.893 96.4135C289.122 95.7625 290.054 95.1466 290.793 94.9003C294.189 93.7391 297.637 92.701 301.35 91.5397C301.596 91.6805 302.194 92.0676 302.81 92.4019C306.734 94.5484 308.828 97.6803 308.335 102.325C308.194 103.575 308.247 104.877 308.493 106.108C308.916 108.114 310.27 108.431 311.731 106.988C312.118 106.601 312.663 106.249 312.857 105.774C314.018 103.047 315.848 101.797 318.997 101.727C320.475 101.692 322.288 100.126 323.291 98.7536C324.522 97.0645 322.464 96.1144 321.549 94.9883C318.821 91.5925 317.431 87.9504 319.49 83.7101C320.704 81.2116 322.323 80.455 325.367 80.7717C329.783 81.2468 330.839 82.0034 331.578 85.0824C331.806 86.015 331.824 87.317 332.44 87.8096C335.325 90.0618 335.149 92.7186 333.953 95.6921C333.707 96.3079 333.847 97.0645 333.795 97.8386C334.78 98.5072 335.748 99.0879 336.61 99.7741C338.686 101.428 339.179 102.589 337.63 104.789C336.24 106.777 334.252 108.519 332.176 109.785C331.12 110.436 329.185 110.085 327.795 109.68C325.015 108.853 323.15 109.645 321.901 112.178C320.88 114.237 319.015 114.958 316.956 115.715C312.347 117.422 307.578 117.422 302.81 117.351C299.502 117.316 296.494 117.844 293.608 119.621C291.075 121.169 288.207 121.803 285.128 121.592C282.752 121.416 280.289 121.345 278.002 121.855C274.342 122.682 271.087 121.926 267.779 120.518C262.448 118.231 257.521 118.741 253.035 122.665C252.173 123.421 250.783 123.633 249.604 123.984C244.413 125.498 240.085 127.89 239.364 133.943C239.152 135.755 239.135 137.585 238.888 139.38C238.607 141.421 238.343 143.497 237.78 145.485C236.566 149.761 235.862 153.86 239.029 157.714C241.035 160.159 242.056 162.939 241.721 166.282C241.528 168.165 242.179 170.171 242.601 172.089C243.058 174.2 244.536 175.379 246.542 176.047C250.554 177.402 254.565 177.367 258.471 175.766C264.049 173.496 269.081 174.2 273.867 177.895C276.629 180.024 279.532 181.484 283.491 180.728C288.4 179.777 295.192 184.686 294.893 190.422C294.769 192.657 294.664 194.891 294.382 197.108C293.802 201.472 293.309 205.818 296.3 209.601C298.324 212.152 299.063 215.073 298.887 218.257C298.728 221.213 299.766 223.676 301.614 225.981C304.059 229.043 306.329 232.245 308.81 235.57L308.863 235.623ZM223.616 243.259C223.37 241.869 223.37 241.183 223.141 240.567C222.121 237.752 222.772 235.218 223.898 232.509C224.936 229.975 225.728 227.09 225.604 224.415C225.481 221.565 224.426 218.662 223.335 215.97C221.065 210.445 221.417 204.604 227.03 200.803C232.273 197.267 231.868 190.915 226.854 187.185C224.531 185.443 222.437 183.367 220.432 181.255C217.388 178.036 213.992 175.907 209.347 176.276C206.549 176.505 203.734 176.434 200.919 176.505C198.649 176.575 196.643 175.819 195.465 173.901C193.529 170.716 190.749 167.954 190.696 163.766C190.696 162.359 189.729 160.845 188.919 159.561C186.931 156.429 186.087 156.271 182.656 157.379C179.154 158.523 176.656 160.74 174.615 163.801C173.067 166.106 171.219 168.288 169.196 170.188C166.222 172.968 159.659 171.49 158.445 167.69C157.988 166.229 157.425 164.804 156.897 163.362C156.228 161.514 156 159.28 154.786 157.907C151.724 154.423 151.126 150.06 149.824 145.978C148.328 141.35 150.651 137.814 155.472 136.934C157.882 136.494 159.202 135.14 159.8 132.94C160.346 130.97 161.208 129.193 163.143 128.33C166.592 126.8 170.093 125.392 173.577 123.949C178.996 121.732 180.879 119.955 180.368 114.413C179.964 109.961 183.06 107.305 186.685 105.299C189.922 103.522 191.893 105.58 194.004 107.533C195.429 108.853 196.731 108.466 197.963 107.041C199.652 105.123 199.687 103.152 198.948 100.777C197.365 95.6569 198.192 91.0823 202.573 87.4929C203.417 86.8067 204.121 85.8566 204.684 84.9065C205.793 83.0063 206.25 80.9125 204.86 78.9771C203.558 77.1648 201.816 76.2499 199.406 76.6018C195.271 77.2 191.717 78.8187 188.462 81.5107C186.122 83.4637 183.483 85.2056 180.703 86.4196C175.389 88.7246 171.694 85.6455 172.556 80.0327C173.031 76.9361 174.544 74.508 176.973 72.6254C178.521 71.4113 180.192 70.338 181.688 69.0712C185.506 65.7986 184.961 62.8251 180.28 60.9072C180.016 60.8017 179.735 60.7665 179.471 60.6961C176.181 59.9043 175.002 57.5994 174.984 54.45C174.984 52.7609 175.072 51.0718 174.932 49.3827C174.738 47.2009 173.207 46.5323 171.43 47.7464C170.85 48.1335 170.322 48.6261 169.882 49.1715C163.882 56.5789 157.654 63.828 153.712 72.6605C153.431 73.294 153.167 73.9801 152.745 74.5256C146.71 82.4432 144.968 91.8388 143.701 101.34C142.892 107.445 142.293 113.639 142.223 119.797C142.135 127.363 141.238 134.964 142.751 142.494C143.296 145.239 143.859 148.001 144.528 150.728C145.584 155.074 146.446 159.491 147.906 163.696C150.176 170.135 152.85 176.452 155.401 182.786C157.038 186.851 161.102 189.296 165.642 189.085C166.064 189.067 166.486 188.997 166.908 189.015C172.363 189.208 174.984 193.818 171.993 198.393C169.759 201.824 170.005 205.167 171.923 208.281C173.823 211.36 176.04 214.386 178.662 216.885C184.749 222.691 191.488 227.723 198.843 231.858C206.549 236.186 214.485 239.969 223.581 243.242L223.616 243.259ZM379.084 124.512C378.556 124.319 378.309 124.143 378.045 124.125C373.858 123.896 370.867 122.067 369.547 117.897C369.389 117.369 369.178 116.683 368.755 116.454C367.876 115.979 366.697 115.275 365.94 115.539C365.131 115.82 364.163 117.122 364.198 117.932C364.251 119.392 364.92 120.87 365.5 122.278C367.066 125.973 369.653 129.052 370.779 133.116C371.905 137.181 370.92 140.576 369.653 144.06C368.826 146.365 366.609 147.333 364.216 147.385C361.929 147.438 360.627 145.995 359.976 143.954C359.606 142.776 359.536 141.491 359.113 140.33C358.392 138.395 357.847 136.248 356.597 134.7C355.313 133.116 354.468 131.603 354.046 129.597C353.325 126.113 351.002 124.178 347.466 124.301C344.563 124.407 342.293 123.228 340.094 121.732C337.138 119.709 336.539 119.744 333.425 121.803C331.279 123.21 331.367 125.374 332.141 127.028C334.006 131.022 335.906 135.298 341.431 135.351C342.258 135.351 343.102 135.72 343.912 135.703C345.653 135.65 347.237 135.597 348.345 137.356C349.225 138.764 351.002 139.925 351.213 141.35C351.794 145.309 353.166 149.321 351.53 153.368C351.108 154.406 350.774 155.497 350.633 156.605C350.123 160.388 347.888 162.834 344.791 164.787C339.038 168.429 336.029 171.913 338.422 179.83C339.39 183.032 339.02 185.988 336.768 188.909C335.237 190.915 334.199 193.695 334.006 196.193C333.759 199.343 334.375 202.633 335.026 205.765C336.275 211.73 335.325 216.92 330.663 221.143C329.836 221.899 328.991 222.709 328.428 223.659C327.707 224.89 327.267 226.298 326.722 227.635C328.868 227.424 330.522 226.896 331.718 225.858C338.299 220.193 344.791 214.422 351.249 208.615C352.375 207.595 353.36 206.328 354.134 205.026C358.744 197.337 363.248 189.578 367.84 181.871C371.922 175.027 374.456 167.549 375.899 159.825C377.412 151.714 378.133 143.427 378.96 135.192C379.312 131.726 379.013 128.207 379.013 124.46L379.084 124.512ZM161.911 192.147C163.372 196.299 165.061 198.745 167.7 200.733C168.439 199.431 169.231 198.129 169.917 196.792C171.342 194.012 169.987 191.742 166.838 191.742C165.202 191.742 163.565 192.006 161.894 192.147H161.911Z" fill="#44403C" stroke="#44403C" stroke-width="1.4"/>
<path fill-rule="evenodd" clip-rule="evenodd" d="M237.851 15.6886C239.382 15.8294 241.036 15.6359 242.408 16.1637C246.226 17.6417 249.569 16.1461 253 14.9497C254.725 14.3514 256.361 13.5245 258.103 12.9966C258.983 12.7327 260.249 12.504 260.9 12.9263C263.346 14.5274 265.282 13.5245 267.534 12.4512C271.774 10.4278 275.275 12.2577 276.683 16.7267C277.299 18.6973 276.947 20.4216 275.61 21.8116C273.34 24.2045 272.988 26.4742 275.011 29.307C276.701 31.6999 276.243 32.1749 274.325 34.3567C271.317 37.7877 267.076 37.6293 263.223 38.6498C260.179 39.4592 257.294 39.336 254.302 37.8756C251.153 36.3097 246.561 38.5442 244.924 42.0632C244.344 43.33 244.15 44.808 243.464 46.0044C242.004 48.5205 240.543 51.1069 238.696 53.3238C235.265 57.4586 227.998 56.2446 225.095 52.9543C223.916 51.6347 223.67 49.4178 223.177 47.5703C222.966 46.7962 223.23 45.8988 223.248 45.0719C223.353 40.1454 221.647 38.5794 216.597 38.7906C214.785 38.8609 212.955 38.8433 211.142 38.6498C208.556 38.3683 206.673 37.1015 206.022 34.3919C205.336 31.5063 206.269 28.2865 208.468 26.8613C212.339 24.3629 216.263 21.9348 220.221 19.5595C225.623 16.3396 231.781 16.4628 237.781 15.7062L237.851 15.6886ZM273.446 31.823C270.613 27.6531 270.155 23.9054 273.393 19.9642C274.132 19.0668 273.797 16.498 272.988 15.3719C272.038 14.0523 270.19 14.1403 268.413 15.0728C266.76 15.9526 264.472 17.0786 262.994 16.5684C259.299 15.284 256.22 16.1461 252.877 17.5009C250.062 18.627 247.071 20.1049 243.922 19.1196C237.236 17.0082 230.637 18.4862 224.515 20.5624C219.342 22.3043 214.732 25.876 210.122 29.0079C209.049 29.7293 208.538 31.911 208.521 33.4242C208.503 35.0077 209.788 36.2393 211.565 36.3801C213.342 36.5208 215.154 36.6968 216.914 36.5032C222.35 35.9226 225.623 38.3507 226.221 43.6643C226.292 44.3505 226.256 45.0719 226.204 45.7581C225.904 49.7873 226.696 51.4588 229.476 52.6728C232.555 54.01 235.617 53.5174 237.728 50.6142C239.593 48.0454 241.159 45.1599 242.25 42.1863C243.253 39.4768 244.766 37.4709 247.3 36.3977C250.484 35.0429 253.722 33.4066 257.118 36.3273C257.892 36.9959 259.563 36.9959 260.707 36.7672C263.856 36.1337 266.988 35.342 270.032 34.3391C271.246 33.9344 272.196 32.7731 273.428 31.8406L273.446 31.823Z" fill="#44403C" stroke="#44403C" stroke-width="1.4"/>
<path fill-rule="evenodd" clip-rule="evenodd" d="M253.493 83.3224C253.774 79.2052 255.287 76.7243 257.363 74.525C260.249 71.4459 260.179 69.3521 257.047 66.3786C256.026 65.4109 254.847 64.584 253.95 63.5283C251.029 60.0973 252.472 55.5754 256.818 54.2558C260.777 53.0594 266.214 54.8892 268.096 58.4786C269.469 61.065 271.334 62.9476 273.656 64.6367C277.017 67.0648 278.372 71.006 277.333 74.5602C276.401 77.692 273.92 79.3284 271.052 80.0497C268.958 80.5776 267.604 81.6157 266.266 83.1464C264.982 84.6068 263.451 85.9088 261.832 86.9821C259.756 88.3545 257.363 87.4219 255.463 86.6478C254.32 86.1727 253.862 84.0086 253.493 83.3576V83.3224ZM256.554 83.991C259.827 85.7504 261.973 84.3253 263.698 82.038C265.527 79.6099 267.621 78.0263 270.771 77.305C275.433 76.2493 276.506 72.0441 273.48 68.2788C273.216 67.9445 272.97 67.5751 272.618 67.3463C269.046 64.971 266.407 61.804 264.137 58.1795C262.835 56.1209 258.173 55.7338 256.448 57.1766C254.601 58.7249 255.094 61.0298 257.803 63.6338C263.275 68.9123 263.416 71.3579 258.771 77.1114C257.223 79.0292 255.375 80.9999 256.519 83.9734L256.554 83.991Z" fill="#44403C" stroke="#44403C" stroke-width="1.4"/>
<path fill-rule="evenodd" clip-rule="evenodd" d="M212.34 59.3412C210.193 62.0332 208.275 64.7955 205.988 67.2236C202.381 71.0417 195.449 69.1766 194.376 64.039C193.813 61.3646 192.739 59.4995 190.452 58.004C186.651 55.5055 186.951 48.3093 188.868 45.7404C190.839 43.0836 194.446 42.2743 196.417 44.7375C198.334 47.148 200.569 47.1656 203.085 47.1832C207.308 47.2008 207.343 47.4119 208.662 51.2828C209.542 53.8868 210.95 56.3325 212.357 59.3412H212.34ZM205.232 49.928C203.982 49.928 202.997 49.8752 202.029 49.928C199.531 50.0863 197.472 49.5057 195.607 47.5703C193.408 45.283 191.402 45.8988 190.434 48.9075C189.625 51.3707 189.836 53.834 191.983 55.4351C194.71 57.4761 196.417 59.7986 197.015 63.2824C197.455 65.8864 201.114 67.4524 202.997 65.8864C205.179 64.0566 206.797 61.5405 208.575 59.2532C208.821 58.9365 208.627 58.1447 208.434 57.6521C207.448 55.1888 206.41 52.7431 205.232 49.928Z" fill="#44403C" stroke="#44403C" stroke-width="1.4"/>
<path d="M275.397 200.059C275.397 200.037 275.397 200.014 275.42 199.968C275.465 199.922 275.488 199.922 275.511 199.922L286.634 201.825C294.889 203.247 303.352 203.018 311.515 201.137L315.254 200.266C315.299 200.243 315.345 200.266 315.368 200.312C315.391 200.358 315.391 200.358 315.391 200.381L303.145 220.653C303.053 220.813 302.962 220.997 302.916 221.18C302.365 221.043 301.815 220.928 301.265 220.813C301.265 220.791 301.288 220.768 301.288 220.722L303.191 213.246C303.512 212.007 302.755 210.769 301.54 210.471C300.324 210.173 299.063 210.907 298.765 212.122L296.885 219.621C296.816 219.85 296.816 220.08 296.816 220.309C296.38 220.286 295.944 220.286 295.509 220.286C295.21 220.286 294.889 220.286 294.591 220.309L290.807 208.43C290.44 207.214 289.156 206.549 287.941 206.916C286.725 207.283 286.06 208.567 286.427 209.783C286.427 209.806 286.427 209.806 286.45 209.829L289.936 220.791C289.248 220.905 288.583 221.066 287.895 221.226C287.849 220.905 287.757 220.607 287.574 220.332L275.397 200.059ZM266.935 286.171L269.067 249.8C269.939 235.192 282.483 224.047 297.091 224.918C298.696 225.01 300.301 225.262 301.861 225.652C313.121 228.45 321.239 238.219 321.95 249.8L324.083 286.171H266.935Z" fill="white"/>
<path d="M326.536 249.524C325.825 237.622 318.372 227.188 307.365 222.624L319.404 202.673C319.427 202.65 319.45 202.604 319.45 202.581C320.689 200.311 319.84 197.467 317.547 196.229C316.538 195.679 315.368 195.518 314.267 195.793L310.507 196.665C302.939 198.408 295.096 198.637 287.436 197.307L276.314 195.403C273.769 194.968 271.338 196.688 270.902 199.233C270.718 200.265 270.902 201.32 271.406 202.237C271.429 202.26 271.429 202.306 271.452 202.329L283.63 222.647C272.599 227.188 265.169 237.645 264.481 249.547L262.21 288.349C262.142 289.61 263.105 290.688 264.343 290.757C264.389 290.757 264.435 290.757 264.481 290.757H326.491C327.752 290.757 328.784 289.748 328.784 288.487C328.784 288.441 328.784 288.395 328.784 288.349L326.536 249.524ZM275.397 200.059C275.397 200.036 275.397 200.013 275.42 199.967C275.466 199.921 275.488 199.921 275.511 199.921L286.634 201.825C294.889 203.246 303.352 203.017 311.516 201.137L315.254 200.265C315.299 200.242 315.345 200.265 315.368 200.311C315.391 200.357 315.391 200.357 315.391 200.38L303.145 220.652C303.053 220.813 302.962 220.996 302.916 221.18C302.365 221.042 301.815 220.927 301.265 220.813C301.265 220.79 301.288 220.767 301.288 220.721L303.191 213.245C303.512 212.007 302.755 210.768 301.54 210.47C300.324 210.172 299.063 210.906 298.765 212.121L296.885 219.62C296.816 219.85 296.816 220.079 296.816 220.308C296.38 220.285 295.944 220.285 295.509 220.285C295.21 220.285 294.889 220.285 294.591 220.308L290.807 208.429C290.44 207.214 289.156 206.549 287.941 206.916C286.725 207.283 286.06 208.567 286.427 209.782C286.427 209.805 286.427 209.805 286.45 209.828L289.936 220.79C289.248 220.904 288.583 221.065 287.895 221.226C287.849 220.904 287.757 220.606 287.574 220.331L275.397 200.059ZM266.935 286.171L269.067 249.8C269.939 235.191 282.483 224.046 297.091 224.918C298.696 225.009 300.302 225.262 301.861 225.652C313.121 228.449 321.239 238.219 321.95 249.8L324.083 286.171H266.935Z" fill="#44403C"/>
<path d="M306.382 267.092C305.969 265.899 304.662 265.28 303.447 265.693C303.401 265.716 303.355 265.716 303.332 265.739C299.296 267.275 294.71 266.312 291.66 263.262C291.293 262.918 290.949 262.528 290.673 262.092H301.498C302.759 262.092 303.791 261.06 303.791 259.799C303.791 258.538 302.759 257.506 301.498 257.506H288.655C288.495 256.68 288.449 255.832 288.495 254.983H302.713C303.974 254.983 305.006 253.951 305.006 252.69C305.006 251.429 303.974 250.397 302.713 250.397H289.779C290.284 249.456 290.926 248.585 291.682 247.828C294.733 244.755 299.319 243.769 303.355 245.329C304.525 245.787 305.855 245.214 306.336 244.021C306.795 242.852 306.222 241.522 305.029 241.04H305.006C299.273 238.839 292.783 240.238 288.426 244.572C286.752 246.2 285.514 248.195 284.78 250.397H282.349C281.088 250.397 280.056 251.429 280.056 252.69C280.056 253.951 281.088 254.983 282.349 254.983H283.908C283.885 255.832 283.908 256.68 284.023 257.506H282.349C281.088 257.506 280.056 258.538 280.056 259.799C280.056 261.06 281.088 262.092 282.349 262.092H285.353C286.133 263.721 287.165 265.211 288.426 266.495C292.76 270.83 299.25 272.206 304.983 270.027C306.176 269.614 306.795 268.307 306.382 267.092Z" fill="#FF7141"/>
<path d="M194.058 197.986C194.058 197.967 194.058 197.947 194.078 197.908C194.116 197.87 194.136 197.87 194.155 197.87L203.554 199.478C210.531 200.68 217.682 200.486 224.581 198.897L227.74 198.16C227.779 198.141 227.818 198.16 227.837 198.199C227.856 198.238 227.856 198.238 227.856 198.257L217.508 215.389C217.43 215.524 217.353 215.68 217.314 215.835C216.849 215.718 216.384 215.621 215.919 215.524C215.919 215.505 215.938 215.486 215.938 215.447L217.546 209.129C217.818 208.083 217.178 207.036 216.151 206.784C215.124 206.532 214.058 207.152 213.806 208.18L212.217 214.517C212.159 214.711 212.159 214.904 212.159 215.098C211.791 215.079 211.422 215.079 211.054 215.079C210.802 215.079 210.531 215.079 210.279 215.098L207.081 205.059C206.771 204.032 205.686 203.47 204.659 203.78C203.632 204.09 203.07 205.176 203.38 206.203C203.38 206.222 203.38 206.222 203.399 206.242L206.345 215.505C205.764 215.602 205.202 215.738 204.62 215.873C204.581 215.602 204.504 215.35 204.349 215.118L194.058 197.986ZM186.907 270.756L188.71 240.02C189.446 227.676 200.047 218.257 212.391 218.993C213.748 219.071 215.105 219.284 216.422 219.614C225.938 221.978 232.798 230.234 233.399 240.02L235.201 270.756H186.907Z" fill="white"/>
<path d="M237.275 239.787C236.674 229.729 230.376 220.911 221.074 217.055L231.248 200.195C231.267 200.175 231.287 200.136 231.287 200.117C232.333 198.198 231.616 195.795 229.678 194.749C228.825 194.284 227.837 194.148 226.907 194.381L223.729 195.117C217.333 196.59 210.705 196.784 204.233 195.66L194.834 194.051C192.682 193.683 190.628 195.136 190.26 197.288C190.105 198.16 190.26 199.051 190.686 199.826C190.706 199.846 190.706 199.884 190.725 199.904L201.016 217.074C191.694 220.911 185.415 229.748 184.834 239.807L182.915 272.597C182.857 273.663 183.671 274.574 184.717 274.632C184.756 274.632 184.795 274.632 184.834 274.632H237.236C238.302 274.632 239.174 273.779 239.174 272.713C239.174 272.674 239.174 272.636 239.174 272.597L237.275 239.787ZM194.058 197.985C194.058 197.966 194.058 197.946 194.078 197.908C194.116 197.869 194.136 197.869 194.155 197.869L203.554 199.477C210.531 200.679 217.682 200.485 224.581 198.896L227.74 198.16C227.779 198.14 227.818 198.16 227.837 198.198C227.856 198.237 227.856 198.237 227.856 198.257L217.508 215.388C217.43 215.524 217.353 215.679 217.314 215.834C216.849 215.718 216.384 215.621 215.919 215.524C215.919 215.504 215.938 215.485 215.938 215.446L217.546 209.129C217.818 208.082 217.178 207.036 216.151 206.784C215.124 206.532 214.058 207.152 213.806 208.179L212.217 214.516C212.159 214.71 212.159 214.904 212.159 215.097C211.791 215.078 211.422 215.078 211.054 215.078C210.802 215.078 210.531 215.078 210.279 215.097L207.081 205.059C206.771 204.032 205.686 203.47 204.659 203.78C203.632 204.09 203.07 205.175 203.38 206.202C203.38 206.222 203.38 206.222 203.399 206.241L206.345 215.504C205.764 215.601 205.202 215.737 204.62 215.873C204.581 215.601 204.504 215.349 204.349 215.117L194.058 197.985ZM186.907 270.756L188.71 240.02C189.446 227.675 200.047 218.256 212.391 218.993C213.748 219.07 215.105 219.283 216.422 219.613C225.938 221.977 232.798 230.233 233.399 240.02L235.201 270.756H186.907Z" fill="#44403C"/>
<path d="M220.24 254.63C219.891 253.623 218.787 253.099 217.759 253.448C217.721 253.468 217.682 253.468 217.663 253.487C214.252 254.785 210.376 253.971 207.798 251.394C207.488 251.103 207.198 250.774 206.965 250.406H216.112C217.178 250.406 218.05 249.534 218.05 248.468C218.05 247.402 217.178 246.53 216.112 246.53H205.26C205.124 245.832 205.085 245.115 205.124 244.398H217.139C218.205 244.398 219.077 243.526 219.077 242.46C219.077 241.394 218.205 240.522 217.139 240.522H206.209C206.636 239.727 207.178 238.991 207.818 238.351C210.395 235.755 214.271 234.921 217.682 236.239C218.67 236.627 219.794 236.142 220.201 235.134C220.589 234.146 220.104 233.022 219.097 232.615H219.077C214.232 230.755 208.748 231.937 205.066 235.6C203.651 236.976 202.605 238.662 201.984 240.522H199.93C198.864 240.522 197.992 241.394 197.992 242.46C197.992 243.526 198.864 244.398 199.93 244.398H201.248C201.229 245.115 201.248 245.832 201.345 246.53H199.93C198.864 246.53 197.992 247.402 197.992 248.468C197.992 249.534 198.864 250.406 199.93 250.406H202.469C203.128 251.782 204 253.041 205.066 254.127C208.729 257.789 214.213 258.952 219.058 257.111C220.066 256.762 220.589 255.657 220.24 254.63Z" fill="#FF7141"/>
<path d="M224.326 213.499C224.326 213.476 224.326 213.454 224.349 213.408C224.395 213.362 224.418 213.362 224.441 213.362L235.563 215.265C243.819 216.687 252.281 216.458 260.445 214.577L264.183 213.706C264.229 213.683 264.275 213.706 264.298 213.752C264.321 213.798 264.321 213.798 264.321 213.82L252.075 234.093C251.983 234.253 251.891 234.437 251.845 234.62C251.295 234.483 250.745 234.368 250.194 234.253C250.194 234.23 250.217 234.208 250.217 234.162L252.121 226.686C252.442 225.447 251.685 224.209 250.47 223.911C249.254 223.613 247.993 224.347 247.695 225.562L245.814 233.061C245.745 233.29 245.745 233.52 245.745 233.749C245.31 233.726 244.874 233.726 244.438 233.726C244.14 233.726 243.819 233.726 243.521 233.749L239.737 221.87C239.37 220.654 238.086 219.989 236.87 220.356C235.655 220.723 234.99 222.007 235.357 223.223C235.357 223.246 235.357 223.246 235.38 223.269L238.866 234.23C238.178 234.345 237.513 234.506 236.825 234.666C236.779 234.345 236.687 234.047 236.504 233.772L224.326 213.499ZM215.864 299.611L217.997 263.24C218.868 248.632 231.413 237.487 246.021 238.358C247.626 238.45 249.231 238.702 250.791 239.092C262.05 241.89 270.169 251.659 270.88 263.24L273.012 299.611H215.864Z" fill="white"/>
<path d="M275.466 262.964C274.755 251.062 267.302 240.628 256.294 236.064L268.334 216.113C268.357 216.09 268.38 216.044 268.38 216.021C269.618 213.751 268.77 210.907 266.476 209.669C265.467 209.119 264.298 208.958 263.197 209.233L259.436 210.105C251.868 211.848 244.026 212.077 236.366 210.747L225.244 208.843C222.698 208.408 220.267 210.128 219.832 212.673C219.648 213.705 219.832 214.76 220.336 215.677C220.359 215.7 220.359 215.746 220.382 215.769L232.559 236.087C221.529 240.628 214.098 251.085 213.411 262.987L211.14 301.789C211.071 303.05 212.035 304.128 213.273 304.197C213.319 304.197 213.365 304.197 213.411 304.197H275.42C276.681 304.197 277.713 303.188 277.713 301.927C277.713 301.881 277.713 301.835 277.713 301.789L275.466 262.964ZM224.326 213.499C224.326 213.476 224.326 213.453 224.349 213.407C224.395 213.361 224.418 213.361 224.441 213.361L235.563 215.264C243.819 216.686 252.281 216.457 260.445 214.577L264.183 213.705C264.229 213.682 264.275 213.705 264.298 213.751C264.321 213.797 264.321 213.797 264.321 213.82L252.075 234.092C251.983 234.253 251.891 234.436 251.846 234.62C251.295 234.482 250.745 234.367 250.194 234.253C250.194 234.23 250.217 234.207 250.217 234.161L252.121 226.685C252.442 225.447 251.685 224.208 250.47 223.91C249.254 223.612 247.993 224.346 247.695 225.561L245.814 233.06C245.745 233.29 245.745 233.519 245.745 233.748C245.31 233.725 244.874 233.725 244.438 233.725C244.14 233.725 243.819 233.725 243.521 233.748L239.737 221.869C239.37 220.654 238.086 219.989 236.871 220.356C235.655 220.722 234.99 222.007 235.357 223.222C235.357 223.245 235.357 223.245 235.38 223.268L238.866 234.23C238.178 234.344 237.513 234.505 236.825 234.665C236.779 234.344 236.687 234.046 236.504 233.771L224.326 213.499ZM215.864 299.611L217.997 263.239C218.868 248.631 231.413 237.486 246.021 238.358C247.626 238.449 249.231 238.702 250.791 239.091C262.051 241.889 270.169 251.658 270.88 263.239L273.012 299.611H215.864Z" fill="#44403C"/>
<path d="M255.312 280.532C254.899 279.339 253.592 278.72 252.377 279.133C252.331 279.156 252.285 279.156 252.262 279.179C248.226 280.715 243.639 279.752 240.589 276.702C240.222 276.358 239.878 275.968 239.603 275.532H250.427C251.689 275.532 252.721 274.5 252.721 273.239C252.721 271.978 251.689 270.946 250.427 270.946H237.585C237.425 270.12 237.379 269.272 237.425 268.423H251.643C252.904 268.423 253.936 267.391 253.936 266.13C253.936 264.869 252.904 263.837 251.643 263.837H238.709C239.213 262.896 239.855 262.025 240.612 261.268C243.662 258.195 248.249 257.209 252.285 258.769C253.454 259.227 254.784 258.654 255.266 257.461C255.725 256.292 255.151 254.962 253.959 254.48H253.936C248.203 252.279 241.713 253.678 237.356 258.012C235.682 259.64 234.443 261.635 233.709 263.837H231.279C230.017 263.837 228.985 264.869 228.985 266.13C228.985 267.391 230.017 268.423 231.279 268.423H232.838C232.815 269.272 232.838 270.12 232.953 270.946H231.279C230.017 270.946 228.985 271.978 228.985 273.239C228.985 274.5 230.017 275.532 231.279 275.532H234.283C235.062 277.16 236.094 278.651 237.356 279.935C241.69 284.27 248.18 285.646 253.913 283.467C255.106 283.054 255.725 281.747 255.312 280.532Z" fill="#FF7141"/>
<path d="M187.728 14.5581C187.728 15.6457 187.714 16.7333 187.678 17.8209C187.408 26.0811 186.121 34.3483 183.662 42.2317C181.543 49.0346 178.579 55.6028 174.869 61.6593C171.627 66.941 167.817 71.8956 163.587 76.3953C160.047 80.1629 156.187 83.5821 152.114 86.724C149.32 88.8779 146.406 90.8825 143.378 92.6739C142.503 93.1928 141.402 93.1928 140.534 92.6739C140.243 92.5033 139.951 92.3256 139.66 92.1479C136.298 90.0935 133.106 87.7903 130.021 85.3308C126.061 82.1746 122.358 78.6914 118.96 74.9167C114.759 70.2464 110.998 65.1283 107.849 59.6618C104.252 53.4063 101.423 46.6603 99.4896 39.6868C97.2291 31.5333 96.177 23.0173 96.1699 14.551C96.1699 12.9587 97.4708 11.7289 98.992 11.6792C101.516 11.6081 104.025 11.3593 106.527 11.0323C107.053 10.9612 107.572 10.883 108.091 10.8048C113.216 10.0229 118.299 8.92817 123.339 7.69128C127.874 6.57524 132.381 5.33836 136.852 3.98062C137.748 3.7105 138.636 3.43327 139.525 3.14893C139.923 3.02097 140.321 2.89302 140.712 2.76506C141.117 2.63 141.508 2.52337 141.942 2.50205C142.383 2.48072 142.774 2.63 143.172 2.76506C144.927 3.34086 146.69 3.8811 148.46 4.40714C153.067 5.77908 157.709 7.02308 162.386 8.13201C167.334 9.30492 172.324 10.3214 177.364 11.0252C179.866 11.3522 182.375 11.601 184.899 11.6721C186.42 11.601 187.721 13.0369 187.721 14.5439L187.728 14.5581Z" fill="white" stroke="#44403C" stroke-width="4.03188" stroke-miterlimit="10"/>
<path d="M166.591 18.2584C162.76 19.8365 159.646 22.4524 156.725 25.3101C150.412 31.4732 145.251 38.5604 140.425 45.9035C139.671 47.0551 138.896 48.1996 137.972 49.5857C137.567 48.7185 137.375 48.1712 137.077 47.6878C135.577 45.278 134.269 42.7047 132.477 40.5224C129.399 36.7833 125.355 36.3212 121.289 38.93C120.322 39.5485 119.476 40.3518 118.424 41.1906C118.978 41.7379 119.391 42.0791 119.718 42.4843C122.021 45.2993 124.772 47.8726 126.478 51.0075C127.935 53.6803 129.016 56.5308 130.046 59.3884C130.757 61.3504 131.098 64.6914 133.202 65.6368C134.418 66.1842 135.84 66.0776 137.134 65.7506C140.546 64.8833 143.353 62.502 144.967 59.4097C147.021 55.4645 149.019 51.4766 150.931 47.4603C154.805 39.3281 159.177 31.5016 164.651 24.322C166.371 22.0686 168.191 19.8934 169.968 17.6826C168.759 17.6542 167.629 17.8319 166.598 18.2513L166.591 18.2584Z" fill="#44403C"/>
<g style="mix-blend-mode:multiply">
<path d="M141.945 9.44824C141.796 9.498 141.653 9.54065 141.504 9.59041C140.623 9.86764 139.727 10.152 138.746 10.4505C134.189 11.8367 129.526 13.1162 124.884 14.2536C119.027 15.6895 113.859 16.7416 109.082 17.4738C108.485 17.5662 107.909 17.6444 107.419 17.7155H107.376C105.784 17.9287 104.284 18.0922 102.869 18.2131C103.139 25.0515 104.142 31.6411 105.869 37.8611C107.653 44.3014 110.248 50.493 113.567 56.2651C116.411 61.2055 119.873 65.954 123.846 70.3755C126.96 73.8374 130.415 77.0931 134.111 80.036C136.848 82.2184 139.421 84.0737 141.952 85.6802V9.44824H141.945Z" fill="#F5F5F5"/>
</g>
</svg>
