<svg width="100" height="100" viewBox="0 0 100 100" fill="none" xmlns="http://www.w3.org/2000/svg">
<mask id="mask0_1_14468" style="mask-type:alpha" maskUnits="userSpaceOnUse" x="0" y="0" width="100" height="100">
<circle cx="50" cy="50" r="50" fill="white"/>
</mask>
<g mask="url(#mask0_1_14468)">
<path d="M99.7232 45.8153C99.7232 75.7407 75.4569 100 45.5228 100C29.6389 100 15.3509 93.1695 5.4375 82.2862C53.8604 82.2862 87.4102 69.7816 87.4124 11.4287C95.1049 20.7834 99.7232 32.7601 99.7232 45.8153Z" fill="#F5F5F5"/>
</g>
<g clip-path="url(#clip0_1_14468)">
<path d="M50 56.25C46.5538 56.25 43.75 53.4462 43.75 50C43.75 46.5538 46.5538 43.75 50 43.75C53.4462 43.75 56.25 46.5538 56.25 50C56.25 53.4462 53.4462 56.25 50 56.25ZM50 46.875C48.2766 46.875 46.875 48.2766 46.875 50C46.875 51.7234 48.2766 53.125 50 53.125C51.7234 53.125 53.125 51.7234 53.125 50C53.125 48.2766 51.7234 46.875 50 46.875Z" fill="#FF7141"/>
<path d="M31.25 56.25C27.8038 56.25 25 53.4462 25 50C25 46.5538 27.8038 43.75 31.25 43.75C34.6962 43.75 37.5 46.5538 37.5 50C37.5 53.4462 34.6962 56.25 31.25 56.25ZM31.25 46.875C29.5266 46.875 28.125 48.2766 28.125 50C28.125 51.7234 29.5266 53.125 31.25 53.125C32.9734 53.125 34.375 51.7234 34.375 50C34.375 48.2766 32.9734 46.875 31.25 46.875Z" fill="#FF7141"/>
<path d="M31.25 37.5C27.8038 37.5 25 34.6962 25 31.25C25 27.8038 27.8038 25 31.25 25C34.6962 25 37.5 27.8038 37.5 31.25C37.5 34.6962 34.6962 37.5 31.25 37.5ZM31.25 28.125C29.5266 28.125 28.125 29.5266 28.125 31.25C28.125 32.9734 29.5266 34.375 31.25 34.375C32.9734 34.375 34.375 32.9734 34.375 31.25C34.375 29.5266 32.9734 28.125 31.25 28.125Z" fill="#FF7141"/>
<path d="M31.25 75C27.8038 75 25 72.1962 25 68.75C25 65.3038 27.8038 62.5 31.25 62.5C34.6962 62.5 37.5 65.3038 37.5 68.75C37.5 72.1962 34.6962 75 31.25 75ZM31.25 65.625C29.5266 65.625 28.125 67.0266 28.125 68.75C28.125 70.4734 29.5266 71.875 31.25 71.875C32.9734 71.875 34.375 70.4734 34.375 68.75C34.375 67.0266 32.9734 65.625 31.25 65.625Z" fill="#FF7141"/>
<path d="M50 37.5C46.5538 37.5 43.75 34.6962 43.75 31.25C43.75 27.8038 46.5538 25 50 25C53.4462 25 56.25 27.8038 56.25 31.25C56.25 34.6962 53.4462 37.5 50 37.5ZM50 28.125C48.2766 28.125 46.875 29.5266 46.875 31.25C46.875 32.9734 48.2766 34.375 50 34.375C51.7234 34.375 53.125 32.9734 53.125 31.25C53.125 29.5266 51.7234 28.125 50 28.125Z" fill="#FF7141"/>
<path d="M50 75C46.5538 75 43.75 72.1962 43.75 68.75C43.75 65.3038 46.5538 62.5 50 62.5C53.4462 62.5 56.25 65.3038 56.25 68.75C56.25 72.1962 53.4462 75 50 75ZM50 65.625C48.2766 65.625 46.875 67.0266 46.875 68.75C46.875 70.4734 48.2766 71.875 50 71.875C51.7234 71.875 53.125 70.4734 53.125 68.75C53.125 67.0266 51.7234 65.625 50 65.625Z" fill="#FF7141"/>
<path d="M68.75 37.5C65.3038 37.5 62.5 34.6962 62.5 31.25C62.5 27.8038 65.3038 25 68.75 25C72.1962 25 75 27.8038 75 31.25C75 34.6962 72.1962 37.5 68.75 37.5ZM68.75 28.125C67.0266 28.125 65.625 29.5266 65.625 31.25C65.625 32.9734 67.0266 34.375 68.75 34.375C70.4734 34.375 71.875 32.9734 71.875 31.25C71.875 29.5266 70.4734 28.125 68.75 28.125Z" fill="#FF7141"/>
<path d="M68.75 75C65.3038 75 62.5 72.1962 62.5 68.75C62.5 65.3038 65.3038 62.5 68.75 62.5C72.1962 62.5 75 65.3038 75 68.75C75 72.1962 72.1962 75 68.75 75ZM68.75 65.625C67.0266 65.625 65.625 67.0266 65.625 68.75C65.625 70.4734 67.0266 71.875 68.75 71.875C70.4734 71.875 71.875 70.4734 71.875 68.75C71.875 67.0266 70.4734 65.625 68.75 65.625Z" fill="#FF7141"/>
<path d="M68.75 56.25C65.3038 56.25 62.5 53.4462 62.5 50C62.5 46.5538 65.3038 43.75 68.75 43.75C72.1962 43.75 75 46.5538 75 50C75 53.4462 72.1962 56.25 68.75 56.25ZM68.75 46.875C67.0266 46.875 65.625 48.2766 65.625 50C65.625 51.7234 67.0266 53.125 68.75 53.125C70.4734 53.125 71.875 51.7234 71.875 50C71.875 48.2766 70.4734 46.875 68.75 46.875Z" fill="#FF7141"/>
<path d="M31.25 65.625C30.3872 65.625 29.6875 64.9253 29.6875 64.0625V54.6875C29.6875 53.8247 30.3872 53.125 31.25 53.125C32.1128 53.125 32.8125 53.8247 32.8125 54.6875V64.0625C32.8125 64.9253 32.1128 65.625 31.25 65.625Z" fill="#FF7141"/>
<path d="M31.25 46.875C30.3872 46.875 29.6875 46.1753 29.6875 45.3125V35.9375C29.6875 35.0747 30.3872 34.375 31.25 34.375C32.1128 34.375 32.8125 35.0747 32.8125 35.9375V45.3125C32.8125 46.1753 32.1128 46.875 31.25 46.875Z" fill="#FF7141"/>
<path d="M65.4371 66.9998C65.0373 66.9998 64.6376 66.8472 64.3324 66.542L52.2077 54.4173C51.5974 53.807 51.5974 52.8183 52.2077 52.2078C52.818 51.5973 53.8068 51.5975 54.4173 52.2078L66.542 64.3325C67.1523 64.9428 67.1523 65.9315 66.542 66.542C66.2368 66.8472 65.8368 66.9998 65.4371 66.9998Z" fill="#FF7141"/>
<path d="M46.6871 48.2498C46.2873 48.2498 45.8876 48.0972 45.5824 47.792L33.4577 35.6673C32.8474 35.057 32.8474 34.0683 33.4577 33.4578C34.068 32.8473 35.0568 32.8475 35.6673 33.4578L47.792 45.5825C48.4023 46.1928 48.4023 47.1815 47.792 47.792C47.4868 48.0972 47.0868 48.2498 46.6871 48.2498Z" fill="#FF7141"/>
<path d="M68.75 65.625C67.8872 65.625 67.1875 64.9253 67.1875 64.0625V54.6875C67.1875 53.8247 67.8872 53.125 68.75 53.125C69.6128 53.125 70.3125 53.8247 70.3125 54.6875V64.0625C70.3125 64.9253 69.6128 65.625 68.75 65.625Z" fill="#FF7141"/>
<path d="M68.75 46.875C67.8872 46.875 67.1875 46.1753 67.1875 45.3125V35.9375C67.1875 35.0747 67.8872 34.375 68.75 34.375C69.6128 34.375 70.3125 35.0747 70.3125 35.9375V45.3125C70.3125 46.1753 69.6128 46.875 68.75 46.875Z" fill="#FF7141"/>
</g>
<circle cx="50" cy="50" r="48.5" stroke="#44403C" stroke-width="3"/>
<defs>
<clipPath id="clip0_1_14468">
<rect width="50" height="50" fill="white" transform="translate(25 25)"/>
</clipPath>
</defs>
</svg>
