<svg width="360" height="300" viewBox="0 0 360 300" fill="none" xmlns="http://www.w3.org/2000/svg">
<g clip-path="url(#clip0_1_14272)">
<path d="M180 240C246.274 240 300 186.274 300 120C300 53.7258 246.274 0 180 0C113.726 0 60 53.7258 60 120C60 186.274 113.726 240 180 240Z" fill="#003299"/>
<path d="M108.073 103.5H220.295L215.722 114.5H103.5L108.073 103.5ZM108.073 125.5H211.15L206.577 136.5H103.5L108.073 125.5ZM228.132 84.6467C220.877 76.0003 211.138 69.7954 200.235 66.8741C189.333 63.9528 177.795 64.4565 167.189 68.3169C156.583 72.1773 147.421 79.2075 140.947 88.4533C134.473 97.6992 131 108.713 131 120C131 131.287 134.473 142.301 140.947 151.547C147.421 160.793 156.583 167.823 167.189 171.683C177.795 175.544 189.333 176.047 200.235 173.126C211.138 170.205 220.877 164 228.132 155.353V170.802C218.28 178.973 206.265 184.103 193.55 185.567C180.834 187.031 167.968 184.766 156.516 179.048C145.065 173.331 135.524 164.407 129.053 153.363C122.583 142.319 119.464 129.633 120.075 116.848C120.687 104.063 125.002 91.732 132.496 81.3561C139.991 70.9801 150.34 63.0071 162.285 58.408C174.229 53.8089 187.253 52.7821 199.771 55.4527C212.289 58.1232 223.76 64.376 232.787 73.4494L228.132 84.6467Z" fill="#FFF315"/>
<path d="M179.999 12L187.052 33.7082L168.586 20.2918H191.411L172.945 33.7082L179.999 12Z" fill="#FFF315"/>
<path d="M179.999 12L187.052 33.7082L177.819 27L168.586 20.2918H191.411L172.945 33.7082L179.999 12Z" fill="#FFF315"/>
<path d="M234.001 26.469L229.255 48.7956L219.971 27.9436L239.739 39.3563L217.038 41.7422L234.001 26.469Z" fill="#FFF315"/>
<path d="M273.531 65.9999L258.257 82.9624L260.643 60.2621L272.056 80.0294L251.204 70.7455L273.531 65.9999Z" fill="#FFF315"/>
<path d="M288 120L266.292 127.053L279.708 108.587V131.412L266.292 112.946L288 120Z" fill="#FFF315"/>
<path d="M273.532 174L251.205 169.254L272.057 159.97L260.645 179.738L258.259 157.037L273.532 174Z" fill="#FFF315"/>
<path d="M233.999 213.531L217.037 198.257L239.737 200.643L219.97 212.056L229.253 191.204L233.999 213.531Z" fill="#FFF315"/>
<path d="M125.999 26.469L130.745 48.7956L140.029 27.9436L120.261 39.3563L142.962 41.7422L125.999 26.469Z" fill="#FFF315"/>
<path d="M86.4694 65.9999L101.743 82.9624L99.3567 60.2621L87.944 80.0294L108.796 70.7455L86.4694 65.9999Z" fill="#FFF315"/>
<path d="M72 120L93.7082 127.053L80.2918 108.587V131.412L93.7082 112.946L72 120Z" fill="#FFF315"/>
<path d="M86.4681 174L108.795 169.254L87.9426 159.97L99.3553 179.738L101.741 157.037L86.4681 174Z" fill="#FFF315"/>
<path d="M126.001 213.531L142.963 198.257L120.263 200.643L140.03 212.056L130.747 191.204L126.001 213.531Z" fill="#FFF315"/>
<path d="M0 114H48.1364C47.3255 131.821 50.1355 149.622 56.3965 166.327C62.6575 183.032 72.2396 198.294 84.5642 211.192C96.8887 224.09 111.7 234.356 128.103 241.37C144.506 248.384 162.16 252 180 252C197.84 252 215.494 248.384 231.897 241.37C248.3 234.356 263.111 224.09 275.436 211.192C287.76 198.294 297.342 183.032 303.604 166.327C309.865 149.622 312.674 131.821 311.864 114H360V300H0V114Z" fill="#003299"/>
</g>
<defs>
<clipPath id="clip0_1_14272">
<rect width="360" height="300" fill="white"/>
</clipPath>
</defs>
</svg>
