<svg width="100" height="100" viewBox="0 0 100 100" fill="none" xmlns="http://www.w3.org/2000/svg">
<mask id="mask0_1_14526" style="mask-type:alpha" maskUnits="userSpaceOnUse" x="0" y="0" width="100" height="100">
<circle cx="50" cy="50" r="50" fill="white"/>
</mask>
<g mask="url(#mask0_1_14526)">
<path d="M99.7232 45.8153C99.7232 75.7407 75.4569 100 45.5228 100C29.6389 100 15.3509 93.1695 5.4375 82.2862C53.8604 82.2862 87.4102 69.7816 87.4124 11.4287C95.1049 20.7834 99.7232 32.7601 99.7232 45.8153Z" fill="#F5F5F5"/>
<path d="M72.5689 25.2306C72.3378 25.0899 72.0745 25.0109 71.8042 25.001C71.5339 24.9912 71.2656 25.0508 71.0249 25.1743L64.424 28.631C64.1725 28.7597 63.961 28.9547 63.8123 29.1948C63.6635 29.435 63.5833 29.7112 63.5801 29.9937L63.5239 35.1132L60.9298 36.4696C59.3306 33.7174 57.1233 31.3673 54.4766 29.5989C51.8299 27.8306 48.8139 26.6908 45.6592 26.2668C42.5045 25.8427 39.2946 26.1456 36.2749 27.1523C33.2552 28.1591 30.5056 29.8429 28.2365 32.0752C25.9673 34.3074 24.2386 37.029 23.1826 40.0318C22.1265 43.0346 21.771 46.2391 22.1433 49.4003C22.5156 52.5616 23.6057 55.5958 25.3305 58.2712C27.0552 60.9465 29.3688 63.192 32.0945 64.8361L27.2376 72.5997C27.0189 72.9522 26.9487 73.377 27.0424 73.7812C27.1361 74.1853 27.3861 74.5359 27.7376 74.7562C27.9115 74.8652 28.1051 74.9387 28.3075 74.9725C28.5099 75.0064 28.7169 74.9999 28.9168 74.9534C29.1166 74.9069 29.3053 74.8214 29.472 74.7017C29.6386 74.5821 29.78 74.4306 29.8879 74.2561L34.8886 66.2488C37.6573 67.3967 40.6407 67.935 43.636 67.8272C46.6314 67.7193 49.5683 66.9678 52.2473 65.6237L58.8045 74.3749C59.0531 74.7065 59.4233 74.9257 59.8336 74.9843C60.2439 75.0429 60.6607 74.9361 60.9923 74.6874C61.3238 74.4388 61.543 74.0686 61.6016 73.6583C61.6603 73.248 61.5535 72.8312 61.3048 72.4996L54.9352 63.9922C57.6562 62.0592 59.8765 59.5047 61.4116 56.541C62.9468 53.5773 63.7523 50.29 63.7614 46.9523C63.7643 44.3261 63.2679 41.7233 62.2987 39.2825L64.9741 37.8823L69.2059 40.7577C69.4647 40.9316 69.7692 41.0251 70.081 41.0265C70.3339 41.0259 70.5827 40.9637 70.8061 40.8452L77.4133 37.3947C77.6535 37.2703 77.8571 37.0855 78.004 36.8584C78.151 36.6313 78.2362 36.3699 78.2514 36.0998C78.2665 35.8298 78.211 35.5605 78.0904 35.3184C77.9697 35.0763 77.7881 34.8699 77.5633 34.7194L73.2502 31.794L73.3065 26.5807C73.3104 26.3112 73.2446 26.0452 73.1153 25.8086C72.9861 25.572 72.7978 25.3729 72.5689 25.2306ZM60.636 46.9523C60.636 51.6622 58.765 56.1792 55.4346 59.5096C52.1041 62.84 47.5871 64.7111 42.8772 64.7111C40.5447 64.7127 38.2346 64.2545 36.0793 63.3626C33.924 62.4707 31.9656 61.1627 30.3163 59.5133C28.6669 57.8639 27.3588 55.9056 26.467 53.7502C25.5751 51.5949 25.1169 49.2849 25.1185 46.9523C25.1196 43.0598 26.3996 39.2754 28.7616 36.1814C31.1237 33.0873 34.4368 30.8551 38.1914 29.828C41.9461 28.8009 45.9341 29.0359 49.5422 30.4968C53.1502 31.9577 56.1783 34.5636 58.1606 37.9136L55.7665 39.1637C54.562 37.1574 52.9063 35.4595 50.9311 34.2046C48.9558 32.9498 46.7153 32.1725 44.3873 31.9346C42.0592 31.6967 39.7078 32.0046 37.5195 32.834C35.3313 33.6634 33.3664 34.9913 31.7809 36.7125C30.1954 38.4337 29.0329 40.5007 28.3856 42.7496C27.7382 44.9984 27.624 47.3672 28.0518 49.6679C28.4796 51.9686 29.4378 54.1379 30.8502 56.0038C32.2627 57.8696 34.0905 59.3805 36.1888 60.4167C38.4322 61.5306 40.9182 62.0666 43.4213 61.976C45.9243 61.8854 48.3651 61.171 50.522 59.8979C53.5157 58.1326 55.8062 55.3858 57.0048 52.1237C58.2035 48.8616 58.2364 45.2852 57.098 42.0016L59.5108 40.7515C60.2549 42.7342 60.636 44.8346 60.636 46.9523ZM41.4958 48.39C41.6262 48.6436 41.8244 48.8561 42.0682 49.0039C42.3121 49.1518 42.5921 49.2292 42.8772 49.2276C43.1294 49.2277 43.378 49.1677 43.6023 49.0526L46.9966 47.2649V47.6649C46.9983 48.6154 46.6752 49.5379 46.0808 50.2796C45.4865 51.0213 44.6566 51.5377 43.7286 51.7431C42.8006 51.9486 41.8303 51.8309 40.9784 51.4094C40.1265 50.988 39.4442 50.2881 39.0445 49.4258C38.6448 48.5634 38.5517 47.5904 38.7807 46.668C39.0097 45.7455 39.547 44.929 40.3035 44.3537C41.0601 43.7783 41.9905 43.4788 42.9406 43.5046C43.8907 43.5305 44.8034 43.8802 45.5276 44.4957L42.1084 46.2835C41.7501 46.4838 41.4849 46.817 41.3703 47.2112C41.2557 47.6054 41.3008 48.0288 41.4958 48.39ZM42.8772 40.3764C41.4357 40.3764 40.0265 40.8039 38.8279 41.6047C37.6294 42.4056 36.6952 43.5439 36.1435 44.8757C35.5919 46.2075 35.4475 47.673 35.7288 49.0868C36.01 50.5007 36.7042 51.7994 37.7235 52.8187C38.7428 53.838 40.0415 54.5322 41.4553 54.8134C42.8691 55.0946 44.3346 54.9503 45.6664 54.3986C46.9982 53.847 48.1365 52.9128 48.9374 51.7142C49.7383 50.5156 50.1658 49.1065 50.1658 47.6649C50.1644 47.0205 50.0761 46.3792 49.9032 45.7584L54.2788 43.4643C54.8238 45.2475 54.9434 47.1336 54.6279 48.9713C54.3125 50.809 53.5707 52.5473 52.4622 54.0466C51.3536 55.5459 49.9092 56.7645 48.2447 57.6048C46.5801 58.4451 44.7418 58.8837 42.8772 58.8852C41.0388 58.8891 39.2253 58.4608 37.5827 57.6351C35.9292 56.8182 34.4876 55.6289 33.3713 54.1607C32.255 52.6926 31.4944 50.9855 31.1493 49.1738C30.8042 47.362 30.884 45.4949 31.3824 43.7192C31.8808 41.9435 32.7842 40.3075 34.0217 38.9399C35.2591 37.5723 36.7969 36.5104 38.5141 35.8375C40.2313 35.1646 42.0812 34.8992 43.9184 35.062C45.7555 35.2249 47.5298 35.8115 49.1019 36.776C50.674 37.7404 52.001 39.0563 52.9786 40.6202L48.4593 42.983C47.7761 42.1667 46.9222 41.5102 45.9577 41.0598C44.9933 40.6094 43.9417 40.3761 42.8772 40.3764ZM70.156 29.1561V31.6564L66.6931 33.4629V30.9626L70.156 29.1561ZM70.156 37.6448L68.1183 36.2446L71.575 34.4381L73.6503 35.8445L70.156 37.6448Z" fill="#FF7141"/>
</g>
<circle cx="50" cy="50" r="48.5" stroke="#44403C" stroke-width="3"/>
</svg>
