<svg width="100" height="100" viewBox="0 0 100 100" fill="none" xmlns="http://www.w3.org/2000/svg">
<mask id="mask0_1_14453" style="mask-type:alpha" maskUnits="userSpaceOnUse" x="0" y="0" width="100" height="100">
<circle cx="50" cy="50" r="50" fill="white"/>
</mask>
<g mask="url(#mask0_1_14453)">
<path d="M99.7232 45.8153C99.7232 75.7407 75.4569 100 45.5228 100C29.6389 100 15.3509 93.1695 5.4375 82.2862C53.8604 82.2862 87.4102 69.7816 87.4124 11.4287C95.1049 20.7834 99.7232 32.7601 99.7232 45.8153Z" fill="#F5F5F5"/>
</g>
<g clip-path="url(#clip0_1_14453)">
<path d="M50 75.0001C49.7764 75.0001 49.553 74.952 49.3455 74.8566L44.6656 72.6968C34.6177 68.0588 28.125 57.9118 28.125 46.8454V31.2501C28.125 30.4559 28.7208 29.7876 29.5105 29.6974C32.5966 29.3449 35.698 28.8284 38.7267 28.1616C42.3584 27.3621 45.9755 26.3284 49.4789 25.0893C49.8161 24.9702 50.1839 24.9702 50.5211 25.0893C54.0245 26.3284 57.6416 27.3621 61.2731 28.1616C64.302 28.8285 67.4033 29.3449 70.4894 29.6974C71.2791 29.7874 71.8748 30.4559 71.8748 31.2501V46.8454C71.8748 57.9118 65.3822 68.059 55.3344 72.6968L50.6545 74.8566C50.447 74.952 50.2234 75.0001 50 75.0001ZM31.25 32.634V46.8454C31.25 56.6973 37.03 65.7304 45.9747 69.8587L50 71.7165L54.0253 69.8587C62.97 65.7304 68.75 56.6973 68.75 46.8454V32.634C66.0164 32.2799 63.282 31.8032 60.6019 31.2134C57.0252 30.426 53.4608 29.419 50 28.218C46.5394 29.419 42.9748 30.426 39.3981 31.2134C36.718 31.803 33.9836 32.2799 31.25 32.634Z" fill="#FF7141"/>
<path d="M56.25 60.9375H43.75C42.0266 60.9375 40.625 59.5359 40.625 57.8125V46.875C40.625 45.1516 42.0266 43.75 43.75 43.75H56.25C57.9734 43.75 59.375 45.1516 59.375 46.875V57.8125C59.375 59.5359 57.9734 60.9375 56.25 60.9375ZM43.75 46.875V57.8125H56.2523L56.25 46.875H43.75Z" fill="#FF7141"/>
<path d="M54.6875 46.875H45.3125C44.4497 46.875 43.75 46.1753 43.75 45.3125V42.1875C43.75 38.7413 46.5538 35.9375 50 35.9375C53.4462 35.9375 56.25 38.7413 56.25 42.1875V45.3125C56.25 46.1753 55.5503 46.875 54.6875 46.875ZM46.875 43.75H53.125V42.1875C53.125 40.4641 51.7234 39.0625 50 39.0625C48.2766 39.0625 46.875 40.4641 46.875 42.1875V43.75Z" fill="#FF7141"/>
</g>
<circle cx="50" cy="50" r="48.5" stroke="#44403C" stroke-width="3"/>
<defs>
<clipPath id="clip0_1_14453">
<rect width="50" height="50" fill="white" transform="translate(25 25)"/>
</clipPath>
</defs>
</svg>
