<svg width="100" height="100" viewBox="0 0 100 100" fill="none" xmlns="http://www.w3.org/2000/svg">
<mask id="mask0_1_10886" style="mask-type:alpha" maskUnits="userSpaceOnUse" x="0" y="0" width="100" height="100">
<circle cx="50" cy="50" r="50" fill="white"/>
</mask>
<g mask="url(#mask0_1_10886)">
<path d="M99.7232 45.8153C99.7232 75.7407 75.4569 100 45.5228 100C29.6389 100 15.3509 93.1695 5.4375 82.2862C53.8604 82.2862 87.4102 69.7816 87.4124 11.4287C95.1049 20.7834 99.7232 32.7601 99.7232 45.8153Z" fill="#F5F5F5"/>
</g>
<circle cx="50" cy="50" r="48.5" stroke="#44403C" stroke-width="3"/>
<path d="M25 72.7273C25 73.9824 26.0165 75 27.2727 75C28.5289 75 29.5455 73.9824 29.5455 72.7273C29.5455 64.7073 34.1625 57.6071 41.3592 54.2494C43.8499 55.868 46.8129 56.8182 49.9978 56.8182C53.1948 56.8182 56.1691 55.8616 58.6656 54.2317C60.814 55.2458 62.805 56.6104 64.462 58.2664C68.3261 62.1316 70.4545 67.2674 70.4545 72.7273C70.4545 73.9824 71.4711 75 72.7273 75C73.9835 75 75 73.9824 75 72.7273C75 66.0534 72.3988 59.7767 67.6758 55.0526C66.0954 53.4714 64.2586 52.1156 62.288 50.9978C64.5476 48.2502 65.9069 44.7357 65.9069 40.9091C65.9069 32.1367 58.7691 25 49.9978 25C41.2265 25 34.0887 32.1367 34.0887 40.9091C34.0887 44.7264 35.4424 48.2323 37.692 50.977C29.8902 55.3696 25 63.5769 25 72.7273ZM49.9978 29.5455C56.2633 29.5455 61.3614 34.6436 61.3614 40.9091C61.3614 47.1746 56.2633 52.2727 49.9978 52.2727C43.7322 52.2727 38.6341 47.1746 38.6341 40.9091C38.6341 34.6436 43.7322 29.5455 49.9978 29.5455Z" fill="#FF7141"/>
</svg>
