<svg width="100" height="100" viewBox="0 0 100 100" fill="none" xmlns="http://www.w3.org/2000/svg">
<mask id="mask0_1_10912" style="mask-type:alpha" maskUnits="userSpaceOnUse" x="0" y="0" width="100" height="100">
<circle cx="50" cy="50" r="50" fill="white"/>
</mask>
<g mask="url(#mask0_1_10912)">
<path d="M99.7232 45.8153C99.7232 75.7407 75.4569 100 45.5228 100C29.6389 100 15.3509 93.1695 5.4375 82.2862C53.8604 82.2862 87.4102 69.7816 87.4124 11.4287C95.1049 20.7834 99.7232 32.7601 99.7232 45.8153Z" fill="#F5F5F5"/>
</g>
<circle cx="50" cy="50" r="48.5" stroke="#44403C" stroke-width="3"/>
<path d="M73.0824 48.0739H59.6193C55.3996 48.0739 51.9261 51.5474 51.9261 55.7671C51.9261 59.9868 55.3996 63.4603 59.6193 63.4603H67.3125V69.2301C67.3125 70.286 66.4451 71.1534 65.3892 71.1534H34.6165C31.4507 71.1534 28.8466 68.5493 28.8466 65.3836V36.5341C28.8466 33.3684 31.4507 30.7643 34.6165 30.7643H38.4631C39.519 30.7643 40.3864 29.8968 40.3864 28.841C40.3864 27.7851 39.519 26.9177 38.4631 26.9177H34.6165C29.3409 26.9177 25 31.2585 25 36.5341V65.3836C25 70.6592 29.3409 75 34.6165 75H65.3892C68.5549 75 71.1591 72.3959 71.1591 69.2301V63.4603H73.0824C74.1383 63.4603 75.0057 62.5929 75.0057 61.537V49.9972C75.0057 48.9413 74.1383 48.0739 73.0824 48.0739ZM71.1591 59.6137H59.6193C57.5094 59.6137 55.7727 57.8769 55.7727 55.7671C55.7727 53.6572 57.5094 51.9205 59.6193 51.9205H71.1591V59.6137Z" fill="#FF7141"/>
<path d="M33.9251 34.7454C31.7787 35.6821 32.4884 38.4574 34.6175 38.4574H65.3902C66.4461 38.4574 67.3135 39.3248 67.3135 40.3807V42.304C67.3135 43.3599 68.1809 44.2273 69.2368 44.2273C70.2926 44.2273 71.1601 43.3599 71.1601 42.304V40.3807C71.1581 38.8517 70.5504 37.3842 69.4676 36.3033C68.3867 35.2205 66.9192 34.6127 65.3902 34.6108H64.7747L61.4089 26.206C61.0185 25.2348 59.903 24.7501 58.9279 25.129L33.9251 34.7454ZM60.6204 34.6108H44.984L58.5432 29.3987L60.6204 34.6108Z" fill="#FF7141"/>
</svg>
